<svg width="109" height="106" viewBox="0 0 109 106" fill="none" xmlns="http://www.w3.org/2000/svg">
<g id="Group 56">
<g id="Vector">
<path d="M71.7655 101.448C63.3137 101.448 55.2082 98.0901 49.2319 92.1138C43.2556 86.1376 39.8982 78.032 39.8982 69.5803C39.8982 61.1285 43.2556 53.023 49.2319 47.0467C55.2082 41.0704 63.3137 37.713 71.7655 37.713C80.2172 37.713 88.3228 41.0704 94.299 47.0467C100.275 53.023 103.633 61.1285 103.633 69.5803C103.633 78.032 100.275 86.1376 94.299 92.1138C88.3228 98.0901 80.2172 101.448 71.7655 101.448ZM71.7655 106C81.4246 106 90.6881 102.163 97.5181 95.3329C104.348 88.5029 108.185 79.2394 108.185 69.5803C108.185 59.9212 104.348 50.6576 97.5181 43.8276C90.6881 36.9976 81.4246 33.1605 71.7655 33.1605C62.1063 33.1605 52.8428 36.9976 46.0128 43.8276C39.1828 50.6576 35.3457 59.9212 35.3457 69.5803C35.3457 79.2394 39.1828 88.5029 46.0128 95.3329C52.8428 102.163 62.1063 106 71.7655 106Z" fill="#EA580C"/>
<path d="M85.2863 55.7863L85.1952 55.8864L69.3845 76.0311L59.8562 66.4983C59.209 65.8951 58.3529 65.5668 57.4683 65.5824C56.5838 65.598 55.7398 65.9564 55.1142 66.5819C54.4887 67.2075 54.1303 68.0514 54.1147 68.936C54.0991 69.8205 54.4275 70.6766 55.0306 71.3239L67.0764 83.3743C67.4009 83.6982 67.7873 83.9534 68.2126 84.1247C68.6379 84.2961 69.0934 84.38 69.5518 84.3715C70.0102 84.363 70.4622 84.2623 70.8809 84.0753C71.2995 83.8883 71.6762 83.6189 71.9885 83.2832L90.162 60.5664C90.7808 59.9169 91.1191 59.0499 91.1039 58.153C91.0886 57.256 90.7209 56.4011 90.0803 55.7731C89.4397 55.145 88.5777 54.7943 87.6806 54.7968C86.7835 54.7993 85.9234 55.1547 85.2863 55.7863Z" fill="#EA580C"/>
<path d="M42.3367 1.77419L60.6438 0L60.2634 29.4427L48.3637 30.596L42.3367 1.77419Z" fill="#EA580C"/>
<path d="M12.2308 21.5791L26.0211 9.40836L42.9751 33.4828L34.0114 41.3938L12.2308 21.5791Z" fill="#EA580C"/>
<path d="M0 56.6722L3.27469 38.5731L31.5027 46.9515L29.3742 58.7159L0 56.6722Z" fill="#EA580C"/>
</g>
</g>
</svg>
