<svg width="73" height="73" viewBox="0 0 73 73" fill="none" xmlns="http://www.w3.org/2000/svg">
<g id="CheckCircle" clip-path="url(#clip0_864_5402)">
<path id="Vector" d="M36.4198 68.4476C27.968 68.4476 19.8625 65.0901 13.8862 59.1138C7.90991 53.1376 4.55247 45.032 4.55247 36.5803C4.55247 28.1285 7.90991 20.023 13.8862 14.0467C19.8625 8.07043 27.968 4.71299 36.4198 4.71299C44.8715 4.71299 52.9771 8.07043 58.9533 14.0467C64.9296 20.023 68.287 28.1285 68.287 36.5803C68.287 45.032 64.9296 53.1376 58.9533 59.1138C52.9771 65.0901 44.8715 68.4476 36.4198 68.4476ZM36.4198 73C46.0789 73 55.3424 69.163 62.1724 62.3329C69.0024 55.5029 72.8395 46.2394 72.8395 36.5803C72.8395 26.9212 69.0024 17.6576 62.1724 10.8276C55.3424 3.99759 46.0789 0.160522 36.4198 0.160522C26.7606 0.160522 17.4971 3.99759 10.6671 10.8276C3.83707 17.6576 0 26.9212 0 36.5803C0 46.2394 3.83707 55.5029 10.6671 62.3329C17.4971 69.163 26.7606 73 36.4198 73Z" fill="#EA580C"/>
<path id="Vector_2" d="M49.9406 22.7862L49.8496 22.8864L34.0389 43.0311L24.5105 33.4982C23.8633 32.8951 23.0072 32.5667 22.1227 32.5824C21.2381 32.598 20.3942 32.9563 19.7686 33.5819C19.143 34.2074 18.7847 35.0514 18.7691 35.9359C18.7535 36.8205 19.0818 37.6766 19.6849 38.3238L31.7308 50.3742C32.0553 50.6981 32.4417 50.9534 32.867 51.1247C33.2923 51.296 33.7477 51.3799 34.2061 51.3715C34.6646 51.363 35.1166 51.2622 35.5352 51.0752C35.9539 50.8883 36.3306 50.6189 36.6429 50.2831L54.8163 27.5663C55.4352 26.9168 55.7735 26.0499 55.7582 25.1529C55.7429 24.256 55.3752 23.401 54.7346 22.773C54.094 22.145 53.232 21.7943 52.3349 21.7968C51.4378 21.7992 50.5778 22.1547 49.9406 22.7862Z" fill="#EA580C"/>
</g>
<defs>
<clipPath id="clip0_864_5402">
<rect width="72.8395" height="72.8395" fill="white" transform="translate(0 0.160522)"/>
</clipPath>
</defs>
</svg>
