<svg width="88" height="88" viewBox="0 0 88 88" fill="none" xmlns="http://www.w3.org/2000/svg">
<g id="Tags">
<path id="Vector" d="M16.5 11V36.223L55 74.723L80.223 49.5L41.723 11H16.5ZM11 11C11 9.54131 11.5795 8.14236 12.6109 7.11091C13.6424 6.07946 15.0413 5.5 16.5 5.5H41.723C43.1816 5.50031 44.5803 6.07998 45.6115 7.1115L84.1115 45.6115C85.1426 46.6429 85.7218 48.0416 85.7218 49.5C85.7218 50.9584 85.1426 52.3571 84.1115 53.3885L58.8885 78.6115C57.8571 79.6426 56.4584 80.2218 55 80.2218C53.5416 80.2218 52.1429 79.6426 51.1115 78.6115L12.6115 40.1115C11.58 39.0803 11.0003 37.6816 11 36.223V11Z" fill="#EA580C"/>
<path id="Vector_2" d="M30.25 27.5C29.5207 27.5 28.8212 27.2103 28.3055 26.6945C27.7897 26.1788 27.5 25.4793 27.5 24.75C27.5 24.0207 27.7897 23.3212 28.3055 22.8055C28.8212 22.2897 29.5207 22 30.25 22C30.9793 22 31.6788 22.2897 32.1945 22.8055C32.7103 23.3212 33 24.0207 33 24.75C33 25.4793 32.7103 26.1788 32.1945 26.6945C31.6788 27.2103 30.9793 27.5 30.25 27.5ZM30.25 33C32.438 33 34.5365 32.1308 36.0836 30.5836C37.6308 29.0365 38.5 26.938 38.5 24.75C38.5 22.562 37.6308 20.4635 36.0836 18.9164C34.5365 17.3692 32.438 16.5 30.25 16.5C28.062 16.5 25.9635 17.3692 24.4164 18.9164C22.8692 20.4635 22 22.562 22 24.75C22 26.938 22.8692 29.0365 24.4164 30.5836C25.9635 32.1308 28.062 33 30.25 33ZM5.5 38.973C5.50031 40.4316 6.07998 41.8303 7.1115 42.8615L48.125 83.875L47.8885 84.1115C46.8571 85.1426 45.4584 85.7218 44 85.7218C42.5416 85.7218 41.1429 85.1426 40.1115 84.1115L1.6115 45.6115C0.579979 44.5803 0.000311506 43.1816 0 41.723L0 16.5C0 15.0413 0.579463 13.6424 1.61091 12.6109C2.64236 11.5795 4.04131 11 5.5 11V38.973Z" fill="#EA580C"/>
</g>
</svg>
