<svg width="250" height="250" viewBox="0 0 250 250" fill="none" xmlns="http://www.w3.org/2000/svg">
<g id="an-achievement-badge-for-whom-awarded-by-achieving" style="mix-blend-mode:luminosity" clip-path="url(#clip0_1037_20918)">
<path id="Vector" d="M0 0H250V250H0V0Z" fill="#BADBF2"/>
<path id="Vector_2" d="M202.949 191.349L203.613 191.288C203.801 191.164 203.934 191.042 204.064 190.861C204.385 190.415 204.537 189.782 204.422 189.243C204.18 188.114 203.187 187.474 202.268 186.914L199.137 185.242L204.194 181.543C205.878 183.135 207.546 184.314 209.588 185.409C210.746 186.03 212.207 186.759 213.542 186.299C214.208 186.069 214.808 185.494 215.092 184.854C215.378 184.209 215.402 183.323 215.082 182.678C214.802 182.114 214.192 181.612 213.684 181.251C211.999 180.056 209.999 179.427 208.044 178.826L213.445 174.239C214.944 175.497 216.707 176.465 218.508 177.226C219.642 177.706 221.163 178.275 222.365 177.736C222.989 177.457 223.583 176.862 223.795 176.207C223.996 175.587 223.905 174.714 223.563 174.153C222.427 172.287 218.66 171.522 216.67 171.059L221.234 166.119C224.292 168.082 227.706 168.771 231.289 168.736C230.654 171.396 231.244 173.868 231.559 176.514C231.912 179.475 231.792 182.286 230.232 184.909L233.875 183.307C234.625 182.97 235.509 182.654 236.127 182.103C236.371 181.245 236.474 180.442 236.491 179.552L236.396 179.495C235.735 179.074 235.356 178.431 235.187 177.677C235.038 177.017 235.059 176.21 235.454 175.634C235.856 175.047 236.484 174.66 237.192 174.58C237.738 174.519 238.341 174.751 238.748 175.11C239.327 175.62 239.402 176.32 239.412 177.043C239.43 178.407 239.203 179.722 238.861 181.039C240.292 180.094 241.881 178.289 243.777 178.755C244.453 178.922 244.912 179.321 245.237 179.929C245.552 180.522 245.54 181.169 245.332 181.795C245.11 182.461 244.641 183.029 243.995 183.323C243.23 183.67 242.048 183.657 241.272 183.337L240.563 182.941L237.505 185.217C238.842 185.751 240.522 186.454 241.16 187.848C241.455 188.491 241.484 189.268 241.215 189.925C240.993 190.468 240.463 190.985 239.914 191.193C239.326 191.417 238.764 191.442 238.202 191.148C237.52 190.792 237.147 190.069 236.963 189.345C236.79 188.658 237.223 187.789 237.573 187.224C237.023 187.131 236.467 187.04 235.934 186.872C235.635 186.778 234.778 186.299 234.53 186.329C234.283 186.36 233.863 186.607 233.625 186.708C231.798 187.476 230.217 188.476 228.473 189.396C230.582 189.905 233.67 190.634 234.843 192.65C235.177 193.225 235.323 193.783 235.12 194.43C234.956 194.953 234.597 195.407 234.092 195.631C233.47 195.906 232.987 195.96 232.35 195.685C231.207 195.191 231.169 193.938 230.374 193.168C230.012 192.818 229.481 192.653 229.025 192.464C227.817 191.964 226.681 191.564 225.403 191.273C224.352 192.386 223.77 193.722 222.931 194.983C224.173 195.404 227.164 196.088 227.803 197.242C228.01 197.614 227.987 198.372 227.845 198.771C227.734 199.083 227.547 199.383 227.384 199.671C226.866 199.7 226.385 199.646 225.873 199.584L221.079 199.651L219.205 199.641L214.247 199.68L208.701 199.745C209.9 198.627 211.174 197.585 212.494 196.614L215.328 194.715C215.908 194.336 216.608 193.941 217.021 193.378L212.742 192.709L208.673 192.067L207.258 191.886L202.949 191.349Z" fill="url(#paint0_linear_1037_20918)"/>
<path id="Vector_3" d="M221.079 199.651L222.046 197.004C222.818 197.594 223.589 198.213 224.409 198.734C224.855 199.017 225.483 199.25 225.873 199.584L221.079 199.651Z" fill="#FDFDFD"/>
<path id="Vector_4" d="M217.754 187.976C218.185 186.591 218.602 184.291 219.543 183.207C220.063 182.609 220.553 182.357 221.348 182.335C221.884 182.32 222.444 182.473 222.83 182.863L223.129 183.228L223.23 183.34C223.615 183.792 223.614 184.456 223.56 185.022C223.386 186.852 220.93 192.643 221.157 193.603C220.974 193.811 220.947 193.853 220.704 193.97L220.459 194.16C219.782 194.682 218.985 194.853 218.32 195.398L218.257 195.432C218.917 195.73 219.541 195.985 220.242 196.167L219.205 199.641L214.247 199.68L208.701 199.745C209.9 198.627 211.174 197.585 212.494 196.614L215.328 194.715C215.908 194.336 216.608 193.941 217.021 193.378L212.742 192.709L208.673 192.067L207.258 191.885L207.278 191.772C207.49 191.05 208.62 190.455 209.249 190.099C209.419 189.499 209.833 188.878 210.382 188.562C210.933 188.244 211.813 188.061 212.424 188.287C213.191 188.57 213.617 189.147 213.989 189.842C215.009 189.279 216.623 187.824 217.754 187.976Z" fill="#EA580C"/>
<path id="Vector_5" d="M214.247 199.68C214.959 198.582 217.101 195.793 218.257 195.432C218.917 195.73 219.541 195.985 220.242 196.167L219.205 199.641L214.247 199.68Z" fill="#FDFDFD"/>
<path id="Vector_6" d="M225.873 199.584C226.385 199.646 226.866 199.7 227.384 199.671L231.735 199.573L221.987 210.567L231.915 222.056L204.488 222.009L204.018 222.081C203.903 222.782 203.964 223.543 203.968 224.254L203.99 227.794L177.524 230.874C179.343 228.912 181.477 227.153 183.397 225.277L197.977 210.999L201.584 207.466C202.318 206.741 203.201 205.963 203.733 205.076L203.46 204.8C202.276 204.763 200.94 204.639 199.771 204.811C198.535 204.82 197.461 205.012 196.294 205.413L196.199 199.634L197.36 199.704L208.701 199.745L214.247 199.68L219.205 199.641L221.079 199.651L225.873 199.584Z" fill="#0284C7"/>
<path id="Vector_7" d="M196.294 205.413L196.199 199.634L197.36 199.704L203.46 204.8C202.276 204.763 200.94 204.639 199.771 204.811C198.535 204.82 197.461 205.012 196.294 205.413Z" fill="#063961"/>
<path id="Vector_8" d="M20.1944 199.712L21.1441 199.716C24.38 199.943 27.673 199.835 30.9184 199.843L46.8766 199.874L52.3454 199.857C52.8676 199.854 53.9103 199.73 54.3471 199.947C54.5119 200.713 54.4254 201.581 54.4218 202.364L54.3932 207.036C53.6098 206.825 52.7526 206.902 51.9481 206.905C51.3039 206.907 50.5832 206.845 49.9486 206.954L58.485 214.947L69.3815 225.319L73.5194 229.191C74.0902 229.73 74.9796 230.398 75.3422 231.089C74.6608 231.268 73.3666 230.938 72.6476 230.836L66.7558 230.012L46.8354 227.367L46.8524 222.011L44.4611 222.006L18.0684 221.969C18.3027 221.496 18.8138 221.042 19.1671 220.645L21.4957 218.036L28.0463 210.587C27.1347 209.306 25.9425 208.117 24.9018 206.936L18.3418 199.707L20.1944 199.712Z" fill="#0284C7"/>
<path id="Vector_9" d="M54.3472 199.947C54.512 200.713 54.4255 201.581 54.4219 202.364L54.3933 207.036C53.6099 206.825 52.7527 206.902 51.9482 206.905C51.304 206.907 50.5833 206.845 49.9487 206.954C49.1169 207.173 47.7656 207.002 46.875 207.013L46.7971 206.806C47.491 205.997 48.4739 205.295 49.2856 204.597L52.6121 201.627C53.1787 201.121 53.9431 200.584 54.3472 199.947Z" fill="#063961"/>
<path id="Vector_10" d="M203.46 204.8L203.733 205.076C203.201 205.963 202.318 206.741 201.584 207.466L197.977 210.999L183.397 225.277C181.477 227.153 179.343 228.912 177.524 230.874C176.774 231.011 174.226 231.518 173.602 231.196L168.222 226.871L156.397 232.306C135.58 239.796 112.503 239.289 91.842 231.573C88.1047 230.177 84.7131 228.339 81.123 226.649C80.3916 226.968 79.5972 227.85 78.9731 228.369L75.6255 231.14L75.3423 231.089C74.9797 230.398 74.0903 229.73 73.5195 229.191L69.3816 225.319L58.4851 214.947L49.9487 206.954C50.5833 206.845 51.304 206.907 51.9482 206.905C52.7527 206.902 53.6099 206.825 54.3933 207.036L54.509 207.054C56.3503 207.316 58.4504 207.131 60.3188 207.115C60.7446 207.111 61.469 206.987 61.8518 207.088C62.1794 207.174 62.6296 207.581 62.9072 207.781L65.2805 209.482L74.7478 215.922C76.3862 217.032 78.1665 218.51 79.9614 219.326C82.4751 221.027 85.2114 222.358 87.9448 223.661C104.326 231.472 123.479 233.703 141.275 230.271C149.292 228.725 156.844 226.447 164.09 222.631C164.545 222.535 165.204 222.094 165.636 221.874C170.846 219.214 175.327 215.549 180.287 212.501C185.357 209.386 190.532 206.938 196.294 205.413C197.461 205.012 198.535 204.82 199.771 204.811C200.94 204.639 202.276 204.763 203.46 204.8Z" fill="#0369A1"/>
<path id="Vector_11" d="M227.327 124.032L227.463 123.967C229.098 123.139 230.655 121.78 232.13 120.682L240.564 114.29L241.648 122.422C242.759 131.831 243.435 141.447 241.414 150.783C240.673 154.202 239.621 157.621 237.411 160.396L233.11 165.174C232.343 166.3 231.74 167.448 231.289 168.736C227.706 168.771 224.292 168.082 221.234 166.119L216.67 171.059C218.66 171.522 222.427 172.287 223.563 174.153C223.905 174.714 223.996 175.587 223.795 176.207C223.583 176.862 222.989 177.457 222.365 177.736C221.163 178.275 219.642 177.706 218.508 177.226C216.707 176.465 214.944 175.497 213.445 174.239L208.044 178.826C209.999 179.427 211.999 180.056 213.684 181.251C214.192 181.612 214.802 182.114 215.082 182.678C215.402 183.323 215.378 184.209 215.092 184.854C214.808 185.494 214.208 186.069 213.542 186.299C212.207 186.759 210.746 186.03 209.588 185.409C207.546 184.314 205.878 183.135 204.194 181.543L199.137 185.242L202.268 186.914C203.187 187.474 204.18 188.114 204.422 189.243C204.537 189.782 204.385 190.415 204.064 190.861C203.934 191.042 203.801 191.164 203.613 191.288L202.949 191.349L197.185 190.652L190.535 189.957L187.714 189.795L187.705 191.909C187.564 191.593 187.612 191.03 187.561 190.666C186.945 190.5 186.399 190.419 185.765 190.377L185.666 190.171L185.623 189.479C185.28 187.429 185.149 185.295 184.949 183.225C184.857 182.264 184.847 181.001 184.502 180.12C184.117 179.135 183.307 178.204 182.627 177.406C183.607 177.401 184.79 177.073 185.746 176.838C186.297 176.611 186.844 176.36 187.422 176.212L187.852 176.094C188.841 175.704 189.924 174.84 190.776 174.211C193.567 172.155 195.674 169.893 197.852 167.221C200.609 163.837 202.973 160.2 204.754 156.206C206.012 157.699 206.097 159.691 207.052 161.289C207.24 160.981 207.335 160.637 207.448 160.296L209.564 153.573C211.099 153.279 212.766 152.865 214.181 152.188C216.471 151.093 218.596 149.01 220.204 147.082C222.013 144.911 224.023 141.641 223.739 138.702C226.498 136.217 227.832 132.888 228.846 129.386C225.833 129.248 223.125 129.453 220.209 130.318C220.628 129.627 221.348 129.066 221.946 128.527C223.678 126.969 225.64 125.617 227.327 124.032Z" fill="#EA580C"/>
<path id="Vector_12" d="M182.627 177.406C183.607 177.401 184.79 177.073 185.746 176.838C186.463 177.834 187.18 178.825 187.552 180.011C187.754 180.652 187.67 181.587 187.688 182.26L187.724 188.32L187.714 189.795L187.705 191.909C187.564 191.593 187.612 191.03 187.561 190.666C186.945 190.5 186.399 190.419 185.765 190.377L185.666 190.171L185.623 189.479C185.28 187.429 185.149 185.295 184.949 183.225C184.857 182.264 184.847 181.001 184.502 180.12C184.117 179.135 183.307 178.204 182.627 177.406Z" fill="#063961"/>
<path id="Vector_13" d="M15.8435 163.995C14.5555 162.629 13.0566 161.302 11.9333 159.808C10.4029 157.772 9.58168 155.413 8.88644 152.991C5.31367 140.545 7.47526 126.888 9.33981 114.336L20.9954 123.164L27.7486 128.501C28.3028 128.97 29.4595 129.688 29.7076 130.374C26.8025 129.594 24.0664 129.274 21.064 129.184C22.2278 132.901 23.5806 136.281 26.5083 138.967C26.2305 141.405 31.0108 146.875 32.5691 148.836C33.9285 150.547 35.4429 152.087 36.8855 153.723C37.8667 154.835 41.0232 158.996 42.1827 159.168C43.0271 160.164 44.0389 160.935 44.9649 161.844C45.7908 162.655 46.6812 163.991 47.6673 164.533L56.1414 172.196L56.9913 172.906C57.8938 173.334 58.6883 173.981 59.4939 174.566L62.6316 176.834C62.8924 177.021 63.5848 177.641 63.8467 177.703C63.9161 177.72 64.0672 177.666 64.1504 177.64C64.2754 178.719 65.2168 185.157 64.8204 185.8C64.4383 186.286 62.6944 188.079 62.2281 188.253C61.972 188.481 61.5984 188.919 61.2959 189.049C60.188 189.125 59.104 189.612 58.0303 189.893C56.7478 190.228 55.4258 190.409 54.1167 190.608C53.3077 190.731 52.4764 190.914 51.658 190.939L46.7286 191.844L34.7505 194.132L29.9244 195.603L21.1443 199.716L20.1945 199.712C21.5474 197.74 23.1305 196.51 25.4205 195.786C25.9656 195.613 26.72 195.55 27.2041 195.285C26.7151 194.388 26.2537 193.47 25.5975 192.681C23.4723 191.625 21.3809 192.344 19.1757 192.552C19.1779 193.156 19.1118 193.66 18.8295 194.204C18.5053 194.829 17.9934 195.488 17.2815 195.677C16.6983 195.831 15.9119 195.694 15.403 195.374C14.9883 195.112 14.6705 194.684 14.571 194.201C14.4243 193.49 14.6506 192.728 15.0721 192.149C16.3144 190.445 19.1086 190.176 21.024 189.83L16.0972 186.843C15.9481 186.764 15.3849 186.416 15.2358 186.414C15.0759 186.411 14.6697 186.583 14.4984 186.635L12.5043 187.247C12.5105 188.321 12.9799 189.182 12.4743 190.295C12.2543 190.78 11.8508 191.161 11.3359 191.311C10.6751 191.504 9.91996 191.374 9.33842 191.007C8.82656 190.685 8.54631 190.097 8.42514 189.52C8.25964 188.732 8.49045 187.907 8.92307 187.244C9.64868 186.132 10.8379 185.499 12.1089 185.246L12.2991 185.209C11.3861 184.625 10.0759 183.911 9.36408 183.095C9.20429 182.912 9.2037 182.88 8.97221 182.776C8.57111 183.291 8.35976 183.437 7.70812 183.561C6.87748 183.719 6.05773 183.64 5.35766 183.133C4.77558 182.712 4.45139 182.091 4.35102 181.384C4.25986 180.743 4.4686 180.116 4.86743 179.616C5.34731 179.014 5.94597 178.784 6.69816 178.736C8.47253 178.623 10.0258 180.28 11.2365 181.384C10.7985 180.001 10.3217 178.449 10.5707 176.988L10.6011 176.819C10.7059 176.191 10.8165 175.619 11.2944 175.157C11.7237 174.742 12.3096 174.572 12.9002 174.622C13.5224 174.675 14.117 174.967 14.4944 175.476C15.0254 176.193 15.0458 177.077 14.8767 177.917C14.6894 178.848 14.1443 179.253 13.4164 179.769L13.5821 182.097C15.3678 183.572 17.7989 184.506 19.8586 185.552C19.1938 184.281 18.7307 183.139 18.3321 181.757C17.87 178.989 18.9517 176.35 19.2336 173.625C19.4237 171.788 19.1488 170.092 18.6135 168.343C17.9602 166.682 16.9806 165.352 15.8435 163.995Z" fill="#EA580C"/>
<path id="Vector_14" d="M33.992 93.637C31.6421 93.2937 29.3069 92.6426 27.5772 90.9172C24.3012 87.6497 23.5521 83.1318 23.5579 78.6973C25.5313 79.2664 27.5135 79.7271 29.3724 80.6252C33.7518 82.7412 35.4495 86.0815 36.9922 90.4604L38.9539 79.3005C38.264 79.3704 37.5562 79.4253 36.8653 79.3359C34.3074 79.0059 31.9083 77.3989 30.3736 75.3721C27.7625 71.9236 27.3436 66.9517 27.8848 62.8032C30.0862 63.5991 32.4507 64.6001 34.3277 66.0244C37.8833 68.7224 39.0784 72.782 39.6377 77.0156L43.532 63.8315C42.5704 64.0471 41.6385 64.1843 40.6495 64.0813C38.8038 63.8887 36.9581 62.6531 35.8104 61.2468C32.8504 57.6201 32.3965 52.6282 32.879 48.1584C35.4639 49.0071 37.9688 50.2329 39.9424 52.1394C42.5572 54.6653 44.0547 58.2727 44.1087 61.8835L48.7164 49.834L48.5606 49.7014C46.8362 48.2012 45.7564 46.1223 45.6182 43.8298C45.3367 39.1628 48.4847 34.4441 51.4393 31.1077L52.542 33.418C54.0694 37.0801 54.8582 40.7068 54.1492 44.6675C53.5206 46.6101 52.2569 48.0266 51.5511 49.9294L48.0633 60.0352C47.5694 61.53 47.1734 63.103 46.5901 64.5625C47.3604 63.7676 48.1265 62.8965 49.003 62.2192C51.7962 60.0608 55.1297 59.3694 58.5948 59.3188C60.729 59.2878 62.847 59.5725 64.9485 59.9265C63.9942 62.415 62.638 64.7217 60.8035 66.6582C60.6331 66.8379 60.699 66.7629 60.5394 66.9973L60.6609 66.9553C61.438 66.6816 62.1524 66.2776 62.9302 66.0012C65.3299 65.1492 68.0003 64.981 70.3479 66.1011C72.0352 66.9062 73.3895 68.3525 73.9864 70.1409L74.2659 71.0994C75.8938 71.5019 76.6863 72.1648 77.7842 73.3904L77.92 73.2795C78.9358 72.4624 79.9761 71.9861 81.2378 71.6511L81.4568 71.5908C83.4659 71.0657 85.8689 71.4438 87.6495 72.5032C88.8667 73.2273 89.6028 74.178 90.1246 75.4868L89.7322 76.0825C85.9249 82.7441 84.0447 89.822 84.1287 97.4968C82.2471 95.5579 80.5401 93.3784 78.9051 91.2285C76.9209 88.6196 72.3638 81.0547 68.9927 81.1121C67.6236 81.1353 66.2466 82.4028 65.3907 83.3772C63.8067 85.1804 62.6089 87.4353 61.2962 89.439L55.2876 98.5815C54.4439 99.9546 53.7471 101.474 52.7959 102.769L51.7935 105.344C50.5 107.413 49.3597 108.986 47.1595 110.166L47.1749 110.346C47.212 110.698 47.1719 110.436 47.2503 110.689C47.5845 111.766 46.1314 113.843 45.8365 114.949L45.7737 115.147C45.6988 115.398 45.6617 115.648 45.6238 115.906L45.7764 115.785L46.0206 115.784L46.1426 115.663C46.3777 115.633 46.5306 115.652 46.7623 115.687C49.2498 114.926 51.7923 114.25 54.4026 114.105C53.7857 117.997 52.3186 122.297 48.9974 124.68C46.8116 126.248 44.0806 126.566 41.4864 126.094L41.0767 126.01L39.1604 125.513C39.3111 129.31 39.772 133.213 40.3343 136.967C40.4117 137.484 40.4151 138.372 40.6458 138.821C41.6895 135.304 42.928 132.727 45.9314 130.459C48.8741 128.835 52.1314 127.863 55.4588 127.417C55.0313 131.243 53.8013 136.16 50.6314 138.662C48.7037 140.184 45.8379 140.942 43.4021 140.634L40.9498 140.183C41.5059 144.721 42.5254 149.49 43.9913 153.82C44.1539 150.282 44.709 146.824 47.448 144.298C49.647 142.269 52.9273 141.274 55.813 140.795C55.802 144.875 55.7474 149.139 52.6565 152.232C50.3519 154.539 47.5425 155.022 44.4317 155.354L47.6673 164.533C46.6812 163.991 45.7908 162.655 44.9649 161.844C44.0389 160.935 43.0271 160.164 42.1827 159.168C41.0232 158.996 37.8667 154.835 36.8855 153.723C35.4429 152.087 33.9285 150.547 32.5691 148.836C31.0108 146.875 26.2305 141.405 26.5083 138.967C23.5806 136.281 22.2278 132.901 21.064 129.184C24.0664 129.274 26.8025 129.594 29.7076 130.374C29.4595 129.688 28.3028 128.97 27.7486 128.501L20.9954 123.164L24.4639 121.871C22.6079 119.416 21.5164 116.872 20.9153 113.846L25.2249 113.966L27.2264 114.278C30.7701 115.007 33.3565 116.793 35.3277 119.802L35.3208 108.965L33.9966 109.131C31.0879 109.326 28.1961 108.712 25.9908 106.727C22.9514 103.991 21.7804 99.4746 21.5856 95.5376C24.5457 95.7954 28.4966 96.6663 30.9686 98.3584L34.4026 96.292L34.1431 95.2366C34.0064 94.6672 33.9617 94.2253 33.992 93.637Z" fill="#0369A1"/>
<path id="Vector_15" d="M43.3728 76.3186C43.8362 76.479 44.4207 76.2646 44.9036 76.2183C44.0242 77.0791 43.2825 78.0596 42.6431 79.1089L43.3728 76.3186Z" fill="#7DD3FC"/>
<path id="Vector_16" d="M33.9919 93.637L36.4941 93.625L36.2888 94.783L34.4026 96.292L34.1431 95.2366C34.0063 94.6672 33.9617 94.2253 33.9919 93.637Z" fill="#FDFDFD"/>
<path id="Vector_17" d="M36.2888 94.783L35.7527 101.139C35.6724 102.372 35.7375 103.762 35.4956 104.967C35.0576 104.106 34.7314 103.2 34.2502 102.361C33.3679 100.821 32.1914 99.6226 30.9685 98.3584L34.4026 96.292L36.2888 94.783Z" fill="#7DD3FC"/>
<path id="Vector_18" d="M47.1593 110.166L47.1747 110.346C47.2118 110.698 47.1718 110.436 47.2501 110.689C47.5844 111.766 46.1312 113.843 45.8363 114.949L45.7736 115.147C45.6986 115.398 45.6615 115.648 45.6237 115.906L45.7763 115.785L46.0204 115.784L46.1425 115.663C46.3776 115.633 46.5304 115.652 46.7621 115.687C44.2985 116.676 41.7577 117.996 40.1962 120.227C39.7528 120.861 39.4706 121.587 39.0346 122.222L38.7047 113.135C38.7052 112.303 38.5812 111.211 38.7719 110.414C41.6373 111.32 44.3844 111.47 47.1593 110.166Z" fill="#FDBA74"/>
<path id="Vector_19" d="M20.9954 123.164L24.4639 121.871C26.7808 124.253 28.9871 125.634 32.4097 125.715C33.5242 125.741 34.5735 125.593 35.6499 125.315L36.6551 136.499C36.2102 135.716 35.7761 134.893 35.2176 134.185C33.781 132.362 31.8294 131.24 29.7075 130.374C29.4595 129.688 28.3028 128.97 27.7486 128.501L20.9954 123.164Z" fill="#F97316"/>
<path id="Vector_20" d="M26.5082 138.967C29.3092 140.754 32.2184 141.156 35.4728 140.407C35.8815 140.313 36.828 139.833 37.1728 139.907C38.0524 146.447 39.7074 153.045 42.1825 159.168C41.0231 158.996 37.8666 154.835 36.8854 153.723C35.4428 152.087 33.9284 150.547 32.569 148.836C31.0106 146.875 26.2304 141.405 26.5082 138.967Z" fill="#F97316"/>
<path id="Vector_21" d="M43.3728 76.3186L46.5195 65.0815C47.3989 66.3828 51.1611 67.7981 52.6902 68.1304C55.5535 68.7527 58.0383 68.5859 60.5393 66.9973L60.6609 66.9553C61.438 66.6816 62.1523 66.2776 62.9302 66.0012C65.3298 65.1492 68.0002 64.981 70.3479 66.1011C72.0352 66.9062 73.3894 68.3525 73.9863 70.1409L74.2659 71.0994C75.8938 71.5019 76.6863 72.1648 77.7842 73.3904L77.9199 73.2795C78.9358 72.4624 79.9761 71.9861 81.2378 71.6511L81.4568 71.5908C83.4658 71.0657 85.8689 71.4438 87.6494 72.5032C88.8667 73.2273 89.6028 74.178 90.1245 75.4868L89.7322 76.0825L57.7717 76.165L59.0542 72.1294C53.9458 71.8652 49.0076 72.6362 45.0232 76.1089L44.9036 76.2183C44.4207 76.2646 43.8362 76.479 43.3728 76.3186Z" fill="#FDFDFD"/>
<path id="Vector_22" d="M43.6816 80.999C44.2598 81.1406 44.8135 81.4541 45.3914 81.6294C47.7295 82.3381 50.3091 82.4475 52.6287 81.6101C55.1809 80.6885 56.6711 78.5188 57.7717 76.165L89.7322 76.0825C85.9248 82.7441 84.0447 89.822 84.1287 97.4968C82.2471 95.5579 80.54 93.3784 78.905 91.2285C76.9209 88.6196 72.3638 81.0547 68.9927 81.1121C67.6235 81.1352 66.2466 82.4028 65.3906 83.3772C63.8066 85.1804 62.6089 87.4353 61.2961 89.439L55.2876 98.5815C54.4438 99.9546 53.7471 101.474 52.7959 102.769C52.9187 101.612 53.3176 100.395 53.5369 99.2393C52.1721 99.2175 50.8896 99.3748 49.5681 99.708C46.4373 100.497 42.5334 102.039 40.2869 104.451C39.7529 105.024 39.3601 105.709 38.9585 106.377L39.9446 94.7573L41.3684 95.3972C43.9895 96.3025 47.054 96.3213 49.5664 95.0537C53.5205 93.0591 55.1404 88.4868 56.4482 84.5481C53.4431 84.3474 50.5803 84.6294 47.793 85.8196C46.7004 86.2861 45.7002 86.8916 44.6555 87.4487C43.5132 88.3127 42.4993 89.1853 41.6133 90.3191C41.0576 91.03 40.6448 91.8047 40.1245 92.5354L42.3743 80.1802L43.6816 80.999Z" fill="#7DD3FC"/>
<path id="Vector_23" d="M52.7959 102.769C53.7471 101.474 54.4438 99.9546 55.2876 98.5815L61.2961 89.4389C62.6089 87.4353 63.8066 85.1804 65.3906 83.3772C66.2466 82.4028 67.6235 81.1352 68.9927 81.112C72.3638 81.0546 76.9209 88.6196 78.905 91.2285C80.54 93.3784 82.2471 95.5578 84.1287 97.4968C84.2656 99.1743 84.3718 100.86 84.6423 102.523C85.1968 105.929 86.2405 109.207 87.573 112.383C88.9243 115.189 90.4009 117.885 92.26 120.394C95.8757 125.275 100.75 129.31 106.059 132.224C109.422 133.806 112.523 134.968 116.146 135.833L116.099 140.411C116.087 141.408 116.116 142.439 115.945 143.422C115.608 145.267 115.704 147.129 115.814 148.992L116.452 156.831C116.974 156.792 117.533 156.793 118.047 156.703C116.94 159.332 115.51 161.806 114.144 164.307C113.745 165.039 113.328 166.115 112.794 166.737L112.158 168.113L110.645 171.535C111.236 172.077 111.814 172.494 112.053 173.279L112.164 173.579L112.244 173.802C112.432 173.883 112.644 173.95 112.804 174.078C112.851 174.59 113.142 175.02 113.383 175.465L113.858 173.928L113.845 173.488L114.757 173.798L114.69 173.948C114.423 174.529 113.957 175.09 113.594 175.62C113.772 176.029 113.981 176.657 114.289 176.976C114.635 177.335 115.409 177.559 115.88 177.764C117.23 178.349 118.661 179.415 117.937 181.074C117.825 181.329 117.651 181.544 117.475 181.757L113.43 181.718L79.8684 183.273L81.3159 181.37C81.543 180.951 81.6655 180.499 81.8052 180.046C81.6294 179.097 81.3005 178.568 80.7109 177.834L72.6353 171.438L72.1646 172.28C69.627 172.86 66.5706 172.509 63.9792 172.305L64.1504 177.64C64.0671 177.666 63.916 177.72 63.8467 177.703C63.5847 177.641 62.8923 177.021 62.6316 176.834L59.4939 174.566C58.6882 173.981 57.8938 173.334 56.9912 172.905L56.1414 172.196L47.6672 164.533L44.4316 155.354C47.5425 155.022 50.3518 154.539 52.6565 152.232C55.7473 149.139 55.802 144.875 55.813 140.795C52.9272 141.274 49.647 142.269 47.448 144.298C44.709 146.824 44.1538 150.282 43.9912 153.82C42.5254 149.49 41.5059 144.721 40.9497 140.183L43.4021 140.634C45.8379 140.942 48.7036 140.184 50.6313 138.662C53.8013 136.16 55.0312 131.243 55.4587 127.417C52.1313 127.863 48.874 128.835 45.9314 130.459C42.928 132.727 41.6895 135.304 40.6458 138.821C40.415 138.372 40.4116 137.484 40.3342 136.967C39.772 133.213 39.311 129.31 39.1604 125.513L41.0767 126.009L41.4863 126.094C44.0806 126.566 46.8115 126.248 48.9973 124.68C52.3186 122.297 53.7856 117.997 54.4026 114.105C51.7922 114.25 49.2498 114.926 46.7622 115.686C46.5305 115.652 46.3777 115.633 46.1426 115.663L46.0205 115.784L45.7764 115.785L45.6238 115.906C45.6616 115.648 45.6987 115.398 45.7737 115.147L45.8364 114.949C46.1313 113.843 47.5845 111.766 47.2502 110.689C47.1719 110.436 47.2119 110.697 47.1748 110.346L47.1594 110.166C49.3596 108.986 50.5 107.413 51.7935 105.343L52.7959 102.769Z" fill="#F97316"/>
<path id="Vector_24" d="M81.5846 152.904C81.5724 152.501 81.6596 152.309 81.8481 151.97C82.4257 151.63 83.1452 151.763 83.8102 151.787C84.0387 152.063 84.1256 152.216 84.0819 152.588C83.9813 153.445 83.1916 154.078 82.6042 154.635C82.4406 154.438 82.3483 154.295 82.2585 154.052C82.0793 153.565 81.9699 153.262 81.5846 152.904Z" fill="#063961"/>
<path id="Vector_25" d="M60.2788 166.05C60.6294 166.058 61.0132 166.088 61.3403 166.225C61.4756 166.282 61.5911 166.377 61.7065 166.464C61.8079 166.835 61.812 166.89 61.7065 167.258L61.4624 167.355C61.3262 167.777 61.2529 168.29 60.9131 168.576C60.3638 168.537 59.8542 168.439 59.4875 167.988C59.2192 167.658 59.1853 167.315 59.1367 166.91C59.115 166.729 59.1323 166.807 59.0637 166.632C59.3821 166.375 59.9045 166.275 60.2788 166.05Z" fill="#063961"/>
<path id="Vector_26" d="M59.0637 166.632C58.8428 166.594 58.7007 166.545 58.5151 166.41C58.1687 166.158 57.9055 165.562 57.7026 165.185C56.9316 163.747 56.1868 162.211 55.9312 160.588C56.7358 160.081 57.7395 159.836 58.6506 159.588C60.04 159.21 61.3745 158.878 62.6814 158.255C62.2942 159.524 62.7353 160.747 62.9973 162.002L59.2129 161.875L60.2788 166.05C59.9045 166.275 59.3821 166.375 59.0637 166.632Z" fill="#111517"/>
<path id="Vector_27" d="M81.5847 152.904C81.97 153.262 82.0793 153.565 82.2585 154.052C82.3484 154.295 82.4407 154.438 82.6042 154.635L79.2444 159.606L74.0095 158.744C73.7974 158.549 73.668 158.108 73.5396 157.839C73.0454 156.804 72.4768 156.272 71.5591 155.63C73.7493 155.431 76.0437 156.057 78.1899 156.451C79.5178 155.561 80.6353 154.179 81.5847 152.904Z" fill="#111517"/>
<path id="Vector_28" d="M67.9949 155.93C66.6079 155.114 65.6958 154.185 65.1157 152.661C64.729 151.646 64.6555 150.373 65.1355 149.373C65.4854 148.644 66.1751 148.062 66.9556 147.844C67.7935 147.611 68.8806 147.722 69.645 148.145C70.6653 148.708 71.3428 149.707 71.6372 150.819L71.6836 151.001L71.8335 151.62C72.0134 152.639 71.8518 153.936 71.2097 154.771C70.9272 155.137 70.5227 155.417 70.155 155.693L67.9949 155.93Z" fill="#111517"/>
<path id="Vector_29" d="M67.9948 155.93L70.155 155.693L71.559 155.63C72.4768 156.272 73.0454 156.804 73.5395 157.839C73.6679 158.108 73.7973 158.549 74.0095 158.744C74.2959 160.178 74.2094 161.592 74.1064 163.039C73.9011 165.927 73.4055 168.649 72.6352 171.438L72.1645 172.28C69.6269 172.86 66.5705 172.509 63.9792 172.305C63.9821 168.791 63.707 165.453 62.9973 162.002C62.7353 160.747 62.2941 159.524 62.6814 158.255C64.1858 157.166 66.2468 156.507 67.9948 155.93Z" fill="#0369A1"/>
<path id="Vector_30" d="M52.7959 102.769C53.7471 101.474 54.4438 99.9546 55.2876 98.5815L61.2961 89.4389C62.6089 87.4353 63.8066 85.1804 65.3906 83.3772C66.2466 82.4028 67.6235 81.1352 68.9927 81.112C72.3638 81.0546 76.9209 88.6196 78.905 91.2285C80.54 93.3784 82.2471 95.5578 84.1287 97.4968C84.2656 99.1743 84.3718 100.86 84.6423 102.523C85.1968 105.929 86.2405 109.207 87.573 112.383C87.1091 112.269 86.6379 111.379 86.2773 111.012C85.4954 110.216 84.5991 109.704 83.584 109.267C83.4582 109.599 83.3325 110.058 83.0889 110.322C82.9309 110.493 82.8152 110.491 82.5806 110.494C80.6714 110.525 75.7693 105.184 74.2581 103.7L73.7695 104.86C73.5173 105.472 73.2808 106.196 72.6318 106.467C72.1541 106.19 71.7771 105.694 71.448 105.256C70.4521 103.928 69.7007 102.419 68.989 100.926C68.6785 100.276 68.2354 98.9763 67.5659 98.6687C67.4119 98.6972 67.0818 98.7131 66.9556 98.7824C66.4824 99.0417 66.0684 99.7866 65.76 100.22C64.7556 101.631 63.7129 103.212 62.1606 104.065L61.9202 103.98C61.3672 103.166 61.5056 101.833 61.5012 100.886L61.5537 96.3183C59.4124 98.6665 57.0588 100.804 54.6875 102.913C53.8032 103.699 52.9263 104.681 51.9038 105.282L51.7935 105.343L52.7959 102.769Z" fill="#FDFDFD"/>
<path id="Vector_31" d="M80.7109 177.834L80.9287 177.185C80.9954 176.978 81.0317 176.856 81.0532 176.636C80.6492 176.142 80.322 175.639 80.342 174.988C80.8462 174.54 81.7356 174.452 82.3823 174.296C81.7187 174.13 81.2087 173.865 80.6189 173.531C80.4546 172.606 81.4475 172.644 81.647 171.936L81.1157 171.503L81.1013 171.204C81.6992 170.753 82.5317 170.798 83.126 170.349C82.8267 169.847 81.9329 170.006 81.4253 169.739L81.4443 169.434C81.6921 169.098 81.855 168.879 82.2732 168.751C82.4712 168.691 82.6204 168.618 82.8005 168.518C82.4966 168.336 82.1899 168.29 81.8481 168.211L81.7041 167.969C82.0847 167.374 83.3696 167.194 83.5571 166.691C83.2078 166.545 82.8311 166.521 82.4585 166.474L82.3149 166.264C82.689 165.834 83.1611 165.696 83.6792 165.503C83.6792 165.198 82.9998 165.417 82.7175 165.1L82.8027 164.579C82.9304 164.18 83.1021 164.082 83.4548 163.874L83.8516 163.635C84.0918 163.455 84.155 163.276 84.1892 162.993C83.9187 162.812 83.6252 162.767 83.313 162.699L83.2256 162.415C83.491 161.958 83.6592 162.218 84.0454 161.937C83.8333 161.767 83.9199 161.803 83.6841 161.727L83.5286 161.682C83.6411 161.357 84.0046 161.286 84.2896 161.098C84.2053 160.826 83.9192 160.946 83.7239 160.645L83.8843 160.427C84.0742 160.421 84.2427 160.402 84.4285 160.363L84.2896 160.159L84.1238 159.973C84.3689 159.353 84.6606 158.859 85.0344 158.312C85.2676 158.678 85.4944 159.08 85.6509 159.485C85.769 159.791 85.7742 160.063 85.9915 160.325C86.1245 160.485 86.1807 160.572 86.2583 160.767C86.1138 160.974 86.01 161.132 85.9438 161.377L86.2427 161.607C86.4287 161.723 86.387 161.631 86.562 161.804C86.7603 162 86.9507 162.357 86.9751 162.63C86.5435 162.742 86.1643 162.765 85.8489 163.086L85.968 163.391L86.501 163.652C86.7454 163.752 86.7881 163.957 86.9114 164.185C87.23 164.363 87.6287 164.512 87.7903 164.856C87.6145 165.192 87.2637 165.32 86.9316 165.495L86.8315 165.546C86.9988 165.817 87.8821 165.835 88.2336 166.138C88.0503 166.508 87.4929 166.542 87.1084 166.696C86.8589 166.797 86.9409 166.713 86.8425 166.943L88.6841 167.85C88.7712 168.111 88.7578 168.107 88.6526 168.365C88.4072 168.523 88.2598 168.631 87.968 168.684C87.7798 168.718 87.7026 168.73 87.5393 168.823C87.6526 169.117 88.4609 169.136 88.7451 169.326C88.8516 169.397 88.9124 169.52 88.9959 169.617L88.9058 169.84C88.1936 170.119 87.3208 170.19 86.5693 170.392C87.4094 170.684 88.3208 170.793 89.1963 170.933C89.7832 170.674 90.6099 170.482 91.1086 170.105C90.9131 169.897 90.4609 169.906 90.1763 169.861C90.022 169.465 89.7068 169.383 89.4775 169.072C89.3091 168.844 89.3333 168.684 89.3923 168.421C89.5232 167.841 90.0554 167.777 90.4834 167.478C90.6926 167.332 90.7976 167.319 90.8403 167.053L90.0269 166.863V166.713C90.623 166.511 91.1736 166.87 91.7664 166.552C91.9019 166.479 91.8569 166.495 91.9019 166.321L89.8079 165.975C90.0046 164.623 90.0906 164.183 91.4089 163.611C91.7673 163.455 92.0688 163.355 92.3462 163.067C92.1326 162.668 90.7065 162.836 90.2051 162.659L90.2134 162.354C90.4439 162.041 90.604 161.896 90.947 161.713L91.3242 161.499C91.1335 161.36 91.2314 161.403 90.9644 161.352L90.7593 161.317L90.6804 161.072C90.7822 160.68 90.7859 160.604 91.092 160.315C91.7427 160.18 92.2107 160.088 92.7124 159.624C92.4653 159.333 91.6226 159.499 91.2141 159.318C90.9954 159.221 91.0371 159.201 90.9546 158.997C91.5664 158.255 92.4089 158.04 93.2766 157.699C92.6714 157.755 92.0894 157.846 91.4917 157.698L91.4404 157.41C91.7529 157.168 92.0947 157.047 92.4229 156.839C92.7751 156.615 93.0857 156.266 93.3789 155.97L91.4312 155.702C91.9297 155.33 92.6333 154.802 93.2151 154.593L93.4448 154.515L93.502 154.358C93.1665 154.33 93.0112 154.284 92.7319 154.095C92.5137 153.602 93.2163 153.568 93.2893 153.063L92.926 152.893C92.9082 152.178 93.8574 150.72 94.2021 150.036C94.5996 150.403 94.9468 151.718 95.2134 152.234L95.3767 152.561C95.4875 152.926 95.158 152.753 94.9827 153.076L95.606 153.426C95.7207 153.685 95.7839 153.861 95.792 154.145C95.5999 154.267 95.4282 154.395 95.2537 154.541C95.4583 154.882 96.0676 154.793 96.3745 155.039C96.4719 155.117 96.6001 155.401 96.6731 155.518L96.5576 155.743C96.0908 155.824 95.7556 155.903 95.3459 156.145L95.3503 156.311C96.0059 156.654 96.5669 156.966 97.1069 157.474L97.1082 157.654C96.6741 157.803 96.2239 157.882 95.7752 157.973C96.2507 158.123 97.0305 158.274 97.4126 158.583C97.6367 158.765 97.6267 158.859 97.6321 159.119C97.1887 159.488 96.2456 159.609 95.6755 159.766C96.6982 160.195 97.6104 160.177 98.3638 161.072C98.0337 161.359 97.6965 161.309 97.2681 161.354C97.7747 161.58 98.3188 161.721 98.6938 162.145L98.6614 162.371C98.2122 162.685 97.4634 162.716 96.9238 162.848L96.8247 163.025C97.3169 163.629 97.823 163.475 98.46 163.759C98.6448 163.841 98.6978 164.113 98.7752 164.295C99.012 164.399 99.2117 164.524 99.4263 164.668C99.4702 164.765 99.4937 164.797 99.498 164.917C99.5081 165.191 99.3767 165.443 99.2029 165.64C98.6348 166.287 97.782 166.223 96.9844 166.277L99.2639 167.732C99.6978 168.026 100.014 168.31 100.097 168.823C99.5137 169.637 98.5981 169.825 97.7195 170.198C98.4939 170.284 99.2993 170.456 100.045 170.684C100.384 170.787 100.993 171.156 101.307 171.179C101.571 171.199 102.402 170.771 102.706 170.653L100.273 170.007C100.42 169.434 100.754 168.911 100.942 168.345L101.012 168.128L103.54 166.798L102.822 166.766C101.894 166.711 101.354 166.562 100.707 165.833C100.745 165.738 100.765 165.671 100.834 165.588C101.042 165.342 101.333 165.309 101.63 165.267L101.746 165.251V165.111L101.299 164.978L101.216 164.734C101.622 163.887 102.65 163.843 103.458 163.546C103.802 163.42 104.125 163.215 104.438 163.03L101.257 162.837L101.215 162.598L101.678 162.354C101.645 162.207 101.622 162.077 101.608 161.926L101.99 161.726C102.158 161.31 101.785 161.449 101.687 161.011C102.227 160.19 103.87 159.745 104.756 159.384C103.848 159.291 102.839 159.421 101.974 159.137C101.916 158.716 101.885 158.361 102.052 157.959C102.245 157.492 102.659 157.223 103.12 157.048L103.234 157.013C102.997 157 102.823 156.966 102.6 156.884L102.553 156.616C102.928 156.194 104.319 155.976 104.911 155.772C104.364 155.611 103.593 155.57 103.15 155.204C102.962 155.049 102.972 155.078 102.942 154.822C103.483 154.485 104.113 154.339 104.719 154.156C104.182 154.086 103.476 154.122 103.137 153.687C103.429 153.208 104.182 153.038 104.652 152.743C105.033 152.505 105.358 152.167 105.678 151.854C105.142 151.742 104.561 151.711 104.065 151.472C103.972 151.181 104.016 151.157 104.089 150.875C104.516 150.427 104.62 150.397 105.225 150.242L105.314 150.085C105.019 149.918 104.833 149.818 104.629 149.536L104.757 149.314L105.53 148.793V148.564C105.234 148.541 105.222 148.588 104.991 148.376C105.247 147.877 106.125 145.963 106.553 145.813C106.955 146.299 107.172 146.853 107.461 147.407C107.588 147.65 107.81 147.888 107.91 148.132C108.078 148.54 107.755 148.467 107.573 148.804C107.917 148.937 108.151 149.22 108.407 149.475C108.379 149.939 107.889 149.683 107.566 150.024L107.727 150.247L108.521 150.491C108.854 150.655 108.928 150.921 109.042 151.245C108.708 151.604 108.075 151.663 107.601 151.792C107.937 152.17 108.291 152.619 108.742 152.862C109.022 153.012 109.355 153.039 109.619 153.184C109.899 153.338 109.925 153.467 109.964 153.748C109.55 153.93 109.146 154.02 108.704 154.114L109.68 154.601C109.987 154.797 110.148 154.922 110.246 155.273C109.863 155.65 108.937 155.67 108.397 155.751L109.192 156C109.842 156.202 110.326 156.383 110.767 156.921L110.728 157.11C110.499 157.19 110.328 157.25 110.142 157.41C110.537 157.524 110.849 157.612 111.177 157.865C111.325 158.427 111.262 158.554 111.088 159.119C110.546 159.403 109.321 159.21 108.683 159.199C109.677 159.708 110.855 160.065 111.754 160.706L111.783 160.95C111.522 161.061 111.423 161.092 111.237 161.316C111.65 161.714 111.944 162.201 112.262 162.676L109.189 163.013L111.328 164.074C112.14 164.58 112.596 165.852 112.794 166.737L112.158 168.113L110.645 171.535C111.236 172.077 111.814 172.494 112.053 173.279L112.164 173.579L112.244 173.802C112.432 173.883 112.644 173.95 112.804 174.078C112.851 174.59 113.142 175.02 113.383 175.465L113.858 173.928L113.845 173.488L114.757 173.798L114.69 173.948C114.423 174.529 113.957 175.09 113.594 175.62C113.772 176.029 113.981 176.657 114.289 176.976C114.635 177.335 115.409 177.559 115.88 177.764C117.23 178.349 118.661 179.415 117.937 181.074C117.825 181.329 117.651 181.544 117.475 181.757L113.43 181.718L79.8684 183.273L81.3159 181.37C81.543 180.951 81.6655 180.5 81.8052 180.046C81.6294 179.097 81.3005 178.568 80.7109 177.834Z" fill="#EA580C"/>
<path id="Vector_32" d="M112.794 166.737L112.158 168.113C111.637 167.731 111.218 167.612 110.779 167.074L110.84 166.893C111.477 166.719 112.138 166.747 112.794 166.737Z" fill="#F97316"/>
<path id="Vector_33" d="M107.586 175.069C108.301 173.826 108.855 172.314 109.746 171.204C110.174 171.123 110.288 171.303 110.645 171.535C111.236 172.077 111.814 172.494 112.053 173.279L112.164 173.579L112.244 173.802C112.432 173.883 112.644 173.95 112.804 174.078C112.851 174.59 113.142 175.02 113.383 175.465L113.858 173.928L113.845 173.488L114.757 173.798L114.69 173.948C114.423 174.529 113.957 175.09 113.594 175.62C113.772 176.029 113.981 176.657 114.289 176.976C114.636 177.335 115.409 177.559 115.88 177.764C117.23 178.349 118.661 179.415 117.937 181.074C117.825 181.329 117.651 181.544 117.475 181.757L113.43 181.718C112.324 181.448 111.169 180.834 110.131 180.365C108.956 179.833 107.174 179.273 106.359 178.284C106.213 177.318 107.142 175.947 107.586 175.069Z" fill="#063961"/>
<path id="Vector_34" d="M54.1492 44.6675L54.2732 44.6421C54.6116 44.5212 54.9612 44.0469 55.2188 43.7815L57.7131 41.1987L61.6477 37.3284C63.7666 35.3416 66.0635 33.5073 68.3513 31.719C80.2195 22.4417 94.5586 15.9543 109.436 13.4264C125.125 10.7608 141.849 12.4503 156.761 17.9479C165.713 21.2478 173.941 25.9233 181.493 31.7478C183.493 33.2905 185.475 34.832 187.341 36.5393L192.729 41.8091C193.641 42.7642 194.499 43.8159 195.466 44.7124C195.975 47.4707 197.106 49.8811 199.265 51.739L202.702 63.8894C200.353 61.124 197.738 59.6172 194.092 59.3218C191.396 59.1033 187.805 59.6074 185.364 60.8652L185.085 61.2991L188.244 65.1519L150.622 65.0742L143.524 60.5588C133.612 55.7666 122.178 54.604 111.68 58.2439C105.829 60.2725 100.35 63.4605 95.9973 67.9092C93.7334 70.2229 91.8672 72.7681 90.1245 75.4868C89.6028 74.178 88.8667 73.2273 87.6494 72.5032C85.8689 71.4438 83.4658 71.0657 81.4568 71.5908L81.2378 71.6511C79.9761 71.9861 78.9358 72.4624 77.9199 73.2795L77.7842 73.3904C76.6863 72.1648 75.8938 71.502 74.2659 71.0994L73.9863 70.1409C73.3894 68.3525 72.0352 66.9063 70.3479 66.1011C68.0002 64.981 65.3298 65.1492 62.9302 66.0012C62.1523 66.2776 61.438 66.6816 60.6609 66.9553L60.5393 66.9973C60.699 66.7629 60.6331 66.8379 60.8035 66.6582C62.6379 64.7217 63.9941 62.415 64.9485 59.9265C62.8469 59.5725 60.729 59.2878 58.5947 59.3189C55.1296 59.3694 51.7961 60.0608 49.0029 62.2192C48.1265 62.8965 47.3604 63.7676 46.5901 64.5625C47.1733 63.103 47.5693 61.53 48.0632 60.0352L51.551 49.9294C52.2568 48.0266 53.5205 46.6101 54.1492 44.6675Z" fill="#7DD3FC"/>
<path id="Vector_35" d="M81.3492 57.8003C81.6163 57.814 81.8804 57.8308 82.1382 57.9089C82.4908 58.0156 82.8983 58.4661 83.0379 58.7974C83.1956 59.1716 83.1546 59.6729 82.9808 60.0356C82.7269 60.5659 82.2608 60.7866 81.7261 60.9456C81.439 60.9817 81.201 61.009 80.9298 60.8701C80.5032 60.6514 80.1573 60.2102 80.0252 59.7534C79.9005 59.3225 79.9432 58.9529 80.169 58.5601C80.4263 58.1123 80.8773 57.925 81.3492 57.8003Z" fill="#FDFDFD"/>
<path id="Vector_36" d="M108.425 46.8582C108.844 47.9119 109.054 49.0151 109.661 49.9939C110.527 51.3906 112.115 51.6582 113.595 51.9924C113.397 52.1731 113.017 52.2351 112.756 52.322C112.069 52.5505 111.366 52.7783 110.728 53.1226C109.424 53.8249 109.045 55.2517 108.642 56.5796L108.516 56.875C108.207 56.7205 107.727 54.9385 107.512 54.5166C106.737 52.9929 105.092 52.6621 103.59 52.1472C104.324 51.9143 105.053 51.6877 105.742 51.3384C107.605 50.3921 107.84 48.6836 108.425 46.8582Z" fill="#FDFDFD"/>
<path id="Vector_37" d="M176.909 37.1389L177.742 39.0115C178.727 40.8782 180.045 41.1584 181.945 41.7456L180.235 42.4687C178.272 43.4941 177.741 44.8955 177.128 46.9275L176.173 44.7373C175.238 42.9006 173.796 42.4167 171.958 41.8025C172.87 41.51 173.818 41.2058 174.667 40.7588C176.035 40.0386 176.486 38.5276 176.909 37.1389Z" fill="#FDFDFD"/>
<path id="Vector_38" d="M93.1665 22.2885L94.4033 25.5242C95.2427 27.1863 97.4172 27.5752 99.0542 28.1057L96.5437 29.0457C94.4636 30.0286 94.1208 31.742 93.4045 33.7525L93.2097 33.8838C92.8469 32.8982 92.4626 31.8838 92.0203 30.9317C91.8918 30.6553 91.7256 30.1946 91.5078 29.98C91.2576 29.7334 90.7087 29.5174 90.3831 29.3662C89.4082 28.9138 88.4082 28.5552 87.4529 28.055L90.5945 27.0037C92.1274 26.3054 92.5886 23.7662 93.1665 22.2885Z" fill="#BADBF2"/>
<path id="Vector_39" d="M156.243 24.1738L157.312 26.7832C158.387 28.8669 160.307 29.4807 162.402 30.1499L159.422 31.3213C157.548 32.2234 157.189 33.9043 156.555 35.7212L156.435 35.9482C156.126 35.6201 156.066 35.1321 155.934 34.7051C155.741 34.0815 155.501 33.456 155.199 32.8769C154.409 31.3611 152.199 30.6682 150.665 30.1701C150.758 30.0073 151.305 29.8506 151.49 29.7722C152.225 29.4629 152.977 29.1577 153.667 28.7549C155.257 27.8259 155.767 25.9687 156.214 24.2865L156.243 24.1738Z" fill="#FDFDFD"/>
<path id="Vector_40" d="M182.412 45.5578C185.543 45.4468 188.808 46.0388 191.263 48.1238C192.933 49.5412 193.912 51.3684 194.09 53.5566C193.829 53.9463 193.433 54.2278 193.075 54.5249C192.412 54.9321 191.701 55.2163 190.918 55.282C188.963 55.4453 187.067 54.6526 185.612 53.3769C183.389 51.4289 182.633 48.3989 182.412 45.5578Z" fill="#0369A1"/>
<path id="Vector_41" d="M66.6057 49.1033L66.0186 51.1277C65.3091 53.2014 63.9663 55.6255 61.8777 56.5688C61.0107 56.9604 60.2812 57.1128 59.3872 56.7617C57.8091 56.1418 56.6594 54.6382 55.9856 53.1331C56.1072 52.2598 56.3962 51.3931 56.917 50.6736C59.3337 47.3342 63.46 45.4541 67.4395 44.7986L67.5972 44.9495L66.6057 49.1033Z" fill="#0369A1"/>
<path id="Vector_42" d="M67.5972 44.9494L67.79 45.0087C68.2788 45.1447 68.9307 45.0361 69.4365 45.0046C70.2112 42.9343 71.2759 41.2636 73.3674 40.319C74.6904 39.7214 76.3093 39.6574 77.6743 40.1684C79.269 40.7653 80.5352 41.8896 81.2251 43.4611L81.7468 44.7539C82.7122 44.7377 83.5471 44.7453 84.2859 45.4697C84.6729 45.8491 84.8699 46.2966 85.0388 46.8027C85.062 46.872 85.2578 47.5649 85.2813 47.5805C85.4448 47.6904 86.7293 47.6389 87.0217 47.6706C88.8003 47.8637 91.158 48.2114 92.7034 49.155L66.6057 49.1032L67.5972 44.9494Z" fill="#FDFDFD"/>
<path id="Vector_43" d="M143.524 60.5588C144.769 58.9824 146.232 57.8259 148.289 57.5717C150.149 57.3417 151.699 58.1147 153.199 59.1259C154.442 57.4384 155.875 56.2531 158 55.9008C158.973 55.7395 159.834 55.8469 160.805 55.9477C161.861 53.3481 163.481 51.2902 166.138 50.187C168.388 49.2526 171.159 49.3686 173.392 50.3017C175.566 51.2094 177.256 53.041 178.155 55.2006L178.527 56.2722C180.242 56.7648 181.42 57.4074 182.311 59.0178L182.93 60.3371L183.079 60.3637C183.913 60.5214 184.35 60.7695 185.021 61.2617L185.085 61.299L188.244 65.1518L150.622 65.0742L143.524 60.5588Z" fill="#FDFDFD"/>
<path id="Vector_44" d="M128.443 22.0133L128.571 21.9935C132.789 21.4996 137.005 23.8562 138.881 27.6408C139.196 28.2768 139.405 28.9409 139.611 29.6174C139.672 29.8159 139.751 30.3005 139.864 30.4563C139.992 30.6342 140.946 30.8466 141.223 30.9668C141.779 31.2075 142.295 31.5153 142.761 31.903C144.573 33.4106 145.429 35.3159 145.645 37.6269C146.066 37.8266 146.625 37.8396 147.085 37.9287C149.793 38.4526 151.914 40.0517 153.445 42.29L120.941 42.2336L97.0574 42.1565C98.4788 39.8576 100.584 39.0261 103.045 38.2519C103.164 37.51 103.37 36.7883 103.745 36.1328C104.589 34.6589 106.152 33.3217 107.802 32.8806C109.866 32.3291 111.518 32.9409 113.303 33.9406C113.618 32.2216 114.131 30.6665 115.405 29.4133C116.987 27.8552 118.662 27.6865 120.767 27.717L121.833 26.0258C123.53 23.7448 125.608 22.4254 128.443 22.0133Z" fill="#FDFDFD"/>
<path id="Vector_45" d="M169.52 162.205C170.381 163.307 173.807 167.836 174.945 168.015C175.299 168.07 175.532 167.644 175.752 167.969L176.761 170.512C177.852 170.663 178.961 170.833 180.061 170.882L182.948 170.922C183.408 170.925 183.882 170.882 184.327 171.016L187.422 176.212C186.845 176.36 186.297 176.611 185.746 176.838C184.79 177.073 183.608 177.401 182.627 177.406C183.307 178.204 184.118 179.135 184.502 180.12C184.847 181.001 184.857 182.264 184.95 183.225C185.149 185.295 185.28 187.429 185.623 189.479L185.666 190.171L185.765 190.377C186.4 190.419 186.945 190.5 187.561 190.666C187.612 191.03 187.564 191.593 187.705 191.909L187.714 189.795L190.535 189.957L197.185 190.652L202.949 191.349L207.258 191.885L208.673 192.067L212.742 192.709L217.021 193.378C216.608 193.941 215.909 194.336 215.328 194.715L212.494 196.614C211.174 197.585 209.9 198.627 208.701 199.745L197.36 199.704L196.199 199.634L196.294 205.413C190.533 206.937 185.357 209.386 180.287 212.501C175.327 215.549 170.846 219.214 165.636 221.874C165.204 222.094 164.546 222.535 164.09 222.631C156.844 226.447 149.292 228.725 141.275 230.271C123.479 233.703 104.326 231.472 87.9449 223.661C85.2115 222.358 82.4752 221.027 79.9615 219.326C78.1666 218.51 76.3863 217.032 74.7479 215.922L65.2806 209.482L62.9073 207.781C62.6297 207.581 62.1795 207.174 61.8519 207.088C61.4691 206.987 60.7447 207.111 60.3189 207.115C58.4505 207.131 56.3504 207.316 54.5091 207.054L54.3934 207.036L54.422 202.364C54.4256 201.581 54.512 200.713 54.3472 199.947C53.9105 199.73 52.8678 199.854 52.3455 199.857L46.8768 199.874L30.9185 199.843C27.6732 199.835 24.3801 199.943 21.1443 199.716L29.9244 195.603L34.7506 194.132L46.7286 191.844L51.658 190.939C52.4764 190.914 53.3077 190.731 54.1168 190.608C55.4259 190.409 56.7479 190.228 58.0303 189.893C59.1041 189.612 60.1881 189.125 61.296 189.049C61.5985 188.919 61.972 188.481 62.2281 188.253C62.6944 188.079 64.4383 186.286 64.8204 185.8C65.2169 185.157 64.2755 178.719 64.1505 177.64L63.9793 172.305C66.5706 172.509 69.627 172.86 72.1646 172.28L72.6353 171.438L80.711 177.834C81.3006 178.568 81.6295 179.097 81.8053 180.046C81.6656 180.5 81.543 180.951 81.316 181.37L79.8685 183.273L113.43 181.718L117.475 181.757L132.301 181.714L132.149 181.559C131.549 180.726 132.278 174.573 132.364 173.196C132.738 173.14 133.169 173.109 133.513 172.953L133.64 172.882C133.962 173.221 134.247 173.495 134.644 173.745L135.103 173.523C135.563 174.026 135.705 174.648 136.279 175.033C136.535 175.205 136.722 175.519 136.902 175.769L137.146 175.812C137.353 175.414 137.366 175.21 137.317 174.767L137.185 174.605C136.67 173.952 137.046 170.905 137.084 169.974C137.83 169.93 138.694 169.614 139.434 169.461L145.402 168.177L160.148 164.633L169.52 162.205Z" fill="#F97316"/>
<path id="Vector_46" d="M185.765 190.377C186.399 190.419 186.945 190.5 187.561 190.666C187.612 191.03 187.564 191.593 187.705 191.909C188.669 193.233 190.257 193.842 191.492 194.877L185.892 194.841L185.765 190.377Z" fill="#111517"/>
<path id="Vector_47" d="M68.9927 186.18C69.7126 186.386 70.6853 186.107 71.4272 186.017L71.731 186.889C72.1772 187.375 72.6121 187.817 73.1274 188.232L73.4446 189.481C73.3772 189.54 73.3279 189.632 73.2422 189.658C72.8376 189.784 72.104 189.723 71.6638 189.763L68.0513 190.069C67.5334 190.102 66.915 190.197 66.4062 190.15C66.1785 190.129 66.0476 190.039 65.8835 189.891C67.1802 188.947 68.239 188.239 68.8457 186.689L68.9927 186.18Z" fill="#FDBA74"/>
<path id="Vector_48" d="M68.9927 186.18C69.7126 186.386 70.6853 186.107 71.4272 186.017L71.731 186.889C70.7385 186.601 69.8704 186.656 68.8457 186.689L68.9927 186.18Z" fill="#F97316"/>
<path id="Vector_49" d="M87.4888 218.711C87.0137 217.575 87.5592 215.798 87.7022 214.577C87.713 214.485 87.8001 213.986 87.7767 213.93C87.744 213.85 87.3206 213.523 87.2335 213.444C86.5221 212.8 85.5013 212.005 85.005 211.192C84.7806 210.825 84.7503 210.566 84.8624 210.144C85.7357 209.364 88.192 209.354 89.3829 209.21C90.0113 207.86 90.5328 206.281 91.3475 205.04C91.5565 204.722 91.69 204.537 92.1021 204.5C93.7938 204.347 94.1295 208.245 95.2354 209.236C95.3543 209.343 95.9344 209.392 96.1019 209.42C96.9432 209.564 98.5802 209.746 99.232 210.344C99.4254 210.522 99.4896 210.578 99.502 210.848C99.5496 211.895 97.4708 213.619 96.7525 214.349L97.3502 217.049C97.4178 217.658 97.651 218.645 97.2623 219.17C97.1136 219.37 97.0643 219.445 96.8077 219.478C95.9158 219.591 94.4422 218.646 93.6385 218.26C92.0242 218.703 90.1751 218.961 88.4998 218.877C88.0814 218.912 87.8804 218.864 87.4888 218.711Z" fill="#063961"/>
<path id="Vector_50" d="M88.4998 218.877L91.9932 217.477L93.6384 218.26C92.0242 218.703 90.175 218.961 88.4998 218.877Z" fill="#F97316"/>
<path id="Vector_51" d="M91.8679 209.045L92.0596 209.068C92.4866 209.518 92.7253 210.653 92.9319 211.25L95.7915 211.381C94.8406 211.963 94.0793 212.565 93.4736 213.519L94.2644 216.155L93.4128 215.579L92.3462 214.601L92.1936 214.508C91.6907 214.339 90.5513 215.455 90.1611 215.771L89.9751 215.698C89.8813 214.779 90.2473 213.758 90.4226 212.851C89.7153 212.335 88.9797 211.995 88.2056 211.596L88.9714 211.384C89.6606 211.191 90.3516 211.18 91.0623 211.148C91.2014 210.345 91.3437 209.691 91.8679 209.045Z" fill="#0369A1"/>
<path id="Vector_52" d="M63.9792 172.305C66.5706 172.509 69.627 172.86 72.1646 172.28C71.9731 173.843 71.5186 175.279 71.1531 176.797C70.7102 177.556 70.5923 178.644 70.4048 179.499L69.2466 185.226L68.9927 186.18L68.8457 186.689C68.239 188.239 67.1802 188.947 65.8835 189.891L61.8167 192.546C61.7197 192.606 60.8496 193.106 60.8376 193.146C60.8308 193.168 60.9551 193.519 60.967 193.552C61.1826 194.152 61.7922 195.225 61.5845 195.832C61.4202 195.898 61.3711 195.954 61.1877 195.902C60.3857 195.673 59.5156 194.356 59.0825 193.665C58.6182 192.923 57.7744 192.402 57.082 191.871C57.6375 191.722 58.4187 191.593 58.8989 191.285C59.7266 190.754 60.5691 189.736 61.2959 189.049C61.5984 188.919 61.9719 188.481 62.228 188.253C62.6943 188.079 64.4382 186.286 64.8203 185.8C65.2168 185.157 64.2754 178.719 64.1504 177.64L63.9792 172.305Z" fill="url(#paint1_linear_1037_20918)"/>
<path id="Vector_53" d="M151.865 212.615C151.319 212.06 150.102 211.066 150.128 210.205C150.138 209.861 150.222 209.725 150.496 209.531C151.255 208.992 153.117 208.915 154.02 208.803C154.243 208.775 154.788 208.774 154.976 208.682C155.017 208.662 155.344 207.854 155.385 207.761L156.753 204.792C156.882 204.545 157.098 204.051 157.288 203.87C157.512 203.655 158.028 203.763 158.313 203.773C159.261 204.391 159.99 206.782 160.382 207.819C160.441 207.977 160.606 208.588 160.701 208.686C160.742 208.727 161.236 208.787 161.351 208.809C162.256 208.98 165.368 209.281 165.666 210.144C165.78 210.476 165.719 210.715 165.537 210.999C164.723 212.263 163.194 213.202 162.199 214.359C162.372 215.398 163.072 217.777 162.732 218.75C162.512 218.985 162.333 219.218 161.987 219.249C161.408 219.302 160.384 218.59 159.871 218.32L157.875 217.097C156.764 217.756 155.29 218.42 154.318 219.237C154.113 219.332 153.857 219.399 153.625 219.363C153.253 219.304 153.099 219.124 152.869 218.858C152.641 217.478 153.226 215.586 153.513 214.227L151.865 212.615Z" fill="#063961"/>
<path id="Vector_54" d="M159.093 212.764L160.317 216.01L157.464 213.884C156.666 214.494 155.963 215.322 155.255 216.038L155.407 212.319C154.772 211.835 153.951 211.719 153.365 211.17L153.467 210.999C154.079 210.627 154.719 210.658 155.414 210.628C155.853 209.097 156.547 207.894 157.35 206.542C157.919 207.907 158.344 209.362 158.626 210.81C159.352 210.768 160.492 210.473 161.125 210.876C161.152 211.182 161.2 211.065 161.011 211.282C160.512 211.858 159.703 212.295 159.093 212.764Z" fill="#0369A1"/>
<path id="Vector_55" d="M72.6353 171.438L80.7109 177.834C81.3005 178.568 81.6294 179.097 81.8052 180.046C81.6655 180.5 81.543 180.951 81.3159 181.37L79.8684 183.273L75.1338 187.718L75.3513 189.614C75.4268 190.429 75.7471 192.314 75.1716 192.958C75.0044 193.145 74.9441 193.084 74.7097 193.088C73.9092 192.347 73.6699 190.532 73.4446 189.481L73.1274 188.232C72.6121 187.817 72.1772 187.375 71.731 186.889L71.4272 186.017C70.6853 186.107 69.7126 186.386 68.9927 186.18L69.2466 185.226L70.4048 179.499C70.5923 178.644 70.7102 177.556 71.1531 176.797C71.5186 175.279 71.9731 173.843 72.1646 172.28L72.6353 171.438Z" fill="#111517"/>
<path id="Vector_56" d="M69.2466 185.226L70.4048 179.499C70.5923 178.644 70.7102 177.556 71.1531 176.797L74.7183 179.001C75.6211 179.528 76.5798 179.989 77.407 180.631L74.4387 184.807C74.1824 185.209 74.0972 185.517 73.6084 185.634L71.4272 186.017C70.6853 186.107 69.7126 186.386 68.9927 186.18L69.2466 185.226Z" fill="#F97316"/>
<path id="Vector_57" d="M69.2466 185.226C70.2385 185.132 73.6934 184.494 74.4387 184.807C74.1824 185.209 74.0972 185.517 73.6084 185.634L71.4272 186.017C70.6853 186.107 69.7126 186.386 68.9927 186.18L69.2466 185.226Z" fill="#FDBA74"/>
<path id="Vector_58" d="M117.44 214.694C117.127 214.166 116.549 213.668 116.127 213.213L113.594 210.457C113.187 210.006 112.53 209.322 112.437 208.708C112.37 208.265 112.477 207.781 112.77 207.439C112.904 207.282 113.069 207.138 113.268 207.074C113.941 206.857 114.805 206.855 115.513 206.788L120.74 206.38L122.981 201.441C123.244 200.889 123.482 200.141 123.855 199.67C124.207 199.226 124.717 199.169 125.244 199.129C125.518 199.223 125.76 199.302 125.96 199.524C126.314 199.914 126.583 200.677 126.82 201.16C127.577 202.71 128.273 204.323 129.127 205.821L129.188 205.927C129.626 206.42 130.302 206.413 130.938 206.53L135.033 207.25C135.687 207.364 136.62 207.444 137.172 207.825C137.584 208.109 137.719 208.604 137.691 209.079C137.655 209.707 137.085 210.173 136.677 210.61L133.929 213.508C133.5 213.952 132.805 214.499 132.556 215.05C132.414 215.473 132.683 216.329 132.763 216.782C132.953 217.861 134.004 222.628 133.618 223.258C133.386 223.636 132.955 223.885 132.507 223.869C131.616 223.838 130.26 222.884 129.48 222.473L126.051 220.805C125.758 220.67 125.244 220.352 124.94 220.301C124.861 220.288 124.199 220.647 124.099 220.695L119.868 222.827C119.17 223.18 118.351 223.672 117.588 223.855C117.24 223.938 116.899 223.839 116.623 223.618C116.356 223.405 116.182 223.138 116.109 222.804C115.987 222.237 116.308 221.244 116.419 220.683L117.234 216.439C117.332 215.973 117.567 215.303 117.482 214.833L117.44 214.694Z" fill="#063961"/>
<path id="Vector_59" d="M125.042 205.434C125.891 206.789 126.394 208.539 127.013 210.022L131.548 210.285L128.136 213.435C128.451 215.021 129.042 216.548 129.219 218.158L125.549 215.721C124.807 215.608 124.272 216.07 123.657 216.429C122.792 216.936 121.956 217.471 121.058 217.92C121.018 217.469 121.184 216.975 121.282 216.532L122.043 213.494L118.604 210.236L123.038 209.955L125.042 205.434Z" fill="#0369A1"/>
<path id="Vector_60" d="M151.865 212.615L153.513 214.227C153.226 215.586 152.641 217.478 152.869 218.858C153.099 219.124 153.253 219.304 153.625 219.363C153.857 219.399 154.113 219.332 154.318 219.237C155.183 219.637 156.095 219.899 156.975 220.26C159.069 221.117 161.81 222.647 164.09 222.631C156.844 226.447 149.292 228.725 141.275 230.271C123.479 233.703 104.326 231.472 87.9448 223.661C85.2114 222.358 82.4751 221.027 79.9614 219.326L87.4888 218.711C87.8804 218.864 88.0813 218.912 88.4998 218.877C90.175 218.961 92.0242 218.703 93.6384 218.26C94.4421 218.646 95.9158 219.591 96.8076 219.478C97.0642 219.445 97.1135 219.37 97.2622 219.17C97.6509 218.646 97.4177 217.658 97.3501 217.049L112.483 215.371C114.102 215.154 115.862 215.084 117.44 214.694L117.482 214.833C117.567 215.303 117.332 215.973 117.234 216.439L116.419 220.683C116.308 221.244 115.987 222.237 116.109 222.804C116.182 223.138 116.356 223.405 116.623 223.618C116.899 223.839 117.24 223.938 117.588 223.855C118.351 223.672 119.17 223.18 119.868 222.827L124.099 220.695C124.199 220.647 124.861 220.288 124.94 220.301C125.244 220.352 125.758 220.67 126.051 220.805L129.48 222.473C130.26 222.884 131.616 223.838 132.507 223.869C132.955 223.885 133.386 223.636 133.618 223.258C134.004 222.628 132.953 217.861 132.763 216.782C132.683 216.329 132.414 215.473 132.556 215.05C133.966 215.24 135.835 214.772 137.268 214.606L146.167 213.541L149.654 213.1C150.407 213.002 151.178 212.961 151.865 212.615Z" fill="#EA580C"/>
<path id="Vector_61" d="M169.52 162.205C170.381 163.307 173.807 167.836 174.945 168.015C175.299 168.07 175.532 167.644 175.752 167.969L176.761 170.512C177.852 170.663 178.96 170.833 180.061 170.882L182.948 170.922C183.408 170.925 183.882 170.882 184.327 171.016L187.422 176.212C186.844 176.36 186.297 176.611 185.746 176.838C184.79 177.073 183.607 177.401 182.627 177.406C183.307 178.204 184.117 179.135 184.502 180.12C184.847 181.001 184.857 182.264 184.949 183.225C185.149 185.295 185.28 187.429 185.623 189.479L185.666 190.171C184.969 190.458 183.719 190.371 182.946 190.356L167.946 189.626L140.71 188.844L100.751 188.854L83.7485 189.372L78.2522 189.613C77.3054 189.653 76.2871 189.794 75.3513 189.614L75.1338 187.718L79.8684 183.273L113.43 181.718L117.475 181.757L132.301 181.714L132.149 181.559C131.549 180.726 132.278 174.573 132.364 173.196C132.738 173.14 133.169 173.109 133.513 172.953L133.64 172.882C133.961 173.221 134.247 173.495 134.644 173.745L135.103 173.523C135.563 174.026 135.705 174.648 136.279 175.033C136.535 175.205 136.722 175.519 136.902 175.769L137.146 175.812C137.353 175.414 137.366 175.21 137.317 174.767L137.185 174.605C136.67 173.952 137.046 170.905 137.084 169.974C137.83 169.93 138.694 169.614 139.434 169.461L145.402 168.177L160.148 164.633L169.52 162.205Z" fill="#FDBA74"/>
<path id="Vector_62" d="M176.761 170.512C177.852 170.663 178.96 170.833 180.061 170.882L182.947 170.922C183.408 170.925 183.882 170.882 184.327 171.016L187.422 176.212C186.844 176.36 186.297 176.611 185.746 176.838C184.79 177.073 183.607 177.401 182.627 177.406C183.307 178.204 184.117 179.135 184.502 180.12C184.847 181.001 184.857 182.264 184.949 183.225C185.149 185.295 185.28 187.429 185.623 189.479L180.685 189.173L180.309 188.534C178.685 185.897 174.965 185.071 172.169 184.398L169.205 183.875C168.491 184.715 167.801 185.48 166.963 186.203C166.868 186.016 166.972 185.659 166.997 185.449L167.3 182.812C167.42 182.245 167.364 181.544 167.383 180.959L176.001 180.974C176.099 179.909 176.385 178.607 176.271 177.551C175.981 177.473 175.669 177.437 175.473 177.191L176.761 170.512Z" fill="#111517"/>
<path id="Vector_63" d="M177.58 183.341C177.804 183.334 178.134 183.325 178.284 183.117C178.504 182.812 178.584 182.265 178.659 181.896L179.143 179.303C179.222 178.864 179.233 178.421 179.565 178.092L180.176 177.986C180.596 177.799 180.868 176.24 180.986 175.771C181.376 176.216 181.959 177.042 182.466 177.323L182.627 177.406C183.307 178.204 184.117 179.136 184.502 180.12C184.847 181.001 184.857 182.264 184.949 183.225C185.149 185.295 185.28 187.429 185.623 189.479L180.685 189.173L180.309 188.534C178.685 185.897 174.965 185.071 172.169 184.398L169.205 183.875L169.99 182.987L175.266 183.032C176.018 183.053 176.901 182.98 177.58 183.341Z" fill="#EA580C"/>
<path id="Vector_64" d="M169.52 162.205C170.381 163.307 173.807 167.836 174.945 168.015C175.299 168.07 175.532 167.644 175.752 167.969L176.761 170.512L175.473 177.191C175.669 177.437 175.981 177.473 176.271 177.551C176.386 178.607 176.099 179.909 176.001 180.974L167.383 180.959C167.365 181.544 167.42 182.245 167.301 182.812L162.118 182.59L150.879 182.045L145.811 181.939C144.848 181.921 143.855 181.958 142.901 181.82L132.301 181.714L132.149 181.559C131.549 180.726 132.278 174.573 132.364 173.196C132.738 173.14 133.169 173.109 133.513 172.953L133.64 172.882C133.961 173.221 134.247 173.495 134.644 173.745L135.103 173.523C135.563 174.026 135.705 174.648 136.279 175.033C136.535 175.205 136.722 175.519 136.902 175.769L137.146 175.812C137.353 175.414 137.366 175.21 137.317 174.767L137.185 174.605C136.67 173.952 137.046 170.905 137.084 169.974C137.83 169.93 138.694 169.614 139.434 169.461L145.402 168.177L160.148 164.633L169.52 162.205Z" fill="#EA580C"/>
<path id="Vector_65" d="M133.64 172.882C133.961 173.221 134.247 173.495 134.644 173.745L135.103 173.523C135.563 174.026 135.705 174.648 136.279 175.033C136.535 175.205 136.722 175.519 136.902 175.769L137.146 175.812C137.353 175.414 137.366 175.21 137.317 174.767L137.185 174.605L138.012 174.492C138.45 175.098 137.634 176.09 138.315 176.758C139.833 178.247 144.271 177.382 143.91 180.409C143.834 181.054 143.391 181.447 142.901 181.82L132.301 181.714L132.149 181.559C131.549 180.726 132.278 174.573 132.364 173.196C132.738 173.14 133.169 173.109 133.513 172.953L133.64 172.882Z" fill="#063961"/>
<path id="Vector_66" d="M195.466 44.7124C195.395 43.4824 195.302 42.2441 195.432 41.0154C195.67 38.7773 196.53 36.5559 197.481 34.5315L198.926 31.7363C202.213 35.8113 204.544 40.5007 203.948 45.874C203.814 47.0781 203.456 48.2087 202.929 49.2961C202.783 49.5959 202.355 50.2004 202.307 50.4988C202.247 50.8618 205.131 59.6152 205.445 60.7139C206.41 56.2227 208.395 52.8796 212.32 50.3166C213.863 49.3088 215.553 48.5894 217.256 47.9009C217.779 52.2236 217.233 57.1213 214.459 60.6409C212.99 62.5034 210.285 64.116 207.913 64.3599C207.502 64.4023 207.128 64.3665 206.726 64.279L206.631 64.4531L210.487 76.4568C210.785 72.5 212.807 68.8481 215.782 66.282C217.539 64.7661 219.737 63.6997 221.887 62.8601C222.506 67.1475 222.018 72.0615 219.353 75.6226C217.681 77.8562 215.267 79.0042 212.547 79.3691L211.245 79.4853L213.411 91.3061C214.074 87.4456 215.301 84.1172 218.64 81.7493C220.953 80.1091 223.788 79.2549 226.53 78.6521C226.474 82.9595 225.804 87.6409 222.544 90.7852C220.815 92.4526 218.953 92.699 216.781 93.4214C215.759 93.7615 214.837 94.1724 213.782 94.4356L213.958 95.3809C215.048 96.5354 216.548 98.543 217.995 99.168C220.93 96.7656 224.794 95.7495 228.525 95.457C228.049 99.6335 226.916 104.411 223.449 107.149C221.182 108.94 218.191 109.349 215.393 108.966L214.961 108.891L214.868 120.792C215.388 119.832 215.9 118.861 216.582 118.003C217.977 116.248 220.006 115.092 222.133 114.459C224.37 113.793 226.582 113.755 228.895 113.837C228.066 117.617 226.609 121.291 223.64 123.892L227.327 124.032C225.64 125.617 223.678 126.969 221.946 128.527C221.348 129.066 220.628 129.627 220.209 130.318C223.125 129.453 225.834 129.248 228.846 129.386C227.832 132.888 226.498 136.217 223.739 138.702C224.023 141.641 222.013 144.911 220.204 147.082C218.596 149.01 216.471 151.093 214.181 152.188C212.766 152.865 211.099 153.279 209.564 153.573L207.448 160.296C207.335 160.637 207.24 160.981 207.053 161.289C206.097 159.691 206.012 157.699 204.754 156.206C202.973 160.2 200.609 163.837 197.852 167.221C195.674 169.893 193.567 172.155 190.776 174.211C189.924 174.84 188.841 175.704 187.852 176.094L187.422 176.212L184.327 171.016C183.882 170.882 183.408 170.925 182.948 170.922L180.061 170.882C178.96 170.833 177.852 170.663 176.761 170.512L175.752 167.969C175.532 167.644 175.299 168.07 174.945 168.015C173.807 167.836 170.381 163.307 169.52 162.205L160.148 164.633L145.402 168.177L139.434 169.461C138.694 169.615 137.83 169.93 137.084 169.974C137.046 170.905 136.67 173.952 137.185 174.605L137.317 174.767C137.366 175.21 137.353 175.414 137.146 175.812L136.902 175.769C136.722 175.519 136.535 175.205 136.279 175.033C135.705 174.648 135.563 174.026 135.103 173.523L134.644 173.745C134.247 173.495 133.961 173.221 133.64 172.882L133.513 172.953C133.169 173.109 132.738 173.14 132.364 173.196C132.278 174.573 131.549 180.726 132.149 181.559L132.301 181.714L117.475 181.757C117.651 181.544 117.825 181.329 117.937 181.074C118.661 179.415 117.23 178.349 115.88 177.764C115.409 177.559 114.636 177.335 114.289 176.976C113.981 176.657 113.772 176.029 113.594 175.62C113.957 175.09 114.423 174.529 114.69 173.948L114.757 173.798L113.845 173.488L113.858 173.928L113.383 175.465C113.142 175.02 112.851 174.59 112.804 174.078C112.644 173.95 112.432 173.883 112.244 173.802L112.164 173.579L112.053 173.279C111.814 172.494 111.236 172.077 110.645 171.535L112.158 168.113L112.794 166.737C113.328 166.115 113.745 165.039 114.144 164.307C115.51 161.806 116.94 159.332 118.047 156.703C117.533 156.793 116.974 156.792 116.452 156.831L115.814 148.992C115.704 147.129 115.608 145.267 115.945 143.422C116.116 142.439 116.087 141.408 116.099 140.411L116.146 135.833C112.523 134.968 109.422 133.806 106.059 132.224C100.75 129.31 95.8757 125.275 92.26 120.394C90.4009 117.885 88.9243 115.189 87.573 112.383C86.2405 109.207 85.1968 105.929 84.6423 102.523C84.3718 100.86 84.2656 99.1743 84.1287 97.4968C84.0447 89.822 85.9248 82.7441 89.7322 76.0825L90.1245 75.4868C91.8672 72.7681 93.7334 70.2229 95.9973 67.9092C100.35 63.4604 105.829 60.2725 111.68 58.2439C122.178 54.604 133.612 55.7666 143.524 60.5588L150.622 65.0742L188.244 65.1519L185.085 61.2991L185.364 60.8652C187.805 59.6074 191.396 59.1033 194.092 59.3218C197.738 59.6172 200.353 61.124 202.702 63.8894L199.265 51.739C197.106 49.8811 195.975 47.4707 195.466 44.7124Z" fill="#0369A1"/>
<path id="Vector_67" d="M208.49 110.531L211.038 110.093L211.081 111.706L208.49 110.531Z" fill="#FDFDFD"/>
<path id="Vector_68" d="M213.958 95.3809C215.048 96.5354 216.548 98.543 217.995 99.168C216.477 101.039 215.512 102.898 214.801 105.202L213.958 95.3809Z" fill="#7DD3FC"/>
<path id="Vector_69" d="M199.974 108.295C202.8 110.153 205.105 110.669 208.49 110.531L211.081 111.706L211.092 115.003L210.549 115.003C208.3 114.935 206.167 113.814 204.272 112.713C203.045 111.999 201.851 111.267 200.88 110.217C200.925 109.709 200.146 108.863 199.974 108.295Z" fill="#FDBA74"/>
<path id="Vector_70" d="M197.477 68.6028L200.761 67.6184C201.347 67.428 201.922 67.1375 202.542 67.083L203.893 67.0588L206.844 77.6472C204.769 75.2637 202.449 73.238 199.32 72.4417C198.088 72.1284 196.808 72.0396 195.545 71.9531L194.752 71.9063C195.432 70.458 196.24 69.5852 197.477 68.6028Z" fill="#FDFDFD"/>
<path id="Vector_71" d="M220.209 130.318C218.284 130.987 216.275 132.207 215.013 133.832C214.502 134.49 214.121 135.251 213.727 135.982C213.699 134.531 214.003 132.98 214.164 131.531L214.717 125.122C218.096 125.812 220.666 125.845 223.64 123.892L227.327 124.032C225.64 125.617 223.678 126.969 221.946 128.527C221.348 129.066 220.628 129.627 220.209 130.318Z" fill="#F97316"/>
<path id="Vector_72" d="M223.739 138.702C224.023 141.641 222.013 144.911 220.204 147.082C218.596 149.01 216.471 151.093 214.181 152.188C212.766 152.865 211.099 153.279 209.564 153.573L212.907 139.62C214.054 140.084 215.216 140.437 216.439 140.635C219.164 141.073 221.542 140.275 223.739 138.702Z" fill="#F97316"/>
<path id="Vector_73" d="M188.244 65.1519C190.519 67.3813 193.043 68.6938 196.289 68.6616L197.477 68.6028C196.24 69.5852 195.432 70.458 194.752 71.9063C193.358 71.9763 191.934 71.9875 190.572 72.3152C191.926 75.7991 194.479 79.5957 198.014 81.1289C200.839 82.3542 203.972 82.0193 206.774 80.8933L207.67 80.5249L208.979 87.5493C209.241 88.9834 209.629 90.6035 209.627 92.0586C207.53 88.8193 204.805 86.5925 200.975 85.7527C198.25 85.155 195.309 85.2043 192.568 85.6421C193.87 89.4194 196.968 93.3254 200.574 95.104C202.927 96.2649 205.848 96.6628 208.366 95.8049C208.942 95.6084 209.447 95.3369 209.966 95.0212L210.944 106.797C209.444 103.761 207.493 101.463 204.224 100.343C201.934 99.5591 199.524 99.3342 197.119 99.4795C196.554 99.5137 195.798 99.5322 195.273 99.7554L195.181 99.8035L195.519 101.167C196.457 102.772 197.229 104.487 198.229 106.051C198.749 106.865 199.448 107.512 199.974 108.295C200.146 108.863 200.925 109.709 200.88 110.217C199.318 109.265 197.75 108.496 196.247 107.42C194.728 106.331 193.277 104.913 191.692 103.949C191.295 103.707 190.816 103.485 190.346 103.455C190.123 103.745 190.188 104.118 190.235 104.475C190.424 105.931 191.928 109.399 191.01 110.575C190.921 110.689 190.789 110.775 190.674 110.859C189.514 110.675 188.93 108.948 187.75 108.948C186.458 110.166 187.909 113.931 186.035 114.46C184.252 114.038 183.105 111.036 181.186 112.244C180.484 112.685 179.949 113.309 179.517 114.011C178.435 115.77 177.753 118.508 175.072 117.996C173.399 117.676 173.008 115.367 171.448 115.091C170.393 114.905 169.196 115.135 168.162 115.375L161.942 117.141C161.365 117.288 160.622 117.56 160.036 117.527L162.447 113.159C164.968 106.747 166.066 100.595 165.628 93.689C165.117 85.6316 161.51 77.0698 156.404 70.8635C154.678 68.7651 152.656 66.8701 150.622 65.0742L188.244 65.1519Z" fill="#7DD3FC"/>
<path id="Vector_74" d="M176.626 69.5959L178.032 72.802C178.816 74.4004 180.829 75.0244 182.415 75.5605L179.382 76.7126C177.77 77.4971 177.214 80.124 176.64 81.6985L175.608 78.7371C175.375 78.1934 175.104 77.6216 174.667 77.2102C173.792 76.387 171.791 76.0063 170.651 75.5579C171.748 75.165 172.971 74.8345 173.997 74.2837C175.533 73.4585 176.159 71.1619 176.626 69.5959Z" fill="#FDFDFD"/>
<path id="Vector_75" d="M178.571 93.9063L183.067 88.9602L195.519 101.167C196.457 102.772 197.229 104.487 198.229 106.051C198.749 106.865 199.448 107.512 199.974 108.295C200.146 108.863 200.925 109.709 200.88 110.217C199.318 109.265 197.75 108.496 196.247 107.42C194.728 106.331 193.277 104.913 191.692 103.949C191.295 103.707 190.816 103.485 190.346 103.455C190.123 103.745 190.188 104.118 190.235 104.475C190.424 105.931 191.928 109.399 191.01 110.575C190.921 110.689 190.789 110.775 190.674 110.859C189.514 110.675 188.93 108.948 187.75 108.948C186.459 110.166 187.909 113.931 186.035 114.46C184.252 114.038 183.105 111.036 181.186 112.244C180.484 112.685 179.949 113.309 179.517 114.011C178.435 115.77 177.753 118.508 175.072 117.996C173.399 117.676 173.008 115.367 171.448 115.091C170.393 114.905 169.196 115.135 168.162 115.375L161.942 117.141C161.365 117.288 160.622 117.56 160.036 117.527L162.447 113.159C163.074 112.842 163.594 112.106 164.045 111.571L166.584 108.517L177.144 95.7312C176.009 95.6497 171.976 96.1892 171.266 95.6999C171.125 95.4856 171.036 95.3228 171.026 95.0645C171.013 94.751 171.105 94.4297 171.324 94.1992C171.794 93.7065 172.935 93.8752 173.571 93.8772L178.571 93.9063Z" fill="#FDFDFD"/>
<path id="Vector_76" d="M160.036 117.527C160.622 117.56 161.365 117.288 161.942 117.141L168.162 115.375C169.196 115.135 170.393 114.905 171.448 115.091C173.008 115.367 173.399 117.676 175.072 117.996C177.753 118.508 178.435 115.77 179.517 114.011C179.949 113.309 180.484 112.685 181.186 112.244C183.105 111.036 184.252 114.038 186.035 114.46C187.909 113.931 186.459 110.166 187.75 108.948C188.93 108.948 189.514 110.675 190.674 110.859C190.789 110.775 190.921 110.689 191.01 110.575C191.928 109.399 190.424 105.931 190.235 104.475C190.188 104.118 190.123 103.745 190.346 103.455C190.816 103.485 191.295 103.707 191.692 103.949C193.277 104.913 194.728 106.331 196.247 107.42C197.75 108.496 199.318 109.265 200.88 110.217C201.851 111.267 203.045 111.999 204.272 112.713C206.167 113.814 208.3 114.935 210.549 115.003L211.092 115.003L210.882 121.991C209.261 118.695 207.344 116.212 203.754 114.99C200.91 114.021 197.939 113.991 194.98 114.164C196.367 118.349 197.918 122.371 202.101 124.449C204.748 125.763 208.035 125.861 210.855 125.084L209.533 137.189C208.124 133.543 206.351 131.404 202.73 129.797C200.214 128.679 197.158 128.089 194.409 128.003C195.278 132.338 196.475 136.421 200.378 139C202.538 140.427 205.301 141.123 207.861 140.594L208.948 140.349L206.444 150.723C205.205 147.402 203.649 145.011 200.356 143.486C198.947 142.833 197.487 142.39 195.967 142.081L193.722 141.834C194.157 146.098 194.641 149.792 198.182 152.649C199.722 153.891 201.485 154.505 203.409 154.839C204.025 154.946 204.656 154.909 205.278 154.894L204.754 156.206C202.973 160.2 200.609 163.837 197.852 167.221C195.674 169.893 193.567 172.155 190.776 174.211C189.924 174.84 188.841 175.704 187.852 176.094L187.422 176.212L184.327 171.016C183.882 170.882 183.408 170.925 182.948 170.922L180.061 170.882C178.96 170.833 177.852 170.663 176.761 170.512L175.752 167.969C175.532 167.644 175.299 168.07 174.945 168.015C173.807 167.836 170.381 163.307 169.52 162.205L160.148 164.633L145.402 168.177L139.434 169.461C138.694 169.615 137.83 169.93 137.084 169.974C137.046 170.905 136.67 173.952 137.185 174.605L137.317 174.767C137.366 175.21 137.353 175.414 137.146 175.812L136.902 175.769C136.722 175.519 136.535 175.205 136.279 175.033C135.705 174.648 135.563 174.026 135.103 173.523L134.644 173.745C134.247 173.495 133.961 173.221 133.64 172.882L133.513 172.953C133.169 173.109 132.738 173.14 132.364 173.196C132.278 174.573 131.549 180.726 132.149 181.559L132.301 181.714L117.475 181.757C117.651 181.544 117.825 181.329 117.937 181.074C118.661 179.415 117.23 178.349 115.88 177.764C115.409 177.559 114.635 177.335 114.289 176.976C113.981 176.657 113.772 176.029 113.594 175.62C113.957 175.09 114.423 174.529 114.69 173.948L114.757 173.798L113.845 173.488L113.858 173.928L113.383 175.465C113.142 175.02 112.851 174.59 112.804 174.078C112.644 173.95 112.432 173.883 112.244 173.802L112.164 173.579L112.053 173.279C111.814 172.494 111.236 172.077 110.645 171.535L112.158 168.113L112.794 166.737C113.328 166.115 113.745 165.039 114.144 164.307C115.51 161.806 116.94 159.332 118.047 156.703C117.533 156.793 116.974 156.792 116.452 156.831L115.814 148.992C115.704 147.129 115.608 145.267 115.945 143.422L128.472 143.566C129.98 143.569 131.856 143.775 133.321 143.518L133.058 135.777C134.722 135.44 136.382 135.167 138.017 134.689C144.989 132.65 151.569 128.511 156.218 122.895C157.631 121.189 158.751 119.317 160.036 117.527Z" fill="#F97316"/>
<path id="Vector_77" d="M195.93 156.604C195.848 156.528 195.819 156.413 195.776 156.311C195.991 156.122 196.136 156.058 196.411 155.982C196.785 156.199 196.985 156.188 197.413 156.141L197.554 156.124C197.427 156.582 197.259 156.919 196.812 157.141C196.599 157.246 196.445 157.277 196.213 157.299C196.052 157.072 196 156.872 195.93 156.604Z" fill="#0369A1"/>
<path id="Vector_78" d="M179.502 155.434C179.2 155.287 178.92 155.107 178.654 154.9C178.122 154.483 177.721 154.007 177.639 153.326C177.578 152.82 177.368 152.372 177.278 151.873C177.188 151.376 177.386 150.915 177.2 150.431L176.913 149.658C176.727 148.824 176.988 147.924 177.476 147.243C177.982 146.535 178.723 146.24 179.562 146.153C180.359 146.07 180.713 146.358 181.425 146.567C181.858 146.694 182.321 146.694 182.761 146.826C183.12 146.933 183.372 147.134 183.704 147.278C184.151 147.471 184.618 147.47 185.008 147.808C185.285 148.049 185.489 148.288 185.487 148.673C185.483 149.342 185.145 149.802 184.675 150.241L184.546 150.36L184.369 150.528L184.261 150.626C184.421 150.734 184.504 150.803 184.63 150.94C184.535 151.348 184.191 152.643 183.96 152.879C183.806 152.736 183.655 152.62 183.478 152.505L183.406 152.649C183.597 152.974 183.773 153.243 183.823 153.625L183.594 153.842L182.739 153.992L182.876 154.341C182.854 154.858 182.729 155.296 182.583 155.788L179.502 155.434Z" fill="#490B00"/>
<path id="Vector_79" d="M137.035 155.415C137.49 157.132 137.231 159.221 137.21 161.002L137.084 169.974C137.046 170.905 136.67 173.952 137.185 174.605L137.317 174.767C137.366 175.21 137.353 175.414 137.146 175.812L136.902 175.769C136.722 175.519 136.535 175.205 136.279 175.033C135.705 174.648 135.563 174.026 135.103 173.523L134.644 173.745C134.247 173.495 133.961 173.221 133.64 172.882C133.393 172.155 133.315 171.388 133.221 170.629L131.925 156.594L137.035 155.415Z" fill="#0284C7"/>
<path id="Vector_80" d="M182.876 154.341C183.634 154.49 184.642 154.578 185.334 154.926C185.989 155.256 186.667 156.091 187.209 156.602C188.29 157.622 189.497 158.754 190.733 159.567L193.707 156.796C194.265 156.281 194.84 155.61 195.557 155.353L195.783 155.241C196.219 155.021 196.584 154.827 197.082 154.854C197.356 155.093 197.495 155.207 197.547 155.579L197.554 156.124L197.412 156.141C196.985 156.188 196.785 156.199 196.411 155.982C196.136 156.058 195.991 156.122 195.776 156.311C195.819 156.413 195.848 156.528 195.93 156.604C195.845 156.882 195.756 157.182 195.596 157.426C195.231 157.98 194.594 158.493 194.117 158.955C193.235 159.807 192.214 160.986 191.135 161.559C190.964 161.651 190.977 161.641 190.825 161.698C189.543 161.17 188.502 160.271 187.411 159.436C186.514 158.75 185.562 158.101 184.71 157.362C184.641 159.761 184.418 162.185 184.456 164.581C184.485 166.426 184.818 168.275 184.696 170.124C184.673 170.476 184.615 170.648 184.399 170.922L184.327 171.016C183.882 170.882 183.408 170.925 182.947 170.922L180.061 170.882C178.96 170.833 177.852 170.663 176.761 170.512L175.752 167.969C175.532 167.644 175.299 168.07 174.945 168.015C173.807 167.836 170.381 163.307 169.52 162.205L169.128 161.499C169.047 161.286 169.004 161.002 169.097 160.793C169.241 160.472 169.65 160.234 169.949 160.072C170.992 159.504 172.144 159.097 173.211 158.561C175.286 157.519 177.353 156.306 179.502 155.434L182.582 155.788C182.729 155.296 182.854 154.858 182.876 154.341Z" fill="#063961"/>
<path id="Vector_81" d="M172.23 161.644L172.021 161.377L172.18 161.209C172.417 161.046 172.892 160.939 173.171 160.84L175.353 159.995C175.621 159.877 176.526 159.384 176.758 159.399C176.826 159.403 176.886 159.448 176.95 159.472L177.01 160.461C175.449 160.789 173.81 161.532 172.23 161.644Z" fill="#F97316"/>
<path id="Vector_82" d="M172.23 161.644C173.81 161.532 175.449 160.789 177.01 160.461C176.98 161.605 177.12 165.845 176.664 166.565C176.324 166.668 176.125 166.787 175.779 166.687C174.855 165.624 174.056 164.469 173.261 163.308C172.909 162.794 172.441 162.226 172.23 161.644Z" fill="#EA580C"/>
<path id="Vector_83" d="M115.945 143.422L128.472 143.566C129.98 143.569 131.856 143.775 133.321 143.518L133.382 143.532L137.035 155.415L131.925 156.594L133.221 170.629C133.315 171.388 133.393 172.155 133.64 172.882L133.513 172.953C133.169 173.109 132.738 173.14 132.364 173.196C132.278 174.573 131.549 180.726 132.149 181.559L132.301 181.714L117.475 181.757C117.651 181.544 117.825 181.329 117.937 181.074C118.661 179.415 117.23 178.349 115.88 177.764C115.409 177.559 114.635 177.335 114.289 176.976C113.981 176.657 113.772 176.029 113.594 175.62C113.957 175.09 114.423 174.529 114.69 173.948L114.757 173.798L113.845 173.488L113.858 173.928L113.383 175.465C113.142 175.02 112.851 174.59 112.804 174.078C112.644 173.95 112.432 173.883 112.244 173.802L112.164 173.579L112.053 173.279C111.814 172.494 111.236 172.077 110.645 171.535L112.158 168.113L112.794 166.737C113.328 166.115 113.745 165.039 114.144 164.307C115.51 161.806 116.94 159.332 118.047 156.703C117.533 156.793 116.974 156.792 116.452 156.831L115.814 148.992C115.704 147.129 115.608 145.267 115.945 143.422Z" fill="#F97316"/>
<path id="Vector_84" d="M118.047 156.703C118.525 156.519 119.277 156.619 119.794 156.617L124.095 156.621C122.245 160.47 119.58 164.066 117.208 167.617L115.173 171.058C114.713 171.834 114.096 172.62 113.845 173.488L113.858 173.928L113.383 175.465C113.142 175.02 112.851 174.59 112.804 174.078C112.644 173.95 112.432 173.883 112.244 173.802L112.164 173.579L112.053 173.279C111.814 172.494 111.236 172.077 110.645 171.535L112.158 168.113L112.794 166.737C113.328 166.116 113.745 165.039 114.144 164.307C115.51 161.806 116.94 159.332 118.047 156.703Z" fill="#0284C7"/>
<path id="Vector_85" d="M117.208 167.616C117.621 167.667 118.123 167.658 118.426 167.969C118.558 168.262 118.656 168.536 118.744 168.845C118.938 169.016 119.108 169.124 119.2 169.373L119.062 169.438C118.466 169.724 118.056 169.949 117.833 170.593C117.299 170.771 116.339 170.423 115.759 170.327C116.592 171.176 118.25 171.989 118.626 173.1L127.242 171.585C129.223 171.228 131.207 170.739 133.221 170.629C133.315 171.388 133.393 172.155 133.64 172.882L133.513 172.953C133.169 173.109 132.738 173.14 132.364 173.196C132.278 174.573 131.549 180.726 132.149 181.559L132.301 181.714L117.475 181.757C117.651 181.544 117.825 181.329 117.937 181.074C118.661 179.415 117.23 178.349 115.88 177.764C115.409 177.559 114.635 177.335 114.289 176.976C113.981 176.657 113.772 176.029 113.594 175.62C113.957 175.09 114.423 174.529 114.69 173.948L114.757 173.798L113.845 173.488C114.096 172.62 114.713 171.833 115.173 171.058L117.208 167.616Z" fill="#EA580C"/>
<path id="Vector_86" d="M115.945 143.422L128.472 143.566C129.98 143.569 131.856 143.775 133.321 143.518L133.382 143.532L137.035 155.415L131.925 156.594L128.873 157.431C127.389 155.842 126.138 153.73 124.949 151.904C124.819 153.323 124.718 155.233 124.142 156.523L124.095 156.621L119.794 156.617C119.277 156.619 118.525 156.519 118.047 156.703C117.533 156.793 116.974 156.792 116.452 156.831L115.814 148.992C115.704 147.129 115.608 145.267 115.945 143.422Z" fill="#0369A1"/>
<path id="Vector_87" d="M90.1245 75.4868C91.8672 72.768 93.7334 70.2229 95.9973 67.9091C100.35 63.4604 105.829 60.2724 111.68 58.2439C122.178 54.604 133.612 55.7666 143.524 60.5588L150.622 65.0742C152.656 66.8701 154.678 68.7651 156.404 70.8635C161.51 77.0698 165.117 85.6316 165.628 93.6889C166.066 100.595 164.968 106.747 162.447 113.159L160.036 117.527C158.751 119.317 157.631 121.189 156.218 122.895C151.569 128.511 144.989 132.65 138.017 134.689C136.382 135.167 134.722 135.44 133.058 135.777L133.321 143.518C131.856 143.775 129.98 143.569 128.472 143.566L115.945 143.422C116.116 142.439 116.087 141.408 116.099 140.411L116.146 135.833C112.523 134.968 109.422 133.806 106.059 132.224C100.75 129.31 95.8757 125.275 92.26 120.394C90.4009 117.885 88.9243 115.189 87.573 112.383C86.2405 109.207 85.1968 105.929 84.6423 102.523C84.3718 100.86 84.2656 99.1743 84.1287 97.4968C84.0447 89.822 85.9248 82.7441 89.7322 76.0825L90.1245 75.4868Z" fill="#FDBA74"/>
<path id="Vector_88" d="M135.345 117.904C135.7 116.644 135.66 115.294 136.042 114.061L136.098 113.892C136.212 113.542 136.355 113.332 136.611 113.064C137.632 111.995 138.794 111.911 140.184 111.863C140.388 113.304 140.637 114.812 141.113 116.191L141.164 116.338L135.345 117.904Z" fill="#F97316"/>
<path id="Vector_89" d="M106.409 113.717L108.751 110.902C109.47 110.04 110.143 109.129 111.085 108.496C113.907 111.133 115.463 114.929 117.924 117.858L117.773 118.079L117.348 118.052C116.448 117.794 115.458 117.556 114.522 117.523L114.394 117.517C113.234 117.434 108.513 116.154 107.807 115.302C107.356 114.759 106.566 114.377 106.409 113.717Z" fill="#F97316"/>
<path id="Vector_90" d="M124.383 105.983C125.409 105.911 126.374 106.052 127.248 106.632C128.413 107.406 129.125 108.683 129.359 110.041C129.559 111.204 129.207 112.55 128.52 113.497C127.691 114.64 126.648 115.204 125.275 115.453C124.412 115.492 123.533 115.345 122.779 114.91C121.631 114.249 120.758 113.177 120.422 111.889C120.099 110.652 120.323 109.403 120.991 108.318C121.828 106.958 122.886 106.355 124.383 105.983Z" fill="#0369A1"/>
<path id="Vector_91" d="M141.164 116.338L143.567 115.635L143.669 99.406C143.666 98.6404 143.793 97.0957 143.25 96.498L143.232 96.6194L143.2 96.8018C143.144 97.1594 143.087 97.3135 142.876 97.6145C142.583 98.0315 142.404 98.501 142.09 98.8982C141.923 98.9062 141.91 98.915 141.724 98.8791C141.04 98.7473 140.626 97.978 140.308 97.4351C140.193 97.2402 140.275 97.3179 140.076 97.2097C140.076 97.4309 140.062 97.4497 139.954 97.6291C139.472 97.2126 139.179 96.655 139.066 96.0254C138.918 95.2017 139.064 94.4622 139.539 93.7698C139.931 93.197 140.347 92.9619 141.015 92.8379C141.728 92.7051 142.529 92.7688 143.253 92.7676L146.854 92.7705C147.537 92.7727 148.729 92.6401 149.369 92.8364C149.509 92.8796 149.763 93.0901 149.882 93.1768C150.53 93.6479 150.911 94.2817 151.029 95.073C151.186 96.1269 151 96.7808 150.363 97.5952C150.102 97.4858 150.17 97.0015 150.024 96.7161C149.507 97.4639 149.599 98.1946 148.724 98.7495C148.389 98.9619 148.074 99.1045 147.688 99.0205L147.525 98.6938C147.259 98.0491 147.013 97.7671 146.521 97.2756L147.941 115.44L147.914 117.777C147.352 118.477 146.757 119.004 145.916 119.353L143.414 119.912L135.517 121.775L135.261 117.962L135.345 117.904L141.164 116.338Z" fill="#0369A1"/>
<path id="Vector_92" d="M102.555 113.209L103.242 97.8194C102.72 97.7908 102.14 97.815 101.68 97.5408C101.482 97.2122 101.365 96.9236 101.257 96.556L101.115 96.5701C101.088 97.233 101.448 98.1233 101.257 98.7178C100.992 98.7715 100.888 98.8169 100.647 98.6438C99.7175 97.9764 99.0446 96.7173 99.0078 95.5811C98.9841 94.8582 99.26 94.0303 99.7895 93.524C100.123 93.2044 100.523 93.0008 100.974 92.9063C101.894 92.7132 102.923 92.7884 103.864 92.7889L108.322 92.8631C109.156 92.9136 109.945 92.9583 110.525 93.6285C111.001 94.178 111.253 94.9707 111.194 95.6944C111.102 96.8443 110.199 97.792 109.314 98.4717C109.025 98.6934 108.865 98.7381 108.512 98.6939C108.229 98.325 108.249 96.4419 108.16 95.855C107.952 96.4961 107.76 97.1416 107.472 97.7522L105.925 97.7659L106.409 113.717C106.566 114.377 107.356 114.759 107.807 115.302C108.513 116.154 113.234 117.434 114.394 117.517L114.522 117.523C115.458 117.556 116.448 117.794 117.348 118.053C117.039 119.323 116.863 120.951 116.339 122.127L114.223 121.792C113.565 121.474 112.799 121.317 112.1 121.109L106.531 119.698C105.475 119.3 104.288 119.315 103.393 118.535C102.691 117.921 102.658 117.098 102.596 116.235L102.555 113.209Z" fill="#0369A1"/>
<path id="Vector_93" d="M114.522 117.523C115.459 117.556 116.448 117.794 117.348 118.052C117.04 119.323 116.863 120.951 116.339 122.126L114.223 121.792C114.481 120.427 114.476 118.912 114.522 117.523Z" fill="#BADBF2"/>
<path id="Vector_94" d="M124.749 74.9763L128.888 83.2739L137.97 84.6567L131.38 90.8562L133.023 100.32C131.41 99.3311 129.698 98.4973 128.015 97.6367C127.044 97.1404 126.02 96.4792 124.948 96.2468L124.817 96.2219C124.604 96.2449 124.644 96.2109 124.504 96.3035C122.069 97.9155 119.221 99.1436 116.651 100.56L118.186 90.791L111.792 84.5149L120.838 83.2637L124.749 74.9763Z" fill="#0369A1"/>
<path id="Vector_95" d="M135.261 117.962L135.517 121.775C134.845 121.872 133.417 121.9 132.89 122.302L133.022 131.293L133.058 135.777L133.321 143.518C131.856 143.775 129.98 143.569 128.472 143.566L115.945 143.422C116.116 142.439 116.087 141.408 116.099 140.411L116.146 135.833L116.146 131.342L116.179 125.142C116.19 124.155 116.123 123.092 116.339 122.126C116.863 120.951 117.04 119.323 117.348 118.052L117.773 118.079C119.206 118.721 127.514 118.509 129.436 118.46C130.197 118.441 131.186 118.521 131.922 118.365L135.261 117.962Z" fill="#0284C7"/>
<path id="Vector_96" d="M135.261 117.962L135.517 121.775C134.845 121.872 133.417 121.9 132.89 122.302C132.212 121.815 132.155 119.356 131.95 118.48L131.922 118.365L135.261 117.962Z" fill="#CBBDB2"/>
<path id="Vector_97" d="M90.1245 75.4868C91.8672 72.768 93.7334 70.2229 95.9973 67.9091C100.35 63.4604 105.829 60.2724 111.68 58.2439C122.178 54.604 133.612 55.7666 143.524 60.5588L150.622 65.0742C152.656 66.8701 154.678 68.7651 156.404 70.8635C161.51 77.0698 165.117 85.6316 165.628 93.6889C166.066 100.595 164.968 106.747 162.447 113.159L160.036 117.527C158.751 119.317 157.631 121.189 156.218 122.895C151.569 128.511 144.989 132.65 138.017 134.689C136.382 135.167 134.722 135.44 133.058 135.777L133.022 131.293L132.89 122.302C133.417 121.9 134.845 121.872 135.517 121.775L143.414 119.912L145.916 119.353C146.757 119.004 147.352 118.477 147.914 117.777L147.941 115.44L150.343 112.673L152.505 108.299C155.694 100.86 155.796 92.7441 152.763 85.2407C149.844 78.0214 143.779 71.8037 136.591 68.7817C129.087 65.6272 120.725 65.5678 113.19 68.6833C105.693 71.7824 99.7402 77.7861 96.647 85.2727C93.9983 91.684 93.8828 99.0634 96.1514 105.603C96.4441 106.447 96.8049 107.252 97.2371 108.033C97.4431 108.406 97.7444 108.766 97.8919 109.161L97.9268 109.277C98.4583 109.897 98.9441 110.475 99.6094 110.955L102.555 113.209L102.596 116.235C102.658 117.098 102.691 117.921 103.394 118.535C104.288 119.315 105.475 119.3 106.531 119.698L112.1 121.109C112.799 121.317 113.565 121.474 114.223 121.791L116.339 122.126C116.123 123.092 116.19 124.155 116.179 125.142L116.146 131.342L116.146 135.833C112.523 134.968 109.422 133.806 106.059 132.224C100.75 129.31 95.8757 125.275 92.26 120.394C90.4009 117.885 88.9243 115.189 87.573 112.383C86.2405 109.207 85.1968 105.929 84.6423 102.523C84.3718 100.86 84.2656 99.1743 84.1287 97.4968C84.0447 89.822 85.9248 82.7441 89.7322 76.0825L90.1245 75.4868Z" fill="#F97316"/>
<path id="Vector_98" d="M143.414 119.912L145.916 119.353C145.469 119.921 144.915 120.215 144.335 120.618C142.789 121.691 141.224 122.766 139.465 123.451C140.804 122.319 142.229 121.207 143.414 119.912Z" fill="#EA580C"/>
<path id="Vector_99" d="M150.343 112.673L150.448 112.611C151.021 112.266 151.566 111.859 152.08 111.429C152.289 111.254 152.709 110.797 152.95 110.732C151.829 112.688 150.713 114.756 149.218 116.455C148.825 116.9 148.404 117.44 147.914 117.777L147.941 115.44L150.343 112.673Z" fill="#EA580C"/>
<path id="Vector_100" d="M90.1245 75.4868C91.8672 72.768 93.7334 70.2229 95.9973 67.9091C100.35 63.4604 105.829 60.2724 111.68 58.2439C122.178 54.604 133.612 55.7666 143.524 60.5588L150.622 65.0742C152.656 66.8701 154.678 68.7651 156.404 70.8635C161.51 77.0698 165.117 85.6316 165.628 93.6889C166.066 100.595 164.968 106.747 162.447 113.159L160.036 117.527C158.751 119.317 157.631 121.189 156.218 122.895C151.569 128.511 144.989 132.65 138.017 134.689C136.382 135.167 134.722 135.44 133.058 135.777L133.022 131.293C135.75 130.741 138.427 129.878 140.945 128.689C147.471 125.608 153.087 120.427 156.525 114.075C157.481 112.309 158.196 110.409 158.873 108.523C162.047 99.6838 161.222 89.7453 157.202 81.3283C152.962 72.4528 145.502 65.8327 136.258 62.5556C127.942 59.6074 117.949 60.0786 109.981 63.8933C101.319 68.0398 94.2068 75.5808 91.0212 84.6845C87.9978 93.3252 88.4429 103.138 92.4482 111.393C95.978 118.667 101.71 124.952 108.998 128.573C111.296 129.714 113.728 130.507 116.146 131.342L116.146 135.833C112.523 134.968 109.422 133.806 106.059 132.224C100.75 129.31 95.8757 125.275 92.26 120.394C90.4009 117.885 88.9243 115.189 87.573 112.383C86.2405 109.207 85.1968 105.929 84.6423 102.523C84.3718 100.86 84.2656 99.1743 84.1287 97.4968C84.0447 89.822 85.9248 82.7441 89.7322 76.0825L90.1245 75.4868Z" fill="#EA580C"/>
</g>
<defs>
<linearGradient id="paint0_linear_1037_20918" x1="236.318" y1="195.413" x2="209.66" y2="173.049" gradientUnits="userSpaceOnUse">
<stop stop-color="#E34900"/>
<stop offset="1" stop-color="#F26D14"/>
</linearGradient>
<linearGradient id="paint1_linear_1037_20918" x1="55.5572" y1="186.986" x2="74.6263" y2="178.983" gradientUnits="userSpaceOnUse">
<stop stop-color="#0E1924"/>
<stop offset="1" stop-color="#1C3D4A"/>
</linearGradient>
<clipPath id="clip0_1037_20918">
<rect width="250" height="250" fill="white"/>
</clipPath>
</defs>
</svg>
