<svg width="36" height="33" viewBox="0 0 36 33" fill="none" xmlns="http://www.w3.org/2000/svg">
<g id="&#240;&#159;&#166;&#134; icon &#34;person&#34;" clip-path="url(#clip0_1605_1714)">
<path id="Vector" d="M9.86628 9.36719C9.86628 6.51476 10.7984 4.30439 12.26 2.8095C13.7228 1.31329 15.7485 0.5 18 0.5C20.2516 0.5 22.2772 1.31329 23.74 2.8095C25.2016 4.30439 26.1337 6.51476 26.1337 9.36719C26.1337 12.2176 25.2035 14.2901 23.755 15.6524C22.3009 17.0199 20.274 17.7188 18 17.7188C15.726 17.7188 13.6991 17.0199 12.245 15.6524C10.7965 14.2901 9.86628 12.2176 9.86628 9.36719ZM1.23256 28.7031C1.23256 24.4142 4.56261 20.939 8.76815 20.623C11.1634 23.229 14.4199 24.9062 18 24.9062C21.5802 24.9062 24.8368 23.2289 27.232 20.6229C31.4762 20.9378 34.7674 24.4117 34.7674 28.7031V32.5H1.23256V28.7031Z" fill="#F97316" stroke="#F97316"/>
</g>
<defs>
<clipPath id="clip0_1605_1714">
<rect width="34.5349" height="33" fill="white" transform="translate(0.732559)"/>
</clipPath>
</defs>
</svg>
