<svg width="122" height="51" viewBox="0 0 122 51" fill="none" xmlns="http://www.w3.org/2000/svg">
<g filter="url(#filter0_d_695_16329)">
<path d="M117.874 31.4699H109.299C109.273 32.0399 109.403 32.869 109.739 33.2317C109.869 33.3871 110.154 33.5685 110.62 33.5685C111.009 33.5685 111.294 33.413 111.501 33.2317C111.682 33.0762 111.812 32.7912 111.89 32.5322H117.641C117.356 33.4389 116.942 34.0348 116.424 34.6048C115.206 35.9779 113.703 36.8846 110.879 36.8846C109.04 36.8846 106.786 36.5219 105.154 34.8898C104.402 34.1384 103.444 32.7653 103.444 30.6668C103.444 28.9569 104.092 27.2729 105.257 26.1071C106.397 24.993 108.211 24.1122 110.646 24.1122C112.952 24.1122 114.662 24.8635 115.854 26.0293C117.149 27.2729 117.874 29.1124 117.874 30.7963V31.4699ZM109.351 28.9569H112.123C112.097 28.5424 111.916 28.0242 111.605 27.7392C111.397 27.532 111.061 27.4025 110.672 27.4025C110.361 27.4025 110.024 27.532 109.817 27.7133C109.532 27.9724 109.351 28.5424 109.351 28.9569Z" fill="#FAFAFA"/>
<path d="M85.2907 36.548H79.2024L82.0004 19.2676H88.4514L90.4722 26.3404C90.7313 27.2471 90.8349 28.1021 90.8608 28.3352H91.0163C91.0422 27.5839 91.1458 27.0658 91.3531 26.3404L93.3739 19.2676H99.7731L102.597 36.548H96.5605L95.7833 28.8016C95.7315 28.2057 95.6796 27.8171 95.6796 27.0917H95.576C95.4983 27.5321 95.3428 28.2057 95.2392 28.5425L92.6744 36.548H88.9955L86.6897 28.9829C86.5083 28.3612 86.3788 27.8171 86.3529 27.0917H86.1715C86.1715 27.4285 86.1715 28.1021 86.1456 28.4389L85.2907 36.548Z" fill="#FAFAFA"/>
<path d="M77.1432 36.5481H71.2621V28.9831L69.7854 29.0867V24.4492L71.2621 24.5529V20.1486H77.1432V24.5529L79.1381 24.4492V29.0867L77.1432 28.9831V36.5481Z" fill="#FAFAFA"/>
<path d="M69.1211 30.4855C69.1211 32.2213 68.3957 33.8016 67.3853 34.8379C66.4008 35.8483 64.6391 36.8846 61.7374 36.8846C58.8358 36.8846 57.0741 35.8483 56.0896 34.8379C55.0792 33.8016 54.3538 32.2213 54.3538 30.4855C54.3538 29.0087 54.9237 27.3506 56.0896 26.1589C57.0741 25.1485 58.8358 24.1122 61.7374 24.1122C64.6391 24.1122 66.4008 25.1485 67.3853 26.1589C68.5511 27.3506 69.1211 29.0087 69.1211 30.4855ZM61.7374 28.7756C61.1416 28.7756 60.7789 29.0087 60.5975 29.1901C60.3125 29.4492 60.0793 29.8637 60.0793 30.4855C60.0793 31.1331 60.3125 31.5477 60.5975 31.8067C60.7789 31.9881 61.1416 32.2213 61.7374 32.2213C62.3333 32.2213 62.696 31.9881 62.8774 31.8067C63.1624 31.5477 63.3955 31.1331 63.3955 30.4855C63.3955 29.8637 63.1624 29.4492 62.8774 29.1901C62.696 29.0087 62.3333 28.7756 61.7374 28.7756Z" fill="#FAFAFA"/>
<path d="M45.2082 42.4807H39.3013V24.449H44.9232V25.1226C44.9232 25.4853 44.8714 25.8998 44.7678 26.1848L44.7419 26.2625L44.9232 26.3143C45.26 25.7444 45.7264 25.2262 46.1668 24.8894C46.7108 24.5008 47.514 24.1122 48.628 24.1122C50.027 24.1122 51.2447 24.6562 52.0737 25.4853C53.2655 26.677 53.8354 28.6201 53.8354 30.4336C53.8354 32.9726 52.7732 34.553 51.9442 35.4338C51.0115 36.4183 50.0011 36.8846 48.7316 36.8846C47.9544 36.8846 47.1254 36.7033 46.3481 36.1851C45.9077 35.8742 45.4414 35.4597 45.1046 34.8898H44.9232C45.1564 35.8224 45.2082 36.4442 45.2082 37.2473V42.4807ZM44.9232 30.5632C44.9232 31.185 45.1046 31.6772 45.4414 32.014C45.7264 32.3249 46.0632 32.4026 46.4518 32.4026C46.8663 32.4026 47.2031 32.2731 47.4881 32.014C47.8767 31.6513 48.084 31.1072 48.084 30.5632C48.084 29.9932 47.8508 29.4751 47.514 29.1383C47.3067 28.931 46.944 28.6978 46.4259 28.6978C46.0373 28.6978 45.7005 28.8533 45.4673 29.0605C45.0787 29.4232 44.9232 30.0968 44.9232 30.5632Z" fill="#FAFAFA"/>
<path d="M37.4503 20.3817L35.7663 24.786C35.015 24.2678 33.6419 23.4906 32.2429 23.4906C31.9061 23.4906 31.3879 23.5424 31.0511 23.8015C30.8179 23.9828 30.7402 24.1642 30.7402 24.4233C30.7402 24.786 30.792 25.1228 31.7506 25.33L33.7455 25.7705C35.2741 26.1073 36.1808 26.729 36.699 27.2472C37.7871 28.3094 38.0203 29.6307 38.0203 30.667C38.0203 32.1437 37.6316 33.5168 36.4658 34.7345C35.4813 35.7449 33.616 36.9366 30.3775 36.9366C27.7349 36.9366 25.9732 36.1853 24.4965 35.5894L23.9265 35.3563L25.8178 30.4856L26.4914 31.0038C27.1391 31.496 28.4603 32.2733 29.9889 32.2733C30.8438 32.2733 31.2066 32.066 31.3361 31.9624C31.6211 31.7292 31.6729 31.4442 31.6729 31.1852C31.6729 31.0297 31.647 30.7706 31.4656 30.5893C31.2584 30.382 30.9216 30.3043 30.2739 30.1748L28.7453 29.8898C27.7608 29.7084 26.6986 29.3975 25.74 28.413C24.8592 27.5063 24.4965 26.47 24.4965 25.2264C24.4965 23.6201 25.0405 22.247 26.1805 21.1071C27.5018 19.7599 29.4448 18.879 32.191 18.879C33.5641 18.879 35.3518 19.1122 37.4503 20.3817Z" fill="#FAFAFA"/>
<path d="M24.8188 0.872314L33.8212 -0.00012574L33.6341 14.478L27.7826 15.0451L24.8188 0.872314Z" fill="#FAFAFA"/>
<path d="M10.0144 10.6112L16.7957 4.62637L25.1326 16.4648L20.7248 20.3549L10.0144 10.6112Z" fill="#FAFAFA"/>
<path d="M4 27.8679L5.61029 18.9679L19.4912 23.0879L18.4445 28.8729L4 27.8679Z" fill="#FAFAFA"/>
</g>
<defs>
<filter id="filter0_d_695_16329" x="0" y="-0.00012207" width="121.875" height="50.4808" filterUnits="userSpaceOnUse" color-interpolation-filters="sRGB">
<feFlood flood-opacity="0" result="BackgroundImageFix"/>
<feColorMatrix in="SourceAlpha" type="matrix" values="0 0 0 0 0 0 0 0 0 0 0 0 0 0 0 0 0 0 127 0" result="hardAlpha"/>
<feOffset dy="4"/>
<feGaussianBlur stdDeviation="2"/>
<feComposite in2="hardAlpha" operator="out"/>
<feColorMatrix type="matrix" values="0 0 0 0 0 0 0 0 0 0 0 0 0 0 0 0 0 0 0.25 0"/>
<feBlend mode="normal" in2="BackgroundImageFix" result="effect1_dropShadow_695_16329"/>
<feBlend mode="normal" in="SourceGraphic" in2="effect1_dropShadow_695_16329" result="shape"/>
</filter>
</defs>
</svg>
