<svg width="250" height="250" viewBox="0 0 250 250" fill="none" xmlns="http://www.w3.org/2000/svg">
<g clip-path="url(#clip0_1037_30012)">
<path d="M0 0.366136L0.0286104 0.0895708C0.186939 -0.0622955 10.0411 -7.47377e-05 11.1885 -7.47377e-05H34.6553H54.6196H66.8481H182.121H195.234H215.738H250V214.515C250.002 218.19 250.227 249.348 249.878 250H215.255H195.247H182.223H66.9561H54.5142H34.9587L0.0667573 249.995L0 249.634V0.366136Z" fill="#0369A1"/>
<path d="M175.025 64.4579L171.519 64.6178L174.422 62.2287L175.025 64.4579Z" fill="#0173E0"/>
<path d="M65.2864 172.286C65.9282 172.182 66.8003 172.161 67.3782 171.912L68.512 168.434L70.2578 171.734L74.0095 171.991C72.9414 172.947 71.6104 173.905 70.7109 175.002C70.1731 174.644 69.3271 174.385 68.7246 174.11C67.551 173.574 66.3774 172.975 65.2864 172.286Z" fill="#FDFBFB"/>
<path d="M178.335 174.99L175.771 171.485L178.358 171.594C178.773 171.608 179.357 171.662 179.749 171.509C180.346 171.274 181.291 168.081 181.543 167.394L182.605 171.248C183.833 171.389 185.455 171.05 186.711 170.977C185.833 171.393 184.955 171.785 184.22 172.433L184.112 172.531L178.335 174.99Z" fill="#FDFBFB"/>
<path d="M174.422 62.2287L174.391 62.0939C174.098 60.9045 173.452 59.715 172.939 58.6037L176.045 60.5578L179.495 58.1213L178.156 61.8271L181.251 64.4445L177.187 64.3198L176.16 67.4145L175.025 64.4579L174.422 62.2287Z" fill="#FDFBFB"/>
<path d="M70.5645 57.2192L73.2302 60.029L77.4783 59.6642L74.5833 62.4496L74.7993 66.4423L72.0994 63.5961C70.9966 63.5058 69.3528 64.0031 68.2429 64.2328L70.7703 61.3749C70.8616 60.0158 70.6633 58.5785 70.5645 57.2192Z" fill="#FDFBFB"/>
<path d="M186.195 71.5302L189.043 74.686L192.838 73.0956C192.099 74.2514 191.431 75.4557 190.902 76.7223L193.878 79.7824L191.381 79.1537L189.835 78.6391L187.75 81.9382L187.232 77.8969L183.503 77.0068L186.889 75.4474L186.195 71.5302Z" fill="#FDFBFB"/>
<path d="M51.0811 109.903C51.3767 111.075 51.4341 112.363 51.5425 113.567L55 114.872L51.6328 116.108L51.7295 119.783L49.2681 117.248L48.8223 117.33L45.7527 118.439L47.282 115.195L45.1121 112.226L48.7341 112.95L51.0811 109.903Z" fill="#FDFBFB"/>
<path d="M198.074 130.215L200.042 134.045L203.888 133.534C203.1 134.362 202.325 135.236 201.418 135.937L201.272 136.048L201.396 136.475C201.759 137.761 202.454 138.968 203.016 140.18L199.99 138.496C199.734 138.37 199.506 138.245 199.219 138.207C198.137 138.878 197.171 139.897 196.184 140.715L196.939 136.861C195.927 136.099 194.747 135.508 193.652 134.872L197.244 134.306C197.461 134.102 197.475 133.575 197.529 133.272L198.074 130.215Z" fill="#FDFBFB"/>
<path d="M56.2854 150.33L58.3049 153.069L58.3772 153.191L62.302 152.404L60.033 155.496L61.9338 158.663L59.3389 157.945L58.1331 157.679C57.4072 158.669 56.6453 159.59 55.7678 160.448L55.7742 156.716L52.5491 155.036L55.8914 153.957L56.2854 150.33Z" fill="#FDFBFB"/>
<path d="M198.511 109.341L201.223 112.842L205.067 111.476L202.646 115.004L205.042 118.594L202.914 117.797L201.023 117.148C200.664 117.464 200.402 117.997 200.13 118.394L198.708 120.283L198.732 116.26L195.208 115.006C195.521 114.759 195.992 114.653 196.37 114.519L198.732 113.672L198.511 109.341Z" fill="#FDFBFB"/>
<path d="M193.021 149.553L193.968 153.526L198.145 154.39L194.173 156.255L194.315 160.365L192.078 157.507L191.738 157.634L188.277 159.122C188.267 158.924 188.499 158.608 188.593 158.431L190.174 155.574L187.216 152.652L191.393 153.307C192.062 152.247 192.513 150.728 193.021 149.553Z" fill="#FDFBFB"/>
<path d="M193.617 89.9738L196.694 92.7712L200.079 90.7665L198.68 94.2399L202.176 96.8945L197.803 96.9716L196.672 101.153L195.253 96.9076L191.062 96.6708L194.61 94.3564C194.64 93.9111 194.445 93.4094 194.341 92.9748L193.617 89.9738Z" fill="#FDFBFB"/>
<path d="M51.6697 130.369C52.0808 131.561 52.3337 132.871 52.5247 134.117L56.0156 135.095L52.8872 136.968L53.3777 140.464L50.3689 138.246C49.2566 138.631 48.1694 139.302 47.1042 139.813L48.2891 136.253C47.4434 135.457 46.7188 134.481 45.9849 133.581L49.6724 133.678L51.6697 130.369Z" fill="#FDFBFB"/>
<path d="M55.2481 90.9394C55.3931 92.1484 55.2524 93.4792 55.1904 94.6979L58.7722 96.6977L55.0164 97.4863L54.1577 101.446L52.3059 98.4406L52.063 98.1281L48.428 98.5431L50.739 95.4579L49.2258 92.3598L52.6038 93.457C53.5574 92.7607 54.4045 91.7709 55.2481 90.9394Z" fill="#FDFBFB"/>
<path d="M63.1396 71.4721L63.3101 71.495L62.9575 75.4472L66.5007 77.2775C65.2791 77.7133 63.7998 77.8742 62.5249 78.224C62.4641 79.4613 62.1475 80.7841 61.9297 82.0068L59.717 78.5273L55.8032 78.891L58.3293 75.884C58.1221 74.7377 57.196 73.3261 56.6558 72.2655L60.1855 73.9152L63.1396 71.4721Z" fill="#FDFBFB"/>
<path d="M205.251 148.662C204.942 147.542 205.045 146.258 205.132 145.104C205.344 142.28 205.928 139.504 206.498 136.735C206.739 135.568 206.891 134.292 207.262 133.165C208.848 136.191 210.173 139.498 211.272 142.727C211.974 144.791 212.696 146.944 212.879 149.129C212.98 150.339 212.857 151.549 212.507 152.709C211.805 155.029 210.114 157.369 208.473 159.133L205.982 146.813L205.251 148.662Z" fill="#FDBA74"/>
<path d="M114.939 204.387C116.416 202.938 118.086 201.743 119.876 200.711C120.745 200.21 121.776 199.661 122.767 199.482C120.491 201.327 119.169 203.79 117.989 206.434C115.663 211.649 114.442 217.098 113.701 222.737C113.695 222.784 113.626 223.334 113.624 223.335C113.586 223.361 112.782 223.261 112.688 223.251L106.138 222.113C107.4 217.924 108.991 213.654 111.176 209.856C112.285 207.927 113.587 206.15 114.939 204.387Z" fill="#FDBA74"/>
<path d="M127.223 199.431C130.178 200.113 132.923 202.158 135.03 204.263C135.39 204.998 136.082 205.652 136.59 206.299C137.17 207.037 137.685 207.835 138.202 208.617C140.116 211.515 141.613 214.644 142.891 217.867C143.427 219.22 144 220.588 144.386 221.992C143.475 222.042 142.461 222.339 141.555 222.515L136.635 223.317L136.294 221.2C135.193 214.868 132.631 203.237 127.223 199.431Z" fill="#FDBA74"/>
<path d="M42.6135 132.97L42.8899 133.685C43.3337 135.831 43.8792 137.97 44.1907 140.141C44.7283 143.884 44.7161 147.997 44.2202 151.744L44.135 150.452C43.9883 150.452 43.8381 150.408 43.6943 150.379C43.5198 149.872 43.365 148.999 42.9077 148.698C42.6841 148.807 42.7188 148.732 42.6575 148.934C42.3879 149.822 42.3726 150.901 42.2622 151.831C41.9878 154.149 41.771 156.636 41.2717 158.913L38.0532 158.838C37.9275 158.138 37.6172 157.409 37.4036 156.728C37.0422 155.578 36.7429 154.433 36.5918 153.235C36.3877 151.617 36.3557 149.726 36.6462 148.115C37.2861 144.564 39.1545 141.125 40.6685 137.874C41.3752 136.357 42.1484 134.747 42.574 133.127L42.6135 132.97Z" fill="#FDBA74"/>
<path d="M222.553 124.99C221.746 124.806 220.958 124.473 220.222 124.096C214.21 121.021 211.875 114.615 209.889 108.618L207.615 101.774C211.319 103.943 214.689 106.482 217.739 109.509C220.977 112.723 222.914 116.819 222.925 121.442C222.822 121.968 222.921 122.479 222.839 122.987C222.741 123.601 222.702 124.136 222.727 124.778L222.553 124.99Z" fill="#FDBA74"/>
<path d="M218.528 144.187C217.26 143.569 216.147 142.767 215.13 141.791C210.793 137.632 209.664 131.148 209.078 125.45L208.573 118.463L216.419 127.232C217.45 128.636 218.472 130.163 219.096 131.798C220.078 134.373 220.067 137.308 219.663 140.003C219.581 140.176 219.54 140.322 219.488 140.504L219.056 141.907L218.995 142.09C218.933 142.317 218.887 142.528 218.812 142.754C218.755 142.924 218.723 143.075 218.69 143.249L218.594 143.708L218.528 144.187Z" fill="#FDBA74"/>
<path d="M31.4866 85.5903C33.678 81.7394 36.1362 78.3864 39.7944 75.7822C42.1648 74.0944 44.8298 72.8061 47.4033 71.4613L55.2522 67.2875C53.7666 70.7582 51.7561 74.0886 49.4778 77.0991C46.3218 81.2692 42.636 84.9487 37.6892 86.9184C36.5322 87.3788 35.3374 87.6843 34.1035 87.8498C33.6399 87.912 31.3408 87.9142 31.1426 88.0258C30.8054 88.2157 30.1594 89.3739 29.9099 89.7382C29.7668 89.3224 30.1008 88.8749 30.269 88.4694L31.4866 85.5903Z" fill="#F97316"/>
<path d="M124.052 199.442C124.309 199.215 124.569 198.954 124.907 198.865C125.149 198.802 125.458 199.053 125.674 199.169C127.239 200.873 128.034 203.225 128.783 205.38C130.274 209.669 131.346 214.072 132.091 218.548C132.441 220.65 132.834 222.798 132.734 224.936C132.634 227.097 131.748 229.096 130.122 230.54C128.628 231.866 126.584 232.676 124.573 232.509C122.411 232.329 120.487 231.158 119.141 229.492C117.065 226.923 117.303 223.902 117.672 220.818C118.208 216.342 119.235 211.99 120.558 207.685C121.428 204.854 122.387 201.914 124.052 199.442Z" fill="#F97316"/>
<path d="M205.251 148.662L205.982 146.813L208.473 159.133L208.605 159.291C208.376 160.059 208.962 161.648 209.137 162.499L210.512 169.746L211.815 178.664L215.301 179.626C215.733 179.765 216.35 179.915 216.731 180.152L223.211 183.013L223.766 183.356L202.695 197.522L200.219 210.551C197.829 206.355 195.49 202.277 190.552 200.924L189.963 200.771C190.646 199.067 191.358 197.35 191.771 195.558L197.293 200.373L197.53 200.313C196.756 198.105 189.538 192.014 187.458 190.111C185.136 187.987 182.827 185.659 180.325 183.754C177.202 181.233 174.146 178.956 169.955 179.383C171.155 178.26 172.7 177.538 174.174 176.847L178.335 174.99L184.112 172.531L184.358 172.484C185.452 172.222 186.644 171.44 187.651 170.917C189.474 169.971 191.383 168.915 192.942 167.564C194.081 166.578 194.996 165.307 195.912 164.118L200.511 157.655C201.905 155.516 203.305 153.326 204.496 151.068C204.746 150.593 205.206 149.875 205.3 149.353C205.341 149.128 205.297 148.882 205.251 148.662Z" fill="#EA580C"/>
<path d="M38.0532 158.838L41.2717 158.913C41.771 156.636 41.9878 154.149 42.2622 151.831C42.3726 150.901 42.3879 149.822 42.6575 148.934C42.7188 148.732 42.6841 148.807 42.9077 148.698C43.365 148.999 43.5198 149.872 43.6943 150.379C43.8381 150.408 43.9883 150.452 44.135 150.452L44.2202 151.744L44.2004 152.24L47.8865 157.684C51.4404 162.433 56.0471 166.41 60.9744 169.678L65.2864 172.286C66.3774 172.975 67.551 173.574 68.7246 174.11C69.3271 174.385 70.1731 174.644 70.7109 175.002L79.7017 179.075C80.7136 179.466 81.7161 179.857 82.6467 180.42C84.7788 182.134 88.9258 194.383 89.3188 197.336C84.1689 195.203 79.5791 192.524 75.2009 189.054C73.1003 187.39 71.2356 185.8 69.5876 183.678L60.7524 191.06C59.0962 192.462 56.8411 193.83 55.6838 195.667C55.1907 196.45 54.8904 197.408 54.5725 198.277L53.1438 202.204C52.5042 203.98 51.5928 206.078 51.3816 207.948L51.3469 208.491C51.1199 209.003 50.5737 209.612 50.2446 210.082L47.5681 199.224C47.49 198.953 47.3076 197.955 47.1458 197.776C46.855 197.455 45.9509 197.061 45.55 196.818L41.9126 194.502C36.5671 190.926 31.0811 187.311 26.1248 183.21L26.6919 182.881L33.05 180.269L38.9944 182.36L41.2527 159.345C40.3618 159.016 39.1169 159.205 38.1401 158.969L38.04 158.944L38.0532 158.838Z" fill="#EA580C"/>
<path d="M44.2004 152.24C43.4976 151.6 43.3259 151.122 43.1348 150.207L43.2739 150.019C43.3701 150.259 43.4707 150.474 43.6038 150.696L43.6943 150.379C43.8381 150.408 43.9883 150.452 44.135 150.452L44.2202 151.744L44.2004 152.24Z" fill="#F97316"/>
<path d="M79.7017 179.075C80.7136 179.466 81.7161 179.857 82.6467 180.42C78.939 179.955 75.4802 181.321 71.958 182.223C72.2114 181.96 72.9158 181.723 73.2605 181.542C74.4927 180.896 75.6816 180.143 76.9871 179.65C77.9131 179.3 78.7117 179.143 79.7017 179.075Z" fill="#FDBA74"/>
<path d="M51.3469 208.491L51.3816 207.948C51.5928 206.078 52.5042 203.98 53.1438 202.204L54.5725 198.277C54.8904 197.408 55.1907 196.45 55.6838 195.667C56.8411 193.83 59.0962 192.462 60.7524 191.06L69.5876 183.678C71.2356 185.8 73.1003 187.39 75.2009 189.054C79.5791 192.524 84.1689 195.203 89.3188 197.336C94.9861 199.762 100.737 201.557 106.771 202.83L111.944 203.788C112.78 203.931 113.684 203.999 114.497 204.223L114.939 204.387C113.587 206.15 112.285 207.927 111.176 209.856C108.991 213.654 107.4 217.924 106.138 222.113C104.193 221.882 102.094 221.264 100.214 220.711L97.8718 224.383C97.0867 225.687 96.3215 227.377 95.1538 228.38C94.3293 229.089 93.1418 229.284 92.0876 229.176C89.7439 228.935 87.3076 227.433 85.2712 226.298C77.22 221.811 70.7759 215.126 65.2917 207.803C63.4768 205.38 61.8586 202.768 59.9333 200.437C56.8547 202.984 54.0234 205.515 51.3469 208.491Z" fill="#FDBA74"/>
<path d="M114.497 204.223L114.939 204.387C113.587 206.15 112.285 207.927 111.176 209.856C108.991 213.654 107.4 217.924 106.138 222.113C104.193 221.882 102.094 221.264 100.214 220.711C102.783 216.207 106.121 212.048 109.856 208.455L114.497 204.223Z" fill="#EA580C"/>
<path d="M169.955 179.383C174.146 178.956 177.202 181.233 180.325 183.754C182.827 185.659 185.136 187.987 187.458 190.111C189.538 192.014 196.756 198.105 197.53 200.313L197.293 200.373L191.771 195.558C191.358 197.35 190.646 199.067 189.963 200.771C188.861 203.013 187.414 205.171 185.962 207.202C180.695 214.57 173.852 220.528 166.253 225.39C163.983 226.843 161.406 228.497 158.823 229.306C157.813 229.623 156.302 229.314 155.414 228.796C153.952 227.944 153.182 226.258 152.353 224.844L149.806 220.624L144.386 221.992C144 220.588 143.427 219.22 142.891 217.867C141.613 214.644 140.116 211.515 138.202 208.617C137.685 207.835 137.17 207.037 136.59 206.299C136.082 205.652 135.39 204.998 135.03 204.263L135.691 204.213C144.095 202.709 152.272 200.634 160.223 197.493C160.487 195.99 161.013 194.592 161.52 193.157C163.001 188.965 165.007 184.499 168.084 181.229C168.675 180.557 169.272 179.962 169.955 179.383Z" fill="#FDBA74"/>
<path d="M135.03 204.263L135.691 204.213L139.974 208.029C142.706 210.615 145.086 213.549 147.236 216.631C148.122 217.902 149.113 219.236 149.806 220.624L144.386 221.992C144 220.588 143.427 219.22 142.891 217.867C141.613 214.644 140.116 211.515 138.202 208.617C137.685 207.835 137.17 207.037 136.59 206.299C136.082 205.652 135.39 204.998 135.03 204.263Z" fill="#EA580C"/>
<path d="M168.084 181.229C172.024 180.542 176.103 181.122 179.416 183.505C179.567 183.613 179.684 183.727 179.815 183.858C179.297 185.048 178.26 186.171 177.357 187.089C172.999 191.52 166.757 194.926 161.008 197.192L160.223 197.493C160.487 195.99 161.013 194.592 161.52 193.157C163.001 188.965 165.007 184.499 168.084 181.229Z" fill="#EA580C"/>
<path d="M16.5218 91.5942C15.4001 86.1471 15.6574 80.6718 15.8994 75.1593L21.8113 86.2358L24.6855 83.1635C25.425 84.8461 26.3982 86.2731 27.6333 87.6344C28.1099 88.1598 28.6545 88.7565 29.2695 89.1164L29.2527 89.349L29.5193 89.5849L29.5591 89.9584C29.2463 90.5573 29.1833 91.4853 29.0535 92.163L27.8679 99.4999C27.6389 101.018 27.2212 102.628 27.2156 104.163L27.5076 103.133C28.6101 97.841 32.113 93.4533 36.5859 90.5734L45.271 85.5976C43.2729 92.8366 39.3843 100.261 32.6462 104.075C30.8625 105.085 29.1145 105.637 27.1274 106.115L26.8538 116.441C26.8569 117.917 26.7268 119.59 27.0398 121.033C27.4229 119.441 27.4885 117.843 27.9683 116.254C28.5605 114.293 29.418 112.445 30.6506 110.801C32.3083 108.592 34.4648 106.916 36.6211 105.23L41.4121 101.436L41.3179 102.755C40.1809 110.1 37.6277 118.228 31.3745 122.788C30.1291 123.695 28.7659 124.384 27.3352 124.945L28.8108 134.058C29.1831 136.035 29.5105 138.372 30.4028 140.189C30.3633 138.865 30.1555 137.543 30.1853 136.222C30.3032 130.975 32.884 127.05 36.1206 123.156C37.4287 121.581 38.8462 120.075 39.7773 118.238C40.0205 118.958 40.0703 119.776 40.1682 120.528C40.2434 122.758 40.3381 124.982 40.1265 127.209C39.6265 132.472 37.6287 137.928 33.9829 141.84C33.1792 142.702 32.2778 143.382 31.3247 144.067L37.2165 158.684C37.4919 158.789 37.7468 158.902 38.04 158.944L38.1401 158.969C39.1169 159.205 40.3618 159.016 41.2527 159.345L38.9944 182.36L33.05 180.269L26.6919 182.881C25.7312 181.861 24.8931 180.627 24.0523 179.502C21.9166 176.646 19.8925 173.882 18.8131 170.444C18.5716 169.675 18.3017 168.897 18.2227 168.091C18.4314 167.745 18.7126 167.64 19.0612 167.468L19.2168 167.393C19.2855 167.05 19.0854 166.62 18.9831 166.283L18.25 163.83L16.9606 159.302C16.6442 158.343 15.8433 157.162 15.8538 156.189L16.2139 155.945C16.2034 154.274 15.5864 152.582 15.5304 150.879C15.7805 150.558 15.9879 150.812 16.3347 150.574C14.3396 144.498 11.9276 138.362 11.074 131.995C11.7203 132.331 12.2549 132.705 12.8133 133.169C12.3327 130.719 11.6286 128.329 11.3371 125.84L10.929 120.666C10.8918 120.235 10.9229 119.785 10.8346 119.361C10.7806 119.102 10.9223 118.908 11.0238 118.667C10.9838 118.357 11.0095 118.043 11.021 117.731C11.2348 117.004 11.0545 115.836 11.046 115.061C11.0226 112.915 11.1541 110.82 11.565 108.711C11.7203 107.914 11.8572 107.051 12.2303 106.326L11.2406 97.0478L14.0194 100.448C14.3275 99.8344 14.3365 98.8495 14.4678 98.1623C14.7477 96.6972 15.1673 95.2897 15.6249 93.872C15.8724 93.1047 16.0684 92.2653 16.5218 91.5942Z" fill="#FDBA74"/>
<path d="M23.2355 157.17C23.9288 156.956 24.6997 157.057 25.4177 157.086C28.4753 157.21 31.4746 157.778 34.4861 158.266L34.6799 158.608L22.9699 157.293L23.2355 157.17Z" fill="#EA580C"/>
<path d="M24.6855 83.1635C25.425 84.8461 26.3982 86.2731 27.6333 87.6344C28.1099 88.1598 28.6545 88.7565 29.2695 89.1164L29.2527 89.349L26.4189 101.871C26.4023 100.115 26.4272 98.32 26.1582 96.5807C25.5833 92.8613 23.6158 89.4794 21.8113 86.2358L24.6855 83.1635Z" fill="#0369A1"/>
<path d="M16.5218 91.5942C17.7685 97.4667 20.44 102.493 25.6111 105.832L26.0273 106.086L25.9399 122.24C25.7041 121.872 25.793 121.364 25.6777 120.938C25.1445 118.962 25.0322 116.893 24.3765 114.928C22.9784 110.739 19.6864 106.893 16.7939 103.601C15.8783 102.559 14.8458 101.559 14.0194 100.448C14.3275 99.8344 14.3365 98.8495 14.4678 98.1623C14.7477 96.6972 15.1673 95.2897 15.6249 93.872C15.8724 93.1047 16.0684 92.2653 16.5218 91.5942Z" fill="#0369A1"/>
<path d="M11.021 117.731C11.2348 117.004 11.0545 115.836 11.046 115.061C11.0226 112.915 11.1541 110.82 11.565 108.711C11.7203 107.914 11.8572 107.051 12.2303 106.326C13.254 111.954 15.4982 117.055 19.8364 120.927C20.8766 121.855 22.0781 122.645 23.2232 123.44C24.1625 124.091 25.1409 124.794 26.2058 125.225C26.355 127.618 26.8347 130.036 27.3076 132.385L29.2319 141.02C28.5105 139.491 28.1331 137.82 27.3804 136.295C24.811 131.093 20.5061 127.076 16.3931 123.099L13.1678 119.99C12.4271 119.285 11.5962 118.582 11.021 117.731Z" fill="#0369A1"/>
<path d="M11.0238 118.667C12.3135 126.137 14.0996 135.526 20.7442 140.194C22.5385 141.455 24.4417 142.248 26.5618 142.769L29.0986 143.335C29.2856 143.373 29.7478 143.417 29.8975 143.541C29.9771 143.607 30.8765 146.496 31.0122 146.876L35.8027 158.704L34.6799 158.608L34.4861 158.266C31.4746 157.778 28.4753 157.21 25.4177 157.086C24.6997 157.057 23.9288 156.956 23.2355 157.17L22.9699 157.293L16.5072 156.43L20.3167 164.094C22.1649 167.41 24.4763 170.554 26.8655 173.497C28.7883 175.866 30.8069 178.196 33.05 180.269L26.6919 182.881C25.7312 181.861 24.8931 180.627 24.0523 179.502C21.9166 176.646 19.8925 173.882 18.8131 170.444C18.5716 169.675 18.3017 168.897 18.2227 168.091C18.4314 167.745 18.7126 167.64 19.0612 167.468L19.2168 167.393C19.2855 167.05 19.0854 166.62 18.9831 166.283L18.25 163.83L16.9606 159.302C16.6442 158.343 15.8433 157.162 15.8538 156.189L16.2139 155.945C16.2034 154.274 15.5864 152.582 15.5304 150.879C15.7805 150.558 15.9879 150.812 16.3347 150.574C14.3396 144.498 11.9276 138.362 11.074 131.995C11.7203 132.331 12.2549 132.705 12.8133 133.169C12.3327 130.719 11.6286 128.329 11.3371 125.84L10.929 120.666C10.8918 120.235 10.9229 119.785 10.8346 119.361C10.7806 119.102 10.9223 118.908 11.0238 118.667Z" fill="#0369A1"/>
<path d="M23.2355 157.17C22.2936 156.387 21.4068 155.568 20.6306 154.616C17.1947 150.406 15.1802 144.865 13.6832 139.696L13.8501 139.815C15.2509 140.806 16.8118 141.552 18.271 142.452C24.6638 146.393 31.7793 150.9 34.4861 158.266C31.4746 157.778 28.4753 157.21 25.4177 157.086C24.6997 157.057 23.9288 156.956 23.2355 157.17Z" fill="#FDBA74"/>
<path d="M52.0505 215.17L58.6797 208.901L68.7175 222.024C68.9133 222.073 69.4377 222.708 69.6028 222.872L72.5403 225.713C75.1379 228.062 77.929 230.181 80.8972 232.04C83.6343 233.754 86.6345 235.24 89.6956 236.28C90.9507 236.706 92.4192 237.205 93.7532 236.853C96.1121 236.231 97.0632 234.298 98.207 232.37L100.394 228.657L113.954 230.773C114.2 231.968 114.598 233.118 115.23 234.167C116.754 236.695 119.385 238.702 122.261 239.396C125.33 240.136 128.44 239.708 131.146 238.024C133.83 236.354 135.386 233.733 136.077 230.711C139.724 230.426 143.316 229.807 146.91 229.139L148.958 228.738C149.003 228.728 149.403 228.632 149.416 228.638C149.546 228.692 150.136 229.779 150.237 229.944C151.275 231.632 152.265 233.494 153.503 235.037C153.897 235.526 154.346 235.919 154.885 236.241C156.348 237.113 157.708 237.181 159.327 236.771C162.018 236.089 164.54 234.626 166.898 233.201C176.594 227.343 184.843 219.021 190.696 209.331L194.284 211.467L190.094 217.254C191.923 217.644 193.985 217.861 195.703 218.613C196.52 218.97 197.179 219.668 197.799 220.288C200.157 222.648 202.099 225.529 203.916 228.321L215.255 250H195.247H182.223H66.9561H54.5142H34.9587C39.0652 239.635 44.9353 229.937 51.0999 220.686L52.9873 217.933C53.2554 217.549 53.4954 217.012 53.894 216.773L54.5159 217.088L54.4824 216.921L54.1594 216.703L53.9551 216.675L53.8606 216.571C53.2229 216.081 52.6416 215.752 52.0505 215.17Z" fill="#38ADF6"/>
<path d="M54.5142 250C55.9175 244.917 57.5542 239.766 59.9946 235.071C61.4583 232.255 63.2292 229.586 64.8958 226.886C67.4688 229.065 70.8086 230.143 73.7905 231.629C75.4871 232.475 77.0034 233.546 78.5037 234.693C77.4087 235.615 76.4624 236.66 75.4707 237.688C72.0127 241.272 68.9146 245.395 66.9561 250H54.5142Z" fill="#0173E0"/>
<path d="M178.102 227.592C179.37 227.015 182.74 227.48 184.039 227.935C187.43 229.124 189.675 233.258 191.066 236.324C193.042 240.679 194.593 245.249 195.247 250H182.223C181.832 248.862 181.557 247.7 181.052 246.601C179.441 243.092 176.928 240.053 174.2 237.354C172.903 236.07 171.534 234.772 170.056 233.693L169.886 233.57C171.445 232.356 172.873 230.944 174.442 229.761C175.559 228.919 176.86 228.226 178.102 227.592Z" fill="#0173E0"/>
<path d="M0 0.366136L0.0286104 0.0895708C0.186939 -0.0622955 10.0411 -7.47377e-05 11.1885 -7.47377e-05H34.6553C35.4275 1.48753 36.01 3.07698 36.7039 4.60366L40.5415 12.3813L49.0784 26.8757L52.4182 31.7604C54.0212 31.3244 55.6316 30.8163 57.2812 30.5983C59.0515 30.3647 61.1917 30.4211 62.9729 30.5634L59.6831 34.0575C57.9375 36.0004 56.2651 38.0842 54.7598 40.2199C54.1382 41.1017 53.501 42.0217 52.9851 42.9687C52.6333 43.6147 52.3662 44.35 51.9409 44.9487L51.8677 44.7114L51.8198 44.5859C50.8638 51.5639 49.2551 59.1418 45.2283 65.0512C43.2305 67.9831 40.7068 70.5295 38.1125 72.9321C37.1206 73.5344 36.1648 74.1034 35.0808 74.5265C33.9302 77.048 32.7676 79.6217 32.0396 82.3027C32.0305 81.7284 32.2212 81.3215 32.3687 80.7797C32.9062 78.8046 33.824 76.3928 34.8306 74.6127L34.8821 74.5238L34.6865 73.8871L29.9561 71.1808C31.2771 74.1528 32.2827 77.2402 31.8066 80.5322C31.6128 81.8722 31.167 83.2057 30.8201 84.5136C30.2295 86.1445 29.9368 87.9023 29.5193 89.5849L29.2527 89.349L29.2695 89.1164C28.6545 88.7565 28.1099 88.1598 27.6333 87.6344C26.3982 86.2731 25.425 84.8461 24.6855 83.1635L21.8113 86.2358L15.8994 75.1593C15.6574 80.6718 15.4001 86.1471 16.5218 91.5942C16.0684 92.2653 15.8724 93.1047 15.6249 93.872C15.1673 95.2897 14.7477 96.6972 14.4678 98.1623C14.3365 98.8495 14.3275 99.8344 14.0194 100.448L11.2406 97.0478L12.2303 106.326C11.8572 107.051 11.7203 107.914 11.565 108.711C11.1541 110.82 11.0226 112.915 11.046 115.061C11.0545 115.836 11.2348 117.004 11.021 117.731C11.0095 118.043 10.9838 118.357 11.0238 118.667C10.9223 118.908 10.7806 119.102 10.8346 119.361C10.9229 119.785 10.8918 120.235 10.929 120.666L11.3371 125.84C11.6286 128.329 12.3327 130.719 12.8133 133.169C12.2549 132.705 11.7203 132.331 11.074 131.995C11.9276 138.362 14.3396 144.498 16.3347 150.574C15.9879 150.812 15.7805 150.558 15.5304 150.879C15.5864 152.582 16.2034 154.274 16.2139 155.945L15.8538 156.189C15.8433 157.162 16.6442 158.343 16.9606 159.302L18.25 163.83L18.9831 166.283C19.0854 166.62 19.2855 167.05 19.2168 167.393L19.0612 167.468C18.7126 167.64 18.4314 167.745 18.2227 168.091C18.3017 168.897 18.5716 169.675 18.8131 170.444C19.8925 173.882 21.9166 176.646 24.0523 179.502C24.8931 180.627 25.7312 181.861 26.6919 182.881L26.1248 183.21C25.0078 183.42 23.7417 184.165 22.7772 184.762L22.9354 187.047C22.9568 187.576 22.9142 188.16 23.092 188.661C23.4651 189.305 23.9409 189.641 24.48 190.126L27.7954 192.921C32.0957 196.369 36.7874 199.679 41.583 202.398C42.4104 202.868 43.4526 203.3 44.0413 204.075C45.5603 206.074 46.2607 208.995 46.8457 211.395L48.3979 218.755L52.0505 215.17C52.6416 215.752 53.2229 216.081 53.8606 216.571L53.9551 216.675L54.1594 216.703L54.4824 216.921L54.5159 217.088L53.894 216.773C53.4954 217.012 53.2554 217.549 52.9873 217.933L51.0999 220.686C44.9353 229.937 39.0652 239.635 34.9587 250L0.0667573 249.995L0 249.634V0.366136Z" fill="#0173E0"/>
<path d="M24.5852 63.591L24.6155 63.4909L25.4973 59.1828C26.3411 62.2001 27.2922 65.1515 28.5139 68.0387C28.9558 69.0832 29.3738 70.2055 29.9561 71.1808C31.2771 74.1528 32.2827 77.2402 31.8066 80.5322C31.6128 81.8722 31.167 83.2057 30.8201 84.5136C30.2295 86.1445 29.9368 87.9023 29.5193 89.5849L29.2527 89.349L29.2695 89.1164C28.6545 88.7565 28.1099 88.1598 27.6333 87.6344C26.3982 86.2731 25.425 84.8461 24.6855 83.1635C24.1815 81.8324 23.9563 80.3815 23.7612 78.9794C23.038 73.7831 23.8893 68.7206 24.5852 63.591Z" fill="#F97316"/>
<path d="M34.6865 73.8871C34.8755 70.8017 35.6628 68.1266 36.7881 65.2541C39.5706 58.1506 44.1978 51.7331 48.9714 45.8388L52.0725 41.9972L51.8198 44.5859C50.8638 51.5639 49.2551 59.1418 45.2283 65.0512C43.2305 67.9831 40.7068 70.5295 38.1125 72.9321C37.1206 73.5344 36.1648 74.1034 35.0808 74.5265C33.9302 77.048 32.7676 79.6217 32.0396 82.3027C32.0305 81.7284 32.2212 81.3215 32.3687 80.7797C32.9062 78.8046 33.824 76.3928 34.8306 74.6127L34.8821 74.5238L34.6865 73.8871Z" fill="#F97316"/>
<path d="M34.6553 -7.47377e-05H54.6196H66.8481H182.121H195.234H215.738L215.634 0.156425C215.219 0.797179 214.961 1.61656 214.64 2.31275L212.327 7.19973C209.633 12.7739 206.784 18.2547 203.385 23.437C201.29 26.6318 199.217 29.6652 196.169 32.0502C195.326 32.7106 194.176 33.5317 193.139 33.8246L192.749 33.8962L192.291 34.058L192.078 34.1198L191.895 34.1801C191.683 34.2411 191.462 34.2575 191.243 34.2753C193.264 36.9611 195.077 40.0871 196.499 43.1244L197.866 46.2646C198.32 47.424 198.58 48.7553 199.395 49.7177C200.265 53.0622 201.009 56.4545 202.39 59.6391C203.648 62.5361 205.379 65.1059 207.063 67.7594L206.873 68.0561L207.356 69.2214C207.655 69.8476 208.589 72.2431 208.427 72.8752L208.351 73.0568L208.308 73.3898L204.073 72.7067L199.027 71.0036L195.442 65.8361C194.825 65.1564 194.295 64.4345 193.477 63.9955L186.927 60.2961L186.73 52.4045L180.583 51.384C180.11 51.3017 179.113 51.2328 178.718 51.0112C178.108 50.6679 177.245 49.3691 176.787 48.7985L173.601 44.9201L171.97 42.9303C171.698 42.581 171.428 42.1095 171.075 41.8525L166.998 56.1305L157.062 58.1811C156.52 58.2792 155.441 58.6034 154.927 58.5146C154.082 58.3683 153.071 57.8341 152.262 57.5202L147.297 55.7133C140.071 53.3014 132.561 51.8898 124.93 51.8156C117.809 51.746 110.419 53.1423 103.698 55.4494L99.1277 57.1908C98.4167 57.4782 97.5728 57.9738 96.8079 58.0575C96.0205 58.1437 95.1553 58.0478 94.3604 58.0141C91.8337 57.9076 89.1479 57.6581 86.731 56.8644C85.2981 56.394 84.0066 55.6874 82.6267 55.1152L82.385 55.0248C82.2212 52.9772 82.074 50.9179 81.6975 48.8957C80.9839 45.0636 79.5618 41.495 77.5674 38.1554C77.5378 39.3066 77.5249 40.4303 77.3083 41.5649C76.6934 44.7861 75.1877 47.1767 72.5098 49.082C69.8035 51.0072 66.6665 52.1672 63.4795 53.0087C63.1497 56.3935 62.2852 59.5124 59.5703 61.7587C57.8416 63.1894 55.7017 63.9506 53.856 65.1996C52.9011 65.8459 52.0374 66.7275 51.3074 67.6147C50.9092 68.099 50.4592 68.8803 49.9519 69.2262C49.5198 69.5209 48.8682 69.6647 48.3684 69.8295C46.6235 70.405 44.8225 70.7917 43.0483 71.2651C41.3896 71.7074 39.7527 72.5947 38.1125 72.9321C40.7068 70.5295 43.2305 67.9831 45.2283 65.0512C49.2551 59.1418 50.8638 51.5639 51.8198 44.5859L51.8677 44.7114L51.9409 44.9487C52.3662 44.35 52.6333 43.6147 52.9851 42.9687C53.501 42.0217 54.1382 41.1017 54.7598 40.2199C56.2651 38.0842 57.9375 36.0004 59.6831 34.0575L62.9729 30.5634C61.1917 30.4211 59.0515 30.3647 57.2812 30.5983C55.6316 30.8163 54.0212 31.3244 52.4182 31.7604L49.0784 26.8757L40.5415 12.3813L36.7039 4.60366C36.01 3.07698 35.4275 1.48753 34.6553 -7.47377e-05Z" fill="#38ADF6"/>
<path d="M195.442 65.8361C198.634 67.1166 201.708 68.6884 204.61 70.5331C205.843 71.3171 207.054 72.4289 208.351 73.0568L208.308 73.3898L204.073 72.7067L199.027 71.0036L195.442 65.8361Z" fill="#0173E0"/>
<path d="M157.711 28.4447C158.214 29.2004 158.591 30.0549 159.01 30.8605L161.219 35.2394L168.991 36.5622L163.529 42.1069L164.723 49.8681L160.244 47.6686C159.363 47.236 158.433 46.8439 157.62 46.2941L150.429 50.0375L151.492 43.518C151.523 43.3481 151.807 42.1269 151.762 42.0395C151.678 41.8732 151.198 41.5234 151.047 41.3791L149.044 39.3696C148.244 38.5568 147.105 37.6015 146.5 36.6362L154.179 35.2629L157.711 28.4447Z" fill="#0369A1"/>
<path d="M92.4077 27.694L95.9897 35.1271L104.094 36.2929L98.3699 41.839L99.9236 49.8224L93.0693 46.0678L92.7734 45.936L85.9939 49.8246L86.9461 41.839L80.7725 36.3014C83.4165 36.2507 86.1865 35.485 88.8169 35.1069L92.4077 27.694Z" fill="#0369A1"/>
<path d="M54.6196 -7.47377e-05H66.8481C67.3965 1.18136 67.8579 2.3886 68.4753 3.53996C71.3987 8.9926 75.6609 13.3458 79.9246 17.7448C78.1067 18.809 76.436 20.0065 74.7275 21.2317C73.8931 21.8302 73.0618 22.5333 72.1724 23.0429C71.6177 23.361 70.9824 23.4292 70.3809 23.6266C68.7395 24.1647 67.218 24.8163 65.4951 25.0695C64.2742 23.8727 63.5303 22.1468 62.709 20.6602C59.8276 15.4441 57.4036 10.2696 55.7419 4.52685C55.3125 3.04285 54.8396 1.53149 54.6196 -7.47377e-05Z" fill="#0173E0"/>
<path d="M182.121 -7.47377e-05H195.234C195.046 1.84592 194.459 3.79907 193.931 5.57778C192.562 10.1985 190.732 14.9988 188.121 19.0714C187.071 20.7089 185.822 22.355 184.299 23.5806C183.454 24.2606 182.46 24.7382 181.48 25.1884L169.37 17.6989C169.549 17.3425 170.02 16.9979 170.31 16.7185L172.405 14.6631C175.063 11.9906 177.733 9.12966 179.626 5.8459C180.71 3.96621 181.441 2.04879 182.121 -7.47377e-05Z" fill="#0173E0"/>
<path d="M124.927 10.8382C125.807 12.1707 126.474 13.7979 127.193 15.229L130.984 22.3876L143.988 24.7275L135.167 33.5527C135.151 34.1196 135.312 34.7189 135.408 35.2782L135.937 38.3932L137.399 47.9789L124.981 41.3024L112.431 48.0549C112.452 46.6235 112.918 44.9345 113.156 43.5104L114.794 33.6203C114.238 32.704 113.067 31.777 112.305 31.0058L105.837 24.4699L118.953 22.4539L124.927 10.8382Z" fill="#0369A1"/>
<path d="M215.738 -7.47377e-05H250V214.515C250.002 218.19 250.227 249.348 249.878 250H215.255L203.916 228.321C202.099 225.529 200.157 222.648 197.799 220.288C197.179 219.668 196.52 218.97 195.703 218.613C193.985 217.861 191.923 217.644 190.094 217.254L194.284 211.467C196.041 212.482 197.194 214.059 198.433 215.617L201.843 220.004L202.624 215.821L203.663 209.241L204.077 206.421C204.11 206.217 204.134 205.727 204.23 205.577C204.355 205.381 205.153 204.983 205.379 204.838L209.225 202.324C213.999 199.12 218.705 195.832 223.094 192.111L225.133 190.209C225.353 189.99 225.765 189.666 225.907 189.404C226.085 189.075 226.053 188.262 226.085 187.871C226.017 186.82 226.196 185.63 226.252 184.568L223.766 183.356L223.211 183.013L216.731 180.152C216.35 179.915 215.733 179.765 215.301 179.626L211.815 178.664L210.512 169.746L209.137 162.499C208.962 161.648 208.376 160.059 208.605 159.291L211.573 158.95C213.798 155.398 215.554 151.66 217.155 147.793C217.639 146.622 218.222 145.417 218.528 144.187L218.594 143.708L218.69 143.249C218.723 143.075 218.755 142.924 218.812 142.754C218.887 142.528 218.933 142.317 218.995 142.09L219.056 141.907L219.488 140.504C219.54 140.322 219.581 140.176 219.663 140.003C220.097 139.242 220.269 138.306 220.5 137.464C221.612 133.415 222.183 129.276 222.736 125.122L222.553 124.99L222.727 124.778C222.702 124.136 222.741 123.601 222.839 122.987C222.921 122.479 222.822 121.968 222.925 121.442C223.918 120.214 222.673 108.112 222.486 105.857L221.242 105.603C216.621 104.273 212.802 101.318 210.002 97.4494C207.458 93.9338 205.694 89.8896 203.578 86.113L210.635 89.2116C215.897 91.6872 218.874 94.0785 220.931 99.6706L222.183 103.638L222.249 103.577L218.946 88.7338L218.917 88.58C217.84 88.6242 216.827 88.5981 215.761 88.4386C212.352 87.9286 208.636 86.1 206.078 83.8136C204.146 82.0873 202.542 80.0143 200.952 77.9806L194.868 69.8263L199.027 71.0036L204.073 72.7067L208.308 73.3898L208.351 73.0568L208.427 72.8752C208.589 72.2431 207.655 69.8476 207.356 69.2214L206.873 68.0561L207.063 67.7594C205.379 65.1059 203.648 62.5361 202.39 59.6391C201.009 56.4545 200.265 53.0622 199.395 49.7177C198.58 48.7553 198.32 47.424 197.866 46.2646L196.499 43.1244C195.077 40.0871 193.264 36.9611 191.243 34.2753C191.462 34.2575 191.683 34.2411 191.895 34.1801L192.078 34.1198L192.291 34.058L192.749 33.8962L193.139 33.8246C194.176 33.5317 195.326 32.7106 196.169 32.0502C199.217 29.6652 201.29 26.6318 203.385 23.437C206.784 18.2547 209.633 12.7739 212.327 7.19973L214.64 2.31275C214.961 1.61656 215.219 0.797179 215.634 0.156425L215.738 -7.47377e-05Z" fill="#0173E0"/>
<path d="M199.395 49.7177L199.379 49.582L197.832 40.5832L203.142 47.4853C205.969 51.278 208.606 55.3493 210.693 59.6008C211.804 61.8637 212.833 64.2421 213.376 66.7113C213.951 69.3327 213.998 71.7995 213.831 74.4628L213.544 74.7226L213.423 74.7011C212.686 74.9467 210.968 74.2131 210.2 73.9609L208.308 73.3898L208.351 73.0568L208.427 72.8752C208.589 72.2431 207.655 69.8476 207.356 69.2214L206.873 68.0561L207.063 67.7594C205.379 65.1059 203.648 62.5361 202.39 59.6391C201.009 56.4545 200.265 53.0622 199.395 49.7177Z" fill="#F97316"/>
<path d="M208.351 73.0568L208.427 72.8752C208.589 72.2431 207.655 69.8476 207.356 69.2214L206.873 68.0561L207.063 67.7594L210.922 72.5351C211.344 72.9606 211.765 73.4135 212.229 73.7931C212.592 74.0895 213.131 74.3486 213.423 74.7011C212.686 74.9467 210.968 74.2131 210.2 73.9609L208.308 73.3898L208.351 73.0568Z" fill="url(#paint0_linear_1037_30012)"/>
<path d="M239.285 117.516C239.362 117.187 239.359 117.096 239.595 116.862C239.715 117.513 239.482 118.458 239.441 119.135C239.288 121.674 239.143 124.25 238.741 126.762L237.42 133.155L238.971 132.118C238.829 134.265 238.405 136.338 237.904 138.428L236.16 145.05L234.992 148.715C234.825 149.271 234.581 149.919 234.652 150.501C235.043 150.695 235.128 150.367 235.354 150.757C235.262 151.857 235.06 152.901 234.869 153.986C234.755 154.633 234.567 155.335 234.646 155.992L235.027 156.239L234.969 156.513L231.274 167.288L231.421 167.351C231.808 167.52 232.048 167.62 232.293 167.969C232.262 168.681 231.942 169.406 231.705 170.073C229.917 175.109 226.382 178.847 223.211 183.013L216.731 180.152C216.35 179.915 215.733 179.765 215.301 179.626L211.815 178.664L210.512 169.746L209.137 162.499C208.962 161.648 208.376 160.059 208.605 159.291L211.573 158.95L212.219 158.986C212.581 158.759 212.963 158.968 213.328 158.806C213.502 158.729 213.392 158.746 213.637 158.744C213.873 158.741 213.915 158.684 214.118 158.568C214.027 158.053 215.881 154.779 216.258 153.958C217.875 150.43 219.354 146.804 220.562 143.113C221.772 143.077 223.01 142.843 224.187 142.565C228.213 141.617 231.743 138.377 233.856 134.921C236.58 130.467 238.158 124.975 239.032 119.853C239.151 119.156 239.45 118.207 239.285 117.516Z" fill="#0369A1"/>
<path d="M214.614 158.175C215.552 156.529 216.5 154.869 217.679 153.38C222.666 147.084 230.015 143.682 236.739 139.669C234.883 145.154 233.478 150.777 229.292 155.058C228.533 155.834 227.761 156.601 226.802 157.129C224.461 157.043 222.063 157.234 219.738 157.508L216.47 157.962C215.876 158.057 215.211 158.257 214.614 158.175Z" fill="#FDBA74"/>
<path d="M226.783 157.317L234.297 156.639L232.956 159.431C229.297 166.052 225.087 171.915 219.76 177.308C218.858 178.221 217.808 179.473 216.731 180.152C216.35 179.915 215.733 179.765 215.301 179.626L211.815 178.664L210.512 169.746L209.137 162.499C208.962 161.648 208.376 160.059 208.605 159.291L211.573 158.95L212.219 158.986C212.581 158.759 212.963 158.968 213.328 158.806C213.502 158.729 213.392 158.746 213.637 158.744C213.873 158.741 213.915 158.684 214.118 158.568L214.234 158.573L214.614 158.175C215.211 158.257 215.876 158.057 216.47 157.962L219.738 157.508C222.063 157.234 224.461 157.043 226.802 157.129L226.783 157.317Z" fill="#FDBA74"/>
<path d="M214.614 158.175C215.211 158.257 215.876 158.057 216.47 157.962L219.738 157.508C222.063 157.234 224.461 157.043 226.802 157.129L226.783 157.317C224.564 157.688 222.253 157.775 220.01 158.02C218.312 158.205 216.586 158.568 214.886 158.664C214.608 158.68 214.492 158.691 214.234 158.573L214.614 158.175Z" fill="#F97316"/>
<path d="M219.273 74.4538C221.016 69.5485 222.597 64.7638 223.501 59.6198L223.804 57.7011C223.84 57.4269 223.837 57.0199 223.961 56.7812C225.607 63.9948 227.52 71.8859 226.528 79.3195L229.644 84.2485L234.847 75.9086C234.961 81.5343 234.847 86.8805 233.493 92.3903C234.736 94.8119 235.452 97.4872 236.209 100.085L238.527 97.2819L237.846 105.84C238.166 107.646 238.586 109.395 238.793 111.225C239.023 113.261 238.984 115.451 238.8 117.49L238.949 117.768L239.285 117.516C239.45 118.207 239.151 119.156 239.032 119.853C238.158 124.975 236.58 130.467 233.856 134.921C231.743 138.377 228.213 141.617 224.187 142.565C223.01 142.843 221.772 143.077 220.562 143.113C219.354 146.804 217.875 150.43 216.258 153.958C215.881 154.779 214.027 158.053 214.118 158.568C213.915 158.684 213.873 158.741 213.637 158.744C213.392 158.746 213.502 158.729 213.328 158.806C212.963 158.968 212.581 158.759 212.219 158.986L211.573 158.95C213.798 155.398 215.554 151.66 217.155 147.793C217.639 146.622 218.222 145.417 218.528 144.187L218.594 143.708L218.69 143.249C218.723 143.075 218.755 142.924 218.812 142.754C218.887 142.528 218.933 142.317 218.995 142.09L219.056 141.907L219.488 140.504C219.54 140.322 219.581 140.176 219.663 140.003C220.097 139.242 220.269 138.306 220.5 137.464C221.612 133.415 222.183 129.276 222.736 125.122L222.553 124.99L222.727 124.778C222.702 124.136 222.741 123.601 222.839 122.987C222.921 122.479 222.822 121.968 222.925 121.442C223.918 120.214 222.673 108.112 222.486 105.857L221.242 105.603C216.621 104.273 212.802 101.318 210.002 97.4494C207.458 93.9338 205.694 89.8896 203.578 86.113L210.635 89.2116C215.897 91.6872 218.874 94.0785 220.931 99.6706L222.183 103.638L222.249 103.577L218.946 88.7338L218.917 88.58C217.84 88.6242 216.827 88.5981 215.761 88.4386C212.352 87.9286 208.636 86.1 206.078 83.8136C204.146 82.0873 202.542 80.0143 200.952 77.9806L194.868 69.8263L199.027 71.0036L204.073 72.7067L208.308 73.3898L210.2 73.9609C210.968 74.2131 212.686 74.9467 213.423 74.7011L213.544 74.7226L213.831 74.4628L213.973 74.9804L219.273 74.4538Z" fill="#F97316"/>
<path d="M204.073 72.7067L208.308 73.3898L210.2 73.9609C210.968 74.2131 212.686 74.9467 213.423 74.7011L213.544 74.7226L216.638 82.5329C216.938 83.3039 217.253 84.0663 217.5 84.8569C217.555 85.0334 217.727 85.3803 217.727 85.5485C217.568 85.5307 217.52 85.3398 217.447 85.205L215.913 82.4252C213.075 77.6889 208.914 75.0983 204.073 72.7067Z" fill="#0369A1"/>
<path d="M213.544 74.7226L213.831 74.4628L213.973 74.9804L219.273 74.4538C218.725 75.8905 218.326 77.3525 218.094 78.8732C217.87 80.3459 217.86 82.237 218.167 83.7023C218.316 84.415 218.594 85.1315 218.658 85.8551C218.617 86.3613 218.969 87.0881 219.177 87.5514L219.148 87.8415L218.855 87.9391L218.547 87.2426L217.727 85.5485C217.727 85.3803 217.555 85.0334 217.5 84.8569C217.253 84.0663 216.938 83.3039 216.638 82.5329L213.544 74.7226Z" fill="#0369A1"/>
<path d="M213.544 74.7226L213.831 74.4628L213.973 74.9804C214.716 76.1186 215.203 77.4186 215.698 78.6781L217.793 83.8207C218.077 84.4804 218.322 85.2289 218.658 85.8551C218.617 86.3613 218.969 87.0881 219.177 87.5514L219.148 87.8415L218.855 87.9391L218.547 87.2426L217.727 85.5485C217.727 85.3803 217.555 85.0334 217.5 84.8569C217.253 84.0663 216.938 83.3039 216.638 82.5329L213.544 74.7226Z" fill="#FDBA74"/>
<path d="M226.528 79.3195L229.644 84.2485C227.051 88.8151 224.065 92.8293 223.371 98.2062C223.15 99.9167 223.418 101.686 223.154 103.367L219.783 88.9335C220.375 88.7255 220.912 88.5046 221.436 88.1481C224.315 86.1889 225.849 82.6137 226.528 79.3195Z" fill="#0369A1"/>
<path d="M233.493 92.3903C234.736 94.8119 235.452 97.4872 236.209 100.085C232.662 104.739 227.938 108.869 225.955 114.527C225.228 116.601 225.027 118.779 224.403 120.866L223.581 105.933C224.073 105.758 224.519 105.558 224.968 105.29C226.349 104.466 227.488 103.326 228.534 102.117C231.074 99.183 232.566 96.1366 233.493 92.3903Z" fill="#0369A1"/>
<path d="M237.846 105.84C238.166 107.646 238.586 109.395 238.793 111.225C239.023 113.261 238.984 115.451 238.8 117.49L238.949 117.768C238.861 118.205 237.908 119.008 237.583 119.329L232.114 124.423C228.686 127.576 225.359 130.942 223.211 135.122C222.485 136.535 221.962 138.03 221.302 139.473L223.977 125.057C225.281 124.71 226.37 124.183 227.49 123.428C233.653 119.271 236.443 112.925 237.846 105.84Z" fill="#0369A1"/>
<path d="M103.17 57.8625C107.149 56.4484 111.419 55.2453 115.598 54.5876C125.784 52.9841 136.812 54.1781 146.484 57.6879C148.988 58.3639 151.519 59.5912 153.841 60.7509C165.272 66.4589 175.141 75.4753 181.529 86.5873C187.916 97.6969 191.318 110.621 190.521 123.455C190.301 126.99 189.694 130.469 189.051 133.946C186.539 147.141 178.865 159.82 169.108 168.927C166.842 171.042 164.567 172.993 162.005 174.743C158.983 176.806 155.785 178.743 152.466 180.282C140.657 185.762 126.516 187.751 113.696 185.32L107.811 183.956C104.218 182.969 100.659 181.558 97.3091 179.923C81.4985 172.211 69.1824 158.653 63.4731 141.947C58.7036 127.992 58.6611 113.259 63.2144 99.2431C64.1487 96.3669 65.1917 93.5353 66.5334 90.8202C68.8682 86.0954 71.6812 81.4889 75.0217 77.4054C82.2566 68.5622 92.3474 61.5202 103.17 57.8625Z" fill="#F97316"/>
<path d="M103.17 57.8625C107.149 56.4484 111.419 55.2453 115.598 54.5876C125.784 52.9841 136.812 54.1781 146.484 57.6879L146.431 57.9255L146.655 58.0041C149.511 59.0199 152.226 60.5575 154.812 62.123C156.523 63.1586 158.222 64.183 159.823 65.3866C168.128 71.6315 174.417 80.0737 178.779 89.4408C183.191 98.914 184.965 109.684 184.296 120.077C184.162 122.164 184.013 124.363 183.554 126.404L183.5 126.872L183.405 126.892L183.429 126.713C184.225 120.143 183.584 113.624 182.044 107.209C180.041 98.8715 176.653 91.1423 171.278 84.3925C164.381 75.7309 155.342 69.3666 144.94 65.5998C141.128 64.2192 137.033 63.1154 132.996 62.6637C127.242 62.0197 121.278 61.9838 115.54 62.8092C105.682 64.2275 96.0098 68.4426 88.2456 74.6777C76.1206 84.415 68.0784 98.9069 66.3943 114.358L65.8606 124.144L65.7302 124.136C65.4509 120.805 65.2295 117.481 65.3425 114.136C65.5574 107.778 66.978 100.839 69.3071 94.9142C70.5 91.8796 71.9936 89.0556 73.3291 86.0978C73.4705 85.7846 72.6694 85.0646 72.8369 84.5334C73.8035 81.4638 76.1394 78.6706 78.197 76.247C82.3071 71.4057 87.321 66.9404 92.6653 63.5019C94.9153 62.0541 97.3899 60.7953 99.7996 59.632C100.368 59.3573 102.819 58.5036 103.109 58.1618C103.175 58.0842 103.15 57.9623 103.17 57.8625Z" fill="#FDBA74"/>
<path d="M107.807 182.171L107.454 181.851C104.979 179.446 105.505 175.689 105.444 172.516L105.226 163.36C105.188 161.968 104.943 160.255 105.183 158.894C105.519 156.988 106.391 154.956 107.015 153.122L110.438 142.857C111.325 140.189 112.42 137.33 112.856 134.551C112.985 133.73 112.886 132.822 112.867 131.991L112.811 128.232L112.633 113.498C111.625 113.974 106.406 116.89 106.056 117.675C105.611 118.675 108.976 127.635 109.248 129.7C109.406 130.902 109.046 132.139 108.286 133.083C107.65 133.874 106.536 134.447 105.521 134.52C104.179 134.617 102.934 134.269 101.905 133.38C101.501 133.031 101.221 132.653 100.978 132.178C100.044 130.354 99.4043 128.285 98.6433 126.375L96.5046 120.979C95.8152 119.281 94.6873 117.139 94.5906 115.297C94.5217 113.984 94.8181 112.657 95.6213 111.599C96.8689 109.955 99.0066 108.907 100.687 107.751L111.135 100.85L115.172 98.466C116.331 97.7819 117.43 97.2006 118.332 96.1786C117.041 94.7472 115.604 93.62 114.569 91.9516C112.884 89.235 112.539 85.8932 113.297 82.8246C113.985 80.0373 115.847 77.373 118.306 75.8801C121.15 74.154 124.47 73.5497 127.717 74.3764C131.534 75.3483 133.812 77.7404 135.778 81.0243C136.795 81.5409 137.78 82.8415 138.618 83.6613L146.985 91.9848L185.776 130.659C186.856 131.752 187.898 132.936 189.051 133.946C186.539 147.141 178.865 159.82 169.108 168.927C166.842 171.042 164.567 172.993 162.005 174.743C158.983 176.806 155.785 178.743 152.466 180.282C140.657 185.762 126.516 187.751 113.696 185.32L107.811 183.956L107.807 182.171Z" fill="#0369A1"/>
<path d="M122.973 101.412L119.8 98.487L120.179 96.9228L123.064 97.7675L122.973 101.412Z" fill="#FDBA74"/>
<path d="M123.064 97.7675C125.422 98.0571 126.996 97.7577 129.157 96.8417C129.333 97.4062 129.602 98.0375 129.625 98.6288C128.455 100.562 126.273 101.789 124.929 103.63L122.973 101.412L123.064 97.7675Z" fill="#EA580C"/>
<path d="M124.454 76.3842C127.31 76.591 129.912 77.3849 131.868 79.6095C133.585 81.5619 134.482 84.1996 134.258 86.7919C134.025 89.4745 132.618 91.8083 130.551 93.4699C129.113 94.6266 126.99 95.3024 125.15 95.3717C123.105 95.3395 121.385 94.9731 119.644 93.841C117.705 92.58 116.085 90.3801 115.614 88.0998L115.572 87.8905L115.404 87.0153C115.088 84.3383 115.87 81.6947 117.57 79.6188C119.358 77.4347 121.722 76.6359 124.454 76.3842Z" fill="#FDBA74"/>
<path d="M134.103 119.487L134.448 118.591C134.653 118.178 134.668 117.734 134.726 117.278L134.625 129.163C134.625 130.679 134.565 132.237 134.7 133.747C134.946 136.49 135.816 139.266 136.609 141.894L139.677 151.451L141.174 155.759C141.565 156.811 142.123 158.018 142.319 159.119C142.443 159.815 142.344 160.669 142.327 161.381L142.186 165.93L141.851 175.951C141.824 176.663 141.947 178.56 141.589 179.137C141.184 179.789 140.551 180.103 139.817 180.222C139.332 180.3 138.923 180.159 138.54 179.857C137.103 178.722 137.081 176.711 136.92 175.041L136.584 171.305L136.128 164.754C136.089 163.5 136.222 162.192 136.11 160.95C136.09 160.727 135.997 160.564 135.907 160.366L134.727 157.809C134.464 157.546 134.209 156.867 134.031 156.529L132.199 153.16L127.602 145.663C126.808 144.388 126.088 143.037 125.214 141.816L129.381 134.141C129.747 133.479 129.996 132.7 130.27 131.994L131.797 127.773C132.348 126.248 132.882 124.854 133.211 123.259L134.103 119.487Z" fill="url(#paint1_linear_1037_30012)"/>
<path d="M115.05 136.623C115.597 132.664 115.316 128.625 115.251 124.635L115.087 109.025L114.959 109.023L107.859 113.306L105.116 115.058C104.668 115.362 104.128 115.678 103.787 116.106C103.401 116.59 103.219 117.306 103.229 117.916C103.247 118.924 103.698 120.127 103.996 121.09L105.618 126.35C105.991 127.508 106.533 128.767 106.674 129.971C106.728 130.434 106.708 130.852 106.389 131.225C106.064 131.605 105.565 131.839 105.069 131.868C104.602 131.896 104.143 131.78 103.798 131.45C103.135 130.818 102.681 129.235 102.333 128.388L99.5684 121.487L98.0522 117.717C97.728 116.927 97.1506 115.922 97.1741 115.059C97.2009 114.066 97.6045 113.196 98.3313 112.529C98.9424 111.969 99.6785 111.524 100.356 111.046L104.258 108.345C108.201 105.677 112.118 102.892 116.305 100.615C116.685 100.408 117.561 99.8105 117.951 99.8229C118.649 100.59 119.349 101.33 120.111 102.035C120.747 102.624 121.514 103.234 122.057 103.905C122.809 104.837 123.117 106.222 123.41 107.363L124.703 112.629L126.161 107.395C126.421 106.504 126.661 105.423 127.176 104.645C127.63 103.959 128.414 103.384 129.013 102.815L131.972 99.9093L135.504 102.085C138.512 103.782 141.23 105.947 144.109 107.849L148.936 110.987C149.818 111.557 150.778 112.077 151.589 112.742C152.193 113.237 152.624 113.809 152.84 114.562C152.906 114.794 153.02 115.102 152.987 115.343C152.834 116.464 152.25 117.686 151.854 118.746L149.28 125.496L148.067 128.784C147.826 129.452 147.631 130.202 147.284 130.818C147.074 131.191 146.845 131.465 146.484 131.695L146.362 131.774C145.964 132.011 145.427 132.048 144.986 131.916C144.606 131.803 144.158 131.415 143.978 131.063C143.53 130.189 144.16 128.466 144.37 127.563L145.768 121.502C146.047 120.289 146.538 118.756 146.49 117.51C146.47 116.986 146.262 116.315 145.947 115.897C145.609 115.449 145.064 115.138 144.597 114.84L141.579 113.013C139.392 111.691 137.209 110.234 134.937 109.067C134.811 110.927 134.864 112.809 134.85 114.673C134.844 115.449 134.942 116.538 134.726 117.278C134.668 117.734 134.653 118.178 134.448 118.591L134.103 119.487L133.211 123.259C132.882 124.854 132.348 126.248 131.797 127.773L130.27 131.994C129.996 132.7 129.747 133.479 129.381 134.141L125.214 141.816C121.677 147.033 118.305 152.425 115.379 158.011C114.922 158.884 113.946 160.283 113.968 161.24C114.029 163.987 113.575 177.133 112.512 178.946C112.244 179.402 111.78 179.953 111.243 180.078L111.113 180.102C110.629 180.199 110.238 180.176 109.767 180.017C109.146 179.807 108.758 179.45 108.479 178.86C108.24 178.354 108.278 177.793 108.265 177.246L108.195 174.388L107.914 164.307L107.799 159.257C107.807 158.945 107.856 158.704 107.97 158.412L114.654 138.397L115.05 136.623Z" fill="#FDBA74"/>
<path d="M120.596 136.851C121.832 136.014 122.932 134.986 124.049 133.998C126.689 131.661 129.196 129.131 131.292 126.286C132.01 125.312 132.523 124.242 133.211 123.259C132.882 124.854 132.348 126.248 131.797 127.773L131.63 127.611C130.649 128.516 129.792 129.569 128.829 130.503C126.488 132.772 124.02 134.771 121.338 136.612C120.644 137.088 119.845 137.754 119.031 137.98L120.596 136.851Z" fill="#C39A72"/>
<path d="M135.778 81.0243C136.795 81.5409 137.78 82.8415 138.618 83.6613L146.985 91.9848L185.776 130.659C186.856 131.752 187.898 132.936 189.051 133.946C186.539 147.141 178.865 159.82 169.108 168.927C166.842 171.042 164.567 172.993 162.005 174.743C158.983 176.806 155.785 178.743 152.466 180.282C140.657 185.762 126.516 187.751 113.696 185.32L107.811 183.956L107.807 182.171C108.897 182.746 110.141 183.138 111.38 182.9C113.265 182.539 114.647 181.116 115.342 179.375C116.026 177.661 115.976 175.29 116.11 173.449L116.586 165.104C116.604 164.03 116.433 162.458 116.706 161.43C117.008 160.286 117.89 159.005 118.469 157.95C120.534 154.189 122.679 150.363 125.07 146.799C127.254 149.862 129.189 153.288 131.03 156.57C131.849 158.028 132.929 159.726 133.442 161.306C133.749 162.253 133.519 163.813 133.552 164.828L134.124 173.437C134.27 175.211 134.301 177.117 134.751 178.844C134.954 179.624 135.327 180.384 135.875 180.978C136.864 182.05 138.223 182.806 139.707 182.844C140.802 182.872 142.13 182.335 142.902 181.547C144.914 179.493 144.375 175.836 144.473 173.158L144.904 163.449C144.958 162.127 145.19 160.599 145.006 159.302C144.766 157.614 143.908 155.735 143.39 154.099L139.616 142.212C138.799 139.667 137.763 137.021 137.322 134.38C137.171 133.48 137.223 132.536 137.226 131.625L137.327 113.589C139.412 114.975 141.87 115.945 143.814 117.519C143.309 121.797 141.672 125.893 141.046 130.142C140.893 131.177 141.363 132.292 141.988 133.098C142.65 133.953 143.771 134.531 144.843 134.648C146.168 134.793 147.401 134.382 148.437 133.54C148.945 133.127 149.368 132.582 149.663 131.999C150.487 130.368 151.001 128.457 151.654 126.74L153.807 121.163C154.445 119.557 155.36 117.7 155.509 115.973C155.64 114.46 155.256 112.866 154.324 111.66C153.554 110.664 152.446 110.052 151.407 109.381L147.654 106.945L136.976 100.071C135.091 98.9189 132.488 97.7746 131.077 96.0859C132.796 94.797 134.404 93.3837 135.408 91.444C136.593 89.1537 137.064 86.5519 136.625 84.0055C136.45 82.9972 136.089 81.997 135.778 81.0243Z" fill="#EA580C"/>
</g>
<defs>
<linearGradient id="paint0_linear_1037_30012" x1="149.55" y1="109.62" x2="45.9866" y2="182.16" gradientUnits="userSpaceOnUse">
<stop stop-color="#007FDC"/>
<stop offset="1" stop-color="#21B5FF"/>
</linearGradient>
<linearGradient id="paint1_linear_1037_30012" x1="-13.8615" y1="110.337" x2="169.964" y2="308.264" gradientUnits="userSpaceOnUse">
<stop stop-color="#5AA6CE"/>
<stop offset="1" stop-color="#008DDC"/>
</linearGradient>
<clipPath id="clip0_1037_30012">
<path d="M0 8C0 3.58172 3.58172 0 8 0H242C246.418 0 250 3.58172 250 8V242C250 246.418 246.418 250 242 250H8C3.58172 250 0 246.418 0 242V8Z" fill="white"/>
</clipPath>
</defs>
</svg>
