<svg width="250" height="250" viewBox="0 0 250 250" fill="none" xmlns="http://www.w3.org/2000/svg">
<g clip-path="url(#clip0_1253_6850)">
<path d="M0 0H250.244V250.244H0V0Z" fill="#1A0B10"/>
<path d="M108.689 23.7421C108.891 22.3082 109.531 21.1279 110.216 19.8712C112.738 15.2489 116.313 11.5211 119.951 7.77254C121.643 6.02968 123.308 4.24982 125.126 2.63696C126.543 3.74322 127.776 5.10192 129.057 6.35925C133.872 11.0835 139.089 16.3912 141.578 22.7749C141.327 23.5993 140.703 24.2885 140.267 25.0296C139.439 26.4357 138.555 28.1053 138.078 29.6723L127.568 26.2554L125.011 18.9536L124.986 19.1436C124.824 20.302 124.429 21.4019 124.1 22.5203L123.052 26.3509C119.214 27.2248 115.478 28.2229 111.849 29.7757L111.827 29.6273C111.553 28.368 109.645 24.4211 108.689 23.7421Z" fill="#F97316"/>
<path d="M58.1173 183.038L60.3917 194.621L61.0709 197.947C61.1769 198.468 61.2048 199.115 61.4272 199.597L61.6999 199.67L61.5958 199.962L69.3192 212.66L72.5349 218.52C73.0271 219.382 73.4836 220.323 74.0887 221.109L74.1591 221.591C74.1012 221.63 74.0533 221.691 73.9858 221.71C73.7691 221.769 73.1574 221.651 72.9159 221.629L68.4616 221.158L61.4308 220.74C53.9445 220.515 46.2246 220.966 38.8563 222.378C36.7908 222.773 34.7199 223.168 32.7334 223.87L37.0726 211.899C37.3387 211.219 39.4023 205.804 39.3429 205.435C39.3094 205.227 38.9888 204.759 38.8832 204.545L37.6163 201.931L33.5584 193.628L29.2456 184.817L37.0733 184.236L58.1173 183.038Z" fill="#6B2A1A"/>
<path d="M191.848 182.786L204.426 183.398L210.961 183.852C211.847 183.922 213.588 184.319 214.354 184.028L214.5 184.081C215.025 184.261 215.764 184.202 216.321 184.24C218 184.356 219.707 184.415 221.373 184.651L210.996 205.251L217.642 224.324C216.561 223.92 215.464 223.467 214.349 223.168C212.766 222.744 211.111 222.505 209.494 222.258C204.708 221.527 199.924 221.308 195.088 221.242L181.477 221.311C180.722 221.328 176.625 221.584 176.539 221.39C176.436 221.16 176.459 220.896 176.459 220.648L176.521 220.63C176.536 220.09 176.569 219.794 176.899 219.357C177.818 218.141 178.583 216.657 179.334 215.328L182.551 209.741L185.637 204.57C186.282 203.537 187.022 202.525 187.612 201.462C187.749 201.217 187.825 200.948 187.899 200.68C188.014 200.509 188.794 200.258 189.022 200.159L191.848 182.786Z" fill="#6B2A1A"/>
<path d="M79.8799 206.819L96.6411 211.533L105.093 213.327L118.045 215.206C120.258 215.432 122.512 215.667 124.735 215.704C129.102 215.779 133.605 215.084 137.916 214.443C142.976 213.691 147.912 212.875 152.896 211.697C153.306 211.491 154.026 211.406 154.488 211.292L158.976 210.202L167.251 207.871C166.94 208.535 166.404 209.027 165.923 209.566L163.538 212.215C152.519 224.171 138.872 233.578 125.045 241.973L111.478 233.339C103.031 227.703 94.9297 221.289 87.4889 214.382C84.8496 211.932 82.2399 209.551 79.8799 206.819Z" fill="#032D55"/>
<path d="M96.6411 211.533L105.093 213.327L118.045 215.206C120.258 215.432 122.512 215.667 124.735 215.705C129.102 215.779 133.605 215.085 137.916 214.443C142.976 213.691 147.912 212.875 152.896 211.697L152.837 211.789C152.284 212.557 151.392 213.233 150.691 213.863C147.8 216.46 144.645 218.747 141.496 221.017L129.735 229.146L126.37 231.3C125.971 231.544 125.443 231.936 124.987 232.013L116.156 226.433C110.502 222.721 105.038 218.824 99.8809 214.435C98.8112 213.525 97.5113 212.636 96.6411 211.533Z" fill="#1A0B10"/>
<path d="M37.0735 184.236C33.933 178.596 30.9966 172.806 28.4777 166.86C23.5201 155.157 19.9842 142.99 17.4458 130.547L15.8911 122.604C16.2419 122.759 16.6698 123.425 16.9264 123.727L19.2743 126.409L21.5061 128.593C22.7856 129.997 24.4646 131.187 25.9966 132.301C27.8766 133.668 29.8558 135.081 31.8837 136.221L33.7857 137.302L38.3793 139.643L40.6681 140.629L46.2742 142.657C47.7703 149.421 49.9303 155.936 52.8651 162.213L56.2466 168.761L56.1498 168.837C56.0247 168.929 55.9076 168.986 55.7671 169.049C55.588 169.903 56.0188 171.188 56.1586 172.063C56.7392 175.694 57.2273 179.472 58.1175 183.038L37.0735 184.236Z" fill="#FDBA74"/>
<path d="M228.574 128.64L233.898 123.017C231.318 137.53 227.958 151.93 222.575 165.685L216.279 180.108L214.354 184.028C213.588 184.319 211.847 183.922 210.961 183.852L204.426 183.398L191.848 182.786L193.429 173.943C193.738 172.436 194.202 170.911 194.385 169.385C194.42 169.09 194.389 168.873 194.291 168.595C194.463 167.884 195.022 166.989 195.347 166.314L197.753 161.192C200.324 155.191 202.373 149.089 203.739 142.699L207.14 141.473L212.228 139.223L213.837 138.412L218.641 135.805C220.908 134.63 223.024 133.076 225.054 131.537C226.276 130.611 227.484 129.724 228.574 128.64Z" fill="#FDBA74"/>
<path d="M141.578 22.7749L141.679 23.1813C145.819 18.9961 150.301 15.45 155.075 12.0215C155.789 11.5086 156.686 10.6502 157.493 10.3484C161.107 15.5091 164.671 20.8418 166.799 26.8175C166.938 27.2065 167.451 29.0907 167.677 29.1772L176.088 23.562L179.919 21.0849C180.645 20.619 181.44 20.1782 182.109 19.6357L186.759 38.839L200.456 35.7495C200.674 36.1083 200.692 36.7737 200.757 37.1975L201.252 40.4746L203.466 55.9695L218.113 55.9765L217.857 74.7231C221.33 75.6457 224.766 76.6542 228.145 77.8793C228.773 78.1068 229.864 78.3695 230.341 78.8152L227.995 86.6325C226.635 90.9453 225.269 95.1527 223.268 99.2234L223.382 99.2847C225.671 100.538 227.751 102.17 229.841 103.719C230.688 104.347 231.668 104.943 232.409 105.69C231.526 105.694 230.618 105.457 229.748 105.308L224.263 104.298C217.194 103.116 210.015 102.593 202.887 103.548L202.852 103.253L198.133 89.7598L195.5 84.3262C194.959 83.1574 194.211 81.9905 193.543 80.8895L189.159 74.3964L184.899 68.8441L176.819 60.6562L171.87 56.7815L160.786 49.9067L154.717 47.0171L143.327 42.9399C143.862 41.7371 144.487 40.5748 145.138 39.4313L146.653 36.8749C146.908 36.4572 147.318 35.9379 147.32 35.435C147.322 34.5494 147.093 34.1801 146.506 33.5621L138.078 29.6723C138.555 28.1053 139.44 26.4357 140.267 25.0296C140.703 24.2885 141.327 23.5993 141.578 22.7749Z" fill="#EA580C"/>
<path d="M189.159 74.3964C191.712 72.5249 194.075 70.4582 196.746 68.7317C200.262 66.4585 204.463 64.9521 208.425 63.6645L210.848 62.8526C211.342 62.6823 211.88 62.4291 212.4 62.3785L212.226 62.5186L201.508 72.0816L212.478 67.5327L202.86 76.1229L209.591 73.3047C208.732 74.4721 207.359 75.4875 206.264 76.4296C202.938 79.2918 199.363 82.2036 195.5 84.3262C194.959 83.1574 194.211 81.9905 193.543 80.8895L189.159 74.3964Z" fill="#F97316"/>
<path d="M198.133 89.7598C199.566 89.24 200.933 88.5352 202.386 88.0601C205.859 86.9245 209.507 85.9707 213.099 85.2916L222.645 83.7354C220.06 85.1261 217.731 86.9521 215.212 88.4599L211.653 90.4255C211.155 90.6765 210.597 90.8331 210.133 91.1374L216.089 89.9101L220.07 88.9487C220.683 88.7969 221.414 88.5196 222.037 88.5196C217.747 91.2813 213.814 94.5284 209.183 96.7573C209.882 96.7498 210.769 96.3925 211.455 96.2107L215.727 95.163C216.48 94.9819 217.284 94.7182 218.051 94.6349C213.998 97.5303 209.622 99.9736 205.178 102.213C204.586 102.512 203.487 103.242 202.852 103.253L198.133 89.7598Z" fill="#F97316"/>
<path d="M176.819 60.6561C177.369 59.5383 178.223 58.5779 179.001 57.6124C182.05 53.8262 185.524 50.577 189.621 47.9318L194.073 45.1271C194.938 44.5728 195.857 44.064 196.64 43.3944C194.782 47.584 192.51 51.5628 189.955 55.3602C190.885 54.694 191.566 53.7615 192.434 53.0281C194.072 51.6444 196.137 50.3653 197.559 48.7788C196.286 52.7004 194.747 56.5452 192.453 59.9902C191.017 62.1461 189.299 64.0476 187.551 65.946C186.668 66.9044 185.839 67.9462 184.899 68.8441L176.819 60.6561Z" fill="#F97316"/>
<path d="M146.506 33.562L145.876 32.8079C146.7 30.3008 147.818 27.8198 149.227 25.5865L151.746 21.8272L151.51 27.7321C152.017 26.7016 152.364 25.576 152.782 24.5061C153.814 21.8621 154.873 19.0679 156.26 16.5919C156.362 18.7937 156.373 21.0298 156.189 23.2276C156.079 24.5405 155.829 25.878 155.765 27.1859L158.826 20.8842C158.966 23.9009 159.157 26.9386 158.944 29.9577C158.633 34.3937 157.499 38.9978 156.06 43.1947C155.655 44.3758 155.301 45.9271 154.716 47.0171L143.327 42.9398C143.861 41.737 144.487 40.5747 145.138 39.4313L146.653 36.8748C146.908 36.4572 147.318 35.9379 147.32 35.435C147.322 34.5493 147.093 34.1801 146.506 33.562Z" fill="#F97316"/>
<path d="M160.786 49.9067C162.572 44.6931 165.617 39.3473 169.114 35.0912C170.075 33.9211 171.1 32.7036 172.36 31.8431C172.126 32.4731 171.314 33.5186 171.411 34.1L171.533 34.174L171.584 34.0372C172.235 32.4277 174.289 30.8844 175.52 29.6963L172.257 39.1618L172.376 39.2163L179.166 26.3463C178.824 31.3053 177.784 35.7974 176.033 40.4499L181.102 33.9477C180.587 39.9084 178.195 45.7862 175.263 50.9541C174.164 52.8898 172.868 54.8031 171.87 56.7816L160.786 49.9067Z" fill="#F97316"/>
<path d="M17.6128 105.584C18.2773 104.9 19.1368 104.318 19.896 103.738L26.4826 99.2001C26.5723 98.7162 25.1688 95.3888 24.9183 94.6769L20.0586 78.8668L32.726 74.6994L32.2568 55.9618L47.5381 56.4601C47.4826 49.4078 48.6644 42.4633 50.172 35.5997L65.2895 39.9388C65.6696 33.1177 67.0097 26.5623 68.6913 19.9575L83.8387 28.9933C84.8951 24.2351 87.0153 19.5218 89.4667 15.3223L92.4745 10.4811C96.0268 13.0648 99.641 15.517 102.976 18.3905L106.595 21.7479C107.207 22.348 107.838 23.1414 108.532 23.6339L108.689 23.742C109.645 24.421 111.553 28.368 111.827 29.6273L111.849 29.7756C109.111 30.9264 106.521 32.0432 103.974 33.6067C103.207 34.1725 102.551 34.7375 102.392 35.7343C102.302 36.2998 102.674 36.7133 103 37.1368C103.743 38.1019 104.728 38.9951 105.307 40.0647C105.429 41.2089 105.591 42.387 105.552 43.5376L95.6341 46.9848L89.1422 50.0664L79.0825 56.3868C77.1336 57.8176 74.9767 59.2815 73.2485 60.9706L65.476 68.7605L62.0694 72.9428C61.7727 73.3145 61.2338 74.2086 60.8563 74.4442C58.6669 77.4958 56.4323 80.8162 54.7871 84.1908L51.9049 90.0715C49.8387 94.8719 48.0833 99.6952 46.8809 104.789C45.4611 111.376 44.5987 117.939 44.6043 124.685C44.6055 126.271 44.5711 127.879 44.6972 129.46L44.782 131.5L45.1769 135.621L45.5134 138.131L46.2739 142.657L40.6678 140.629L38.379 139.643L33.7854 137.302L31.8834 136.221C29.8555 135.081 27.8763 133.668 25.9963 132.301C24.4643 131.187 22.7853 129.997 21.5058 128.593L23.9295 123.161C23.0355 121.432 22.4955 119.511 21.8424 117.68L18.7902 109.223L17.9168 106.827C17.814 106.559 17.5827 106.138 17.5417 105.865C17.5273 105.769 17.589 105.678 17.6128 105.584Z" fill="#EA580C"/>
<path d="M54.7871 84.1909C53.2231 83.285 51.6156 82.4898 50.0977 81.4966C46.2075 78.9507 43.0046 75.8045 39.8094 72.4636C40.6557 72.6188 41.5068 73.1212 42.2766 73.4937L45.9594 75.1699C43.9171 73.6735 42.1026 71.7273 40.2705 69.9778L36.7656 66.7557C37.8108 67.1425 38.8206 67.6987 39.8338 68.1672L46.3683 71.3925C47.7116 72.1168 49.0882 73.1843 50.5332 73.6484L38.4203 62.9695C40.1219 63.5487 41.7847 64.3989 43.4367 65.1203C48.4316 67.3013 53.2018 69.4929 57.8538 72.3622C58.8729 72.9907 60.0212 73.5753 60.8563 74.4443C58.6669 77.4959 56.4323 80.8163 54.7871 84.1909Z" fill="#F97316"/>
<path d="M65.4762 68.7606C62.8139 65.7373 60.2497 62.6567 58.278 59.1235C56.2831 55.5484 54.9606 51.5391 53.6991 47.6638C56.0253 49.1428 58.1971 51.4094 60.1495 53.3588L53.6035 41.8341C54.7413 42.5367 55.7716 43.4045 56.8391 44.2065C61.7228 47.8749 66.0749 51.6318 70.0063 56.3334C71.16 57.7131 72.5043 59.339 73.2487 60.9707L65.4762 68.7606Z" fill="#F97316"/>
<path d="M95.634 46.9849C92.137 38.1049 92.2313 28.8835 93.862 19.6013L97.1387 30.162L96.0937 18.553L101.594 30.0367L100.891 25.1249L103.974 33.6068C103.207 34.1726 102.551 34.7376 102.392 35.7344C102.301 36.2999 102.674 36.7134 103 37.1369C103.743 38.1019 104.728 38.9951 105.307 40.0648C105.429 41.209 105.591 42.3871 105.552 43.5377L95.634 46.9849Z" fill="#F97316"/>
<path d="M79.0828 56.3869C77.7563 54.0699 76.4818 51.8363 75.4523 49.3637C72.9247 43.2926 72.1512 36.805 71.0752 30.3791L77.3325 40.4876L72.2768 25.7021C73.3103 26.7984 74.0657 28.0594 74.9545 29.2657C76.3902 31.2146 77.9036 33.0941 79.1637 35.166C79.5745 35.8417 79.9728 36.5509 80.3076 37.2669C80.5522 37.7896 80.736 38.3207 81.0855 38.786C80.4293 35.7087 79.1263 32.8441 78.0329 29.9123L78.4442 30.2112C79.3621 30.8783 79.9897 31.937 80.6551 32.8405C83.0654 36.113 84.9843 39.4793 86.6532 43.1777C87.6678 45.4265 88.5833 47.654 89.1424 50.0665L79.0828 56.3869Z" fill="#F97316"/>
<path d="M44.9831 102.994L46.5718 103.064L46.7372 103.085C45.1708 102.372 43.5434 101.822 41.9946 101.063C39.1378 99.6617 36.5171 97.8741 33.9863 95.9565C32.7947 95.0537 31.5955 94.2495 30.7089 93.0256L37.8873 95.4689L28.0615 88.2094C28.6593 88.2241 29.5737 88.6234 30.172 88.7844L35.9564 90.3005C37.3352 90.7336 38.6754 91.3717 40.0737 91.7179L31.963 86.442C30.7086 85.5977 29.27 84.8089 28.1532 83.7954L38.7878 85.9728C40.7189 86.4022 42.6955 86.7822 44.5887 87.3524C47.0806 88.1028 49.4916 89.1028 51.9049 90.0716C49.8387 94.8719 48.0833 99.6952 46.8809 104.789C45.4611 111.376 44.5987 117.939 44.6043 124.685C44.6055 126.271 44.5711 127.879 44.6972 129.46L44.782 131.5L45.1769 135.621L45.5134 138.131L46.2739 142.657L40.6678 140.629L38.379 139.643L33.7854 137.302L31.8834 136.221C29.8555 135.081 27.8763 133.668 25.9963 132.301C24.4643 131.187 22.7853 129.997 21.5058 128.593L23.9295 123.161C23.0355 121.432 22.4955 119.511 21.8424 117.68L18.7902 109.223L17.9168 106.827C17.814 106.559 17.5827 106.138 17.5417 105.865C17.5273 105.769 17.589 105.678 17.6128 105.584C18.5224 105.546 19.4495 105.318 20.3422 105.144L24.9169 104.271C29.3983 103.472 33.7568 103.046 38.3064 102.878C40.5271 102.796 42.7729 102.699 44.9831 102.994Z" fill="#F97316"/>
<path d="M111.849 29.7756C115.478 28.2228 119.214 27.2248 123.052 26.3509L124.1 22.5202C124.429 21.4018 124.824 20.3019 124.986 19.1435L125.011 18.9535L127.568 26.2553L138.078 29.6722L146.506 33.562C147.093 34.1801 147.322 34.5493 147.32 35.4349C147.318 35.9379 146.908 36.4572 146.653 36.8748L145.138 39.4313C144.487 40.5747 143.862 41.737 143.327 42.9398L154.717 47.0171L160.786 49.9066L171.87 56.7815L176.819 60.6561L184.899 68.844L189.159 74.3963L193.543 80.8895C194.211 81.9904 194.959 83.1573 195.5 84.3262L198.133 89.7597L202.852 103.253L202.887 103.548C210.015 102.593 217.194 103.116 224.263 104.298L229.748 105.308C230.618 105.457 231.526 105.694 232.409 105.69C232.555 106.166 232.04 107.14 231.861 107.615L229.441 114.978L228.909 116.542L227.789 119.696L226.787 122.315C226.712 122.507 226.419 123.049 226.422 123.233C226.425 123.492 226.798 124.123 226.914 124.396C227.494 125.766 228.258 127.188 228.574 128.639C227.484 129.724 226.276 130.611 225.054 131.537C223.024 133.076 220.908 134.629 218.641 135.805L213.837 138.412L212.228 139.223L207.14 141.473L203.739 142.699C202.373 149.089 200.324 155.191 197.753 161.192L195.347 166.314C195.022 166.989 194.463 167.884 194.291 168.595C194.389 168.873 194.42 169.09 194.385 169.385C194.202 170.91 193.738 172.436 193.429 173.943L191.848 182.786L189.022 200.159C188.794 200.258 188.014 200.509 187.898 200.68L180.294 203.582C179.041 204.026 177.503 204.337 176.326 204.927L167.251 207.871L158.976 210.202L154.488 211.292C154.026 211.406 153.306 211.491 152.896 211.697C147.912 212.875 142.976 213.691 137.916 214.443C133.605 215.084 129.102 215.779 124.735 215.704C122.512 215.667 120.258 215.432 118.045 215.206L105.093 213.327L96.6411 211.533L79.8799 206.819L74.2663 204.823L61.7 199.67L61.4273 199.597C61.2049 199.115 61.1771 198.468 61.071 197.947L60.3919 194.621L58.1174 183.038C57.2272 179.472 56.7391 175.694 56.1585 172.063C56.0187 171.188 55.5879 169.903 55.767 169.049C55.9075 168.986 56.0246 168.929 56.1497 168.836L56.2465 168.761L52.865 162.213C49.9302 155.936 47.7702 149.421 46.2741 142.657L45.5136 138.131L45.1771 135.621L44.7822 131.5L44.6974 129.46C44.5713 127.879 44.6057 126.271 44.6045 124.685C44.5989 117.939 45.4613 111.376 46.8811 104.789C48.0835 99.6952 49.8389 94.8719 51.9051 90.0715L54.7873 84.1908C56.4324 80.8162 58.6671 77.4958 60.8564 74.4442C61.234 74.2086 61.7729 73.3145 62.0695 72.9428L65.4762 68.7605L73.2487 60.9706C74.9769 59.2815 77.1338 57.8176 79.0827 56.3868L89.1424 50.0664L95.6343 46.9848L105.552 43.5376C105.591 42.387 105.429 41.2089 105.307 40.0647C104.728 38.9951 103.743 38.1019 103 37.1368C102.674 36.7133 102.302 36.2998 102.392 35.7343C102.551 34.7375 103.207 34.1725 103.974 33.6067C106.521 32.0432 109.111 30.9264 111.849 29.7756Z" fill="#032D55"/>
<path d="M105.307 40.0648C105.978 41.0355 106.688 41.9925 107.19 43.0648L105.552 43.5377C105.591 42.3872 105.429 41.209 105.307 40.0648Z" fill="#EA580C"/>
<path d="M181.608 138.22L182.134 139.649L183.892 140.157C183.308 140.301 182.694 140.412 182.146 140.664L181.805 141.679L181.681 141.815L181.578 141.801L181.188 140.728C180.761 140.416 180.036 140.304 179.523 140.154L181.071 139.599L181.608 138.22Z" fill="#FEFDFC"/>
<path d="M67.4914 139.113C67.6581 139.129 67.8402 139.138 67.9988 139.2C68.3902 139.355 68.5884 139.676 68.7729 140.029C68.8064 140.449 68.8712 140.847 68.6324 141.218C68.4064 141.57 68.0137 141.718 67.6322 141.825C67.4147 141.819 67.1662 141.785 66.9626 141.708C66.6429 141.587 66.3475 141.183 66.2715 140.859C66.1674 140.414 66.2109 139.974 66.4887 139.602C66.7365 139.27 67.1073 139.176 67.4914 139.113Z" fill="#FEFDFC"/>
<path d="M77.285 145.013C77.9497 146.122 78.4409 147.402 78.98 148.581L82.6513 149.042C81.8112 149.962 80.8077 150.746 79.861 151.554L80.7376 155.24L77.219 153.53L73.9849 155.202C74.1017 153.961 74.4023 152.661 74.701 151.452L72.1777 148.984C73.2943 148.694 74.5284 148.617 75.6746 148.483L77.285 145.013Z" fill="#FEFDFC"/>
<path d="M171.85 145.345C172.586 145.821 173.265 147.84 173.606 148.686L177.396 149.111C176.665 150.161 175.644 151.002 174.659 151.805L175.364 155.668L171.704 153.89C170.671 154.648 169.398 155.191 168.237 155.731C168.373 154.505 168.535 153.124 169.078 152.006L169.143 151.876C168.111 150.993 167.218 150.199 166.394 149.108L168.988 148.828C169.209 148.799 169.849 148.754 170.02 148.65C170.544 148.332 171.314 146.032 171.85 145.345Z" fill="#FEFDFC"/>
<path d="M161.932 68.9178L169.337 75.2974L165.47 79.8064C164.887 79.64 164.399 79.2771 163.894 78.9521C162.147 77.663 161.007 75.8785 158.967 74.9042C159.316 73.845 159.914 72.8198 160.421 71.825C160.913 70.8602 161.362 69.8379 161.932 68.9178Z" fill="#7DD3FC"/>
<path d="M82.7618 82.0751L80.2158 75.3547C80.5086 74.8481 81.2078 74.34 81.6542 73.9355C83.6613 72.1178 85.8216 70.3661 88.045 68.8212C88.0144 69.5286 88.2092 69.9917 88.3959 70.6587C88.873 72.3642 89.6787 73.9438 90.2388 75.6154L86.8607 78.6469C86.4323 79.0316 85.4042 79.7332 85.1462 80.1936C84.3967 80.8302 83.6178 81.5912 82.7618 82.0751Z" fill="#7DD3FC"/>
<path d="M124.381 28.9956C126.269 28.6974 128.422 29.5625 130.219 30.1202C134.848 31.5564 139.664 33.2275 143.78 35.8242L134.06 53.5591L126.321 53.0566L116.562 53.565L106.333 35.791C111.949 32.8301 118.095 30.1185 124.381 28.9956Z" fill="#0284C7"/>
<path d="M124.939 34.4296C125.694 36.0188 126.162 37.7602 126.666 39.4423L131.387 39.7431C130.427 40.8638 128.95 41.596 128.074 42.7605C127.881 43.018 128.763 46.6996 128.868 47.3978C127.619 46.649 126.408 45.7705 125.086 45.1615L124.911 45.0821L121.09 47.4569L122.153 42.8365L118.773 39.7438L123.356 39.4364L124.939 34.4296Z" fill="#FEFDFC"/>
<path d="M202.887 103.548C210.015 102.593 217.194 103.116 224.263 104.298L229.748 105.308C230.618 105.457 231.526 105.694 232.409 105.69C232.555 106.166 232.04 107.14 231.861 107.615L229.441 114.978L228.908 116.542L227.789 119.696L226.787 122.315C226.712 122.507 226.419 123.049 226.422 123.233C226.425 123.492 226.798 124.123 226.914 124.396C227.494 125.766 228.258 127.188 228.574 128.639C227.483 129.724 226.276 130.611 225.054 131.537C223.024 133.076 220.908 134.629 218.641 135.805L213.837 138.412L212.228 139.223L207.14 141.473L203.739 142.699L204.26 139.857L204.857 136.467L205.126 134.424L205.41 131.316C205.875 126.261 205.708 121.248 205.241 116.199L204.932 113.613L204.723 112.365L203.451 105.794L202.887 103.548Z" fill="#F97316"/>
<path d="M177.49 173.705L182.398 166.034C186.303 159.583 189.32 152.46 191.331 145.198C195.239 131.091 195.045 115.567 190.373 101.662C188.677 96.6156 186.397 91.9047 183.77 87.284C182.807 85.5899 181.696 84.0173 180.595 82.4132C177.149 77.3922 173.069 72.6046 168.443 68.6334C163.113 64.0584 156.753 60.2999 150.245 57.6667C146.165 56.0159 142.005 54.9655 137.78 53.804L140.927 47.3729L147.544 49.3561C152.388 50.98 157.205 53.13 161.66 55.6266C179.773 65.7779 192.709 84.1227 198.236 103.922C204.117 124.991 200.482 147.927 189.771 166.811L187.168 171.026L177.49 173.705Z" fill="#0284C7"/>
<path d="M62.3904 170.859C61.6431 169.389 60.6849 168.025 59.8694 166.591C58.0109 163.323 56.2457 159.966 54.7924 156.497C53.3134 152.967 52.1866 149.27 51.2484 145.562C47.6607 131.383 47.5886 115.579 52.149 101.591C54.0896 95.6391 56.4131 89.9539 59.5202 84.5015C64.9317 75.0044 72.5859 66.5665 81.4395 60.1565C85.0038 57.5758 88.8347 55.3581 92.7536 53.3661C98.0678 50.6652 103.865 48.7114 109.686 47.45L112.89 53.8204C94.8215 57.1733 79.1663 67.8957 68.7819 82.9678C57.9603 98.6743 53.288 119.035 56.777 137.869C58.3225 146.211 61.1526 154.588 65.1805 162.062C66.6497 164.788 68.3762 167.415 70.136 169.962L72.8555 173.818L62.3904 170.859Z" fill="#0284C7"/>
<path d="M88.0451 68.8212C88.9864 67.9583 90.3518 67.2107 91.4356 66.5243C104.709 58.1188 122.019 54.6051 137.429 58.0878L137.215 58.1714L137.196 58.2562L137.412 58.2799L138.075 58.4065L138.187 58.5932L138.289 58.7569C138.447 59.0284 138.462 59.1657 138.441 59.4764L137.885 59.4822C137.692 59.4822 137.609 59.4414 137.433 59.3847C137.19 59.3068 137.068 59.3329 136.823 59.3647L136.71 59.6105C136.457 60.5247 136.365 61.4937 136.192 62.427L135.007 70.0147L134.053 76.1125L127.182 76.4932C125.9 76.7317 124.62 76.9145 123.413 77.4343C120.637 78.5189 118.715 80.1416 117.033 82.5558C116.806 82.9754 116.48 83.4751 116.358 83.9358C116.13 84.7962 116.406 85.9671 116.451 86.8529L115.33 87.233L115.042 87.3136L114.4 87.6829C113.167 88.3686 112.253 89.8517 111.896 91.1934C111.248 93.6237 112.509 97.0045 113.196 99.3114C113.362 99.8679 113.68 100.595 113.711 101.167L113.377 100.943L113.37 101.784C113.189 101.928 113.201 101.953 112.955 101.979L112.611 101.374L112.4 101.112C112.294 101.086 112.156 101.044 112.048 101.053C111.634 101.087 111.534 101.281 111.298 101.565C110.986 101.771 110.85 101.787 110.491 101.791C110.115 103.355 110.205 104.852 110.631 106.394C111.038 107.293 111.482 107.924 112.438 108.281C113.005 108.493 113.621 108.519 114.22 108.537C114.205 109.524 114.064 110.678 114.212 111.645L114.259 112.945L114.392 119.212C113.289 119.459 112.11 119.8 110.983 119.881C109.655 119.97 108.336 120.265 107.037 120.544L106.928 120.583L105.05 120.742L105.32 123.214L105.182 123.558C103.999 126.155 102.452 128.736 101.06 131.232C100.482 132.268 99.6998 133.399 99.3368 134.522C96.9559 131.256 94.4813 127.673 91.0925 125.37C90.0937 124.691 88.9637 124.155 87.9136 123.556C88.6563 124.358 89.1675 125.075 89.5908 126.086C88.2645 126.418 86.9001 126.72 85.5289 126.732C80.765 126.774 77.2117 124.493 73.5243 121.759C70.949 119.85 68.3845 117.691 66.0734 115.467L61.9229 111.232C61.0231 110.342 60.6157 110.309 59.4028 110.318L63.0612 103.661C64.9207 100.643 66.9554 97.6684 69.2476 94.9602C72.7435 90.83 76.7995 87.1506 80.872 83.6027L82.7618 82.0751C83.6179 81.5912 84.3967 80.8302 85.1462 80.1936C85.4043 79.7332 86.4324 79.0316 86.8608 78.6469L90.2388 75.6154C89.6787 73.9439 88.873 72.3642 88.396 70.6587C88.2093 69.9918 88.0145 69.5287 88.0451 68.8212Z" fill="url(#paint0_linear_1253_6850)"/>
<path d="M111.435 100.198C112.021 100.082 112.418 100.175 112.924 100.52C113.102 100.642 113.242 100.772 113.377 100.943L113.37 101.784C113.188 101.928 113.201 101.953 112.955 101.979L112.61 101.374L112.4 101.112C112.294 101.085 112.156 101.044 112.048 101.052C111.634 101.086 111.533 101.281 111.298 101.565C110.986 101.771 110.85 101.787 110.491 101.791C110.73 101.178 111.007 100.698 111.435 100.198Z" fill="#FEFDFC"/>
<path d="M98.9975 90.0156L105.327 102.884L107.773 107.649C108.254 108.566 108.973 109.583 109.19 110.596L107.891 108.756L103.129 102.578L98.5356 95.9509C97.7326 94.7647 96.6475 93.454 96.0767 92.1532C97.4032 91.8641 98.1055 90.9589 98.9975 90.0156Z" fill="#7DD3FC"/>
<path d="M123.413 77.4343L122.586 61.6095L128.503 61.7046L127.182 76.4932C125.899 76.7317 124.62 76.9145 123.413 77.4343Z" fill="#7DD3FC"/>
<path d="M85.8672 90.0968C86.5784 90.9846 87.6949 92.4077 88.062 93.5012C88.1734 93.8329 88.0957 94.1965 88.16 94.5364C88.2164 94.8353 88.4772 95.1491 88.6566 95.3859L91.7455 99.1454L97.6131 106.353C99.2367 108.192 101.11 109.957 102.601 111.893C100.036 110.648 97.5916 108.777 95.1808 107.243L88.0227 103.043C86.8479 102.348 85.5781 101.298 84.3257 100.821L85.8672 90.0968Z" fill="#0284C7"/>
<path d="M115.042 87.3136L107.581 60.9563L114.433 59.4434L115.909 72.3322L116.593 78.9346C116.724 80.1503 116.774 81.3576 117.033 82.5558C116.806 82.9754 116.48 83.4751 116.358 83.9358C116.13 84.7962 116.406 85.9671 116.451 86.8529L115.33 87.2329L115.042 87.3136Z" fill="#7DD3FC"/>
<path d="M108.095 91.9895C107.298 89.9773 106.211 88.0235 105.246 86.0836L95.1538 66.9252L101.607 64.1285L105.415 76.7461C106.972 81.9062 108.809 87.0115 110.067 92.2551L110.93 96.8438C111.067 97.6408 111.404 98.6997 111.253 99.4932L108.095 91.9895Z" fill="#7DD3FC"/>
<path d="M90.2388 75.6154C91.1323 74.9717 92.4458 74.0262 93.6071 74.1527C94.5802 74.2588 95.4832 75.5909 96.0013 76.3311C97.1453 77.9653 98.049 80.0061 98.4605 81.958C98.8838 83.9656 98.9405 86.02 99.3686 88.043C99.0231 88.3641 98.6946 88.6894 98.286 88.9306L97.2821 89.371C95.7618 89.8988 93.1868 90.1921 91.5812 89.9135C90.0854 89.654 89.3459 87.8844 88.6201 86.7454L87.2574 84.7749L85.8672 90.0968L84.3256 100.821L84.0248 104.27C83.622 104.414 83.2191 104.547 82.8373 104.742L82.8593 104.859C83.4165 105.589 84.0165 106.229 84.6494 106.891C85.0504 107.31 85.6186 107.818 85.7423 108.395L85.7811 108.553C88.6885 110.277 90.6746 112.214 92.3185 115.18C94.1575 114.567 96.1064 114.2 98.025 114.689C100.671 115.364 102.829 116.918 104.267 119.269C104.558 119.746 104.83 120.228 105.05 120.742L105.32 123.214L105.182 123.558C103.999 126.155 102.452 128.736 101.06 131.232C100.482 132.268 99.6997 133.399 99.3368 134.522C96.9559 131.256 94.4813 127.673 91.0925 125.37C90.0937 124.691 88.9637 124.154 87.9136 123.556C88.6563 124.358 89.1675 125.075 89.5908 126.086C88.2645 126.418 86.9001 126.72 85.5289 126.732C80.765 126.774 77.2117 124.493 73.5243 121.759C70.949 119.85 68.3845 117.691 66.0734 115.467L61.9229 111.232C61.0231 110.342 60.6157 110.309 59.4028 110.318L63.0612 103.661C64.9207 100.643 66.9554 97.6684 69.2476 94.9602C72.7435 90.8299 76.7995 87.1505 80.872 83.6026L82.7618 82.075C83.6179 81.5912 84.3967 80.8302 85.1462 80.1936C85.4043 79.7331 86.4324 79.0315 86.8608 78.6469L90.2388 75.6154Z" fill="#FDBA74"/>
<path d="M78.2423 107.546C77.3063 107.494 76.1744 107.636 75.2465 107.771L75.1152 107.791L82.8374 104.742L82.8594 104.859C82.1133 105.147 80.561 105.506 80.1194 106.172L79.9183 107.427C79.3599 107.541 78.8093 107.537 78.2423 107.546Z" fill="#EA580C"/>
<path d="M88.5301 80.8631L88.6166 80.7236L89.0151 80.0349C88.9313 80.584 88.7153 81.0992 88.6244 81.6456C88.402 82.979 88.8749 84.2453 89.6603 85.3079C90.6188 86.6048 92.0833 88.4909 93.7837 88.6994C94.4494 88.7808 95.1982 88.6693 95.8553 88.5625L97.282 89.3709C95.7617 89.8988 93.1867 90.192 91.5811 89.9135C90.0853 89.6539 89.3458 87.8844 88.62 86.7453L87.2573 84.7749L88.5301 80.8631Z" fill="#EA580C"/>
<path d="M87.0169 79.6181C87.4753 79.3375 88.4797 78.5306 88.9526 78.588C88.3512 78.9863 87.8434 79.5479 87.3243 80.0467L84.8827 82.4208L76.6176 90.8277C74.7134 92.9204 73 95.2219 70.9775 97.2019C73.3764 92.1635 76.8654 88.2063 80.9196 84.4196C81.068 84.1623 81.2234 83.9216 81.3182 83.6388L80.8717 83.6027L82.7615 82.075C83.6176 81.5912 84.3964 80.8302 85.1459 80.1936C84.9458 80.7293 84.4345 81.1835 84.3607 81.7163C85.294 81.1432 86.1694 80.315 87.0169 79.6181Z" fill="#FEFDFC"/>
<path d="M85.1463 80.1936C84.9461 80.7293 84.4349 81.1836 84.3611 81.7163L80.92 84.4197C81.0683 84.1623 81.2237 83.9216 81.3186 83.6389L80.8721 83.6027L82.7619 82.0751C83.6179 81.5912 84.3968 80.8302 85.1463 80.1936Z" fill="#E4D2C6"/>
<path d="M79.9181 107.427L80.1193 106.172C80.5609 105.506 82.1132 105.147 82.8592 104.859C83.4164 105.589 84.0164 106.229 84.6493 106.891C85.0504 107.31 85.6185 107.818 85.7422 108.395L85.781 108.553C88.6884 110.277 90.6745 112.214 92.3184 115.18C94.1574 114.567 96.1063 114.2 98.0249 114.689C100.671 115.364 102.829 116.918 104.267 119.269C104.558 119.746 104.83 120.228 105.05 120.742L105.32 123.214L105.182 123.558C104.659 123.149 104.226 122.389 103.829 121.85C102.411 119.926 100.723 118.359 98.4499 117.525C96.837 116.934 94.4475 116.65 92.7505 116.984C91.641 117.202 90.6083 117.672 89.5904 118.148C90.3101 117.156 91.2273 116.313 92.0924 115.449C89.6967 112.756 86.2327 110.689 82.8517 109.488C81.6767 109.07 80.4098 108.835 79.2661 108.356C78.8145 108.167 78.4233 108.005 78.2422 107.546C78.8091 107.537 79.3597 107.541 79.9181 107.427Z" fill="#FEFDFC"/>
<path d="M79.918 107.427L80.1191 106.172C80.5607 105.506 82.113 105.147 82.8591 104.859C83.4163 105.589 84.0162 106.229 84.6492 106.891C85.0502 107.31 85.6184 107.818 85.742 108.395L85.7809 108.553C83.784 107.652 82.1142 107.383 79.918 107.427Z" fill="#0284C7"/>
<path d="M137.428 58.0878C139.837 58.6098 142.23 59.1948 144.564 59.9922C145.446 60.2933 146.434 60.5902 147.261 61.0206C147.808 61.1784 148.308 61.3705 148.826 61.6076L148.824 61.6151C150.411 62.1616 151.958 62.9223 153.454 63.6828C154.229 64.0773 155.092 64.4558 155.807 64.947C157.866 65.9971 160.154 67.4384 161.932 68.9179C161.362 69.838 160.913 70.8602 160.421 71.8251C159.914 72.8199 159.316 73.8451 158.967 74.9042C161.007 75.8786 162.147 77.663 163.894 78.9521C164.399 79.2772 164.887 79.6401 165.47 79.8065C166.962 80.5648 168.422 82.1081 169.685 83.2295C174.85 87.819 179.576 92.9311 183.528 98.6071C185.38 101.267 187.167 104.154 188.341 107.185C187.374 109.003 186.261 110.564 185.07 112.238C181.753 116.898 177.9 121.191 173.011 124.241C171.497 125.186 169.851 126.099 168.134 126.616L167.056 126.9C164.724 127.487 162.28 127.389 159.914 127.119C160.522 125.373 161.082 123.583 161.933 121.938C160.377 123.132 158.726 124.33 157.283 125.655C155.495 127.298 154.012 129.08 152.486 130.959C151.87 131.718 151.012 132.588 150.559 133.451L150.369 133.488C150.036 133.129 149.802 132.63 149.55 132.209L147.934 129.434L144.265 123.075C143.854 122.4 143.441 121.674 143.343 120.88C142.759 120.634 142.151 120.532 141.533 120.409L137.353 119.762L134.153 119.298C134.389 118.73 134.293 117.973 134.295 117.364L134.266 113.787L134.383 112.869L134.558 111.755C133.866 112.221 133.25 112.869 132.637 113.438L129.338 116.566C128.585 117.294 127.777 118.174 126.806 118.607C126.249 118.856 125.604 118.919 125 118.952C124.022 119.006 122.711 118.986 121.823 118.516C120.556 117.847 119.229 116.247 118.161 115.24L114.212 111.645C114.064 110.678 114.204 109.523 114.219 108.537C113.62 108.519 113.005 108.493 112.437 108.281C111.482 107.924 111.038 107.293 110.631 106.393C110.205 104.852 110.115 103.355 110.491 101.791C110.849 101.787 110.986 101.771 111.298 101.565C111.533 101.281 111.634 101.087 112.048 101.053C112.156 101.044 112.294 101.086 112.4 101.112L112.61 101.374L112.955 101.979C113.2 101.953 113.188 101.928 113.37 101.784L113.376 100.943L113.711 101.167C113.68 100.595 113.361 99.8678 113.196 99.3114C112.509 97.0044 111.248 93.6237 111.895 91.1933C112.253 89.8517 113.167 88.3686 114.4 87.6828L115.041 87.3136L115.329 87.2329L116.451 86.8529C116.406 85.967 116.13 84.7962 116.358 83.9358C116.479 83.4751 116.806 82.9753 117.033 82.5557C118.714 80.1415 120.637 78.5188 123.413 77.4343C124.62 76.9145 125.899 76.7317 127.182 76.4932L134.053 76.1124L135.007 70.0147L136.192 62.427C136.365 61.4937 136.456 60.5247 136.71 59.6105L136.823 59.3646C137.067 59.3329 137.19 59.3067 137.433 59.3847C137.609 59.4414 137.692 59.4822 137.885 59.4822L138.441 59.4763C138.462 59.1657 138.447 59.0284 138.288 58.7569L138.186 58.5931L138.074 58.4064L137.412 58.2798L137.196 58.2561L137.215 58.1713L137.428 58.0878Z" fill="url(#paint1_linear_1253_6850)"/>
<path d="M164.492 92.2329L164.746 92.9687L164.769 92.9753L165.613 97.5328C162.188 101.002 158.293 104.072 154.622 107.275L152.155 109.486C151.606 109.992 151.036 110.629 150.353 110.932L164.43 92.3321L164.492 92.2329Z" fill="#0284C7"/>
<path d="M152.173 88.9602C153.506 89.7632 154.731 90.4859 156.286 90.7483L140.529 111.921C141.064 110.435 142.13 108.947 142.933 107.58L145.564 102.774L152.173 88.9602Z" fill="#7DD3FC"/>
<path d="M136.71 59.6105C139.058 59.7009 141.311 60.2806 143.579 60.8495L142.914 63.0557L139.645 73.4201C139.229 74.62 138.916 75.8749 138.313 77L138.294 77.0892C137.532 79.129 136.49 80.1884 134.517 81.1027C133.925 81.3771 133.02 81.7578 132.36 81.7136C133.543 80.7053 134.685 79.6703 135.653 78.448C135.97 78.0469 136.313 77.8739 136.761 77.6418C137.116 77.4416 137.36 77.1031 137.623 76.7989L137.451 76.7429C136.481 76.1757 135.148 76.1818 134.053 76.1124L135.007 70.0147L136.192 62.4269C136.365 61.4937 136.456 60.5247 136.71 59.6105Z" fill="#7DD3FC"/>
<path d="M148.928 64.4626L155.301 67.3742L150.055 75.6354C148.715 77.8231 147.326 80.0052 146.154 82.2889C143.954 86.5719 142.174 91.1525 140.302 95.5902L138.088 100.475C138.312 98.87 138.975 97.1953 139.459 95.6452L141.342 89.4072L148.928 64.4626Z" fill="#7DD3FC"/>
<path d="M134.053 76.1124C135.149 76.1818 136.481 76.1757 137.451 76.7429L137.623 76.7989C137.36 77.1031 137.116 77.4416 136.761 77.6418C136.313 77.8739 135.97 78.0469 135.653 78.448C134.686 79.6703 133.543 80.7053 132.36 81.7136C133.021 81.7578 133.925 81.3771 134.517 81.1027C136.49 80.1884 137.532 79.129 138.294 77.0892C138.634 77.118 138.982 77.1144 139.302 77.2393C139.594 77.4174 139.822 77.532 139.895 77.8959C140.015 78.4963 139.942 79.2239 139.928 79.8353C139.865 82.3661 139.357 85.4301 137.756 87.4849C137.161 88.2495 136.358 88.901 135.549 89.4272C136.39 92.0855 136.37 94.8707 135.767 97.5841C135.559 98.5188 135.234 99.4404 135.105 100.389C134.798 101.512 134.596 102.611 134.473 103.769L134.296 104.861L133.755 100.932C133.601 99.238 133.636 97.5227 133.65 95.8238C133.665 93.8732 133.668 91.9213 133.884 89.98L131.598 90.1635C129.425 90.1188 127.101 89.144 125.061 88.4624C124.593 88.3057 123.728 88.1508 123.386 87.7933L123.632 87.6027L123.595 87.4971C121.412 86.9108 118.699 86.3773 116.451 86.8529C116.406 85.967 116.13 84.7962 116.358 83.9357C116.48 83.4751 116.806 82.9753 117.033 82.5557C118.715 80.1415 120.637 78.5188 123.413 77.4343C124.62 76.9145 125.9 76.7317 127.182 76.4932L134.053 76.1124Z" fill="#1A0B10"/>
<path d="M138.294 77.0892C138.634 77.1181 138.983 77.1144 139.302 77.2393C139.313 77.4673 139.317 77.6863 139.359 77.9108C139.502 78.6713 138.976 79.6063 138.562 80.2175C137.012 82.5061 133.175 83.8732 130.579 84.329L128.04 84.641L131.216 82.5648C131.388 82.4411 132.248 81.7183 132.36 81.7136C133.021 81.7579 133.925 81.3771 134.517 81.1027C136.49 80.1885 137.532 79.1291 138.294 77.0892Z" fill="#0284C7"/>
<path d="M136.761 77.6417C136.147 77.5296 135.292 77.8226 134.668 77.9225C131.149 78.4871 127.464 79.7129 124.236 81.2202L118.966 83.9592C119.378 82.7872 119.961 81.5995 120.7 80.6C121.282 79.814 122.045 79.0157 122.883 78.5051C123.938 77.8624 125.252 77.5083 126.447 77.2344C128.976 76.6549 131.524 76.4585 134.113 76.5653C134.836 76.5951 135.586 76.5975 136.302 76.6923C136.637 76.7366 136.983 76.8688 137.318 76.7913L137.45 76.7429L137.623 76.7989C137.36 77.1031 137.116 77.4416 136.761 77.6417Z" fill="#0284C7"/>
<path d="M116.451 86.8529C118.698 86.3773 121.412 86.9108 123.595 87.4971L123.632 87.6027L123.386 87.7933C123.728 88.1508 124.592 88.3057 125.061 88.4624C127.1 89.144 129.425 90.1188 131.598 90.1635L133.884 89.98C133.668 91.9213 133.664 93.8732 133.649 95.8238C133.636 97.5227 133.601 99.238 133.755 100.932L134.295 104.861L134.473 103.769C134.596 102.611 134.798 101.512 135.105 100.389C135.592 100.197 136.346 99.9272 136.852 100.183C137.462 100.492 137.781 101.028 137.956 101.667C138.102 102.201 138.152 102.754 138.201 103.303C138.173 104.713 138.096 106.402 137.03 107.452C136.288 108.182 135.536 108.294 134.538 108.375L134.558 111.755C133.866 112.221 133.25 112.869 132.637 113.438L129.338 116.566C128.585 117.294 127.777 118.174 126.806 118.607C126.249 118.856 125.604 118.919 125 118.952C124.022 119.006 122.711 118.986 121.823 118.516C120.556 117.847 119.229 116.247 118.161 115.24L114.212 111.645C114.064 110.678 114.204 109.523 114.219 108.537C113.62 108.519 113.005 108.493 112.437 108.281C111.482 107.924 111.038 107.293 110.631 106.393C110.205 104.852 110.115 103.355 110.491 101.791C110.849 101.787 110.986 101.771 111.298 101.565C111.533 101.281 111.634 101.087 112.048 101.053C112.156 101.044 112.294 101.086 112.4 101.112L112.61 101.374L112.955 101.979C113.2 101.953 113.188 101.928 113.37 101.784L113.376 100.943L113.711 101.167C113.68 100.595 113.361 99.8678 113.196 99.3114C112.509 97.0044 111.248 93.6237 111.895 91.1933C112.253 89.8517 113.167 88.3685 114.4 87.6828L115.041 87.3136L115.329 87.2329L116.451 86.8529Z" fill="#FDBA74"/>
<path d="M111.298 101.565C111.534 101.281 111.634 101.087 112.048 101.053C112.157 101.044 112.294 101.086 112.4 101.112L112.611 101.374L112.955 101.979C113.236 103.349 113.538 104.104 114.41 105.228C114.605 105.46 114.647 105.507 114.7 105.802C114.061 105.436 113.657 104.764 112.993 104.401L112.78 104.594C112.666 104.964 112.698 105.184 112.777 105.562L112.805 105.694L112.72 105.823C112.366 105.47 112.327 105.465 112.257 104.941C112.374 103.897 112.282 102.811 112.286 101.758C112.087 101.843 111.96 101.836 111.869 102.047C111.514 102.867 111.667 104.104 111.702 104.987L111.185 104.849C111.044 103.714 111.112 102.69 111.298 101.565Z" fill="#EA580C"/>
<path d="M130.584 108.81C130.866 108.77 130.727 108.769 131 108.81C130.565 109.308 130.072 109.597 129.455 109.834C127.987 110.397 126.3 110.409 124.748 110.376C122.811 110.335 120.856 110.261 119.076 109.432C118.854 109.265 118.611 109.167 118.542 108.892C118.774 108.865 118.718 108.846 118.901 108.894C122.617 109.861 126.891 109.941 130.584 108.81Z" fill="#EA580C"/>
<path d="M126.77 96.2244C128.011 96.002 130.066 98.5364 131.239 99.077L131.661 99.2759L131.156 99.5929L128.915 100.225C128.025 99.6286 127.05 98.7916 126.74 97.7217C126.59 97.2055 126.519 96.7112 126.77 96.2244Z" fill="#1A0B10"/>
<path d="M121.66 96.2244L121.889 96.196C122.026 96.1973 122.198 96.2293 122.263 96.3595C122.434 96.7048 122.36 97.4184 122.239 97.783C121.966 98.6017 121.068 99.6198 120.27 99.9617C119.479 100.3 118.682 99.9448 117.943 99.6521L117.044 99.3981C117.928 98.9671 118.605 98.2874 119.372 97.6907C120.09 97.1323 120.86 96.6545 121.66 96.2244Z" fill="#1A0B10"/>
<path d="M123.454 106.675C123.24 106.677 123.052 106.683 122.844 106.622C122.49 106.517 122.491 106.49 122.318 106.183C122.309 104.78 122.166 103.292 122.653 101.956L122.709 101.809C120.791 102.27 119.328 102.251 117.555 101.26C119.396 101.341 120.876 102.109 122.733 101.454C123.146 101.308 123.353 100.659 123.544 100.286C123.549 101.219 123.113 105.601 123.414 106.151L124.24 106.203L125.966 106.18C125.938 105.399 125.9 104.627 125.802 103.851C125.721 103.202 125.372 101.917 125.619 101.335L125.917 101.487L125.904 101.631C125.904 102.073 126.107 102.576 126.224 103.006C126.499 104.026 126.809 105.656 126.333 106.638L123.454 106.675Z" fill="#EA580C"/>
<path d="M135.105 100.389C135.592 100.197 136.346 99.9271 136.852 100.183C137.462 100.492 137.781 101.028 137.956 101.667C138.102 102.201 138.152 102.754 138.201 103.303L137.604 103.178L137.402 104.143C137.302 104.139 137.201 104.14 137.104 104.117C137.105 103.696 137.004 103.264 136.921 102.852C136.814 102.321 136.718 101.728 136.255 101.424C136.107 102.334 136.413 103.347 136.617 104.236C136.586 104.664 136.473 104.841 136.212 105.178L135.993 105.266C135.821 104.824 136.168 104.846 135.752 104.492L135.538 104.533C135.321 105.116 135.192 105.724 134.606 106.037C134.77 105.409 134.816 104.773 134.85 104.127L134.595 104.12L134.473 103.769C134.596 102.611 134.798 101.512 135.105 100.389Z" fill="#EA580C"/>
<path d="M135.105 100.389C135.592 100.197 136.346 99.9271 136.852 100.183C137.462 100.492 137.781 101.028 137.956 101.667C138.102 102.201 138.152 102.754 138.201 103.303L137.604 103.178C137.518 102.615 137.492 101.73 137.076 101.312C136.765 101 136.399 101.049 135.997 101.033L135.746 101.295C135.155 102.029 135.005 103.214 134.85 104.127L134.595 104.12L134.473 103.769C134.596 102.611 134.798 101.512 135.105 100.389Z" fill="#FEFDFC"/>
<path d="M115.042 87.3136L115.33 87.2329C114.98 89.7798 115.359 92.3013 115.436 94.8465C115.497 96.847 115.347 98.8529 115.245 100.85C115.175 102.214 115.149 103.653 114.78 104.974L114.679 104.998L113.711 101.167C113.68 100.595 113.362 99.8678 113.196 99.3114C112.509 97.0044 111.248 93.6237 111.896 91.1933C112.253 89.8517 113.167 88.3685 114.401 87.6828L115.042 87.3136Z" fill="#1A0B10"/>
<path d="M149.435 86.8287C149.275 86.5506 149.256 86.3158 149.306 86.0032C149.463 85.025 149.921 84.0118 150.348 83.1266C151.659 80.4089 153.84 77.1674 156.375 75.4773C157.077 75.0086 157.761 74.7239 158.612 74.8971L158.967 74.9042C161.007 75.8786 162.147 77.663 163.894 78.9521C164.399 79.2772 164.887 79.6401 165.47 79.8065C166.963 80.5648 168.422 82.108 169.685 83.2295C174.85 87.8189 179.576 92.9311 183.528 98.6071C185.38 101.267 187.168 104.154 188.341 107.185C187.374 109.003 186.261 110.564 185.07 112.238C181.753 116.898 177.9 121.191 173.011 124.241C171.497 125.186 169.851 126.099 168.134 126.616L167.056 126.9C164.724 127.487 162.28 127.389 159.914 127.119C160.522 125.373 161.082 123.583 161.933 121.938C160.377 123.132 158.726 124.33 157.283 125.655C155.495 127.298 154.012 129.08 152.486 130.959C151.87 131.718 151.012 132.588 150.559 133.451L150.369 133.488C150.036 133.129 149.802 132.63 149.551 132.209L147.934 129.434L144.265 123.075C143.854 122.4 143.442 121.674 143.343 120.88C143.701 120.456 143.918 119.851 144.21 119.37C145.136 117.845 146.452 116.618 147.95 115.664C151.383 114.184 154.581 113.735 158.223 114.782C159.107 112.81 159.884 110.921 161.552 109.444C163.04 108.127 164.84 107.296 166.72 106.702C167.342 106.505 168.059 106.254 168.716 106.289C168.943 106.191 169.128 106.059 169.33 105.918L169.33 105.45L168.42 104.646C166.417 102.564 166.121 100.257 165.613 97.5328L164.769 92.9753L164.746 92.9687L164.492 92.2329L164.057 90.7224C162.236 89.0069 160.793 90.0856 158.771 90.5582C157.962 90.7471 157.112 90.7322 156.286 90.7483C154.731 90.4859 153.506 89.7632 152.173 88.9602C151.142 88.3246 150.205 87.7811 149.435 86.8287Z" fill="#FDBA74"/>
<path d="M158.967 74.9042C161.007 75.8785 162.147 77.663 163.894 78.9521C164.674 80.1092 166.167 80.9875 166.782 82.1725L166.605 82.1947L162.601 78.7287L160.159 76.2563C159.661 75.7634 159.07 75.4357 158.612 74.8971L158.967 74.9042Z" fill="#FEFDFC"/>
<path d="M164.77 92.9753C165.479 93.6249 165.736 94.8959 166.024 95.7967L167.1 99.1823C167.369 100.086 167.589 101.032 167.974 101.894C168.362 102.765 169.002 103.531 169.571 104.289L169.507 104.533L168.42 104.646C166.417 102.564 166.121 100.257 165.613 97.5328L164.77 92.9753Z" fill="#FEFDFC"/>
<path d="M149.436 86.8287C149.861 86.8846 150.309 86.9362 150.709 87.0999C152.863 87.9819 155.523 90.5696 157.912 88.7424C159.571 87.4741 160.7 85.5872 162.311 84.2727C162.959 86.281 163.82 88.6327 164.057 90.7224C162.236 89.0068 160.793 90.0855 158.771 90.5581C157.962 90.747 157.112 90.7321 156.286 90.7483C154.731 90.4858 153.506 89.7632 152.173 88.9601C151.142 88.3245 150.205 87.781 149.436 86.8287Z" fill="#EA580C"/>
<path d="M147.95 115.664C151.383 114.184 154.581 113.735 158.223 114.782C159.107 112.81 159.884 110.921 161.552 109.444C163.04 108.127 164.84 107.296 166.72 106.702C167.342 106.505 168.059 106.254 168.716 106.289C169.172 106.622 170 106.427 170.581 106.449C169.463 106.98 168.399 107.629 167.326 108.243C165.677 109.186 164.108 110.107 162.71 111.408C161.745 112.306 160.909 113.322 160.146 114.394C160.034 114.552 159.371 115.599 159.281 115.631C159.088 115.701 158.363 115.593 158.12 115.589C157.417 115.578 156.707 115.629 156.01 115.719C152.572 116.16 148.798 117.542 146.415 120.17C145.573 121.099 145.004 122.093 144.265 123.075C143.854 122.4 143.442 121.674 143.343 120.88C143.701 120.456 143.918 119.851 144.21 119.37C145.136 117.845 146.452 116.618 147.95 115.664Z" fill="#FEFDFC"/>
<path d="M188.341 107.185L189.855 111.469C184.736 122.582 175.354 132.539 163.7 136.825L161.562 137.543L161.577 137.703C161.678 138.862 161.599 140.046 161.554 141.208C161.415 144.851 160.885 148.312 159.823 151.804L151.628 170.61L148.385 177.207C147.983 178.024 147.418 178.892 147.135 179.75C149.297 179.338 151.539 179.23 153.715 178.852L170.255 175.516C172.647 174.975 175.187 174.548 177.49 173.705L187.168 171.026L191.323 169.783C192.266 169.494 193.553 169.268 194.291 168.595C194.389 168.873 194.42 169.09 194.385 169.385C194.202 170.91 193.738 172.436 193.429 173.943L191.848 182.786L189.022 200.159C188.794 200.258 188.014 200.509 187.899 200.68L180.294 203.582C179.041 204.026 177.503 204.337 176.326 204.927L167.251 207.871L158.976 210.202L154.488 211.292C154.026 211.406 153.306 211.491 152.896 211.697C147.912 212.875 142.976 213.691 137.916 214.443C133.605 215.085 129.102 215.779 124.735 215.704C122.512 215.667 120.258 215.432 118.045 215.206L105.093 213.327L96.6412 211.533L79.8799 206.819L74.2663 204.823L61.7001 199.67L61.4273 199.597C61.205 199.115 61.1771 198.468 61.071 197.947L60.3919 194.621L58.1175 183.038C57.2272 179.472 56.7392 175.694 56.1585 172.063C56.0187 171.188 55.5879 169.903 55.767 169.049C55.9075 168.986 56.0246 168.929 56.1497 168.836L56.2465 168.761C56.7585 169.411 61.3042 170.57 62.3904 170.859L72.8555 173.818L102.104 179.666C101.941 178.938 101.373 178.131 101.038 177.45L98.0935 171.421L89.7167 152.9C87.3777 147.839 87.1255 142.541 87.1392 137.061C83.5192 135.784 80.2849 134.502 77.0874 132.326C71.2299 128.342 66.8939 123.438 62.6588 117.827C61.2394 115.947 59.4256 113.906 59.0383 111.498C58.9579 110.998 59.1202 110.717 59.4029 110.318C60.6158 110.309 61.0231 110.342 61.9229 111.232L66.0735 115.467C68.3846 117.691 70.9491 119.85 73.5244 121.759C77.2118 124.493 80.7651 126.774 85.529 126.732C86.9002 126.72 88.2646 126.418 89.5908 126.086C89.1676 125.075 88.6563 124.357 87.9137 123.556C88.9638 124.154 90.0938 124.691 91.0925 125.37C94.4813 127.673 96.9559 131.256 99.3369 134.521C99.6998 133.399 100.482 132.268 101.06 131.232C102.452 128.736 103.999 126.155 105.182 123.558L105.32 123.214L105.05 120.742L106.928 120.583L107.037 120.543C108.336 120.265 109.655 119.969 110.984 119.881C112.11 119.8 113.29 119.459 114.392 119.212L114.259 112.945L114.212 111.645L118.161 115.239C119.229 116.247 120.556 117.847 121.823 118.516C122.711 118.986 124.022 119.006 125.001 118.952C125.605 118.919 126.25 118.856 126.806 118.607C127.778 118.174 128.585 117.294 129.339 116.566L132.637 113.438C133.25 112.868 133.866 112.221 134.559 111.755L134.384 112.869L134.266 113.787L134.295 117.364C134.293 117.973 134.389 118.73 134.153 119.298L137.353 119.762L141.533 120.409C142.151 120.531 142.76 120.634 143.344 120.88C143.442 121.674 143.855 122.4 144.265 123.075L147.934 129.434L149.551 132.209C149.803 132.63 150.036 133.129 150.37 133.488L150.559 133.451C151.012 132.588 151.87 131.718 152.486 130.959C154.013 129.08 155.496 127.298 157.283 125.655C158.726 124.33 160.377 123.132 161.934 121.938C161.083 123.583 160.522 125.373 159.914 127.119C162.28 127.389 164.724 127.487 167.056 126.9L168.135 126.616C169.852 126.098 171.497 125.186 173.011 124.241C177.901 121.191 181.753 116.898 185.07 112.237C186.261 110.563 187.374 109.003 188.341 107.185Z" fill="#F97316"/>
<path d="M105.05 120.742L106.928 120.583C106.269 121.419 105.948 122.39 105.32 123.214L105.05 120.742Z" fill="#FDBA74"/>
<path d="M114.392 119.212C114.49 119.917 114.794 123.279 114.444 123.689L114.368 123.762C115.753 125.68 117.645 127.48 119.445 129.006C119.945 129.43 121.634 130.48 121.797 131.022C117.807 129.89 113.708 127.694 110.734 124.788C109.395 123.48 108.238 121.978 107.037 120.544C108.336 120.265 109.655 119.969 110.984 119.881C112.11 119.8 113.29 119.459 114.392 119.212Z" fill="#FEFDFC"/>
<path d="M114.392 119.212C114.49 119.917 114.794 123.279 114.444 123.689L114.368 123.762L110.983 119.881C112.11 119.8 113.289 119.459 114.392 119.212Z" fill="#F97316"/>
<path d="M109.714 188.51L113.629 189.506C114.037 190.006 114.348 190.476 114.654 191.041L113.001 201.115C112.777 202.519 112.672 204.101 112.231 205.451L111.851 205.462L109.222 205.109L111.375 192.253L108.804 191.772L109.714 188.51Z" fill="#1A0B10"/>
<path d="M151.519 135.277L151.714 135.165C152.827 134.499 153.821 133.485 154.827 132.667C155.398 132.203 155.848 131.698 156.616 131.759C158.56 133.43 159.176 137.038 159.371 139.482C159.553 141.754 159.205 143.998 158.786 146.226C158.655 146.918 158.579 147.789 158.253 148.416L158.069 148.19C157.607 147.008 156.832 145.848 156.229 144.722L152.784 138.243L151.749 136.269C151.674 136.116 151.461 135.774 151.437 135.622C151.419 135.506 151.492 135.392 151.519 135.277Z" fill="#FDBA74"/>
<path d="M91.7532 148.713C92.0242 149.236 92.1012 149.776 92.2747 150.334L93.285 153.222L97.786 164.212L102.957 175.021C103.777 176.623 104.72 178.169 105.477 179.802L105.388 179.96L104.173 179.996C103.849 179.787 102.557 179.791 102.104 179.666C101.94 178.938 101.373 178.131 101.038 177.45L98.0931 171.421L89.7163 152.901L91.3624 149.258L91.7532 148.713Z" fill="#EA580C"/>
<path d="M91.3628 149.258L91.1849 149.042C89.1617 146.401 88.4789 142.614 88.9112 139.354C89.3267 136.226 90.3831 133.746 91.6585 130.899C93.4933 131.591 94.8963 132.728 96.4066 133.942C97.1866 134.569 97.955 135.148 98.605 135.915L94.5019 143.499C93.5906 145.168 92.4396 146.94 91.7536 148.713L91.3628 149.258Z" fill="#FDBA74"/>
<path d="M158.068 148.19L158.252 148.416C158.55 149.548 159.375 150.689 159.823 151.804L151.628 170.61L148.385 177.208C147.983 178.024 147.417 178.893 147.135 179.751C146.306 179.97 145.471 180.061 144.622 180.167C144.371 180.198 143.85 180.204 143.642 180.31L142.473 180.395L142.296 180.23L142.473 180.067C143.007 179.635 143.323 178.96 143.667 178.368L145.199 175.696C148.393 169.946 151.515 164.027 154.071 157.962L156.619 151.502C156.937 150.664 157.374 148.724 158.068 148.19Z" fill="#EA580C"/>
<path d="M139.6 189.089L139.697 189.114C140.079 189.296 141.069 189.995 141.175 190.385C141.567 191.816 141.801 193.347 142.126 194.801L143.72 201.935C143.808 202.396 144.001 203.074 143.77 203.504L143.293 204.399C142.479 204.777 141.508 204.923 140.635 205.118L137.205 205.925C136.58 205.565 136.089 205.106 135.584 204.6L134.533 198.925L133.355 193.576C133.259 193.113 132.981 192.268 133.028 191.822C133.063 191.481 133.633 190.708 133.816 190.384L139.6 189.089Z" fill="#1A0B10"/>
<path d="M138.033 192.571L138.441 192.546C138.878 193.033 138.993 194.263 139.145 194.902L140.707 201.874L138.748 202.334C138.456 202.401 138.41 202.431 138.135 202.324L136.275 193.135L138.033 192.571Z" fill="#F97316"/>
<path d="M121.373 190.729L126.374 190.843C126.682 190.849 127.669 190.755 127.913 190.87C128.015 190.917 128.075 191.025 128.154 191.104C128.413 191.365 128.858 191.836 128.991 192.172C129.055 192.334 129.029 192.701 129.031 192.883C129.038 193.744 128.954 194.616 128.913 195.477L128.541 205.151C128.181 205.624 127.658 205.977 127.194 206.346C125.211 206.67 122.933 206.477 120.912 206.477L119.674 205.269C119.588 204.528 119.682 203.763 119.703 203.018L119.799 198.918L119.973 192.194C120.006 191.72 120.988 191.062 121.373 190.729Z" fill="#1A0B10"/>
<path d="M123.049 193.848L125.849 193.913L125.679 203.297L122.827 203.251C122.614 202.811 122.781 201.791 122.792 201.257L123.049 193.848Z" fill="#F97316"/>
<path d="M124.778 181.239L123.913 181.174C123.627 180.855 123.63 180.027 123.571 179.59C123.225 177.015 123.216 174.462 123.223 171.87C123.086 172.233 122.954 172.703 122.744 173.028C122.199 173.872 120.793 174.532 119.88 174.946C117.804 175.887 114.556 177.017 112.339 176.116C111.185 175.647 110.163 174.75 109.285 173.883C106.87 171.501 105.036 168.573 103.034 165.846C106.522 168.797 110.624 171.16 115.348 170.727C117.467 170.533 119.693 169.83 121.692 169.117C122.381 168.871 123.489 168.244 124.163 168.194C124.562 168.164 126.701 169.16 127.23 169.357C129.742 170.289 132.566 171 135.264 170.788C137.838 170.585 140.803 169.361 143.023 168.084C143.825 167.623 144.551 167.02 145.33 166.521L141.577 171.307C139.966 173.266 138.001 175.895 135.325 176.335C132.549 176.791 128.455 175.214 126.224 173.562C125.712 173.183 125.505 172.727 125.262 172.151C125.271 174.569 125.377 176.962 125.139 179.374C125.078 179.991 125.083 180.641 124.915 181.24L124.778 181.239Z" fill="#EA580C"/>
<path d="M123.938 135.692L124.123 135.814C124.535 138.378 124.601 140.999 124.677 143.591L124.875 154.082C126.64 154.503 128.317 155.222 130.085 155.636C136.294 157.09 142.123 156.099 148.133 154.321C146.54 155.933 144.924 157.519 143.2 158.992C141.495 160.448 139.651 161.871 137.416 162.383L137.219 162.426C135.789 162.754 134.348 162.656 132.912 162.399C130.027 161.883 126.975 160.331 125.294 157.872L125.172 157.692C125.401 160.232 125.72 165.14 124.206 167.207L123.942 166.972C122.563 164.462 122.823 160.695 123.157 157.923L123.179 157.741C122.837 158.176 122.496 158.613 122.081 158.983C119.592 161.206 115.702 162.888 112.339 162.692C107.381 162.402 103.205 157.29 100.118 153.869C105.106 156.134 110.371 157.068 115.807 156.187C118.331 155.778 120.843 154.998 123.3 154.29C123.454 153.779 123.38 153.09 123.386 152.549L123.419 149.071C123.48 144.635 123.377 140.094 123.938 135.692Z" fill="#EA580C"/>
<path d="M114.212 111.645L118.161 115.239C119.229 116.247 120.556 117.847 121.823 118.516C122.711 118.986 124.022 119.006 125 118.952C125.604 118.919 126.249 118.856 126.806 118.607C127.777 118.174 128.585 117.294 129.338 116.566L132.637 113.438C133.25 112.869 133.866 112.221 134.558 111.755L134.383 112.869L134.266 113.787L134.295 117.364C134.293 117.973 134.389 118.73 134.153 119.298L137.353 119.762L141.533 120.409C139.166 124.186 136.111 126.948 132.163 129.007C130.88 129.676 129.532 130.337 128.117 130.674L128.021 130.695C126.538 131.292 124.816 131.504 123.227 131.351C122.849 131.315 122.254 131.264 121.915 131.108L121.796 131.022C121.634 130.48 119.944 129.43 119.445 129.006C117.644 127.48 115.753 125.68 114.368 123.762L114.443 123.689C114.794 123.279 114.49 119.917 114.391 119.212L114.259 112.945L114.212 111.645Z" fill="#FDBA74"/>
<path d="M133.634 124.275C133.57 123.645 133.799 122.866 133.866 122.227C133.962 121.308 133.963 120.369 133.99 119.445L134.153 119.298L137.353 119.762L133.634 124.275Z" fill="#F97316"/>
<path d="M114.212 111.645L118.161 115.239C119.229 116.247 120.556 117.847 121.823 118.516C122.711 118.986 124.022 119.006 125 118.952C125.604 118.919 126.249 118.856 126.806 118.607C127.777 118.174 128.585 117.294 129.338 116.566L132.637 113.438C133.25 112.869 133.866 112.221 134.558 111.755L134.383 112.869L134.266 113.787C131.656 118.403 129.462 123.263 126.255 127.524L126.985 124.805C125.593 124.962 124.038 124.879 122.651 124.696C120.237 124.377 115.918 115.192 114.259 112.945L114.212 111.645Z" fill="#EA580C"/>
</g>
<defs>
<linearGradient id="paint0_linear_1253_6850" x1="110.659" y1="120.599" x2="110.632" y2="56.7018" gradientUnits="userSpaceOnUse">
<stop stop-color="#004993"/>
<stop offset="1" stop-color="#11C8FE"/>
</linearGradient>
<linearGradient id="paint1_linear_1253_6850" x1="152.555" y1="119.747" x2="145.936" y2="57.2265" gradientUnits="userSpaceOnUse">
<stop stop-color="#00408A"/>
<stop offset="1" stop-color="#0ED0FF"/>
</linearGradient>
<clipPath id="clip0_1253_6850">
<rect width="250" height="250" fill="white"/>
</clipPath>
</defs>
</svg>
