<svg width="250" height="250" viewBox="0 0 250 250" fill="none" xmlns="http://www.w3.org/2000/svg">
<g clip-path="url(#clip0_1253_6938)">
<path d="M0 0H250V250H0V0Z" fill="#1A0B10"/>
<path d="M67.8252 201.211L68.8035 201.085C69.0869 202.185 69.8369 203.304 70.3735 204.306C71.4736 206.361 72.6592 208.441 73.5144 210.611C73.8269 211.612 74.417 213.232 73.9341 214.236L73.7964 214.483C72.9023 215.892 71.2517 216.709 69.6655 217.073C68.53 217.334 67.3616 217.439 66.198 217.404C66.2046 217.352 66.2529 216.95 66.2229 216.911C66.165 216.835 65.103 216.633 64.9102 216.584C61.1545 215.632 57.239 213.924 54.1533 211.579C53.3001 210.93 52.3708 210.206 51.7686 209.308C52.8062 207.833 54.2527 206.703 55.7639 205.75C59.4905 203.397 63.595 202.266 67.8252 201.211Z" fill="#7E2805"/>
<path d="M67.8252 201.211L68.8035 201.085C69.0869 202.185 69.8369 203.304 70.3735 204.306C71.4736 206.361 72.6592 208.441 73.5144 210.611C73.8269 211.612 74.417 213.232 73.9341 214.236L73.7964 214.483L73.5828 214.426C73.3428 213.947 73.3552 213.466 73.2612 212.952C73.1348 212.259 72.8921 211.572 72.6199 210.924C71.2322 207.623 69.3696 204.451 67.8252 201.211Z" fill="#AB3D09"/>
<path d="M180.664 199.829C181.88 199.998 183.171 200.587 184.327 201.018C189.19 202.831 194.589 205.021 198.332 208.721C198.26 209.392 196.75 210.437 196.167 210.906C192.8 213.615 189.265 215.23 185.181 216.555C184.156 216.887 183.043 217.316 181.977 217.471L181.967 217.75C181.231 217.861 179.947 217.542 179.231 217.341C177.977 216.99 176.93 216.43 176.294 215.252C175.594 213.954 175.873 212.52 176.285 211.192L179.115 204.002L180.359 201.081C180.454 200.854 180.722 200.384 180.739 200.167C180.748 200.052 180.689 199.941 180.664 199.829Z" fill="#7E2805"/>
<path d="M29.7441 193.033L41.2817 186.743L51.769 209.308C52.3713 210.206 53.3005 210.93 54.1538 211.579C57.2395 213.924 61.155 215.632 64.9106 216.584C65.1035 216.633 66.1655 216.835 66.2234 216.911C66.2534 216.95 66.2051 217.352 66.1985 217.404C58.5303 217.419 51.0459 218.951 43.8084 221.419L42.752 214.196C41.3196 207.542 38.1892 200.964 33.3545 196.114C32.2415 194.998 31.0715 193.894 29.7441 193.033Z" fill="#AB3D09"/>
<path d="M198.332 208.721L208.443 186.703L219.409 192.819C217.958 193.989 216.44 195.223 215.149 196.567C210.461 201.447 208.232 207.782 207.52 214.416L207.067 221.691C202.478 220.156 197.85 218.929 193.03 218.391C189.35 217.981 185.66 217.946 181.967 217.75L181.977 217.471C183.043 217.316 184.156 216.887 185.18 216.555C189.265 215.23 192.8 213.615 196.167 210.906C196.75 210.437 198.26 209.392 198.332 208.721Z" fill="#AB3D09"/>
<path d="M44.697 176.635C46.3565 178.12 47.773 180.108 49.2388 181.801C51.0239 183.863 52.9402 185.808 54.909 187.694C58.5032 191.137 62.3379 194.289 66.2874 197.313L69.0308 199.413C69.6975 199.897 70.4487 200.306 71.0816 200.831L68.8037 201.085L67.8255 201.211C63.5952 202.266 59.4907 203.397 55.7642 205.75C54.2529 206.703 52.8064 207.833 51.7688 209.308L41.2815 186.743C40.6497 185.304 39.5217 183.55 39.3145 182.026C38.9885 179.631 41.7578 178.483 43.4614 177.531C43.8093 177.337 44.4126 177.09 44.6333 176.765L44.697 176.635Z" fill="#EA580C"/>
<path d="M29.7438 193.033C31.0712 193.894 32.2411 194.998 33.3542 196.114C38.1889 200.964 41.3193 207.542 42.7516 214.196L43.808 221.419C36.0571 223.918 29.1813 227.729 21.9657 231.406L28.9282 211.314L12.8721 202.209C16.8432 200.587 20.6213 198.748 24.2919 196.521L29.7438 193.033Z" fill="#EA580C"/>
<path d="M219.409 192.819C225.2 196.29 230.648 200.016 237.087 202.255L221.224 211.29L227.93 231.334L207.067 221.691L207.521 214.417C208.232 207.782 210.461 201.447 215.149 196.567C216.44 195.223 217.958 193.989 219.409 192.819Z" fill="#EA580C"/>
<path d="M35.7626 93.7968C34.2712 90.4926 33.0695 87.0507 31.9663 83.5996C31.5886 82.4177 30.9943 80.9218 30.9389 79.6826C31.913 78.2067 33.8352 77.4101 35.3579 76.5971C37.6789 75.3579 40.0463 74.2392 42.5031 73.2958C43.4345 72.9382 44.3627 72.5334 45.332 72.2897C44.7255 69.3188 44.4143 66.2707 44.1921 63.2482C44.0527 61.3508 43.862 59.1909 44.1765 57.312C45.2673 55.9199 55.2336 54.6245 57.2731 54.3808L59.9277 54.1804C59.9548 50.2385 60.34 46.2687 61.0192 42.385C61.1838 41.4436 61.331 40.0378 61.8627 39.2456C62.3325 38.8764 62.9365 38.9912 63.4978 39.0202L67.7558 39.3964L76.6272 40.841C77.1555 38.7729 77.6784 36.707 78.3732 34.6867C79.2512 32.1342 80.3483 29.6496 81.4157 27.1718C86.0861 27.8647 90.9929 29.5991 95.2609 31.6184C97.3618 27.4416 99.7158 22.8675 102.778 19.3011C106.065 20.8469 109.203 23.2448 112.034 25.5051L113.821 27.0107C114.153 27.3071 114.475 27.6721 114.869 27.8806C117.823 24.0299 121.197 20.0547 125.104 17.1473C126.43 18.1425 127.639 19.324 128.821 20.482C131.092 22.7055 133.26 25.1301 135.183 27.6618C137.237 25.8273 139.454 24.1671 141.724 22.609C143.291 21.5331 144.875 20.4725 146.592 19.6453C148.545 22.0771 150.282 24.7832 151.862 27.4694L153.546 30.5117C153.801 30.9926 154.076 31.7175 154.447 32.0942C158.718 29.7314 163.381 28.1081 168.083 26.8205C169.807 29.7856 171.155 33.1247 172.278 36.3608C172.749 37.717 173.305 39.1982 173.545 40.6108C178.221 39.4877 182.993 39.0749 187.788 38.8796C188.993 44.0056 190.118 49.3745 190.215 54.6574C195.446 54.791 200.561 55.6352 205.675 56.694C205.704 62.0952 205.322 67.3664 204.412 72.6967C208.565 73.6176 212.646 75.7233 216.37 77.7373C217.198 78.1852 218.326 78.6552 218.965 79.3381C218.778 81.0346 218.216 82.6628 217.719 84.2888L214.284 94.0542L213.424 96.2419C217.435 98.8212 221.185 102.102 224.487 105.533C225.145 106.217 226.314 107.288 226.562 108.196C226.831 109.182 226.002 110.195 225.499 110.971C223.287 114.382 220.842 117.627 217.96 120.502L207.637 120.454C207.613 119.622 207.769 118.77 207.823 117.94L207.935 113.737C207.941 106.337 206.847 98.8911 204.555 91.8493C203.107 86.4147 200.707 81.1257 197.911 76.2634C196.09 73.0969 194.154 69.9438 191.956 67.0229C185.127 57.9472 176.341 50.2927 166.531 44.59C151.67 35.9514 134.692 32.2709 117.574 33.7963C113.31 34.1765 108.972 34.7751 104.83 35.875C87.9123 40.3664 72.2836 49.7504 60.8974 63.1103C57.6901 66.8735 54.8488 71.0402 52.372 75.3173C49.0058 81.1303 46.3945 87.3605 44.6591 93.8486C42.8271 100.357 42.0092 107.033 41.9133 113.787L42.0146 118.181C42.0419 118.887 42.1401 119.649 42.0952 120.349L32.2595 120.434C29.8596 118.081 27.6958 115.373 25.7211 112.656C24.9013 111.528 23.966 110.349 23.4966 109.024C23.7764 107.808 24.9318 106.701 25.749 105.794C29.0107 102.177 32.7712 98.8989 36.8627 96.2587L35.7626 93.7968Z" fill="#0284C7"/>
<path d="M44.6589 93.8486C46.3943 87.3605 49.0056 81.1303 52.3718 75.3173C54.8486 71.0402 57.6899 66.8735 60.8972 63.1103C72.2834 49.7504 87.9121 40.3664 104.83 35.8749C108.972 34.7751 113.31 34.1765 117.574 33.7963C134.691 32.2709 151.67 35.9514 166.531 44.59C176.341 50.2927 185.126 57.9472 191.956 67.0229C194.153 69.9438 196.089 73.0969 197.911 76.2634C200.707 81.1257 203.106 86.4147 204.555 91.8493C206.846 98.8911 207.941 106.337 207.935 113.737L207.823 117.94C207.768 118.77 207.612 119.622 207.637 120.454L217.96 120.502C217.309 121.173 216.682 121.838 215.918 122.384C218.443 125.497 220.585 128.801 222.724 132.182L224.964 135.986C225.369 136.746 225.789 137.506 225.954 138.359C224.75 141.374 215.95 148.077 212.957 149.404C212.761 149.49 212.572 149.547 212.364 149.594C211.438 149.343 209.953 149.532 208.966 149.533L200.614 149.483C200.568 148.89 201.48 147.298 201.726 146.664L203.353 142.09C205.035 136.849 206.325 131.763 207.08 126.298C207.331 124.48 207.611 122.629 207.64 120.792L207.413 120.612C206.994 123.483 206.571 126.341 205.891 129.165C204.071 136.73 201.083 143.952 197.49 150.833C195.835 154.004 194.079 157.228 191.877 160.062C190.731 162.243 188.817 164.042 187.262 165.925L183.372 165.629C184.979 164.068 186.314 161.843 187.574 159.992C194.452 149.887 198.59 138.816 200.239 126.705C202.041 113.475 200.12 99.738 194.735 87.5104C192.163 81.6718 188.833 76.2587 184.97 71.1936C172.827 55.27 153.883 44.8769 134.127 42.2658C114.648 39.6914 93.9116 45.5285 78.3574 57.4802C62.8052 69.4304 51.9973 87.4155 49.4875 106.938C47.3996 123.181 50.6138 140.525 58.7366 154.779C60.5691 157.995 62.7539 161.028 65.0068 163.957L66.0388 165.135C60.4446 165.391 54.6069 167.569 49.9348 170.584C48.5166 171.499 47.0879 172.493 45.9436 173.744C45.2766 174.474 44.7856 175.201 44.5459 176.173L44.352 175.705C44.0373 174.25 46.0036 170.236 46.8838 169.052L41.4756 167.773L35.73 166.551C34.8144 166.334 33.6926 166.131 32.8645 165.685C32.2383 165.348 31.7588 164.817 31.5842 164.117C31.185 162.517 32.2624 160.327 32.8061 158.827C34.061 155.365 35.1819 152.242 37.1601 149.1L27.5979 142.652C26.3813 141.68 24.0365 140.028 23.9164 138.397C23.8361 137.306 25.0505 135.811 25.623 134.885C27.1047 132.49 28.6084 130.126 30.289 127.864L34.4866 122.636L32.2593 120.434L42.095 120.349C42.1399 119.649 42.0417 118.887 42.0144 118.181L41.9131 113.787C42.009 107.033 42.8269 100.357 44.6589 93.8486Z" fill="#0369A1"/>
<path d="M52.0764 149.59C50.1672 145.505 48.9534 141.007 47.9936 136.613C45.7922 126.537 45.2898 115.845 46.9541 105.643C47.8418 100.202 49.3899 94.8619 51.2707 89.6858C52.5981 86.0335 54.3352 82.5747 56.24 79.1946C57.8032 76.4204 59.4411 73.6797 61.331 71.1128C65.636 65.2662 70.7488 60.2476 76.4739 55.804C81.1103 52.2054 86.0019 49.045 91.3354 46.5733C96.363 44.2432 101.539 42.3474 106.934 41.053C121.867 37.4702 137.674 38.4859 152.072 43.7713C163.789 48.0725 174.737 55.2666 183.228 64.4375C188.675 70.3208 193.263 77.3797 196.621 84.6543C199.684 91.2898 201.595 97.909 202.744 105.122C203.503 109.893 203.912 114.726 203.705 119.559C203.356 127.696 201.583 135.658 198.791 143.289C196.838 148.628 194.437 153.969 191.624 158.912C190.572 160.761 189.608 162.502 188.354 164.246H188.477C189.216 163.405 189.866 162.501 190.552 161.622C190.99 161.061 191.271 160.471 191.877 160.062C190.731 162.243 188.817 164.042 187.262 165.925L183.372 165.629C184.979 164.068 186.314 161.843 187.574 159.992C194.452 149.887 198.59 138.816 200.239 126.705C202.041 113.475 200.12 99.7381 194.735 87.5105C192.163 81.6719 188.833 76.2588 184.97 71.1936C172.827 55.2701 153.883 44.877 134.127 42.2659C114.648 39.6914 93.9116 45.5286 78.3574 57.4803C62.8052 69.4305 51.9973 87.4156 49.4875 106.939C47.3996 123.181 50.6138 140.525 58.7366 154.78C60.5691 157.995 62.7539 161.028 65.0068 163.958L66.0388 165.136C60.4446 165.391 54.6069 167.569 49.9348 170.584C48.5166 171.499 47.0879 172.493 45.9436 173.744C45.2766 174.474 44.7856 175.201 44.5459 176.173L44.352 175.705C44.0373 174.25 46.0036 170.236 46.8838 169.052L41.4756 167.773L35.73 166.551C34.8144 166.334 33.6926 166.131 32.8645 165.685C32.2383 165.348 31.7588 164.817 31.5842 164.117C31.185 162.517 32.2624 160.327 32.8061 158.827C34.061 155.365 35.1819 152.242 37.1601 149.1L27.5979 142.652C26.3813 141.68 24.0365 140.028 23.9164 138.397C23.8361 137.306 25.0505 135.811 25.623 134.885C27.1047 132.49 28.6084 130.126 30.289 127.864L34.4866 122.637L32.2593 120.434L42.095 120.349L42.3703 120.548C43.7849 130.566 46.4031 140.245 50.1772 149.626C50.7895 149.536 51.4565 149.589 52.0764 149.59Z" fill="#062848"/>
<path d="M52.0764 149.59L53.6333 153.178C53.8584 153.667 54.0637 154.279 54.3931 154.696L58.6196 162.229C59.2588 163.253 60.104 164.155 60.7305 165.192C60.8909 165.457 60.8552 165.392 60.7915 165.65L60.5469 165.712C60.2546 165.859 60.1104 165.782 59.8755 166.016C59.3828 165.71 59.0649 164.851 58.7163 164.37L56.666 161.643C54.1672 158.004 51.7622 153.742 50.1772 149.626C50.7896 149.536 51.4565 149.589 52.0764 149.59Z" fill="#08395E"/>
<path d="M32.2593 120.434L42.095 120.349L42.0723 120.582C41.9604 121.911 42.2095 123.376 42.3498 124.695C42.9421 130.264 43.904 136.006 45.5893 141.362L47.3403 146.894C47.5842 147.632 48.1667 148.778 48.1731 149.524C46.1372 149.524 38.4717 149.867 37.1601 149.1L27.5979 142.652C26.3813 141.68 24.0365 140.028 23.9164 138.397C23.8361 137.306 25.0505 135.811 25.623 134.885C27.1047 132.49 28.6084 130.126 30.289 127.864L34.4866 122.636L32.2593 120.434Z" fill="#0369A1"/>
<path d="M66.0388 165.135C66.4717 165.43 67.5315 165.291 68.0681 165.283C68.1277 165.282 68.512 165.262 68.5366 165.276C68.7178 165.374 69.1321 166.006 69.2896 166.19L71.4541 168.528C73.8603 170.963 76.6572 173.304 79.3914 175.362C85.2129 179.743 91.5105 183.385 98.2871 186.076C110.705 191.007 124.735 192.368 137.842 189.86C147.39 188.032 156.595 184.242 164.754 178.972C167.388 177.272 169.934 175.302 172.398 173.366C173.766 172.292 175.035 171.094 176.269 169.872C177.164 168.986 178.051 167.955 179.105 167.267C180.422 166.406 182.088 166.404 183.372 165.629L187.262 165.925C192.335 166.693 197.65 168.937 201.599 172.235C202.493 172.981 203.414 173.788 204.105 174.73L204.406 175.163C204.71 175.86 205.042 176.465 204.812 177.241C205.169 177.731 205.927 177.867 206.488 178.114C208.135 178.837 210.694 180.222 210.282 182.36C210.013 183.758 209.041 185.38 208.444 186.703L198.333 208.721C194.589 205.021 189.19 202.831 184.327 201.018C183.171 200.587 181.881 199.998 180.664 199.829L173.818 204.04C170.548 205.979 167.108 207.76 163.65 209.341C144.508 218.091 122.105 220.094 101.759 214.643C98.1079 213.665 94.4512 212.595 90.9268 211.219C83.9221 208.486 77.426 204.831 71.0815 200.831C70.4487 200.306 69.6975 199.897 69.0308 199.413L66.2874 197.313C62.3379 194.289 58.5032 191.137 54.9089 187.694C52.9402 185.808 51.0239 183.863 49.2388 181.801C47.7729 180.108 46.3564 178.12 44.697 176.635L44.5459 176.173C44.7856 175.201 45.2766 174.474 45.9436 173.744C47.0879 172.493 48.5166 171.499 49.9348 170.584C54.6069 167.569 60.4446 165.391 66.0388 165.135Z" fill="#F97316"/>
<path d="M144.034 194.5C144.997 195.541 146.035 196.604 146.813 197.791L146.872 197.882L151.049 197.978L148.925 201.669L150.238 205.785L146.024 204.615L142.372 206.966L142.284 202.916L139.067 200.329L139.893 199.94L142.091 198.799C142.235 198.721 142.667 198.536 142.761 198.429C142.87 198.305 143.006 197.677 143.065 197.495L144.034 194.5Z" fill="#FDBA74"/>
<path d="M105.611 194.853L107.027 198.81L111.021 200.195L107.784 203.007L107.67 207.499C106.452 206.885 105.287 205.977 104.191 205.166C104.068 205.091 103.961 204.975 103.821 204.939C103.671 204.901 102.816 205.25 102.601 205.316L99.7148 206.051L100.938 202.082L98.6201 198.137L102.818 198.251C103.235 197.922 103.555 197.422 103.883 197.002L105.611 194.853Z" fill="#FDBA74"/>
<path d="M124.897 195.271L127.64 200.12L132.803 200.986L129.154 204.92L130.055 210.392L125.291 208.313C125.133 208.283 124.977 208.211 124.817 208.223C124.389 208.255 123.589 208.796 123.161 209.003L120.105 210.336L120.777 204.926L116.966 200.961L122.487 200.041L124.897 195.271Z" fill="#FDBA74"/>
<path d="M180.664 199.829C181.649 198.852 182.964 198.139 184.089 197.322L187.559 194.551C191.786 191.08 195.768 187.365 199.503 183.368C201.361 181.38 203.174 179.415 204.812 177.241C205.169 177.731 205.927 177.867 206.488 178.114C208.135 178.837 210.694 180.222 210.282 182.36C210.013 183.758 209.041 185.38 208.444 186.703L198.333 208.721C194.589 205.021 189.19 202.831 184.327 201.018C183.171 200.587 181.881 199.998 180.664 199.829Z" fill="#EA580C"/>
<path d="M65.0066 163.957C62.7537 161.028 60.5689 157.995 58.7364 154.78C50.6136 140.525 47.3995 123.181 49.4874 106.938C51.9971 87.4155 62.805 69.4304 78.3572 57.4802C93.9114 45.5285 114.648 39.6914 134.127 42.2658C153.883 44.8769 172.827 55.27 184.97 71.1936C188.833 76.2588 192.163 81.6718 194.734 87.5105C200.12 99.738 202.041 113.475 200.239 126.705C198.59 138.816 194.452 149.887 187.574 159.992C186.314 161.843 184.979 164.068 183.372 165.629C182.088 166.404 180.421 166.406 179.105 167.267C178.051 167.955 177.163 168.986 176.269 169.872C175.034 171.094 173.766 172.292 172.398 173.366C169.934 175.302 167.388 177.272 164.754 178.972C156.595 184.242 147.39 188.032 137.842 189.86C124.735 192.368 110.705 191.007 98.2869 186.076C91.5103 183.385 85.2127 179.743 79.3912 175.362C76.657 173.304 73.8602 170.963 71.4539 168.528L69.2894 166.19C69.1319 166.006 68.7176 165.373 68.5364 165.276C68.5118 165.262 68.1275 165.282 68.0679 165.283C67.5313 165.29 66.4715 165.43 66.0386 165.135L65.0066 163.957Z" fill="#FDBA74"/>
<path d="M78.0229 170.81C78.6316 170.691 79.3618 170.766 79.9875 170.766H83.989L100.266 170.781L103.452 170.786C104.013 170.787 104.658 170.861 105.2 170.715L105.325 169.736L105.312 172.913C105.621 173.153 105.833 173.083 106.218 173.083L106.182 186.04C100.813 184.568 95.2449 182.399 90.3923 179.653C85.928 177.127 81.9109 174.136 78.0229 170.81Z" fill="#AB3D09"/>
<path d="M115.052 173.023L121.753 173.022L133.349 173.008C135.635 173.007 138.072 172.828 140.333 173.063C140.233 173.602 140.28 174.023 140.36 174.561C140.939 178.443 141.789 182.442 143.072 186.155C136.383 188.142 128.986 188.723 122.039 188.539C118.62 188.448 115.059 188.183 111.712 187.443C110.021 186.752 107.962 186.508 106.182 186.04L106.218 173.083L114.467 173.093L115.052 173.023Z" fill="#F97316"/>
<path d="M106.218 173.083L114.467 173.093C113.9 174.847 113.232 176.596 112.771 178.381C112.001 181.36 111.846 184.384 111.712 187.443C110.021 186.752 107.962 186.508 106.182 186.04L106.218 173.083Z" fill="#7E2805"/>
<path d="M76.1673 169.233C72.4422 165.967 68.8876 162.164 65.995 158.147C58.911 148.311 54.2723 135.645 53.1437 123.58C51.6119 107.203 55.9872 90.9485 65.1437 77.3342C66.7308 74.9743 68.5318 72.7656 70.3512 70.5825C73.857 66.3762 77.9898 62.8276 82.4393 59.6545C93.3688 51.8606 105.728 47.062 119.143 45.8952C138.156 44.2419 157.438 50.8342 171.973 63.0637C185.774 74.6758 195.153 91.8271 196.675 109.889C197.385 118.317 196.757 127.012 194.571 135.193C192.73 142.079 189.601 149.009 185.818 155.037C183.798 158.255 181.442 161.292 178.992 164.192L177.394 165.808L174.904 168.17L171.872 170.82C167.757 174.222 163.384 177.367 158.677 179.903C153.682 182.595 148.507 184.569 143.072 186.155C141.789 182.442 140.939 178.443 140.36 174.561C140.28 174.023 140.233 173.602 140.333 173.063C138.072 172.828 135.635 173.007 133.349 173.008L121.753 173.021L115.052 173.023L114.467 173.093L106.217 173.083C105.833 173.083 105.62 173.153 105.311 172.913L105.325 169.736L105.2 170.715C104.658 170.861 104.013 170.787 103.452 170.786L100.266 170.781L83.9889 170.766H79.9874C79.3617 170.766 78.6315 170.691 78.0228 170.81C77.3512 170.375 76.7604 169.771 76.1673 169.233Z" fill="#EA580C"/>
<path d="M74.7632 165.779C74.6448 165.102 73.6733 164.203 73.2217 163.635L105.364 163.7L105.353 165.785L74.7632 165.779Z" fill="#F97316"/>
<path d="M140.607 163.704L164.337 163.693L171.736 163.711C172.946 163.716 174.734 163.492 175.862 163.926C176.749 164.267 178.044 164.198 178.992 164.192L177.395 165.808C176.211 165.674 174.907 165.799 173.706 165.8L166.169 165.788L140.587 165.787L140.607 163.704Z" fill="#F97316"/>
<path d="M105.363 161.378L71.5432 161.459L69.5674 158.768L105.382 158.69L105.363 161.378Z" fill="#F97316"/>
<path d="M140.737 158.819C141.926 158.641 143.236 158.777 144.442 158.781L152.285 158.795L178.675 158.827L176.793 161.374L149.74 161.402L144.148 161.428C143.123 161.441 141.62 161.598 140.635 161.359L140.737 158.819Z" fill="#F97316"/>
<path d="M169.548 156.473L169.512 154.503L190.367 135.355L190.624 135.456C188.528 142.098 185.768 148.092 181.975 153.944C181.451 154.752 180.851 155.988 180.139 156.614L169.6 156.58L169.548 156.473Z" fill="#FDBA74"/>
<path d="M140.587 165.787L166.169 165.788L173.706 165.8C174.906 165.799 176.211 165.674 177.394 165.808L174.904 168.17L171.873 170.82C171.158 170.636 170.151 170.765 169.406 170.769L164.136 170.771L140.628 170.767L140.658 168.127L140.599 167.18C140.491 166.875 140.588 166.138 140.587 165.787Z" fill="#EA580C"/>
<path d="M140.333 173.063C140.746 172.497 140.554 168.218 140.599 167.18L140.658 168.127L140.628 170.767L164.136 170.771L169.406 170.769C170.151 170.765 171.158 170.636 171.873 170.82C167.757 174.222 163.384 177.367 158.677 179.903C153.682 182.595 148.508 184.569 143.072 186.155C141.789 182.442 140.939 178.443 140.36 174.561C140.28 174.023 140.233 173.602 140.333 173.063Z" fill="#AB3D09"/>
<path d="M59.168 137.578C60.1689 136.886 61.074 135.712 61.9292 134.827L67.9592 128.642C69.1282 127.447 70.2808 126.047 71.6494 125.082C71.6423 125.509 71.4885 126.366 71.8064 126.676L73.6377 127.841C75.3613 128.798 77.0488 129.679 78.9009 130.37C79.8877 130.739 81.0789 130.947 82.0015 131.431C82.762 131.83 83.4353 132.415 84.1541 132.886C89.1274 135.924 94.5374 136.35 100.227 136.667C100.452 139.838 100.776 142.639 101.966 145.618C102.497 146.668 103.075 147.684 103.722 148.667L104.919 150.363C105.024 150.51 105.318 150.841 105.352 150.993C105.481 151.573 105.358 152.494 105.361 153.109L105.365 156.524L68.2925 156.268C67.3823 154.709 66.1738 153.346 65.364 151.706C64.8264 150.931 64.4155 150.019 63.9771 149.185C62.5613 146.492 61.4036 143.663 60.2722 140.842L59.168 137.578Z" fill="#F97316"/>
<path d="M79.3445 146.949L74.1448 151.973C73.8955 152.21 73.3069 152.87 73.0127 152.969C72.8084 153.039 72.2432 152.976 72.0105 152.975L68.5327 152.897L74.6121 147.473C76.0979 146.232 77.5562 144.984 79.3035 144.125L79.3665 145.788L79.3445 146.949Z" fill="#FDBA74"/>
<path d="M59.168 137.578C60.1689 136.886 61.074 135.712 61.9292 134.827L67.9592 128.642C69.1282 127.447 70.2808 126.047 71.6494 125.082C71.6423 125.509 71.4885 126.366 71.8064 126.676L73.6377 127.841C75.3613 128.798 77.0488 129.679 78.9009 130.37C79.8877 130.739 81.0789 130.947 82.0015 131.431C82.762 131.83 83.4353 132.415 84.1541 132.886C82.0215 134.577 80.2192 136.627 78.3054 138.555L70.7893 146.112L65.364 151.706C64.8264 150.931 64.4155 150.019 63.9771 149.185C62.5613 146.492 61.4036 143.663 60.2722 140.842L59.168 137.578Z" fill="#FDBA74"/>
<path d="M59.168 137.578C60.1689 136.886 61.074 135.712 61.9292 134.827L67.9592 128.642C69.1282 127.447 70.2808 126.047 71.6494 125.082C71.6423 125.509 71.4885 126.366 71.8064 126.676L73.6377 127.841C72.5588 129.132 71.1331 130.305 69.9292 131.495L63.491 137.648L60.2722 140.842L59.168 137.578Z" fill="#F97316"/>
<path d="M57.1708 129.611L56.2877 121.695C55.6571 112.436 56.8239 102.972 60.1173 94.2678C64.3485 83.0852 71.5226 72.802 80.7379 65.1597C85.7277 61.0217 91.3012 57.666 97.2013 55.0051C99.3788 54.0229 101.613 53.2964 103.884 52.5684C108.167 51.1951 112.598 50.1077 117.066 49.5454C124.887 48.561 132.999 49.2178 140.625 51.1414C142.805 51.6912 145.003 52.2405 147.108 53.0364C142.606 56.696 138.425 60.7795 134.155 64.7039L124.37 73.572L115.492 81.9897L107.452 89.687C106.778 90.3145 105.989 91.2761 105.193 91.7178C105.408 94.9673 105.069 97.8357 104.298 100.989C103.475 103.304 102.443 105.993 100.072 107.131L99.5802 107.34C98.7279 107.564 97.9931 107.631 97.1642 107.264C94.7721 106.203 93.5167 103.373 92.6298 101.087L91.7472 97.6108L91.5556 97.4971L91.5111 97.1885C91.2335 95.9436 91.2081 94.7803 91.2716 93.5054C90.4489 93.4622 89.4987 93.3291 88.6989 93.5332C88.9428 91.9097 88.7645 90.9727 88.1019 89.49C87.8021 89.2178 87.4223 88.9268 87.0487 88.7678C86.3017 88.4499 85.4909 88.6384 84.7814 88.9448L84.6559 89.0002L84.5604 88.939L84.4118 88.8516L84.2326 88.7371C83.4162 88.2708 81.2382 89.2083 80.3517 89.4451L79.6989 89.9858C79.0302 90.7986 78.8588 91.2275 78.9313 92.29L78.944 92.4041L79.0026 93.208C77.9601 93.0293 76.7077 93.1523 75.6427 93.1509L68.3285 93.1455L68.3046 91.6392C68.2787 92.8638 67.8847 96.1628 68.6745 97.0339C69.3917 97.8252 70.1984 97.7024 71.1811 97.699L79.2811 97.6526L79.4779 97.8962C78.5331 99.2759 77.8727 100.874 77.2411 102.417C75.8358 105.852 74.8532 109.278 73.8527 112.834C73.0055 116.814 71.9589 121.025 71.6498 125.082C70.2811 126.047 69.1286 127.447 67.9596 128.642L61.9296 134.827C61.0744 135.712 60.1693 136.886 59.1684 137.578L57.1708 129.611Z" fill="#F97316"/>
<path d="M68.3047 91.6392C68.3245 91.0232 68.3086 90.4942 68.7593 90.0205C68.9365 89.8343 69.2292 89.5796 69.4792 89.5149C70.3472 89.2901 71.739 89.4644 72.6533 89.4634L80.3518 89.4451L79.699 89.9859C79.0303 90.7986 78.8589 91.2276 78.9314 92.2901L78.9441 92.4041L79.0027 93.208C77.9602 93.0293 76.7078 93.1524 75.6428 93.1509L68.3286 93.1455L68.3047 91.6392Z" fill="#0284C7"/>
<path d="M78.9436 92.4041C78.4937 92.1336 77.2817 92.3047 76.7354 92.3145C77.0896 91.5278 77.5144 90.6084 78.1841 90.043C78.5183 89.7608 79.2864 89.9402 79.6985 89.9859C79.0298 90.7986 78.8584 91.2275 78.9309 92.29L78.9436 92.4041Z" fill="#14B7FB"/>
<path d="M120.439 56.174C121.629 56.0488 122.611 56.0866 123.655 56.7492C124.954 57.5737 125.367 58.8173 125.648 60.2417C126.464 60.24 127.452 60.0671 128.235 60.3227C129.276 60.6626 129.9 61.6289 130.334 62.5622L122.392 62.5888L112.725 62.4997C112.719 61.9355 112.682 61.2546 112.91 60.7299C113.259 59.9255 113.924 59.3823 114.751 59.1257C115.24 58.9738 116.237 58.9909 116.675 59.2851C116.866 59.414 116.628 59.3584 117.005 59.363L117.367 58.6179C118.076 57.2505 119.022 56.6262 120.439 56.174Z" fill="#F7F8F1"/>
<path d="M57.1709 129.611C57.2881 129.58 57.561 129.289 57.6663 129.194L59.5894 127.336L69.5273 117.184L72.1758 114.33C72.6941 113.774 73.1497 113.157 73.8528 112.834C73.0056 116.814 71.959 121.025 71.6499 125.082C70.2812 126.047 69.1287 127.447 67.9597 128.642L61.9297 134.827C61.0745 135.712 60.1694 136.886 59.1685 137.578L57.1709 129.611Z" fill="#FDBA74"/>
<path d="M92.1311 89.4832C92.1951 88.2502 92.9453 86.5652 93.5012 85.4492C94.3867 83.6719 95.571 81.9583 97.5581 81.3474C98.574 81.0352 99.4705 81.0769 100.412 81.5657C103.544 84.1558 104.693 87.8044 105.193 91.7178C105.408 94.9673 105.068 97.8357 104.297 100.989C103.475 103.304 102.442 105.993 100.071 107.131L99.5798 107.34C98.7275 107.564 97.9927 107.631 97.1638 107.264C94.7717 106.203 93.5164 103.373 92.6294 101.087L91.7468 97.6108L91.5552 97.4971L91.5107 97.1885C91.2332 95.9436 91.2078 94.7803 91.2712 93.5054C90.4485 93.4622 89.4983 93.3291 88.6985 93.5332C88.9424 91.9097 88.7642 90.9727 88.1016 89.49L92.1311 89.4832Z" fill="#0369A1"/>
<path d="M99.2092 90.6044C99.4939 89.957 99.7805 89.0642 100.304 88.5905C100.704 88.2277 101.109 88.0751 101.65 88.142C102.155 88.2043 102.591 88.6301 102.87 89.0351C103.899 90.5239 103.917 93.1611 103.919 94.9121C103.919 95.6689 103.954 96.5136 103.784 97.2558L103.699 97.5681L103.655 97.7392C103.382 98.7741 102.798 99.6747 101.868 100.216C101.356 100.259 101.116 100.263 100.717 99.9191C99.5554 98.9204 99.1768 97.3193 98.9329 95.8644L98.7446 94.4423L98.7471 93.8813C98.7573 92.7849 98.9744 91.6723 99.2092 90.6044Z" fill="#062848"/>
<path d="M92.1311 89.4832C92.1951 88.2502 92.9453 86.5652 93.5012 85.4492C94.3867 83.6719 95.571 81.9583 97.5581 81.3474C98.574 81.0352 99.4705 81.0769 100.412 81.5657L99.9963 84.6431C99.6641 86.5703 99.2302 88.6497 99.209 90.6045C98.9741 91.6724 98.7571 92.7849 98.7468 93.8813L98.7444 94.4424L98.7009 94.5981C98.1765 96.6113 98.3547 99.23 98.4092 101.313L92.6294 101.087L91.7468 97.6108L91.5552 97.4971L91.5107 97.1885C91.2332 95.9436 91.2078 94.7803 91.2712 93.5054C90.4485 93.4622 89.4983 93.3291 88.6985 93.5332C88.9424 91.9097 88.7642 90.9727 88.1016 89.49L92.1311 89.4832Z" fill="#0284C7"/>
<path d="M88.1016 89.49L92.1311 89.4832L91.6648 93.4536L91.2712 93.5054C90.4485 93.4622 89.4983 93.3291 88.6985 93.5332C88.9424 91.9097 88.7642 90.9727 88.1016 89.49Z" fill="#14B7FB"/>
<path d="M80.3517 89.4451C81.2382 89.2083 83.4162 88.2708 84.2326 88.7371L84.4118 88.8516L84.5605 88.939L84.6559 89.0003L84.7814 88.9449C85.4909 88.6385 86.3017 88.45 87.0487 88.7679C87.4223 88.9268 87.8022 89.2178 88.102 89.49C88.7646 90.9727 88.9428 91.9097 88.6989 93.5332C89.4987 93.3291 90.4489 93.4622 91.2716 93.5054C91.2082 94.7803 91.2336 95.9436 91.5111 97.1885L91.5556 97.4971L91.7472 97.6109L92.6298 101.087C93.5168 103.373 94.7721 106.203 97.1642 107.264C97.9931 107.631 98.7279 107.564 99.5802 107.34L100.072 107.131C102.443 105.993 103.475 103.304 104.298 100.989C105.057 100.367 105.727 99.4446 106.427 98.7332C108.305 96.8225 110.151 95.045 112.278 93.4046C112.639 93.126 113.194 92.5254 113.625 92.4742L113.694 92.8994C113.553 94.9007 113.474 96.7688 113.723 98.7703C113.232 99.0313 112.912 99.2845 112.547 99.7039C112.864 100.117 112.951 100.434 113.031 100.945C113.53 102.107 113.796 103.218 114.511 104.292C115.162 105.269 116.08 106.129 116.633 107.154C116.979 107.795 117.103 108.598 117.302 109.297C117.744 110.846 118.672 112.86 120.239 113.516C120.702 113.71 121.283 113.699 121.778 113.712L125.371 113.682C126.415 113.664 127.857 113.803 128.83 113.427C129.339 113.231 129.735 112.823 130.236 112.618C130.052 113.38 130.113 113.906 130.264 114.667C130.458 115.414 130.608 116.471 131.364 116.866C131.791 117.089 132.373 117.159 132.847 117.24C133.993 117.435 135.199 117.507 136.323 117.806L141.827 118.976L142.109 126.455C142.16 128.886 142.072 131.396 142.548 133.789C142.933 135.719 143.785 139.024 145.439 140.264C145.254 142.222 144.431 144.012 143.894 145.886L141.998 149.301C141.712 149.806 141.113 150.536 141.007 151.102C140.824 152.077 140.914 153.268 140.89 154.269L140.829 156.514L140.825 156.632L140.737 158.819L140.635 161.359L140.607 163.704L140.587 165.787C140.588 166.138 140.491 166.875 140.6 167.18C140.554 168.218 140.746 172.497 140.333 173.063C138.073 172.828 135.635 173.007 133.349 173.008L121.753 173.022L115.052 173.023L114.467 173.093L106.218 173.083C105.833 173.083 105.621 173.153 105.312 172.913L105.326 169.736L105.337 168.057L105.353 165.785L105.364 163.7L105.363 161.378L105.382 158.69L105.366 156.524L105.361 153.109C105.358 152.494 105.482 151.573 105.352 150.993C105.318 150.841 105.025 150.51 104.92 150.363L103.723 148.667C103.075 147.684 102.498 146.668 101.966 145.618C100.776 142.639 100.453 139.838 100.228 136.667C94.5378 136.35 89.1278 135.924 84.1545 132.887C83.4357 132.415 82.7624 131.83 82.0019 131.431C81.0793 130.947 79.8881 130.739 78.9013 130.37C77.0492 129.679 75.3617 128.798 73.6381 127.841L71.8068 126.676C71.4889 126.366 71.6427 125.509 71.6498 125.082C71.9589 121.025 73.0055 116.814 73.8527 112.834C74.8532 109.278 75.8359 105.852 77.2411 102.418C77.8727 100.874 78.5331 99.2759 79.4779 97.8963L79.2812 97.6526L71.1811 97.699C70.1984 97.7024 69.3918 97.8252 68.6745 97.034C67.8847 96.1629 68.2787 92.8638 68.3046 91.6392L68.3285 93.1455L75.6427 93.1509C76.7077 93.1524 77.9601 93.0293 79.0026 93.208L78.944 92.4041L78.9313 92.2901C78.8588 91.2276 79.0302 90.7986 79.6989 89.9859L80.3517 89.4451Z" fill="#0284C7"/>
<path d="M136.412 117.961C136.666 118.266 136.731 118.727 136.804 119.112C137.129 120.815 137.01 122.681 136.856 124.398C136.54 127.914 135.73 132.034 132.892 134.421C130.833 136.153 128.165 136.984 125.519 137.237C124.958 137.29 123.919 137.233 123.421 137.433L123.419 128.962C123.419 127.619 123.296 126.143 123.462 124.814L131.077 121.015L134.265 119.38C134.999 119.004 135.932 118.655 136.412 117.961Z" fill="#7DD3FC"/>
<path d="M122.694 137.413C122.079 137.277 121.248 137.36 120.599 137.318C119.299 137.234 117.994 136.983 116.74 136.634C114.033 135.881 112.145 134.379 110.779 131.946C109.764 130.139 109.199 128.11 108.894 126.071C108.742 125.05 108.639 123.868 108.938 122.865L108.997 122.681C109.246 121.865 109.538 121.295 110.175 120.713C111.142 119.83 112.169 119.65 113.424 119.712L113.574 119.821C115.609 121.268 118.162 122.432 120.389 123.566L122.011 124.39C122.128 124.45 122.53 124.601 122.607 124.692C122.646 124.739 122.675 124.798 122.688 124.858L122.694 137.413Z" fill="#7DD3FC"/>
<path d="M113.031 100.945C113.529 102.107 113.796 103.218 114.511 104.292C115.161 105.269 116.08 106.129 116.633 107.154C116.979 107.795 117.103 108.598 117.302 109.297C117.744 110.846 118.671 112.86 120.239 113.516C120.702 113.71 121.282 113.699 121.777 113.712L125.371 113.682C126.415 113.664 127.856 113.802 128.83 113.427C129.339 113.231 129.735 112.823 130.236 112.618C130.052 113.38 130.113 113.906 130.264 114.667L130.139 114.574C129.918 114.396 129.889 114.3 129.865 114.019L129.853 113.804C129.692 114 129.66 114.079 129.588 114.313C129.773 114.661 129.726 115.162 129.751 115.551C129.853 117.133 130.2 118.449 131.222 119.691L131.091 119.978C131.256 120.396 131.163 120.581 131.076 121.015L123.461 124.814C123.295 126.143 123.419 127.619 123.419 128.962L123.42 137.433L122.694 137.413L122.688 124.858C122.675 124.798 122.646 124.739 122.606 124.692C122.53 124.601 122.128 124.45 122.011 124.39L120.389 123.566C118.162 122.432 115.609 121.268 113.574 119.821L113.424 119.712C112.84 118.751 111.323 118.239 110.389 117.635C111.344 117.47 112.527 117.368 113.403 116.954C114.03 116.658 114.411 115.933 114.608 115.295C115.255 113.208 114.794 110.491 114.645 108.337C114.598 107.657 114.694 106.547 114.377 105.969C113.98 105.617 113.429 105.218 113.279 104.691L112.983 103.515L113.031 100.945Z" fill="#0369A1"/>
<path d="M129.588 114.312C129.774 114.661 129.726 115.162 129.751 115.551C129.853 117.133 130.2 118.449 131.222 119.691L131.092 119.978L123.404 123.604C123.37 123.013 123.428 122.179 123.185 121.643L122.864 121.572C122.54 121.917 122.663 123.161 122.655 123.68L115.609 119.878C115.923 119.259 116.226 118.661 116.349 117.97L116.378 117.8L116.624 115.159C117.015 115.546 117.469 115.928 117.946 116.205C119.627 117.182 122.013 116.931 123.887 116.865C124.828 116.832 125.927 116.856 126.831 116.578C127.983 116.225 128.975 115.523 129.527 114.438L129.588 114.312Z" fill="#7DD3FC"/>
<path d="M80.3517 89.4451C81.2382 89.2083 83.4162 88.2708 84.2326 88.7371L84.4118 88.8516L84.5605 88.939L84.6559 89.0003L84.7814 88.9449C85.4909 88.6385 86.3017 88.45 87.0487 88.7679C87.4223 88.9268 87.8022 89.2178 88.102 89.49C88.7646 90.9727 88.9428 91.9097 88.6989 93.5332C89.4987 93.3291 90.4489 93.4622 91.2716 93.5054C91.2082 94.7803 91.2336 95.9436 91.5111 97.1885L91.5556 97.4971L91.7472 97.6109L92.6298 101.087C93.5168 103.373 94.7721 106.203 97.1642 107.264C97.9931 107.631 98.7279 107.564 99.5802 107.34L100.072 107.131C102.443 105.993 103.475 103.304 104.298 100.989C105.057 100.367 105.727 99.4446 106.427 98.7332C108.305 96.8225 110.151 95.045 112.278 93.4046C112.639 93.126 113.194 92.5254 113.625 92.4742L113.694 92.8994C113.553 94.9007 113.474 96.7688 113.723 98.7703C113.232 99.0313 112.912 99.2845 112.547 99.7039C112.864 100.117 112.951 100.434 113.031 100.945L112.983 103.515L113.279 104.691C113.43 105.218 113.981 105.617 114.377 105.969C114.694 106.547 114.598 107.658 114.645 108.337C114.795 110.491 115.256 113.208 114.609 115.295C114.411 115.933 114.03 116.658 113.403 116.954C112.528 117.368 111.345 117.47 110.389 117.635L105.191 118.577C104.559 118.685 103.876 118.706 103.263 118.88C103.163 119.104 103.099 119.302 103.05 119.543C102.362 122.91 101.832 126.317 101.618 129.75C101.586 130.259 101.443 131.158 101.579 131.647C101.81 132.091 101.768 132.924 101.831 133.439C101.959 134.481 102.113 135.514 102.364 136.535C103.366 140.619 105.218 145.033 108.101 148.149C110.722 150.981 114.264 152.909 117.915 154.051C118.713 154.301 119.524 154.506 120.343 154.673C120.789 154.764 121.354 154.802 121.756 154.999C117.954 155.068 114.215 154.454 110.466 153.906C110.596 157.501 111.618 160.61 112.577 164.049L115.052 173.023L114.467 173.093L106.218 173.083C105.833 173.083 105.621 173.153 105.312 172.913L105.326 169.736L105.337 168.057L105.353 165.785L105.364 163.7L105.363 161.378L105.382 158.69L105.366 156.524L105.361 153.109C105.358 152.494 105.482 151.573 105.352 150.993C105.318 150.841 105.025 150.51 104.92 150.363L103.723 148.667C103.075 147.684 102.498 146.668 101.966 145.618C100.776 142.639 100.453 139.838 100.228 136.667C94.5378 136.35 89.1278 135.924 84.1545 132.887C83.4357 132.415 82.7624 131.83 82.0019 131.431C81.0793 130.947 79.8881 130.739 78.9013 130.37C77.0492 129.679 75.3617 128.798 73.6381 127.841L71.8068 126.676C71.4889 126.366 71.6427 125.509 71.6498 125.082C71.9589 121.025 73.0055 116.814 73.8527 112.834C74.8532 109.278 75.8359 105.852 77.2411 102.418C77.8727 100.874 78.5331 99.2759 79.4779 97.8963L79.2812 97.6526L71.1811 97.699C70.1984 97.7024 69.3918 97.8252 68.6745 97.034C67.8847 96.1629 68.2787 92.8638 68.3046 91.6392L68.3285 93.1455L75.6427 93.1509C76.7077 93.1524 77.9601 93.0293 79.0026 93.208L78.944 92.4041L78.9313 92.2901C78.8588 91.2276 79.0302 90.7986 79.6989 89.9859L80.3517 89.4451Z" fill="#08395E"/>
<path d="M80.3514 89.4451C81.2378 89.2083 83.4158 88.2708 84.2322 88.7371L84.4114 88.8516L84.5601 88.939L84.6556 89.0003L84.781 88.9449C85.4905 88.6385 86.3013 88.45 87.0484 88.7679C87.4219 88.9268 87.8018 89.2178 88.1016 89.49C88.7642 90.9727 88.9424 91.9097 88.6985 93.5332L87.8599 93.689L87.6844 94.1368C87.4429 94.6058 86.9226 95.0232 86.4131 95.1543C85.8694 95.2945 85.4886 95.2141 85.0218 94.9461C84.7952 94.5992 84.7163 94.4021 84.6844 93.9871L84.6773 93.8721L84.5767 93.8667C84.4805 94.2808 84.2759 94.638 83.8987 94.8636C83.5955 95.045 83.1658 95.1358 82.8196 95.0496C82.2942 94.9185 82.0794 94.5701 81.8084 94.1377L81.7259 94.0035C81.6182 94.2393 81.5079 94.4429 81.3597 94.6558C80.8875 94.8267 80.4771 94.8855 80.0003 94.6719C79.4158 94.4099 79.2046 93.7642 79.0022 93.208L78.9436 92.4041L78.9309 92.2901C78.8584 91.2276 79.0298 90.7986 79.6985 89.9859L80.3514 89.4451Z" fill="#7DD3FC"/>
<path d="M79.8118 98.4182C80.4505 97.5683 81.17 96.7114 82.2071 96.344C83.0796 96.6464 83.7696 96.8918 84.7166 96.8281C85.6377 96.7661 86.5227 96.3696 87.4161 96.1611C88.2295 95.9709 88.9485 95.9602 89.7745 96.0317C90.3863 96.0849 90.6973 96.0805 91.0559 96.6186C91.0057 97.1369 91.0091 97.1364 90.6206 97.4682C88.6902 99.1154 85.9429 99.8772 84.1341 101.678L84.261 101.817C85.7056 107.005 86.7493 112.557 87.1553 117.924C89.3125 117.424 92.0103 117.03 94.014 118.251C95.1292 118.931 95.9361 119.944 96.2356 121.233L96.5408 122.696C96.7422 121.812 96.8389 120.571 97.6785 120.057C98.5525 119.521 99.764 119.468 100.763 119.365L103.05 119.543C102.361 122.91 101.831 126.317 101.618 129.75C101.586 130.259 101.443 131.157 101.579 131.647C100.634 131.489 99.6368 131.363 98.7415 131.015C97.4634 130.517 96.3052 129.693 95.1658 128.942L90.4085 125.813C89.2608 125.072 87.9524 124.233 86.6199 123.886C88.2586 124.969 89.5301 126.299 90.9214 127.667L95.7896 132.423C95.1397 132.612 94.3582 132.607 93.6831 132.64C89.9673 132.825 86.8633 131.583 83.9566 129.309L81.7864 127.516C81.4788 127.259 81.1099 126.872 80.7632 126.679C79.9412 126.223 78.6563 126.714 77.7259 126.271C77.1438 125.994 76.8125 125.657 76.6182 125.035C76.2627 123.896 76.2044 122.495 76.1326 121.313C75.9256 117.905 76.2615 114.46 76.6888 111.08C77.2232 106.85 77.8909 102.268 79.8118 98.4182Z" fill="#7DD3FC"/>
<path d="M87.1553 117.924L84.0383 118.668C83.5754 118.752 83.1655 118.819 82.752 118.53C82.7761 118.462 82.7805 118.383 82.8245 118.326C82.9712 118.133 84.5271 117.712 84.8818 117.551C85.2666 117.377 85.6284 117.142 85.9858 116.918C86.1345 116.232 85.8708 115.046 85.7729 114.326L84.6182 107.146C84.2725 105.144 83.7578 102.917 83.9001 100.891C83.9463 101.178 84.0332 101.408 84.134 101.678L84.261 101.817C85.7056 107.005 86.7493 112.557 87.1553 117.924Z" fill="#062848"/>
<path d="M104.297 100.989C105.057 100.367 105.727 99.4446 106.427 98.7332C108.305 96.8225 110.15 95.0449 112.278 93.4045C112.639 93.126 113.193 92.5254 113.625 92.4741L113.694 92.8994C113.552 94.9006 113.474 96.7688 113.723 98.7703C113.231 99.0313 112.912 99.2844 112.547 99.7039C112.864 100.117 112.951 100.434 113.031 100.945L112.983 103.515L113.279 104.691C113.43 105.218 113.98 105.617 114.377 105.969C114.694 106.547 114.598 107.657 114.645 108.337C114.794 110.491 115.256 113.208 114.609 115.295C114.411 115.933 114.03 116.658 113.403 116.954C112.527 117.368 111.344 117.47 110.389 117.635L105.19 118.577C104.559 118.685 103.875 118.706 103.263 118.88C103.162 119.104 103.099 119.302 103.05 119.543L100.763 119.365C99.7642 119.468 98.5527 119.521 97.6787 120.057C96.8391 120.572 96.7424 121.812 96.541 122.696L96.2358 121.233C95.9363 119.944 95.1294 118.931 94.0142 118.251C92.0105 117.03 89.3127 117.424 87.1555 117.924C86.7495 112.557 85.7058 107.005 84.2612 101.817L88.613 99.1821C89.5535 98.6028 90.5232 97.894 91.5554 97.4971L91.7471 97.6108L92.6296 101.087C93.5166 103.373 94.772 106.203 97.1641 107.264C97.9929 107.631 98.7278 107.564 99.5801 107.34L100.072 107.131C102.443 105.993 103.475 103.304 104.297 100.989Z" fill="#F97316"/>
<path d="M112.547 99.7039C112.864 100.117 112.951 100.434 113.031 100.945L112.983 103.515L112.747 103.073C112.322 102.051 112.094 100.75 112.547 99.7039Z" fill="#F7F8F1"/>
<path d="M114.377 105.969C114.694 106.547 114.598 107.657 114.645 108.337C114.794 110.491 115.255 113.208 114.608 115.295C114.411 115.933 114.03 116.658 113.403 116.954C112.527 117.368 111.344 117.47 110.389 117.635L105.19 118.577C104.559 118.685 103.875 118.706 103.263 118.88C103.162 119.104 103.099 119.302 103.05 119.543L100.763 119.365C100.927 119.321 101.041 119.272 101.161 119.147L106.586 113.55L114.377 105.969Z" fill="#FDBA74"/>
<path d="M147.108 53.0364L155.205 56.5122L158.463 58.2083C162.189 60.4565 165.708 62.675 169.052 65.4761C169.452 65.8113 170.146 66.2358 170.444 66.6489L172.965 68.8975C175.28 71.2363 177.505 73.647 179.494 76.2742C188.573 88.2656 193.506 102.853 193.293 117.91C193.291 118.057 193.299 118.003 193.264 118.125C193.186 122.533 192.58 126.757 191.812 131.089C191.661 131.768 190.98 135.078 190.624 135.456L190.367 135.355L169.512 154.503L169.548 156.473L169.6 156.58L162.476 156.606L155.995 156.594C154.752 156.379 153.319 156.505 152.051 156.508C151.158 156.511 150.121 156.417 149.246 156.557C148.267 156.713 147.208 156.629 146.215 156.63L140.825 156.632L140.829 156.514L140.889 154.269C140.914 153.268 140.824 152.077 141.007 151.102C141.113 150.536 141.712 149.806 141.998 149.301L143.894 145.886C144.431 144.012 145.254 142.222 145.438 140.264C143.785 139.024 142.932 135.719 142.548 133.789C142.072 131.396 142.16 128.886 142.109 126.455L141.827 118.976L136.323 117.806C135.199 117.507 133.993 117.435 132.847 117.24C132.373 117.159 131.791 117.089 131.364 116.866C130.608 116.471 130.458 115.414 130.264 114.667C130.113 113.906 130.052 113.38 130.236 112.618C129.735 112.823 129.339 113.231 128.83 113.427C127.857 113.802 126.415 113.664 125.371 113.682L121.778 113.712C121.283 113.699 120.702 113.71 120.239 113.516C118.672 112.86 117.744 110.846 117.302 109.297C117.103 108.598 116.979 107.795 116.633 107.154C116.08 106.129 115.161 105.269 114.511 104.292C113.796 103.218 113.53 102.107 113.031 100.945C112.951 100.434 112.864 100.117 112.547 99.7039C112.912 99.2844 113.231 99.0312 113.723 98.7703C113.474 96.7688 113.552 94.9006 113.694 92.8994L113.625 92.4741C113.193 92.5254 112.639 93.126 112.278 93.4045C110.15 95.0449 108.305 96.8225 106.427 98.7332C105.727 99.4446 105.057 100.367 104.297 100.989C105.068 97.8357 105.408 94.9673 105.193 91.7178C105.989 91.2761 106.778 90.3145 107.452 89.687L115.492 81.9897L124.37 73.572L134.155 64.7039C138.425 60.7795 142.606 56.696 147.108 53.0364Z" fill="#F97316"/>
<path d="M169.985 129.036C171.362 128.101 173.003 127.872 174.594 127.481L168.152 133.619C167.432 134.285 166.678 135.183 165.833 135.675L165.448 135.363C164.821 134.729 164.121 133.847 163.333 133.439C165.723 132.197 167.941 130.789 169.985 129.036Z" fill="#FDBA74"/>
<path d="M174.31 120.649L174.453 120.555C176.192 119.393 177.729 117.845 179.288 116.453C182.577 113.514 185.877 110.433 189.472 107.874C189.061 108.611 188.392 109.126 187.851 109.766L179.469 119.086C178.211 120.42 176.965 121.926 175.552 123.083C175.385 123.219 175.217 123.355 175.066 123.509L174.31 120.649Z" fill="#FDBA74"/>
<path d="M170.089 107.265C170.484 107.982 170.687 108.768 170.957 109.538L172.552 114.549C173.147 116.561 173.849 118.604 174.31 120.649L175.066 123.509C175.319 124.475 175.764 125.648 175.641 126.648C175.333 127.057 175.046 127.251 174.594 127.481C173.003 127.872 171.362 128.101 169.985 129.036L169.128 129.018C168.534 128.95 168.059 128.811 167.667 128.329C169.264 127.516 171.385 126.649 172.358 125.05C172.608 124.639 172.794 124.139 172.849 123.659C173.022 122.155 172.682 120.482 172.463 118.994C171.876 114.993 171.023 111.188 170.089 107.265Z" fill="#0369A1"/>
<path d="M159.872 89.3803C160.034 88.8283 160.239 88.0813 160.844 87.842C161.125 87.7312 161.42 87.7407 161.682 87.8982L162.23 88.4087C162.477 88.3364 162.509 88.2985 162.698 88.1394C162.937 87.9384 163.094 87.8547 163.391 87.7722C163.808 87.823 163.974 87.9482 164.302 88.1958L164.457 88.3095L164.551 88.3811C165.106 88.2302 165.371 87.6433 165.993 88.0144C166.306 88.2014 166.565 88.4924 166.809 88.7587C167.408 88.4785 167.389 88.2622 168.091 88.2841C168.619 88.5825 168.85 88.801 169.112 89.361L169.056 91.1176C169.055 91.2756 169.104 91.715 169.052 91.8503C168.934 92.153 168.475 92.6679 168.237 92.8874C167.877 93.2192 167.44 93.5307 166.931 93.5065L166.755 93.4826C166.674 93.3007 166.612 93.1333 166.565 92.9401C166.233 92.8791 166.206 92.8918 165.915 93.0983C165.695 93.2546 165.534 93.4682 165.369 93.6784C164.702 93.5898 164.709 93.6005 164.287 93.0786C163.767 92.8884 163.468 93.519 162.903 93.6291C162.607 93.5712 162.477 93.5131 162.248 93.3151C162.118 93.0847 162.001 92.9025 161.816 92.7124C161.543 92.8811 161.394 92.9492 161.072 92.9655C160.854 92.8737 160.7 92.7941 160.53 92.6242C159.671 91.7651 159.879 90.5075 159.872 89.3803Z" fill="#FDBA74"/>
<path d="M169.112 89.3611L176.692 89.3555C177.27 89.356 178.711 89.1816 179.193 89.4277L179.2 93.6836C178.226 93.571 177.123 93.6819 176.135 93.6833L167.053 93.6506C166.486 93.6379 165.941 93.7292 165.369 93.6785C165.534 93.4683 165.695 93.2546 165.915 93.0984C166.206 92.8918 166.233 92.8792 166.565 92.9402C166.612 93.1333 166.674 93.3008 166.755 93.4827L166.931 93.5066C167.439 93.5308 167.877 93.2192 168.236 92.8875C168.475 92.668 168.934 92.1531 169.052 91.8503C169.104 91.7151 169.055 91.2756 169.056 91.1177L169.112 89.3611Z" fill="#0284C7"/>
<path d="M156.006 151.444L162.467 145.741L162.476 156.606L155.995 156.594L156.006 151.444Z" fill="#FDBA74"/>
<path d="M169.448 140.177C170.216 139.672 170.87 138.952 171.541 138.329L176.532 133.55L183.658 126.875L193.264 118.125C193.186 122.533 192.58 126.757 191.812 131.089C191.209 131.386 190.727 131.874 190.222 132.31L187.579 134.6L176.835 144.317L169.616 150.733L169.451 150.64L169.448 140.177Z" fill="#FDBA74"/>
<path d="M163.333 133.439C164.121 133.847 164.821 134.729 165.448 135.363C165.465 135.53 165.458 135.775 165.546 135.923C164.561 136.804 163.567 137.687 162.754 138.733L162.66 138.849C162.265 139.376 162.467 144.667 162.467 145.741L156.006 151.444L155.995 156.594C154.752 156.379 153.319 156.505 152.051 156.508C151.158 156.511 150.121 156.417 149.246 156.557C148.267 156.713 147.208 156.629 146.215 156.63L140.825 156.632L140.829 156.514L140.889 154.269C140.914 153.268 140.824 152.077 141.007 151.102C141.113 150.536 141.712 149.806 141.998 149.301L143.894 145.886C145.843 143.293 147.33 139.865 148.088 136.723C151.861 136.395 155.603 136.179 159.262 135.09C160.665 134.673 162.016 134.071 163.333 133.439Z" fill="url(#paint0_linear_1253_6938)"/>
<path d="M149.078 146.79L149.144 142.395C149.153 141.915 149.08 141.186 149.197 140.743C149.27 140.467 149.816 139.872 150.023 139.674C150.88 138.85 151.955 138.578 153.083 138.335C154.37 138.844 155.316 139.417 156.006 140.666L156.006 151.444L155.995 156.594C154.752 156.379 153.319 156.505 152.051 156.508C151.158 156.511 150.121 156.417 149.246 156.557C148.267 156.713 147.208 156.629 146.215 156.63L140.825 156.632L140.829 156.514L140.889 154.269C141.767 153.757 142.56 152.848 143.316 152.163L149.078 146.79Z" fill="#F97316"/>
<path d="M147.909 81.312C149.733 81.1494 151.22 80.9873 152.784 82.1304C154.002 83.2412 154.73 84.5696 155.46 86.0317L156.462 89.3428L159.872 89.3804C159.878 90.5076 159.67 91.7651 160.529 92.6243C160.7 92.7942 160.853 92.8738 161.072 92.9656C161.394 92.9492 161.543 92.8811 161.816 92.7124C162.001 92.9026 162.118 93.0847 162.248 93.3152C162.477 93.5132 162.607 93.5713 162.903 93.6291C163.468 93.519 163.767 92.8884 164.286 93.0786C164.709 93.6006 164.702 93.5898 165.369 93.6785C165.941 93.7292 166.486 93.6379 167.053 93.6506L176.134 93.6833C177.123 93.6819 178.225 93.571 179.2 93.6836L179.199 96.5815C179.197 97.0439 179.257 97.5281 179.074 97.9614C178.413 98.2732 177.223 98.1274 176.479 98.1289L170.164 98.106C169.643 98.1008 168.72 97.9482 168.244 98.1245L168.142 97.9167C167.981 97.6916 167.592 97.5129 167.351 97.3835C166.188 96.7585 164.866 96.3882 163.581 96.1101C162.062 95.7815 160.731 96.0137 159.253 96.4265C158.661 96.5916 158.064 96.7197 157.545 97.0581L158.254 98.302C157.802 98.2312 157.332 98.2361 156.874 98.2178C156.467 100.752 155.907 104.466 153.639 106.078C152.487 106.897 151.136 106.965 149.774 107.034C149.133 107.066 148.399 107.13 147.767 106.993C146.185 106.652 145.018 104.979 144.268 103.667C143.447 102.233 143.019 100.793 142.528 99.2322C141.223 94.646 142.381 88.9792 144.284 84.7168C145.023 83.061 145.847 82.0225 147.575 81.3562L147.909 81.312Z" fill="#0369A1"/>
<path d="M145.703 88.2761L146.179 88.2153C146.774 88.2207 146.981 88.3921 147.366 88.8442C149.003 90.7661 149.296 94.7795 148.966 97.1912L148.933 97.4121C148.865 97.8994 148.789 98.3521 148.635 98.821L148.575 98.999L148.52 99.1731C148.238 100.03 147.703 101.352 146.799 101.699C146.242 101.913 145.795 101.729 145.282 101.499C144.275 100.63 143.965 99.4998 143.585 98.3008C143.171 96.991 143.139 95.7671 143.13 94.405C143.127 94.0037 143.066 93.5251 143.19 93.1426C143.348 92.6538 143.272 92.0225 143.373 91.4917C143.434 91.1692 143.555 90.4714 143.739 90.21L143.86 90.0879L143.861 89.8438L143.983 89.6606L144.105 89.3555C144.283 89.0901 144.226 89.4121 144.226 88.9893C143.873 89.1589 143.485 89.3967 143.091 89.4207C143.833 88.895 144.855 88.6077 145.703 88.2761Z" fill="#062848"/>
<path d="M147.909 81.312C149.733 81.1494 151.22 80.9873 152.784 82.1304C154.003 83.2412 154.73 84.5696 155.46 86.0317L156.463 89.3428L159.872 89.3804C159.879 90.5076 159.671 91.7651 160.53 92.6243C160.7 92.7942 160.854 92.8738 161.072 92.9656C161.394 92.9492 161.543 92.8811 161.816 92.7124C162.001 92.9026 162.118 93.0847 162.249 93.3152C160.702 93.8667 158.565 93.6392 156.925 93.6262L156.866 97.2803L156.834 97.3928L150.333 97.4331C150.211 96.0996 149.992 94.792 149.934 93.4497C149.811 90.603 150.001 87.7471 149.294 84.9551C148.967 83.6589 148.299 82.5549 147.909 81.312Z" fill="#0284C7"/>
<path d="M157.545 97.0581C158.064 96.7197 158.661 96.5916 159.253 96.4265C160.731 96.0137 162.062 95.7815 163.581 96.1101C164.866 96.3882 166.188 96.7586 167.351 97.3836C167.592 97.513 167.981 97.6917 168.142 97.9168L168.244 98.1245C168.208 99.47 168.034 101.186 168.298 102.503C168.462 103.322 168.922 104.148 169.245 104.916C169.569 105.685 169.802 106.482 170.089 107.265C171.023 111.188 171.876 114.993 172.463 118.994C172.682 120.482 173.022 122.155 172.849 123.659C172.794 124.139 172.608 124.639 172.358 125.05C171.384 126.649 169.264 127.516 167.667 128.329C168.059 128.811 168.534 128.95 169.128 129.018L169.985 129.036C167.941 130.789 165.723 132.198 163.333 133.439C162.016 134.071 160.665 134.673 159.262 135.09C155.602 136.179 151.861 136.395 148.088 136.723C147.33 139.865 145.843 143.293 143.894 145.886C144.431 144.012 145.254 142.222 145.438 140.264C143.785 139.024 142.932 135.719 142.548 133.789C142.071 131.396 142.16 128.886 142.109 126.455L141.827 118.976L136.323 117.806C135.199 117.507 133.993 117.435 132.847 117.24C132.373 117.159 131.791 117.089 131.363 116.866C130.608 116.471 130.457 115.414 130.264 114.667C130.113 113.906 130.052 113.38 130.236 112.618C130.931 111.986 131.194 111.142 131.4 110.259C132.217 109.339 133.165 108.518 134.05 107.664L138.213 103.545L141.017 100.734C141.52 100.216 141.927 99.6465 142.528 99.2322C143.019 100.793 143.447 102.233 144.268 103.667C145.018 104.979 146.185 106.652 147.767 106.993C148.399 107.13 149.133 107.066 149.774 107.034C151.136 106.965 152.487 106.897 153.639 106.078C155.907 104.466 156.467 100.752 156.874 98.2178C157.332 98.2361 157.802 98.2312 158.254 98.302L157.545 97.0581Z" fill="#7DD3FC"/>
<path d="M161.079 113.391C161.11 114.218 161.099 115.051 161.337 115.849L161.403 116.073C161.837 117.531 162.802 118.468 163.688 119.641C163.065 119.376 162.355 119.004 161.675 118.952C160.771 117.158 160.593 115.341 161.079 113.391Z" fill="#08395E"/>
<path d="M145.439 140.264L146.815 131.404C148.526 130.791 150.209 130.125 151.795 129.228C154.225 127.854 156.476 126.1 158.773 124.514C157.956 126.053 157.136 127.615 156.109 129.028C155.215 130.259 154.156 131.352 153.101 132.443C154.167 132.498 155.326 132.638 156.384 132.517C157.396 132.401 158.457 132.016 159.424 131.705C162.229 130.803 164.996 129.567 167.667 128.329C168.059 128.811 168.534 128.95 169.129 129.018L169.986 129.036C167.941 130.789 165.724 132.198 163.333 133.439C162.016 134.071 160.665 134.673 159.262 135.09C155.603 136.179 151.861 136.395 148.088 136.723C147.331 139.865 145.844 143.293 143.895 145.886C144.431 144.012 145.254 142.222 145.439 140.264Z" fill="#08395E"/>
<path d="M156.874 98.2178C157.332 98.2361 157.802 98.2312 158.254 98.302C158.971 98.386 159.752 98.3379 160.451 98.4778C161.454 98.6785 162.666 99.9111 163.293 100.683L163.68 101.221L161.079 113.391C160.593 115.341 160.771 117.158 161.675 118.952C157.781 118.493 153.7 116.963 150.234 119.682C148.612 120.954 148.276 122.757 147.88 124.647C147.725 122.945 147.786 121.416 146.328 120.243C144.986 119.165 143.393 119.326 141.827 118.976L136.323 117.806C135.199 117.507 133.993 117.435 132.847 117.24C132.373 117.159 131.791 117.089 131.363 116.866C130.608 116.471 130.457 115.414 130.264 114.667C130.113 113.906 130.052 113.38 130.236 112.618C130.931 111.986 131.194 111.142 131.4 110.259C132.217 109.339 133.165 108.518 134.05 107.664L138.213 103.545L141.017 100.734C141.52 100.216 141.927 99.6465 142.528 99.2322C143.019 100.793 143.447 102.233 144.268 103.667C145.018 104.979 146.185 106.652 147.767 106.993C148.399 107.13 149.133 107.066 149.774 107.034C151.136 106.965 152.487 106.897 153.639 106.078C155.907 104.466 156.467 100.752 156.874 98.2178Z" fill="#F97316"/>
<path d="M147.108 53.0364L155.205 56.5122L158.463 58.2083C162.189 60.4565 165.708 62.675 169.052 65.4761C169.452 65.8113 170.146 66.2358 170.444 66.6489L172.965 68.8975L155.46 86.0317C154.73 84.5696 154.002 83.2412 152.784 82.1304C151.22 80.9873 149.733 81.1494 147.909 81.312L147.575 81.3562C145.847 82.0225 145.023 83.061 144.284 84.7168C142.381 88.9792 141.223 94.646 142.528 99.2322C141.927 99.6465 141.52 100.216 141.017 100.734L138.213 103.545L134.05 107.664C133.165 108.518 132.217 109.339 131.4 110.259C131.195 111.142 130.931 111.986 130.236 112.618C129.735 112.823 129.339 113.231 128.83 113.427C127.857 113.802 126.415 113.664 125.371 113.682L121.778 113.712C121.283 113.699 120.702 113.71 120.239 113.516C118.672 112.86 117.744 110.846 117.302 109.297C117.103 108.598 116.979 107.795 116.633 107.154C116.08 106.129 115.161 105.269 114.511 104.292C113.796 103.218 113.53 102.107 113.031 100.945C112.951 100.434 112.864 100.117 112.547 99.7039C112.912 99.2844 113.231 99.0312 113.723 98.7703C113.474 96.7688 113.552 94.9006 113.694 92.8994L113.625 92.4741C113.193 92.5254 112.639 93.126 112.278 93.4045C110.15 95.0449 108.305 96.8225 106.427 98.7332C105.727 99.4446 105.057 100.367 104.297 100.989C105.068 97.8357 105.408 94.9673 105.193 91.7178C105.989 91.2761 106.778 90.3145 107.452 89.687L115.492 81.9897L124.37 73.572L134.155 64.7039C138.425 60.7795 142.606 56.696 147.108 53.0364Z" fill="#FDBA74"/>
<path d="M136.49 71.0393L136.212 70.8008C136.203 70.4214 136.217 70.0645 136.306 69.6936C136.522 68.7898 136.983 68.0645 137.802 67.5933C138.716 67.0669 139.636 67.0095 140.639 67.3028L140.79 67.3491C140.893 66.7002 140.967 65.9656 141.25 65.3687C141.774 64.2627 142.784 63.2949 143.955 62.9102C145.47 62.4121 146.925 62.7456 148.293 63.4505C149.275 64.2984 149.664 64.9912 150.248 66.1214L150.457 67.4383C150.794 67.5479 151.118 67.5088 151.464 67.5337C152.449 67.6045 153.191 68.2776 153.889 68.9114C154.97 68.9112 156 69.0159 156.81 69.8242C157.183 70.1963 157.378 70.6775 157.584 71.1529L145.784 71.1619L136.49 71.0393Z" fill="#F7F8F1"/>
<path d="M122.033 86.2842C124.348 86.0171 126.61 86.3658 128.721 87.3479C130.501 88.5884 131.72 89.9952 132.38 92.0901C132.961 95.0931 132.364 97.4039 131.489 100.276L131.455 95.5896C129.874 95.5467 118.466 95.3062 117.916 95.7195C117.257 95.8279 115.571 94.7456 115.051 94.3316C114.721 94.0686 114.357 93.5359 113.956 93.4173L113.83 93.399L113.732 92.9378C113.742 92.1419 114.034 91.2312 114.441 90.5508C115.135 89.3904 116.502 89.0003 117.625 88.3728C119.142 87.5247 120.323 86.729 122.033 86.2842Z" fill="#0284C7"/>
<path d="M113.694 92.8994L113.732 92.9377L113.83 93.3989L113.956 93.4172C114.357 93.5359 114.721 94.0686 115.051 94.3315C115.571 94.7456 117.257 95.8279 117.916 95.7195C118.466 95.3062 129.874 95.5466 131.455 95.5896L131.489 100.276L131.4 110.259C131.194 111.142 130.931 111.986 130.236 112.618C129.735 112.823 129.339 113.231 128.83 113.427C127.856 113.802 126.415 113.664 125.371 113.682L121.777 113.712C121.282 113.699 120.702 113.71 120.239 113.516C118.671 112.86 117.744 110.846 117.302 109.297C117.103 108.598 116.979 107.795 116.633 107.154C116.08 106.129 115.161 105.269 114.511 104.292C113.796 103.218 113.529 102.107 113.031 100.945C112.951 100.434 112.863 100.117 112.547 99.7039C112.912 99.2844 113.231 99.0312 113.722 98.7703C113.474 96.7688 113.552 94.9006 113.694 92.8994Z" fill="#7DD3FC"/>
<path d="M113.694 92.8994L113.733 92.9377L113.831 93.3989L113.956 93.4172C114.357 93.5359 114.722 94.0686 115.051 94.3315C115.571 94.7456 117.257 95.8279 117.917 95.7195L118.056 104.744C117.015 104.031 116.339 103.065 115.615 102.046C114.886 101.022 114.145 99.9622 113.723 98.7703C113.474 96.7688 113.553 94.9006 113.694 92.8994Z" fill="#0369A1"/>
</g>
<defs>
<linearGradient id="paint0_linear_1253_6938" x1="163.218" y1="146.024" x2="143.149" y2="141.805" gradientUnits="userSpaceOnUse">
<stop stop-color="#FE912A"/>
<stop offset="1" stop-color="#FFB165"/>
</linearGradient>
<clipPath id="clip0_1253_6938">
<rect width="250" height="250" fill="white"/>
</clipPath>
</defs>
</svg>
