<svg width="250" height="250" viewBox="0 0 250 250" fill="none" xmlns="http://www.w3.org/2000/svg">
<g clip-path="url(#clip0_1037_29820)">
<path d="M0 0H250V129.607V174.876V206.631V250H167.361H83.9482H0V211.298V177.148V128.823V0Z" fill="#0369A1"/>
<path d="M78.9355 77.5513C79.1719 79.512 79.1252 81.7383 78.4714 83.6074C77.2048 87.2278 74.6396 88.1389 71.4365 89.6936C72.2722 84.9004 76.0569 81.2424 78.9355 77.5513Z" fill="#7DD3FC"/>
<path d="M170.89 77.3328C171.503 77.874 172.018 78.7097 172.535 79.3589C173.755 80.8909 174.994 82.415 176.013 84.0913C177.174 85.999 178.062 88.0576 179.002 90.0781C177.845 89.3289 176.599 88.7422 175.365 88.1313C174.577 87.7407 173.727 87.3767 173.084 86.7615C170.743 84.5212 170.879 80.3137 170.89 77.3328Z" fill="#7DD3FC"/>
<path d="M124.98 190.578L131.013 201.937C129.061 201.144 127.162 200.4 125.038 200.287C123.083 200.301 120.865 201.37 119.028 202.019L124.98 190.578Z" fill="#F97316"/>
<path d="M171.643 88.4443C173.662 89.249 175.692 90.1145 177.479 91.3708C180.907 93.7798 182.366 98.5374 183.039 102.465C182.033 101.529 181.046 100.651 179.85 99.9626C177.879 98.8286 175.502 98.1272 173.845 96.5295C171.833 94.5894 171.686 91.0613 171.643 88.4443Z" fill="#FDBA74"/>
<path d="M77.9287 88.562C78.0767 88.5955 77.9897 88.5657 78.176 88.6841L77.8325 91.6597C77.3633 93.8423 76.3267 96.072 74.7366 97.665C72.7756 99.6299 70.0176 100.952 67.688 102.459L67.5696 102.447C67.4546 101.975 67.5791 101.38 67.6292 100.895C67.8115 99.1306 68.1172 97.4468 68.843 95.8137C70.5256 92.0276 74.219 89.9761 77.9287 88.562Z" fill="#7DD3FC"/>
<path d="M93.8113 167.042C98.1179 166.811 101.881 168.676 105.438 170.931L97.8608 173.765L97.29 173.861C96.6396 173.973 95.9412 174.066 95.2874 173.928C94.2996 173.72 93.2971 173.183 92.4072 172.725C90.2725 171.624 88.1794 170.278 86.2036 168.911C88.8042 168.185 91.0869 167.284 93.8113 167.042Z" fill="#EFF0DC"/>
<path d="M123.746 175.321L124.249 175.286C128.681 175.075 132.388 177.482 135.528 180.367L126.861 181.116C122.861 181.175 118.721 181.121 114.782 180.358C117.074 177.882 120.426 175.95 123.746 175.321Z" fill="#EFF0DC"/>
<path d="M188.634 135.559L189.071 135.531C189.146 135.934 188.971 136.431 188.884 136.827C188.523 138.449 188.035 140.077 187.162 141.505C184.471 145.904 179.816 146.477 175.232 147.544C175.061 147.563 174.896 147.554 174.724 147.55C174.801 146.997 175.116 146.435 175.362 145.935C175.891 144.857 176.49 143.804 177.138 142.793C179.946 138.406 183.718 136.639 188.634 135.559Z" fill="#7DD3FC"/>
<path d="M76.2864 98.938C76.4905 98.8958 76.3733 98.9053 76.6394 98.938C76.4043 103.628 75.2588 107.342 71.8254 110.716C70.1455 112.367 68.3218 113.806 66.6838 115.522C66.1658 113.467 65.9502 110.719 66.4561 108.634L66.6689 107.773C67.8735 103.441 72.6428 100.985 76.2864 98.938Z" fill="#7DD3FC"/>
<path d="M192.64 106.824C193.568 109.354 194.135 112.759 193.433 115.383C192.779 117.83 191.221 119.942 189.115 121.343C188.124 122.002 186.991 122.502 185.959 123.11C185.76 123.249 185.582 123.341 185.364 123.445C185.201 122.938 185.261 122.257 185.246 121.725C185.206 120.308 185.226 118.96 185.407 117.554C185.722 115.105 186.868 112.503 188.473 110.623C189.675 109.215 191.227 108.015 192.64 106.824Z" fill="#7DD3FC"/>
<path d="M139.268 172.043C139.928 171.912 140.815 171.984 141.479 172.075C144.797 172.532 147.801 174.539 150.825 175.885C148.375 177.45 145.465 178.312 142.609 178.705L141.869 178.746C137.659 178.871 133.861 176.829 130.839 174.013C133.515 173.159 136.475 172.407 139.268 172.043Z" fill="#7DD3FC"/>
<path d="M189.697 91.7937L189.835 91.9751C191.632 94.5098 192.677 98.0493 192.274 101.135C191.965 103.492 190.867 105.749 189.098 107.353C188.5 107.895 187.818 108.258 187.261 108.86L187.16 108.972L186.094 110.157L185.212 105.103C184.668 99.804 186.418 95.8479 189.697 91.7937Z" fill="#7DD3FC"/>
<path d="M182.286 147.888L182.556 147.852L182.687 147.987C181.83 150.72 180.413 153.375 178.176 155.222C174.83 157.984 170.758 157.6 166.719 157.204C166.409 157.199 166.336 157.273 166.108 157.043L166.38 156.651C166.982 155.829 167.735 155.062 168.413 154.298C169.587 152.973 170.881 151.672 172.377 150.708C175.373 148.777 178.842 148.374 182.286 147.888Z" fill="#7DD3FC"/>
<path d="M192.748 121.521C192.94 121.49 192.829 121.488 193.076 121.582C193.165 124.101 193.067 126.775 192.007 129.101C191.344 130.557 190.329 131.99 189.026 132.941C187.091 134.353 184.312 135.161 182.068 136.007L181.787 136.065C181.674 135.601 181.959 134.851 182.065 134.385C182.373 133.037 182.654 131.699 183.128 130.396C184.827 125.73 188.441 123.542 192.748 121.521Z" fill="#7DD3FC"/>
<path d="M80.8027 158.989L81.3906 158.972C86.6042 159.012 90.7517 161.457 94.366 165.114L89.082 166.337C87.8083 166.583 86.4714 166.853 85.1731 166.671L84.9609 166.639C82.8628 166.335 81.2383 164.993 79.6753 163.659C78.1951 162.396 76.749 161.035 75.5312 159.514L79.2908 159.061L80.8027 158.989Z" fill="#EFF0DC"/>
<path d="M108.773 172.046C112.046 171.797 116.103 172.972 119.116 174.181C117.077 175.83 114.929 177.551 112.366 178.292C111.315 178.596 110.261 178.68 109.176 178.724C105.486 178.769 102.011 177.102 98.6987 175.682C102.037 174.116 105.033 172.45 108.773 172.046Z" fill="#7DD3FC"/>
<path d="M154.43 151.672C154.659 151.596 154.544 151.596 154.774 151.672L154.708 155.81C154.643 157.708 154.536 159.701 153.75 161.461C152.136 165.079 148.332 166.784 144.836 168.094L144.592 168.153C144.549 168.03 144.527 167.994 144.529 167.847C144.533 167.5 144.702 167.037 144.783 166.694L145.426 164.108C145.783 162.67 146.094 161.142 146.661 159.77C148.135 156.201 151.413 153.864 154.43 151.672Z" fill="#7DD3FC"/>
<path d="M59.9807 134.207C62.2913 135.027 64.543 135.657 66.7324 136.821C70.6538 138.906 73.7524 143.176 75.05 147.378L70.1572 146.283C68.9119 146.013 67.6101 145.777 66.4443 145.24C64.0007 144.115 62.9231 141.561 61.9265 139.229L59.9807 134.207Z" fill="#EFF0DC"/>
<path d="M56.6855 105.658C57.7756 106.504 58.7771 107.498 59.7197 108.505C60.9531 109.822 62.2927 111.36 63.158 112.954C64.8594 116.089 65.2642 120.252 65.1567 123.774L64.9409 123.84C62.5339 121.359 59.6123 119.41 56.5337 117.86C56.2537 113.816 56.2029 109.689 56.6855 105.658Z" fill="#EFF0DC"/>
<path d="M167.073 158.865C169.559 158.634 172.291 159.185 174.806 159.261L173.691 160.794C170.952 164.142 167.886 166.064 163.57 166.501C160.814 166.571 158.185 165.555 155.56 164.849L155.644 164.734C156.237 164.139 157.275 163.589 157.971 163.077C159.57 161.899 161.203 160.535 163.044 159.756C164.371 159.195 165.65 159.001 167.073 158.865Z" fill="#7DD3FC"/>
<path d="M59.9419 90.4497L60.0496 90.6172C61.0085 92.1111 62.0002 93.637 62.7397 95.2539C65.0552 100.317 64.8562 105.349 63.6946 110.677L62.8879 109.629C61.1035 107.281 59.1816 105.353 56.9675 103.412C57.0308 102.015 57.3682 100.517 57.6433 99.1428C58.2368 96.177 58.9902 93.3208 59.9419 90.4497Z" fill="#EFF0DC"/>
<path d="M56.7754 120.11L59.7087 121.834C65.8799 125.755 67.3562 129.016 68.9216 135.979L59.2649 131.892C57.9009 128.177 57.3108 124.021 56.7754 120.11Z" fill="#EFF0DC"/>
<path d="M104.79 157.784L108.323 159.219C112.028 160.963 115 163.677 116.959 167.282C117.813 168.854 118.422 170.529 119.025 172.208C116.44 171.937 113.103 171.005 110.899 169.615C106.764 167.006 105.816 162.203 104.79 157.784Z" fill="#7DD3FC"/>
<path d="M66.5813 147.577C68.9097 147.767 71.0654 147.947 73.324 148.589C77.991 149.917 81.5745 153.155 83.9189 157.37L78.8044 157.462C77.5876 157.49 76.1799 157.631 75.0083 157.249C71.1753 156 68.2866 150.922 66.5813 147.577Z" fill="#EFF0DC"/>
<path d="M153.387 166.787C157.423 166.37 160.597 168.111 164.228 169.57C160.905 171.246 158.073 173.06 154.327 173.699C153.206 173.786 152.024 173.816 150.912 173.625C148.204 173.163 145.669 171.818 143.16 170.756C146.254 169.087 149.891 167.298 153.387 166.787Z" fill="#7DD3FC"/>
<path d="M163.731 143.372L163.985 143.371C164.479 145.938 164.848 149.136 164.485 151.711L164.315 152.832C163.429 157.274 160.128 159.615 156.573 161.943C156.304 162.128 156.244 162.206 155.924 162.213L155.924 161.72C155.951 159.245 155.922 156.413 156.476 154.003C157.428 149.865 160.795 146.261 163.731 143.372Z" fill="#7DD3FC"/>
<path d="M94.8176 151.625C96.4731 152.692 98.1506 153.704 99.6252 155.022C102.621 157.701 103.697 160.949 104.857 164.673L106.401 169.393L102.479 167.473C101.042 166.775 99.6148 166.212 98.4214 165.12C94.9775 161.968 94.9946 155.95 94.8176 151.625Z" fill="#7DD3FC"/>
<path d="M172.262 97.552C175.967 99.7834 180.36 101.551 182.673 105.425C183.884 107.453 184.608 110.213 184.428 112.574C184.358 113.504 184.094 114.431 183.868 115.332C183.786 115.54 183.739 115.65 183.594 115.824C183.008 115.121 182.532 114.362 181.906 113.682C180.527 112.185 178.866 110.982 177.396 109.581C174.201 106.537 173 101.747 172.262 97.552Z" fill="#7DD3FC"/>
<path d="M145.449 157.166L145.736 157.119L145.87 157.227C145.076 160.106 144.211 163.225 142.633 165.787C141.98 166.848 141.184 167.878 140.203 168.656C137.861 170.513 134.278 171.447 131.409 172.123C131.169 172.117 131.161 172.155 130.963 171.997L132.12 169.113C134.907 163.04 139.278 159.471 145.449 157.166Z" fill="#7DD3FC"/>
<path d="M175.477 109.748C178.103 112.457 181.291 114.676 182.631 118.372C183.962 122.043 183.52 125.435 181.881 128.888C181.695 129.252 181.53 129.684 181.252 129.983C180.142 127.505 178.741 125.414 177.282 123.144C176.069 121.257 175.211 119.156 174.968 116.915C174.711 114.553 175.126 112.081 175.477 109.748Z" fill="#7DD3FC"/>
<path d="M76.3491 121.643L76.5991 121.743C77.9521 124.789 78.792 128.058 78.3298 131.405C78.0998 133.072 77.5388 134.74 76.9827 136.321C76.2053 138.532 75.4736 140.501 75.124 142.83L74.3547 141.891C72.7136 139.7 71.6335 137.087 71.3064 134.372C70.7141 129.457 73.4548 125.335 76.3491 121.643Z" fill="#7DD3FC"/>
<path d="M75.3599 109.267C76.4473 114.272 75.51 119.344 72.949 123.735C71.7156 125.85 70.302 127.762 69.1931 129.96L68.7258 129.104C67.9292 127.392 67.261 125.334 67.1528 123.436C66.9719 120.263 68.1587 117.2 70.1294 114.754C71.7 112.804 73.6936 111.15 75.3599 109.267Z" fill="#7DD3FC"/>
<path d="M80.0986 132.701C82.426 135.657 84.2578 139.48 84.2144 143.311C84.1726 146.998 83.4324 150.439 83.9463 154.158L82.6538 152.787C81.0469 151.2 78.95 149.546 78.0945 147.42C76.0298 142.29 78.0579 137.444 80.0986 132.701Z" fill="#7DD3FC"/>
<path d="M169.923 132.894C170.517 133.746 170.925 134.726 171.323 135.681C171.906 137.077 172.487 138.536 172.739 140.034L172.966 141.968C173.022 144.507 172.067 147.408 170.587 149.467C169.75 150.632 168.727 151.644 167.73 152.671L166.161 154.272C166.18 152.84 166.203 151.376 166.104 149.948C165.967 147.985 165.704 146.079 165.77 144.104C165.899 140.207 167.873 136.132 169.923 132.894Z" fill="#7DD3FC"/>
<path d="M86.1074 142.887C88.2598 144.823 90.365 147.189 91.8086 149.711C92.3521 150.661 92.7764 151.625 93.0356 152.69C93.5752 154.908 93.575 157.282 93.8784 159.546C93.9785 160.294 94.479 161.854 94.2993 162.525L93.9028 162.292L89.8323 159.521C89.198 159.108 87.7996 158.476 87.4241 157.854C84.5989 153.176 85.2197 147.996 86.1074 142.887Z" fill="#7DD3FC"/>
<path d="M173.616 120.394L177.212 125.829C178.111 127.329 178.976 128.862 179.328 130.593L179.374 130.826L179.474 131.305C180.116 134.901 178.725 137.951 176.704 140.801L175.311 142.728L173.774 137.482C173.124 135.399 172.417 133.249 172.27 131.056C172.038 127.594 172.964 123.795 173.616 120.394Z" fill="#7DD3FC"/>
<path d="M208.27 141.34L208.459 141.422C210.277 142.229 211.526 143.262 213.592 143.539C213.379 144.852 213.018 146.089 212.267 147.203C211.311 148.622 209.695 149.729 208.347 150.747L202.967 154.886C201.431 156.108 199.778 157.401 198.671 159.041C197.802 160.328 197.156 161.709 196.74 163.207C196.103 165.506 195.744 167.917 195.289 170.261C194.685 173.367 194.247 176.278 191.515 178.268C189.641 179.634 187.003 180.106 184.783 180.622C179.524 181.846 174.125 183.883 170.959 188.542C169.233 191.084 167.843 193.838 166.036 196.334L161.992 189.24L169.078 177.49L169.213 177.297C170.606 175.329 172.829 173.834 175.232 173.475C177.514 173.134 180 173.547 182.276 173.787C183.592 173.926 185.229 174.122 186.54 173.879L186.707 173.845C187.167 173.76 187.58 173.668 187.99 173.426C188.639 173.042 189.146 172.409 189.339 171.679L189.376 171.537C189.773 170.194 189.586 168.56 189.472 167.175C189.203 163.916 188.481 160.201 189.039 156.97C189.194 156.072 189.358 155.303 189.815 154.503L189.934 154.297C191.382 151.745 194.993 150.624 197.579 149.683L204.895 147.209C206.256 146.737 208.079 146.022 208.693 144.622C209.193 143.482 208.711 142.409 208.27 141.34Z" fill="#F97316"/>
<path d="M141.866 68.6453C143.943 69.3118 145.852 70.2925 147.757 71.3408C156.09 75.9255 162.844 82.9443 167.207 91.394C172.821 102.268 173.703 115.038 169.928 126.665C168.343 131.546 165.863 136.472 162.876 140.651C160.741 143.639 158.274 146.373 155.746 149.03C155.828 147.174 156.018 145.475 156.333 143.649C155.87 144.637 155.47 145.595 154.87 146.514C151.303 151.982 145.582 154.294 140.208 157.518C138.082 158.793 136.045 160.213 134.405 162.093C131.971 164.884 130.554 168.196 129.079 171.545L120.678 171.528C119.865 168.735 118.641 166.349 117.044 163.927C117.12 163.818 117.159 163.779 117.19 163.633C117.359 162.837 117.163 161.581 117.16 160.746L117.217 150.913C118.057 152.44 118.783 154.203 118.723 155.971L118.715 156.171C120.03 154.717 121.349 153.231 122.491 151.636C124.283 149.135 125.734 146.405 127.151 143.681C128.337 141.4 129.631 139.297 129.947 136.705C134.545 137.277 139.88 136.386 144.135 134.609C149.407 132.406 154.014 128.61 157.095 123.789C158.54 121.527 159.567 119.207 160.575 116.732C160.722 116.627 160.883 116.539 160.965 116.371C161.443 115.397 161.64 114.334 161.849 113.281C162.169 111.67 162.431 110.035 162.504 108.391C163.065 95.7954 157.387 84.1641 148.889 75.1284C147.469 73.6179 145.962 72.2031 144.396 70.845C143.594 70.1492 142.66 69.5225 141.949 68.7383L141.866 68.6453Z" fill="url(#paint0_linear_1037_29820)"/>
<path d="M79.3252 126.222C78.6355 123.945 78.0869 121.74 77.7759 119.381L76.7231 118.972C77.156 116.834 77.3643 114.73 77.2454 112.549L76.7754 107.795C76.7351 107.452 76.5383 106.964 76.5515 106.643C76.5632 106.363 76.8164 105.844 76.9009 105.545C77.5259 103.333 77.7791 101.134 78.0356 98.8579C78.0889 98.3865 78.3242 97.481 78.1155 97.1069L77.7588 97.0776C77.4155 96.825 77.6057 96.6135 77.7378 96.2473C78.6707 93.6614 79.4324 91.323 79.4729 88.5478C79.4805 88.0268 79.552 87.3867 79.4067 86.8887C79.0786 86.9775 78.8479 87.1235 78.5317 86.9751C79.002 85.8669 79.5291 84.758 79.8574 83.5976C80.5867 81.0208 80.5422 77.7847 79.7322 75.2336C78.3884 76.1758 77.1423 77.7009 76.0869 78.9646C71.4084 84.5664 67.5669 91.1721 66.1733 98.4011C65.7661 97.437 65.5317 96.4092 65.1331 95.4355C64.0212 92.7205 62.4338 90.3474 60.6892 88.0049L60.9026 87.3872C68.0271 69.905 81.6765 55.6868 99.1584 48.416C115.5 41.6201 134.292 41.4927 150.68 48.2622C164.846 54.1138 176.948 64.4167 184.657 77.7251C186.554 80.9998 188.114 84.5127 189.563 88.0056C187.315 90.832 185.402 94.6772 184.454 98.1636L183.188 95.2C182.804 94.406 182.274 93.6589 181.936 92.8479C181.554 91.9331 181.319 90.957 180.948 90.0332C180.286 88.3801 179.51 86.7129 178.586 85.1899C176.785 82.2224 174.512 79.4807 172.171 76.9236C171.787 76.5037 171.134 75.6123 170.607 75.4424C170.423 75.3833 170.346 75.4993 170.199 75.5933C169.979 75.9216 169.917 76.238 169.872 76.627C169.547 79.427 169.585 83.1199 170.823 85.7017C171.062 86.2007 171.468 86.6558 171.814 87.0862L171.748 87.2024C171.588 87.1782 171.362 87.125 171.204 87.1499C170.902 87.197 170.728 87.3245 170.606 87.6084C170.442 87.9888 170.516 88.5869 170.518 89.0012C170.53 91.1387 170.757 92.9441 171.355 94.9956L168.699 89.9658C162.849 78.7114 152.022 69.6382 139.912 65.854C128.254 62.2109 115.396 63.1118 104.538 68.7915C96.3513 73.0737 90.0708 79.4915 85.5327 87.5059C84.5422 89.2551 83.4045 91.2014 82.8066 93.1191C82.9517 93.1309 83.2766 92.3784 83.342 92.2444C84.842 89.1611 86.6494 86.2415 88.7776 83.552C94.1736 76.7332 101.378 71.7761 109.399 68.5515C115.911 65.9333 122.845 65.1558 129.796 65.791C133.873 66.1636 138.091 67.0349 141.866 68.6453L141.949 68.7383C142.66 69.5225 143.594 70.1492 144.396 70.845C145.962 72.2031 147.469 73.6179 148.889 75.1284C157.387 84.1641 163.065 95.7954 162.504 108.391C162.431 110.035 162.169 111.67 161.849 113.281C161.64 114.334 161.443 115.397 160.965 116.371C160.883 116.539 160.722 116.627 160.575 116.732C162.378 110.239 162.109 103.539 159.027 97.4368C156.555 92.5442 151.962 87.7129 146.677 85.9709C147.255 85.5012 148.236 84.8049 148.454 84.0762C148.571 83.6887 148.428 83.2222 148.222 82.8877C147.78 82.1689 146.868 81.5354 146.203 81.0393C142.923 78.5933 139.341 76.9856 135.323 76.2026C127.489 74.6763 120.433 77.3301 114.124 81.8723C111.153 84.0112 108.358 86.3547 105.152 88.155C102.368 89.7183 99.3 90.5376 96.4355 91.908C92.9839 93.5593 89.7232 96.0071 86.542 98.1338L86.5835 105.666L82.1526 102.145C81.636 101.719 80.7197 100.652 80.1204 100.504L79.2412 105.103C78.6453 108.906 78.3625 112.766 78.457 116.615C78.5093 118.738 78.6333 120.966 79.0974 123.043C79.1321 123.199 79.1433 123.326 79.1582 123.482C79.1931 123.85 79.3328 124.222 79.4124 124.573C79.4609 124.786 79.4778 124.966 79.5354 125.183L79.5811 125.549L79.623 125.671C79.677 125.84 79.6606 125.985 79.6521 126.16L79.7729 126.345L79.3252 126.222Z" fill="#FDBA74"/>
<path d="M86.5835 105.666L86.542 98.1338C89.7232 96.0071 92.9839 93.5593 96.4355 91.908C99.3 90.5376 102.368 89.7183 105.152 88.155C108.358 86.3547 111.153 84.0112 114.124 81.8723C120.433 77.3301 127.489 74.6763 135.323 76.2026C139.341 76.9856 142.923 78.5933 146.203 81.0393C146.868 81.5354 147.78 82.1689 148.222 82.8877C148.428 83.2222 148.571 83.6887 148.454 84.0762C148.236 84.8049 147.255 85.5012 146.677 85.9709C151.962 87.7129 156.555 92.5442 159.027 97.4368C162.109 103.539 162.378 110.239 160.575 116.732C159.567 119.207 158.54 121.527 157.095 123.789C154.014 128.61 149.407 132.406 144.135 134.609C139.88 136.386 134.545 137.277 129.947 136.705C129.631 139.297 128.337 141.4 127.151 143.681C125.734 146.405 124.283 149.135 122.491 151.636C121.349 153.231 120.03 154.717 118.715 156.171L118.723 155.971C118.783 154.203 118.057 152.44 117.217 150.913L117.16 160.746C117.163 161.581 117.359 162.837 117.19 163.633C117.159 163.779 117.12 163.818 117.044 163.927C115.789 162.32 114.457 160.898 112.798 159.699C108.149 156.34 102.539 154.943 98.5181 150.611C97.4939 149.522 96.865 148.408 96.2993 147.028L95.7127 150.181C94.2305 149.04 92.9207 147.653 91.6333 146.301C89.22 143.767 86.8547 141.079 85.083 138.048L82.7817 133.827C82.3345 132.956 81.9497 132.042 81.4336 131.208C81.3225 131.176 81.2896 131.17 81.1768 131.115C80.3508 130.711 79.5723 127.083 79.3252 126.222L79.7729 126.345L79.6521 126.16C79.6606 125.985 79.677 125.84 79.623 125.671L79.5811 125.549L79.5354 125.183C79.4778 124.966 79.4609 124.786 79.4124 124.573C79.3328 124.222 79.1931 123.85 79.1582 123.482C79.1433 123.326 79.1321 123.199 79.0974 123.043C78.6333 120.966 78.5093 118.738 78.457 116.615C78.3625 112.766 78.6453 108.906 79.2412 105.103L80.1204 100.504C80.7197 100.652 81.636 101.719 82.1526 102.145L86.5835 105.666Z" fill="#0369A1"/>
<path d="M103.198 110.83C101.111 107.229 97.4717 104.878 94.0923 102.622L88.9807 99.0339C90.02 98.1143 91.3096 97.3345 92.4915 96.6118C93.7908 95.8176 95.1013 95.0125 96.479 94.3599C99.0425 93.1455 101.735 92.2166 104.355 91.1313L104.37 109.07C104.371 109.631 104.457 110.299 104.373 110.844C103.958 110.917 103.615 110.882 103.198 110.83Z" fill="#7DD3FC"/>
<path d="M98.3159 136.093L103.139 139.198C108.303 142.2 114.453 145.286 117.217 150.913L117.16 160.746C117.163 161.581 117.359 162.837 117.19 163.633C117.159 163.779 117.12 163.818 117.044 163.927C115.789 162.32 114.457 160.898 112.798 159.699C108.149 156.34 102.539 154.943 98.5181 150.611C98.2788 148.92 98.4246 147.067 98.3875 145.35C98.3213 142.302 98.1028 139.133 98.3159 136.093Z" fill="#F97316"/>
<path d="M106.464 90.0664L111.705 86.4475C114.272 84.5234 116.742 82.5149 119.568 80.9636C124.236 78.4004 129.93 77.3545 135.176 78.4326C138.983 79.2153 142.809 81.0562 145.875 83.4148L143.717 85.5339C139.156 84.8892 134.374 86.241 130.704 89.0203C128.908 90.3801 127.276 92.1267 125.966 93.9563C125.591 94.4797 125.268 95.029 124.952 95.5901C124.865 95.7451 124.693 96.1682 124.562 96.272C124.331 96.4556 124.127 96.6108 123.964 96.8628L123.962 96.9861L123.81 97.1074C123.601 96.8557 123.634 96.7517 123.591 96.436C123.578 96.7463 123.607 97.0337 123.455 97.3101L123.537 90.207L108.494 90.2158C107.929 90.2151 107.227 90.283 106.684 90.1326L106.464 90.0664Z" fill="#7DD3FC"/>
<path d="M106.464 90.0664L106.684 90.1326C107.227 90.283 107.929 90.2151 108.494 90.2158L123.537 90.207L123.455 97.3101C123.607 97.0337 123.578 96.7463 123.591 96.436C123.634 96.7517 123.601 96.8557 123.81 97.1074L123.962 96.9861L123.964 96.8628C124.127 96.6108 124.331 96.4556 124.562 96.272C123.651 98.2402 123.062 100.169 122.536 102.267L117.411 102.249C117.087 102.248 116.16 102.154 115.907 102.267C115.769 102.328 115.659 102.441 115.536 102.528C118.627 103.005 120.908 103.904 122.796 106.503C124.737 109.175 125.266 113.361 124.732 116.558C124.173 119.902 122.685 122.8 120.038 124.964C117.637 123.728 115.023 122.821 112.697 121.464C111.268 120.631 109.961 119.552 108.684 118.504C107.296 117.366 106.094 116.3 105.109 114.785C104.867 114.551 104.618 113.897 104.465 113.579C104.028 112.674 103.557 111.769 103.198 110.83C103.615 110.882 103.958 110.917 104.373 110.844C104.457 110.299 104.371 109.631 104.37 109.07L104.355 91.1313L106.464 90.0664Z" fill="#EFF0DC"/>
<path d="M123.455 97.3101C123.607 97.0337 123.578 96.7463 123.591 96.436C123.634 96.7517 123.601 96.8557 123.81 97.1074L123.962 96.9861L123.964 96.8628C124.127 96.6108 124.331 96.4556 124.562 96.272C123.651 98.2402 123.062 100.169 122.536 102.267L117.411 102.249C117.087 102.248 116.16 102.154 115.907 102.267C115.769 102.328 115.659 102.441 115.536 102.528C113.879 102.528 112.422 102.664 110.821 103.11L110.799 97.5371L111.121 97.5398L120.95 97.5571C121.508 97.5537 122.738 97.708 123.227 97.5364C123.328 97.501 123.379 97.3855 123.455 97.3101Z" fill="#30B3EC"/>
<path d="M104.373 110.844L107.652 110.857C108.536 110.868 109.293 111.058 110.113 110.657C111.647 109.906 113.741 109.691 115.357 110.303C116.336 110.674 117.058 111.323 117.442 112.305C117.882 113.432 117.933 115.013 117.444 116.122C117.134 116.826 116.702 117.347 115.969 117.62C114.721 118.083 113.202 118.001 111.92 117.723L111.687 117.674C110.396 117.396 108.768 116.832 107.638 116.146C107.767 115.705 107.877 115.247 108.06 114.824L105.109 114.785C104.867 114.551 104.618 113.897 104.465 113.579C104.028 112.674 103.557 111.769 103.198 110.83C103.615 110.882 103.958 110.917 104.373 110.844Z" fill="#0173E0"/>
<path d="M80.1204 100.504C80.7197 100.652 81.636 101.719 82.1526 102.145L86.5835 105.666L91.7969 109.993C93.042 111.012 94.3333 112.007 95.376 113.24C97.2669 115.477 98.4175 118.185 99.011 121.032C96.0086 123.988 92.1194 125.493 88.9089 128.125L98.3159 136.093C98.1028 139.133 98.3213 142.302 98.3875 145.35C98.4246 147.067 98.2788 148.92 98.5181 150.611C97.4939 149.522 96.865 148.408 96.2993 147.028L95.7127 150.181C94.2305 149.04 92.9207 147.653 91.6333 146.301C89.22 143.767 86.8547 141.079 85.083 138.048L82.7817 133.827C82.3345 132.956 81.9497 132.042 81.4336 131.208C81.3225 131.176 81.2896 131.17 81.1768 131.115C80.3508 130.711 79.5723 127.083 79.3252 126.222L79.7729 126.345L79.6521 126.16C79.6606 125.985 79.677 125.84 79.623 125.671L79.5811 125.549L79.5354 125.183C79.4778 124.966 79.4609 124.786 79.4124 124.573C79.3328 124.222 79.1931 123.85 79.1582 123.482C79.1433 123.326 79.1321 123.199 79.0974 123.043C78.6333 120.966 78.5093 118.738 78.457 116.615C78.3625 112.766 78.6453 108.906 79.2412 105.103L80.1204 100.504Z" fill="#EA580C"/>
<path d="M122.536 102.267L124.597 102.296L125.204 99.7197C126.632 95.158 129.187 91.0359 133.53 88.7476C137.52 86.6453 142.073 86.4209 146.349 87.8086C151.012 89.3215 154.769 93.3203 156.915 97.6191C159.934 103.665 160.461 110.405 158.295 116.819C155.942 123.784 151.231 128.985 144.652 132.236C139.883 134.592 134.958 134.914 129.745 134.875C128.252 131.215 126.149 128.694 122.807 126.594C121.927 126.042 120.851 125.585 120.038 124.964C122.685 122.8 124.173 119.902 124.732 116.558C125.266 113.361 124.737 109.175 122.796 106.503C120.908 103.904 118.627 103.005 115.536 102.528C115.659 102.441 115.769 102.328 115.907 102.267C116.16 102.154 117.087 102.248 117.411 102.249L122.536 102.267Z" fill="#0284C7"/>
<path d="M136.847 89.0295C139.104 88.8083 141.546 89.0999 143.51 90.3101C146.198 91.967 148.056 95.0564 148.773 98.0837C149.542 101.332 149.37 104.581 149.312 107.893C149.257 111.021 149.238 114.494 148.55 117.554C148.121 119.461 147.332 121.348 146.292 123.001C144.447 125.931 141.98 127.424 138.67 128.159C135.937 128.525 133.331 128.083 131.052 126.477C128.181 124.452 126.697 121.451 126.119 118.06C125.521 114.548 125.862 110.601 126.038 107.051C126.159 104.598 126.202 102.025 126.737 99.6213C127.211 97.4929 127.951 95.4111 129.225 93.6218C131.097 90.9927 133.707 89.5535 136.847 89.0295Z" fill="#F5E0B4"/>
<path d="M137.404 95.9819C138.303 95.9211 139.203 96.0842 139.976 96.5649C140.966 97.1807 141.495 98.2095 141.738 99.3193L141.785 99.5405C142.293 101.896 142.048 104.653 141.974 107.068L141.607 114.136C141.456 115.87 141.349 117.799 140.497 119.355C139.931 120.389 139.066 120.812 137.988 121.137C137.097 121.227 135.917 121.153 135.15 120.658C134.184 120.034 133.65 118.863 133.426 117.775L133.382 117.554C132.769 114.555 133.203 111.078 133.349 108.032C133.469 105.522 133.44 102.866 133.907 100.391C134.087 99.438 134.397 98.4683 134.925 97.6472C135.556 96.6641 136.286 96.2378 137.404 95.9819Z" fill="#0284C7"/>
<path d="M41.9653 151.484C39.6104 149.754 36.9722 147.611 36.2598 144.64L36.2095 144.424C35.8154 142.805 36.0601 141.154 36.3254 139.532L37.4092 133.231C37.6365 131.389 37.5874 129.405 37.24 127.579C36.7551 125.03 35.677 122.749 34.2717 120.583C32.6582 118.095 30.573 115.726 30.0374 112.716L29.9978 112.488C29.8188 111.486 29.8079 110.209 30.0769 109.223L30.1387 109.009C30.6599 107.089 31.7175 105.557 32.7915 103.909C34.5894 101.151 36.365 98.5476 37.0852 95.2759C37.9014 91.5698 37.2471 87.6174 36.8992 83.8833C36.752 82.3037 36.5442 80.5317 36.8562 78.968C37.1313 77.5886 37.675 76.2219 38.5378 75.1035C39.46 73.908 40.7104 73.031 41.8809 72.1028C45.4622 69.2632 49.5393 66.6094 51.8188 62.5376C53.1162 60.2207 53.9404 57.4941 54.6951 54.9578C55.6016 51.9097 56.2798 48.248 58.6621 45.9639C61.5015 43.2415 66.1177 43.072 69.7632 42.2349C71.9939 41.7229 74.2068 40.9556 76.127 39.6873C79.0085 37.7837 81.189 34.8933 83.1917 32.1333C84.6729 30.0918 86.0981 27.8948 88.2554 26.4956C92.0605 24.0275 95.8865 25.5969 99.9353 26.2664C102.481 26.6873 104.949 26.8311 107.507 26.4019C111.042 25.8083 114.199 23.7935 117.246 22.0328C120.108 20.3796 122.593 18.7609 126.055 19.0616C127.72 19.2062 129.444 20.0619 130.898 20.8349C134.48 22.7398 137.75 25.3779 141.785 26.2717C145.209 27.03 148.996 26.2209 152.388 25.6484C154.208 25.3413 156.106 24.9958 157.959 25.1731C161.319 25.4946 163.644 28.2429 165.568 30.7227L169.702 36.1323C170.871 37.5962 172.14 39.1108 173.727 40.1328C177.116 42.3149 181.636 42.6685 185.509 43.5193C187.34 43.9216 189.052 44.3643 190.673 45.3423C191.22 45.6724 191.686 46.0789 192.132 46.5342C193.867 48.3037 194.477 50.6233 195.064 52.9568C195.89 56.2419 196.487 60.1096 198.309 63.0046C200.627 66.687 204.558 68.9541 207.891 71.6047C209.022 72.5042 210.205 73.4426 211.126 74.5593C211.453 74.9568 211.764 75.3679 212.004 75.8252C213.24 78.1819 213.003 80.6865 212.793 83.2327C212.509 86.6658 211.801 90.593 212.41 94.0093C213.227 98.5874 216.478 102.332 218.31 106.528C219.001 108.112 219.585 109.845 219.578 111.594C219.567 114.758 217.347 117.663 215.842 120.31C214.523 122.63 213.223 125.062 212.673 127.694C211.551 133.066 214.11 138.225 213.592 143.539C211.526 143.262 210.277 142.229 208.459 141.422L208.27 141.34C208.711 142.409 209.193 143.482 208.693 144.622C208.079 146.022 206.256 146.737 204.895 147.209L197.579 149.683C194.993 150.624 191.382 151.745 189.934 154.297L189.815 154.503C189.358 155.303 189.194 156.072 189.039 156.97C188.481 160.201 189.203 163.916 189.472 167.175C189.586 168.56 189.773 170.194 189.376 171.537L189.339 171.679C189.146 172.409 188.639 173.042 187.99 173.426C187.58 173.668 187.167 173.76 186.707 173.845L186.54 173.879C185.229 174.122 183.592 173.926 182.276 173.787C180 173.547 177.514 173.134 175.232 173.475C172.829 173.834 170.606 175.329 169.213 177.297L169.078 177.49L161.992 189.24L155.316 176.994C159.981 174.795 164.548 172.223 168.681 169.121C179.981 160.64 188.369 148.676 193.128 135.434C194.206 132.435 194.916 129.411 195.532 126.292C198.49 111.33 196.938 95.2317 190.369 81.3992C182.022 63.8235 166.837 50.123 148.486 43.6707C131.178 37.5847 111.468 38.531 94.949 46.5237C89.4834 49.1685 84.2686 52.3682 79.5569 56.2073C69.3237 64.5457 61.5579 75.6858 57.2397 88.1394C52.6199 101.463 51.7495 115.918 55.2983 129.609C56.4956 134.228 58.2402 138.701 60.3254 142.989C67.627 158.002 80.1697 169.99 95.2349 177.053L87.5181 190.515L84.1228 196.66C82.083 193.587 80.2766 190.113 77.6934 187.465C76.1501 185.883 74.4065 184.452 72.4368 183.433C70.6243 182.496 68.6116 181.823 66.6616 181.236C63.6316 180.323 59.7075 179.688 57.4451 177.307C55.6394 175.407 54.9939 172.117 54.375 169.642C53.4722 166.031 52.6653 162.165 50.3999 159.119C48.1736 156.125 44.8494 153.813 41.9653 151.484Z" fill="#EA580C"/>
<path d="M43.2742 147.188C46.3621 148.825 50.1511 149.339 53.5117 150.272C55.5557 150.841 57.9307 151.658 59.4724 153.188C60.5027 154.21 61.1145 155.367 61.583 156.727C61.9663 157.84 62.0125 159.146 62.0073 160.315C61.9954 163.115 61.4661 165.866 61.1475 168.64C61.0029 169.897 60.7539 171.393 61.1208 172.625C61.3081 173.254 61.7317 173.731 62.3115 174.027C63.4475 174.608 64.9348 174.481 66.1799 174.458L73.5054 174.151C74.7461 174.138 76.073 174.096 77.283 174.397L77.4966 174.449C80.1182 175.107 81.7788 176.646 83.1189 178.907C85.2234 182.457 86.0151 186.701 87.5181 190.515L84.1228 196.66C82.083 193.587 80.2766 190.113 77.6934 187.465C76.1501 185.883 74.4065 184.452 72.4368 183.433C70.6243 182.496 68.6116 181.823 66.6616 181.236C63.6316 180.323 59.7075 179.688 57.4451 177.307C55.6394 175.407 54.9939 172.117 54.375 169.642C53.4722 166.031 52.6653 162.165 50.3999 159.119C48.1736 156.125 44.8494 153.813 41.9653 151.484C42.6548 150.754 42.3865 149.373 42.6772 148.414L42.9753 147.244L43.1194 147.319L43.2742 147.188Z" fill="#F97316"/>
<path d="M41.9653 151.484C39.6104 149.754 36.9722 147.611 36.2598 144.64L36.2095 144.424C35.8154 142.805 36.0601 141.154 36.3254 139.532L37.4092 133.231C37.6365 131.389 37.5874 129.405 37.24 127.579C36.7551 125.03 35.677 122.749 34.2717 120.583C32.6582 118.095 30.573 115.726 30.0374 112.716L29.9978 112.488C29.8188 111.486 29.8079 110.209 30.0769 109.223L30.1387 109.009C30.6599 107.089 31.7175 105.557 32.7915 103.909C34.5894 101.151 36.365 98.5476 37.0852 95.2759C37.9014 91.5698 37.2471 87.6174 36.8992 83.8833C36.752 82.3037 36.5442 80.5317 36.8562 78.968C37.1313 77.5886 37.675 76.2219 38.5378 75.1035C39.46 73.908 40.7104 73.031 41.8809 72.1028C45.4622 69.2632 49.5393 66.6094 51.8188 62.5376C53.1162 60.2207 53.9404 57.4941 54.6951 54.9578C55.6016 51.9097 56.2798 48.248 58.6621 45.9639C61.5015 43.2415 66.1177 43.072 69.7632 42.2349C71.9939 41.7229 74.2068 40.9556 76.127 39.6873C79.0085 37.7837 81.189 34.8933 83.1917 32.1333C84.6729 30.0918 86.0981 27.8948 88.2554 26.4956C92.0605 24.0275 95.8865 25.5969 99.9353 26.2664C102.481 26.6873 104.949 26.8311 107.507 26.4019C111.042 25.8083 114.199 23.7935 117.246 22.0328C120.108 20.3796 122.593 18.7609 126.055 19.0616C127.72 19.2062 129.444 20.0619 130.898 20.8349C134.48 22.7398 137.75 25.3779 141.785 26.2717C145.209 27.03 148.996 26.2209 152.388 25.6484C154.208 25.3413 156.106 24.9958 157.959 25.1731C161.319 25.4946 163.644 28.2429 165.568 30.7227L169.702 36.1323C170.871 37.5962 172.14 39.1108 173.727 40.1328C177.116 42.3149 181.636 42.6685 185.509 43.5193C187.34 43.9216 189.052 44.3643 190.673 45.3423C191.22 45.6724 191.686 46.0789 192.132 46.5342C193.867 48.3037 194.477 50.6233 195.064 52.9568C195.89 56.2419 196.487 60.1096 198.309 63.0046C200.627 66.687 204.558 68.9541 207.891 71.6047C209.022 72.5042 210.205 73.4426 211.126 74.5593C211.453 74.9568 211.764 75.3679 212.004 75.8252C213.24 78.1819 213.003 80.6865 212.793 83.2327C212.509 86.6658 211.801 90.593 212.41 94.0093C213.227 98.5874 216.478 102.332 218.31 106.528C219.001 108.112 219.585 109.845 219.578 111.594C219.567 114.758 217.347 117.663 215.842 120.31C214.523 122.63 213.223 125.062 212.673 127.694C211.551 133.066 214.11 138.225 213.592 143.539C211.526 143.262 210.277 142.229 208.459 141.422L208.27 141.34L204.839 136.499C202.954 133.874 199.99 130.367 200.567 126.876C201.088 123.729 204.481 121.263 206.835 119.395L212.006 115.312C213.096 114.409 214.781 113.045 215.149 111.626C215.349 110.854 215.063 110.09 214.633 109.45C213.853 108.292 212.566 107.419 211.473 106.581L207.214 103.328C205.02 101.665 202.31 99.7051 201.178 97.1069C200.713 96.04 200.665 94.7803 200.845 93.6416C201.459 89.7771 204.21 86.2156 206.287 82.9995C207.006 81.8872 207.839 80.6765 208.248 79.4067C208.48 78.6843 208.54 77.9509 208.093 77.3037C207.298 76.1519 205.462 75.8015 204.185 75.4871L198.303 74.0315C195.241 73.2412 191.051 72.2402 189.362 69.2749C187.386 65.8066 188.294 60.3069 188.851 56.5208C189.134 54.5994 190.249 50.4236 188.985 48.8254C188.606 48.3455 187.935 48.051 187.333 47.9875C185.909 47.8374 184.424 48.1218 183.022 48.3503C178.837 49.0325 174.141 50.3948 169.922 49.4592L169.717 49.4153C167.46 48.9126 165.754 47.489 164.538 45.5671C162.467 42.2949 161.681 38.0283 160.661 34.3328C160.303 33.0349 159.991 31.5935 159.363 30.3926C159.01 29.7173 158.433 28.9846 157.654 28.8113C155.81 28.4006 153.359 30.1743 151.893 31.165C148.166 33.6838 144.256 37.4915 139.381 36.5686C137.807 36.2705 136.307 35.335 135.16 34.2407C133.079 32.2563 131.452 29.5859 129.676 27.3091C128.81 26.2002 127.799 24.9075 126.557 24.1979C125.662 23.6857 124.615 23.5708 123.718 24.144C118.216 27.6609 116.279 38.2161 108.114 36.5513C106.935 36.311 105.773 35.7866 104.75 35.1611C102.334 33.6846 100.156 31.8267 97.7783 30.2825C96.8628 29.688 95.7952 28.9626 94.7266 28.6943C94.0476 28.5237 93.4321 28.5322 92.8345 28.9214C91.97 29.4841 91.4727 30.585 91.0615 31.4941C89.8975 34.0686 89.1567 36.8818 88.3003 39.5735C87.0232 43.5874 85.7705 47.5444 81.543 49.3098C76.978 51.2158 71.2119 49.5012 66.5283 48.7002C65.3186 48.4932 63.71 48.1169 62.4929 48.4175C61.772 48.5957 61.4565 49.071 61.3286 49.7742L61.2698 50.1709L61.2373 50.375C61.0325 51.8054 61.1912 53.3794 61.3074 54.8127C61.5215 57.4519 61.8745 60.0876 61.9229 62.7366C61.9456 63.969 61.9641 65.2002 61.6787 66.4062L61.6323 66.6106C61.2024 68.4402 60.2026 70.1589 58.573 71.1589C55.457 73.071 51.3218 73.8328 47.822 74.7705C46.5247 75.1182 45.04 75.4321 43.8574 76.0737C43.3022 76.375 42.7937 76.8518 42.6162 77.4788C42.3738 78.3345 42.75 79.4294 43.0388 80.2305C43.9614 82.7886 45.4661 85.2595 46.7124 87.6807C48.1899 90.5518 49.8867 93.5911 48.7021 96.8918C47.864 99.2271 45.9697 101 44.1475 102.591L38.7969 107.135C37.7505 108.072 36.1155 109.467 35.8535 110.915C35.6899 111.817 36.2188 112.779 36.6985 113.502C37.3765 114.523 38.3862 115.432 39.2803 116.273L45.3291 121.753C46.5857 122.99 47.8027 124.286 48.5811 125.886C49.231 127.221 49.4724 128.646 49.1963 130.113C48.2134 135.334 43.4172 139.03 42.1047 144.104L42.0618 144.265C41.8911 144.941 41.9844 145.624 42.3391 146.224C42.5693 146.613 42.9348 146.898 43.2742 147.188L43.1194 147.319L42.9753 147.244L42.6772 148.414C42.3865 149.373 42.6548 150.754 41.9653 151.484Z" fill="#FDBA74"/>
<path d="M231.627 188.63L250 174.876V206.631V250H167.361H83.9482H0V211.298V177.148C1.60056 177.975 3.11006 178.986 4.63955 179.938L10.6761 183.659L17.8763 188.178C18.8706 188.829 19.9505 189.43 20.8854 190.16C22.1018 189.213 23.5535 188.471 24.8213 187.575L33.2422 181.032C34.6704 179.914 36.3359 178.862 37.6504 177.634C38.5273 177.276 39.4712 177.355 40.3999 177.374C44.3682 177.455 48.4536 178.447 52.3105 179.345C52.8882 180.097 53.4565 180.877 54.1797 181.497C56.3564 183.365 59.1194 184.18 61.8325 184.939L67.802 186.644C69.1101 187.135 70.4661 187.631 71.6292 188.422C73.7104 189.839 75.1731 191.857 76.5498 193.927L81.2922 201.629L69.2874 223.046L85.1145 219.696C86.1238 219.484 90.9641 218.21 91.6328 218.392L97.6091 243.526L107.361 224.678L113.892 211.792C114.26 211.068 115.361 208.42 115.819 208.095C116.27 207.773 117.352 207.554 117.904 207.356C119.704 206.711 121.483 205.952 123.315 205.402C126.098 204.565 129.012 206.094 131.592 207.034C132.342 207.307 133.278 207.492 133.958 207.897C134.259 208.076 134.609 208.921 134.773 209.24L136.804 213.279L146.595 232.3L152.48 243.849L154.487 235.75L157.059 225.503L158.151 220.872C158.33 220.115 158.444 219.198 158.793 218.513L176.865 222.021C177.893 222.208 179.519 222.79 180.518 222.676L168.264 200.47C170.199 198.505 171.797 196.441 173.365 194.179C174.172 192.846 174.958 191.485 175.995 190.312C178.984 186.931 183.516 186.155 187.705 185.136C189.468 184.707 191.264 184.293 192.895 183.473C194.32 182.756 195.396 181.719 196.639 180.758C200.178 181.102 203.968 180.447 207.424 181.465C212.218 182.877 216.587 185.403 221.313 187.003C224.721 188.156 228.04 188.604 231.627 188.63Z" fill="#F97316"/>
<path d="M167.361 250C167.47 249.741 167.645 249.541 167.83 249.331C168.442 248.638 169.219 248.042 169.879 247.385L174.602 242.577C177.931 239.183 181.335 235.651 185.931 234.036C187.348 233.539 188.813 233.314 190.304 233.196C192.255 233.041 194.271 233.155 196.229 233.159C200.137 233.165 203.816 232.547 207.313 230.715C211.465 228.54 215.026 224.932 218.526 221.863C226.369 214.988 235.04 209.246 245.454 207.297C246.929 207.021 248.501 206.696 250 206.631V250H167.361Z" fill="#EA580C"/>
<path d="M0 211.298L9.92446 210.22C12.8959 210.018 15.7931 209.949 18.7055 210.689C23.9422 212.02 27.8657 215.51 32.1467 218.585C35.9106 221.289 39.9924 223.968 44.2969 225.721C46.7595 226.724 49.467 227.255 52.1074 227.504C57.5806 228.02 63.3103 227.655 67.8525 231.293C70.7322 233.6 73.0715 236.444 75.4155 239.271L83.9482 250H0V211.298Z" fill="#EA580C"/>
<path d="M0 0H250V129.607V174.876L231.627 188.63C228.04 188.604 224.721 188.156 221.313 187.003C216.587 185.403 212.218 182.877 207.424 181.465C203.968 180.447 200.178 181.102 196.639 180.758C197.344 179.902 198 179.06 198.503 178.068C200.029 175.056 200.33 171.529 200.925 168.251C201.282 166.286 201.727 164.295 202.808 162.586C203.879 160.893 205.429 159.626 206.99 158.405C209.999 156.049 213.638 153.836 215.966 150.783C217.956 148.173 218.89 144.955 218.841 141.685C218.816 140.006 218.545 138.312 218.318 136.651C217.96 134.693 217.512 132.63 217.592 130.635C217.706 127.768 219.117 125.339 220.381 122.841C221.902 119.833 223.577 116.754 224.324 113.444C225.657 107.584 222.307 102.75 219.543 97.9319C218.678 96.4224 217.714 94.7729 217.438 93.0298C217.218 91.644 217.432 89.9817 217.551 88.5881C217.878 84.7419 218.609 80.5071 217.869 76.6895C216.398 68.8928 208.068 66.4143 203.387 61.0586C202.122 59.2673 201.614 57.2864 201.027 55.2063C200.312 52.6702 199.765 50.0164 198.845 47.5464C197.699 44.469 195.585 41.884 192.657 40.3442C190.889 39.4146 188.947 38.905 187.012 38.4575C182.903 37.5076 178.617 37.5298 175.248 34.6746C174.355 33.8296 173.619 32.8232 172.87 31.8528L169.436 27.3748C167.316 24.6284 164.926 21.7387 161.487 20.6642C159.708 20.1084 158.047 19.9123 156.183 19.9111L150.736 20.6212C147.28 21.1664 144.065 21.8443 140.705 20.4455C138.268 19.4309 135.884 17.8387 133.632 16.4642C129.224 14.1886 125.506 13.0487 120.574 14.6019C115.298 16.2635 111.139 20.8872 105.463 21.442C100.256 21.7618 95.3567 19.278 90.0879 20.3636C86.9375 21.0128 84.6936 22.53 82.4136 24.7625C79.0852 28.4763 76.7351 33.8604 72.0227 36.0522C70.6431 36.6941 69.1755 37.0369 67.7073 37.4062C62.2427 38.5386 56.6467 39.4832 53.3418 44.5405C52.4607 45.8889 51.9121 47.3945 51.3813 48.9036L49.0742 56.105C48.6135 57.509 48.0806 59.2195 47.2207 60.4336C46.0896 62.2729 44.6575 63.4685 42.9773 64.7966C38.8579 68.053 34.4148 70.7625 32.3535 75.8347C31.793 77.5723 31.1917 79.7971 31.4658 81.6357L31.8975 86.6133C32.051 88.3032 32.292 90.0693 32.2585 91.7666C32.1719 92.9602 32.0852 94.2439 31.7551 95.3997C30.8586 98.5378 28.6982 101.342 27.0803 104.15C25.2942 108.014 24.6289 111.818 26.1223 115.907C27.2478 118.988 29.251 121.733 30.739 124.648C31.4641 126.146 32.0557 127.632 32.2751 129.294C32.5015 131.01 32.2593 132.697 32.0042 134.391C31.3442 138.774 29.8865 143.493 31.7124 147.778C32.3914 149.371 33.3892 150.637 34.5432 151.912C36.8479 154.097 39.4102 155.947 41.8867 157.927C42.9482 158.775 44.0708 159.619 45.0308 160.579C48.6497 164.197 48.9758 169.496 50.2886 174.19C50.7913 175.986 51.4929 177.671 52.3105 179.345C48.4536 178.447 44.3682 177.455 40.3999 177.374C39.4712 177.355 38.5273 177.276 37.6504 177.634C36.3359 178.862 34.6704 179.914 33.2422 181.032L24.8213 187.575C23.5535 188.471 22.1018 189.213 20.8854 190.16C19.9505 189.43 18.8706 188.829 17.8763 188.178L10.6761 183.659L4.63955 179.938C3.11006 178.986 1.60056 177.975 0 177.148V128.823V0Z" fill="#0173E0"/>
<path d="M32.2585 91.7666L15.4354 91.6418C16.0595 90.3586 16.7774 89.1292 17.9512 88.2661C19.1165 87.4094 20.4515 87.1443 21.8639 87.3694L22.0144 87.3948C22.2653 87.1077 22.343 86.5476 22.4877 86.1816C22.7924 85.4111 23.2902 84.7737 23.8689 84.1907C26.0344 82.009 28.5281 81.6414 31.4658 81.6357L31.8975 86.6133C32.051 88.3032 32.292 90.0693 32.2585 91.7666Z" fill="#EFF0DC"/>
<path d="M40.2019 18.4775C42.6316 18.3166 44.9321 18.9623 46.9963 20.2324C49.9204 22.0316 51.3601 24.8472 52.1458 28.0764C53.7849 27.9541 55.4023 28.1138 56.9458 28.6965C59.9578 29.8337 61.8022 32.1746 63.074 35.0364L35.614 34.9929L12.8977 34.9241C14.1107 32.9377 15.8153 31.4092 18.2443 31.2883C18.4272 31.2793 19.2345 31.3196 19.3533 31.2476C19.4547 31.186 19.8714 30.0837 19.9631 29.8967C20.6556 28.4854 21.8163 27.198 23.1428 26.3574C25.3196 24.9783 27.967 24.8867 30.4172 25.4502C30.8855 24.6162 31.3679 23.8233 31.9648 23.0743C34.1003 20.3961 36.7981 18.8618 40.2019 18.4775Z" fill="#7DD3FC"/>
<path d="M231.604 34.8687L185.571 34.8574C185.622 34.1985 186.356 33.1621 186.751 32.6157C188.385 30.3557 190.787 29.5452 193.443 29.1223C193.706 28.3115 193.984 27.5378 194.425 26.8044C195.433 25.1272 197.367 23.7741 199.256 23.3284L199.463 23.2809C201.4 22.8162 203.135 23.1782 204.918 23.9923L205.711 22.644C207.233 20.2843 209.858 18.514 212.605 17.9588C215.923 17.2882 219.226 17.7885 222.046 19.691C224.903 21.6192 226.478 24.5457 227.118 27.8601L229.31 27.834C231.928 28.0188 233.96 29.5903 235.606 31.5049C236.358 32.6013 236.979 33.6897 237.551 34.8894C235.625 34.8718 233.508 34.6682 231.604 34.8687Z" fill="#7DD3FC"/>
<path d="M0 128.823L1.74968 131.031L22.7888 158.258L37.6504 177.634C36.3359 178.862 34.6704 179.914 33.2422 181.032L24.8213 187.575C23.5535 188.471 22.1018 189.213 20.8854 190.16C19.9505 189.43 18.8706 188.829 17.8763 188.178L10.6761 183.659L4.63955 179.938C3.11006 178.986 1.60056 177.975 0 177.148V128.823Z" fill="#FDBA74"/>
<path d="M249.878 129.632L250 129.607V174.876L231.627 188.63C228.04 188.604 224.721 188.156 221.313 187.003C216.587 185.403 212.218 182.877 207.424 181.465L239.793 142.199L249.878 129.632Z" fill="#FDBA74"/>
</g>
<defs>
<linearGradient id="paint0_linear_1037_29820" x1="-17.6747" y1="65.7205" x2="68.1565" y2="245.12" gradientUnits="userSpaceOnUse">
<stop stop-color="#D56800"/>
<stop offset="1" stop-color="#CC821D"/>
</linearGradient>
<clipPath id="clip0_1037_29820">
<path d="M0 8C0 3.58172 3.58172 0 8 0H242C246.418 0 250 3.58172 250 8V242C250 246.418 246.418 250 242 250H8C3.58172 250 0 246.418 0 242V8Z" fill="white"/>
</clipPath>
</defs>
</svg>
