<svg width="250" height="250" viewBox="0 0 250 250" fill="none" xmlns="http://www.w3.org/2000/svg">
<g id="an-achievement-badge-for-whom-awarded-by-setting-a" clip-path="url(#clip0_1008_17904)">
<path id="Vector" d="M0 0H250V250H0V0Z" fill="#BADBF2"/>
<path id="Vector_2" d="M34.9945 213.514L9.84609 204.578C14.5342 199.833 20.8871 197.529 27.3143 196.384C22.6734 192.37 17.9905 188.515 13.7526 184.056C12.0878 182.305 10.4164 180.509 9.07715 178.491C10.7361 178.296 12.4521 178.33 14.1207 178.343C18.2885 178.375 22.3954 178.784 26.4955 179.516L31.7753 180.8C32.3749 181.637 32.9581 182.515 33.6437 183.283C36.0123 185.936 39.4012 188.097 42.9474 188.682L43.4672 188.762L43.3746 189.11C40.724 188.896 37.9215 189.069 35.5057 190.297C37.1178 193.112 39.1473 195.502 41.931 197.224C42.8011 197.762 43.9213 198.178 44.7167 198.782C41.9694 200.224 38.934 201.606 36.7052 203.809C36.0121 204.494 35.3864 205.227 35.101 206.178C34.9657 206.629 35.015 207.162 35.0238 207.628L34.9945 213.514Z" fill="#0369A1"/>
<path id="Vector_3" d="M224.012 179.501C228.469 178.738 232.797 178.384 237.323 178.429C238.602 178.442 239.943 178.388 241.208 178.585C240.389 179.898 239.133 181.122 238.076 182.257C233.284 187.406 228.002 191.936 222.552 196.368C229.392 197.467 235.513 199.764 240.639 204.546L215.331 213.025L215.371 207.826C215.373 207.311 215.397 206.769 215.266 206.267C214.732 204.22 212.112 203.09 210.43 202.123L205.441 199.275L196.358 195.407L198.427 192.82C198.534 192.181 198.819 191.694 199.172 191.162C199.957 189.98 200.514 188.603 201.409 187.501L201.53 187.596C204.01 188.315 206.448 188.104 208.948 187.648C213.103 186.336 215.499 184.338 218.044 180.871L224.012 179.501Z" fill="#0369A1"/>
<path id="Vector_4" d="M198.427 192.82C198.534 192.181 198.819 191.694 199.172 191.162C199.957 189.979 200.514 188.603 201.409 187.501L201.53 187.596C204.01 188.315 206.448 188.104 208.948 187.648L209.13 189.236L214.344 188.41C212.276 192.6 209.495 196.776 205.441 199.275L196.358 195.406L198.427 192.82Z" fill="#EA580C"/>
<path id="Vector_5" d="M198.427 192.82C198.534 192.181 198.819 191.694 199.172 191.162C199.957 189.979 200.514 188.603 201.409 187.501L201.53 187.596C204.01 188.315 206.448 188.104 208.948 187.648L209.13 189.236C205.377 189.815 201.663 190.771 198.427 192.82Z" fill="#9B3B08"/>
<path id="Vector_6" d="M35.0239 207.628L35.0928 207.728C35.2683 207.987 35.4094 208.231 35.5396 208.515C36.0115 209.545 36.9668 210.358 37.8418 211.045C39.4844 212.336 41.3459 213.307 43.2129 214.228C46.1218 215.664 49.1831 216.887 52.2327 217.993C67.4124 223.498 83.1904 227.773 99.0325 230.88C104.689 231.989 110.371 233.093 116.113 233.661C120.504 234.096 124.987 234.17 129.395 233.982C132.223 233.862 135.052 233.48 137.857 233.109L155.687 229.865L176.284 224.574C186.717 221.379 197.252 218.339 207.161 213.694C209.349 212.669 211.871 211.402 213.641 209.737C214.274 209.143 214.755 208.401 215.371 207.826L215.331 213.025L215.305 215.789C215.301 216.23 215.356 216.8 215.279 217.227C215.227 217.519 214.946 217.837 214.739 218.036C213.597 219.133 211.727 219.785 210.294 220.428L202.401 223.759C186.975 229.769 170.894 234.519 154.724 238.042C143.284 240.536 131.449 242.796 119.69 242.067C115.076 241.781 110.531 240.989 105.98 240.215C94.106 238.195 82.4363 235.191 70.9055 231.732C61.9761 229.054 53.1011 226.125 44.4714 222.584L38.5208 219.991C37.4329 219.48 35.9543 218.896 35.1523 217.976C34.9546 217.749 35.0354 217.082 35.033 216.765L34.9946 213.514L35.0239 207.628Z" fill="#EA580C"/>
<path id="Vector_7" d="M113.724 165.058L113.851 165.1C115.087 165.516 116.237 166.115 117.493 166.505C122.533 168.066 128.634 168.615 133.796 167.305L133.881 171.121C136.141 172.658 138.279 174.649 140.177 176.613C141.481 177.858 143.818 179.661 143.883 181.621C143.93 183.022 143.21 184.776 142.873 186.141L181.259 190.859L185.775 191.927L194.262 194.723L196.359 195.406L205.441 199.275L210.431 202.123C212.112 203.09 214.732 204.22 215.266 206.267C215.397 206.769 215.373 207.311 215.371 207.826C214.755 208.401 214.274 209.143 213.641 209.737C211.871 211.402 209.349 212.669 207.161 213.694C197.252 218.339 186.717 221.379 176.284 224.574L155.687 229.865L137.857 233.109C135.053 233.48 132.223 233.862 129.395 233.982C124.987 234.17 120.504 234.096 116.113 233.661C110.371 233.093 104.69 231.989 99.0326 230.88C83.1905 227.773 67.4125 223.498 52.2328 217.993C49.1832 216.887 46.1219 215.664 43.213 214.228C41.3461 213.307 39.4845 212.336 37.8419 211.045C36.9669 210.358 36.0116 209.545 35.5397 208.515C35.4095 208.231 35.2684 207.987 35.0929 207.728L35.024 207.628C35.0152 207.162 34.9659 206.629 35.1012 206.178C35.3866 205.227 36.0123 204.494 36.7054 203.809C38.9342 201.606 41.9696 200.224 44.7169 198.782L54.4859 194.72L55.9628 194.252L63.701 191.874C74.7235 188.922 86.2462 187.391 97.5953 186.357L110.505 185.429L110.74 184.07L110.502 183.811C110.37 183.125 110.673 182.149 110.77 181.451L112.283 171.968L112.666 168.436C112.91 167.222 113.227 166.194 113.724 165.058Z" fill="#F97316"/>
<path id="Vector_8" d="M93.2039 220.74C94.3179 220.47 95.7659 220.816 96.8259 221.168C96.241 221.467 95.7026 221.638 95.0698 221.798L94.5435 221.839C93.7063 221.855 92.2405 221.844 91.6138 221.263L91.7358 221.072C92.2219 220.911 92.699 220.821 93.2039 220.74Z" fill="#EA580C"/>
<path id="Vector_9" d="M83.6326 197.667C84.6944 197.574 85.9129 197.524 86.9446 197.809L87.1582 197.873L87.6863 198.046C87.9776 198.182 88.2766 198.465 88.3741 198.776C88.4268 198.945 88.3492 199.012 88.2784 199.158C87.6133 199.691 86.9622 199.806 86.149 199.945L84.5337 199.947C83.469 199.902 82.1485 199.8 81.3965 198.975C81.3526 198.79 81.2554 198.655 81.3782 198.489C81.8182 197.892 82.9522 197.781 83.6326 197.667Z" fill="#EA580C"/>
<path id="Vector_10" d="M146.304 223.531C146.841 223.473 147.355 223.457 147.894 223.483C148.876 223.53 150.448 223.825 151.091 224.642C151.35 224.971 151.355 225.117 151.306 225.522C150.689 226.319 149.78 226.501 148.834 226.677C147.875 226.756 146.87 226.771 145.916 226.63C144.935 226.485 143.983 226.158 143.371 225.347C143.339 225.164 143.26 225.019 143.367 224.852C143.876 224.052 145.443 223.735 146.304 223.531Z" fill="#EA580C"/>
<path id="Vector_11" d="M157.429 196.817C158.204 196.738 158.959 196.718 159.737 196.768C160.924 196.844 162.114 197.236 162.903 198.147C162.934 198.408 162.992 198.426 162.827 198.651C162.203 199.503 160.763 199.758 159.785 199.913L159.595 199.941C157.883 200.113 155.538 199.857 154.217 198.688C154.172 198.454 154.091 198.37 154.23 198.161C154.855 197.219 156.394 196.977 157.429 196.817Z" fill="#EA580C"/>
<path id="Vector_12" d="M117.051 225.391C117.953 225.344 118.798 225.366 119.69 225.547C120.739 225.76 121.641 226.113 122.253 227.018C122.282 227.244 122.368 227.419 122.235 227.619C121.613 228.556 120.054 228.718 119.037 228.874C118.104 228.886 117.135 228.933 116.211 228.785C115.115 228.61 114.137 228.387 113.464 227.453C113.435 227.064 113.389 226.988 113.647 226.671C114.38 225.772 115.963 225.53 117.051 225.391Z" fill="#EA580C"/>
<path id="Vector_13" d="M95.6343 210.283C94.4285 207.887 93.7502 205.299 92.9168 202.759C92.4944 201.471 91.8918 200.067 91.6848 198.731C91.7578 198.602 91.7857 198.536 91.9014 198.425C92.1997 198.139 92.5056 198.137 92.8884 198.142C93.1875 199.718 93.7917 201.292 94.3032 202.814L95.6155 206.994C96.6304 206.225 97.6272 206.27 98.8308 206.309C99.4399 207.173 99.2127 208.518 99.0298 209.513L98.7964 210.476C98.5276 210.921 98.3262 211.244 97.9004 211.549C97.6323 211.61 97.4404 211.691 97.1782 211.573C96.4192 211.382 96.0828 210.875 95.6343 210.283Z" fill="#022F52"/>
<path id="Vector_14" d="M95.6155 206.994C96.6304 206.225 97.6272 206.269 98.8308 206.309C99.4399 207.173 99.2127 208.518 99.0298 209.513L98.7964 210.476C98.5276 210.921 98.3262 211.244 97.9004 211.549C97.6323 211.61 97.4404 211.691 97.1782 211.573L97.4287 211.459C97.4517 211.356 97.5078 211.255 97.4978 211.15C97.467 210.831 96.7532 209.974 96.5691 209.638C96.1213 208.823 95.877 207.882 95.6155 206.994Z" fill="#012444"/>
<path id="Vector_15" d="M93.9739 198.363C94.4458 197.702 95.3372 197.324 96.0649 197.016C96.2788 197.904 96.7939 198.653 97.2344 199.443C97.7605 200.387 98.5342 201.118 99.3499 201.81C99.3279 202.369 99.3406 202.988 98.9936 203.452L99.0476 203.765C99.1233 203.992 99.1917 204.174 99.2173 204.412L99.1299 204.961C99.1892 205.264 99.2375 205.439 99.1387 205.741C99.0518 205.953 98.9656 206.123 98.8308 206.309C97.6272 206.27 96.6304 206.225 95.6155 206.994L94.3032 202.813C93.7917 201.292 93.1875 199.718 92.8884 198.142C93.2424 198.223 93.6133 198.334 93.9739 198.363Z" fill="#0284C7"/>
<path id="Vector_16" d="M99.2173 204.412C98.1694 204.204 96.7334 204.02 95.7641 203.623C95.7202 203.329 95.7165 203.309 95.8503 203.046C96.9519 203.144 97.9924 203.45 99.0476 203.765C99.1233 203.992 99.1916 204.174 99.2173 204.412Z" fill="#05121A"/>
<path id="Vector_17" d="M99.1387 205.741L96.1404 205.407C95.8628 205.355 95.8606 205.381 95.6873 205.139L96.0083 204.862C97.116 204.656 98.0291 204.803 99.1299 204.961C99.1892 205.264 99.2375 205.439 99.1387 205.741Z" fill="#012444"/>
<path id="Vector_18" d="M93.9739 198.363C94.4458 197.702 95.3372 197.324 96.0649 197.016C96.2788 197.904 96.7939 198.653 97.2344 199.443C97.7605 200.387 98.5342 201.118 99.3499 201.81C99.3279 202.369 99.3406 202.988 98.9937 203.452C98.3875 202.942 97.7769 202.438 97.1133 202.005C96.3618 201.515 95.4089 200.991 94.8389 200.281C94.3999 199.735 94.1772 199.024 93.9739 198.363Z" fill="#012444"/>
<path id="Vector_19" d="M72.9309 198.014L73.4253 197.971C74.4863 197.929 75.5005 198.255 76.27 199.012C76.7598 199.494 77.052 200.134 77.1887 200.801C77.3858 201.763 77.2737 202.928 77.2776 203.918L77.2901 210.318L79.728 206.925C80.4246 206.037 81.2598 205.078 82.4544 204.957C83.573 204.845 84.7239 205.247 85.5591 205.995C86.2175 206.584 86.7857 207.505 86.8096 208.405C86.8301 209.17 86.6392 209.848 86.2444 210.503C85.7036 211.402 84.7398 212.244 84.0161 213.013L80.0403 217.281L76.0193 217.218L68.7446 217.285L62.5838 210.502C62.0393 209.818 61.584 208.948 61.7212 208.048C61.8701 207.071 62.4649 206.186 63.272 205.627C63.9192 205.18 64.9541 204.859 65.7393 205.022C67.502 205.387 69.0486 208.259 70.0498 209.676L70.0413 204.156C70.0401 202.849 69.78 200.992 70.4312 199.829C70.9783 198.852 71.8945 198.337 72.9309 198.014Z" fill="#0369A1"/>
<path id="Vector_20" d="M166.288 212.479C165.098 211.073 163.429 209.431 163.227 207.51C163.132 206.613 163.411 205.638 164.015 204.961C164.582 204.324 165.265 203.994 166.108 203.968C167.989 203.911 169.537 204.841 170.855 206.112C171.701 206.928 172.37 207.948 172.95 208.964C172.17 205.746 171.642 200.995 173.506 198.039C173.961 197.318 174.515 196.917 175.355 196.745C176.169 196.579 177.032 196.745 177.722 197.214C179.137 198.176 179.772 200.035 180.041 201.66C180.46 204.201 179.893 206.532 179.624 209.034C181 207.012 182.601 204.602 185.181 204.108C186.049 203.942 186.861 204.029 187.591 204.553C188.361 205.106 188.82 205.999 188.938 206.932C189.2 209.004 187.824 210.779 186.586 212.282C185.001 214.208 183.158 216.279 181.091 217.689C178.021 216.622 175.349 216.879 172.31 217.872L167.843 213.922L166.288 212.479Z" fill="#0369A1"/>
<path id="Vector_21" d="M138.22 205.682C138.679 206.794 138.88 208.205 139.06 209.396C139.321 209.343 139.58 209.297 139.832 209.208L140.476 209.62L140.567 209.612C141.839 209.416 143.406 209.765 144.705 209.847C150.527 210.214 156.398 210.538 162.166 211.466C163.556 211.689 164.915 212.312 166.288 212.479L167.843 213.922C166.573 214.417 165.328 214.887 163.994 215.191C161.067 215.858 158.068 216.135 155.09 216.467C146.184 217.459 137.307 217.646 128.357 217.656C118.795 217.666 109.151 217.462 99.637 216.447C96.564 216.12 93.4482 215.811 90.426 215.154C89.7852 215.015 89.2239 214.832 88.8665 214.231C88.7122 213.971 88.6326 213.672 88.7529 213.378C88.8857 213.054 89.231 212.769 89.5005 212.561C91.1074 211.319 93.7139 210.953 95.6343 210.283C96.0828 210.875 96.4192 211.382 97.1782 211.573C97.4404 211.691 97.6323 211.61 97.9004 211.549C98.3262 211.244 98.5276 210.921 98.7964 210.476C99.0261 210.551 98.9561 210.557 99.1611 210.536L132.421 209.25C132.423 208.469 132.474 206.796 132.846 206.116L133.371 206.047C133.994 206.555 135.189 206.948 135.939 207.306C136.603 206.89 137.308 205.97 138.004 205.744L138.22 205.682Z" fill="#EA580C"/>
<path id="Vector_22" d="M132.136 212.522L145.082 212.805L145.015 213.928C144.552 214.223 142.579 214.001 141.955 213.999L131.945 213.969L132.136 212.522Z" fill="#022F52"/>
<path id="Vector_23" d="M138.22 205.682C138.679 206.794 138.88 208.205 139.06 209.396C139.321 209.343 139.58 209.297 139.832 209.208L140.476 209.62L140.567 209.612L141.493 210.019L142.327 210.417L142.687 210.551C143.322 210.769 144.33 211.102 144.701 211.7L144.791 211.892C144.995 212.221 145.037 212.42 145.082 212.805L132.136 212.522L132.449 209.327L132.421 209.25C132.423 208.469 132.474 206.796 132.846 206.116L133.371 206.047C133.994 206.555 135.189 206.948 135.939 207.306C136.603 206.89 137.308 205.97 138.004 205.744L138.22 205.682Z" fill="#0369A1"/>
<path id="Vector_24" d="M141.493 210.019L142.327 210.417L142.145 210.518C141.416 210.925 139.922 212.201 139.16 212.145L139.17 211.696C139.82 211.04 140.701 210.493 141.493 210.019Z" fill="#012444"/>
<path id="Vector_25" d="M142.687 210.551C143.322 210.769 144.33 211.102 144.701 211.7L144.791 211.892C143.722 212.092 142.474 211.999 141.385 211.969C141.765 211.439 142.222 211.004 142.687 210.551Z" fill="#012444"/>
<path id="Vector_26" d="M138.22 205.682C138.679 206.794 138.88 208.205 139.06 209.396C139.321 209.343 139.58 209.297 139.832 209.208L140.476 209.62L140.567 209.612L141.493 210.019C140.701 210.493 139.82 211.04 139.17 211.696L139.16 212.145L135.833 211.278L135.67 211.252C136.504 210.392 137.701 209.634 138.796 209.153L138.91 209.106C138.803 208.901 138.733 208.868 138.504 208.793C137.257 208.381 135.831 209.289 134.738 209.727C134.115 209.976 133.699 209.856 133.104 209.594L132.449 209.327L132.421 209.25C132.423 208.469 132.474 206.796 132.846 206.116L133.371 206.047C133.994 206.555 135.189 206.948 135.939 207.306C136.603 206.89 137.308 205.97 138.004 205.744L138.22 205.682Z" fill="#022F52"/>
<path id="Vector_27" d="M139.06 209.396C139.321 209.343 139.58 209.297 139.832 209.208L140.476 209.62L140.567 209.612L141.493 210.019C140.701 210.493 139.82 211.04 139.17 211.696L138.858 210.786C138.525 210.627 137.886 210.686 137.512 210.672V210.513L139.06 209.396Z" fill="#0284C7"/>
<path id="Vector_28" d="M113.724 165.058L113.851 165.1C115.086 165.516 116.237 166.115 117.493 166.505C122.533 168.066 128.634 168.615 133.795 167.305L133.881 171.121C136.141 172.658 138.279 174.649 140.177 176.613C141.481 177.858 143.818 179.661 143.883 181.621C143.93 183.022 143.209 184.776 142.873 186.141L139.58 199.713L138.688 203.371C138.508 204.11 138.264 204.92 138.22 205.682L138.004 205.744C137.308 205.97 136.603 206.89 135.939 207.306C135.189 206.948 133.994 206.555 133.371 206.047L132.846 206.116C132.474 206.796 132.423 208.469 132.421 209.25L99.1611 210.536C98.9561 210.557 99.0261 210.551 98.7964 210.476L99.0298 209.513C99.2126 208.518 99.4399 207.173 98.8308 206.309C98.9656 206.123 99.0518 205.953 99.1387 205.741C99.2375 205.439 99.1892 205.264 99.1299 204.961L99.2173 204.412C99.1917 204.174 99.1233 203.992 99.0476 203.765L98.9937 203.452C99.3406 202.988 99.3279 202.369 99.3499 201.81C98.5342 201.118 97.7605 200.387 97.2344 199.443C96.7939 198.653 96.2788 197.904 96.0649 197.016C97.6848 196.642 99.3928 195.386 100.828 194.556L109.825 189.27L110.505 185.429L110.74 184.07L110.501 183.811C110.37 183.125 110.673 182.149 110.77 181.451L112.283 171.968L112.666 168.436C112.91 167.222 113.227 166.194 113.724 165.058Z" fill="#F97316"/>
<path id="Vector_29" d="M125.726 182.093L131.395 185.062C131.855 185.276 132.425 185.47 132.825 185.776C132.141 185.864 131.335 185.764 130.636 185.768L123.92 185.713C124.493 184.511 125.006 183.214 125.726 182.093Z" fill="#A74005"/>
<path id="Vector_30" d="M140.177 176.613C141.481 177.858 143.818 179.661 143.883 181.621C143.93 183.022 143.209 184.776 142.873 186.141L139.58 199.713L138.688 203.371C138.508 204.11 138.264 204.92 138.22 205.682L138.004 205.744C137.308 205.97 136.603 206.89 135.939 207.306C135.189 206.948 133.994 206.555 133.371 206.047C133.465 204.913 133.384 203.71 133.376 202.569L133.318 195.853L133.261 189.691C133.252 188.462 133.302 187.196 133.166 185.974L132.825 185.776C132.425 185.47 131.855 185.276 131.395 185.062L140.177 176.613Z" fill="#0369A1"/>
<path id="Vector_31" d="M110.74 184.07L123.83 185.739L121.17 191.211C120.69 192.19 120.201 193.498 119.45 194.293C118.502 195.299 116.233 195.847 114.916 196.355L104.649 200.18L101.171 201.304C100.582 201.476 99.9009 201.555 99.3499 201.81C98.5342 201.118 97.7605 200.387 97.2344 199.443C96.7939 198.653 96.2788 197.904 96.0649 197.016C97.6848 196.642 99.3928 195.386 100.828 194.556L109.825 189.27L110.505 185.429L110.74 184.07Z" fill="#0369A1"/>
<path id="Vector_32" d="M113.724 165.058L113.851 165.1C115.086 165.516 116.237 166.115 117.493 166.505C122.533 168.066 128.634 168.615 133.795 167.305L133.881 171.121C136.141 172.658 138.279 174.649 140.177 176.613L131.395 185.062L125.726 182.093C125.006 183.214 124.493 184.511 123.92 185.713L123.83 185.739L110.74 184.07L110.501 183.811C110.37 183.125 110.673 182.149 110.77 181.451L112.283 171.968L112.666 168.436C112.91 167.222 113.227 166.194 113.724 165.058Z" fill="#022F52"/>
<path id="Vector_33" d="M110.74 184.07L110.501 183.811C110.37 183.125 110.673 182.149 110.77 181.451L112.283 171.968C114.075 175.979 119 178.494 122.702 180.465C123.678 180.985 124.842 181.434 125.726 182.093C125.006 183.214 124.493 184.511 123.92 185.713L123.83 185.739L110.74 184.07Z" fill="#012444"/>
<path id="Vector_34" d="M18.7719 84.8299C18.9796 84.2068 19.8656 83.4722 20.3238 83.0095C19.725 82.4912 19.1735 81.9419 18.7009 81.3047C17.3183 79.4412 16.8043 76.9485 17.1609 74.6634L17.1939 74.4629C17.4491 72.7122 18.1141 71.2862 19.338 69.992C23.2487 65.8572 28.2893 67.972 33.1651 67.0913C34.8767 66.7823 36.6245 65.9414 37.9663 64.8299C40.6836 62.5789 41.7867 59.5081 43.3587 56.4571L46.7405 50.5562C50.8582 44.1179 55.6907 38.0623 61.3369 32.8994C64.6961 29.8279 68.2325 26.8562 71.9878 24.2771C83.6778 16.2487 97.8777 10.7382 111.933 8.81155C117.892 7.99482 124.018 7.8208 130.023 8.10037C148.842 8.97644 168.062 15.8527 182.861 27.596C186.981 30.8653 190.622 34.4822 194.074 38.4346C196.079 40.7293 198.03 43.0921 199.76 45.6018C201.463 48.0725 203.113 50.6314 204.552 53.2659L206.868 57.7742C207.822 59.8094 208.539 62.1675 210.211 63.7542C211.491 64.9678 213.204 65.9458 214.924 66.3628C216.344 66.7071 217.913 66.7346 219.369 66.9085C223.712 67.4263 227.764 68.3443 230.812 71.7337C232.847 73.9968 234.094 76.6909 234.34 79.7354C234.433 80.8875 234.335 82.0633 234.273 83.2158C235.761 82.8577 237.113 82.7776 238.485 83.5952C239.618 84.2703 240.551 85.5413 240.812 86.8379C241.091 88.2232 240.795 89.7151 239.993 90.8792C239.119 92.1492 237.828 92.8281 236.341 93.0794L235.954 93.1411C244.534 112.143 244.868 134.667 237.564 154.107C235.539 159.498 232.962 164.91 229.943 169.822L226.461 175.282C225.626 176.552 224.461 177.966 223.944 179.38L224.012 179.501L218.044 180.871C215.499 184.338 213.103 186.336 208.948 187.648C206.448 188.104 204.011 188.315 201.53 187.596L201.409 187.501C200.514 188.603 199.957 189.98 199.172 191.162C198.819 191.694 198.534 192.181 198.427 192.82L196.358 195.407L194.262 194.723L185.775 191.927L181.259 190.859L142.873 186.141C143.21 184.776 143.93 183.022 143.883 181.621C143.818 179.661 141.481 177.858 140.177 176.613C138.279 174.649 136.141 172.658 133.881 171.121L133.795 167.305C128.634 168.615 122.533 168.066 117.493 166.505C116.237 166.115 115.086 165.516 113.851 165.1L113.724 165.058C113.227 166.194 112.91 167.222 112.666 168.436L112.283 171.968L110.77 181.451C110.673 182.149 110.37 183.126 110.501 183.811L110.74 184.07L110.505 185.429L97.5952 186.357C86.2461 187.391 74.7234 188.922 63.701 191.874L55.9627 194.252L54.4859 194.72L44.7168 198.782C43.9214 198.178 42.8013 197.762 41.9312 197.224C39.1475 195.502 37.118 193.112 35.5059 190.297C37.9217 189.069 40.7242 188.896 43.3748 189.11L43.4673 188.762L42.9475 188.682C39.4014 188.097 36.0125 185.936 33.6438 183.283C32.9583 182.515 32.375 181.637 31.7754 180.8L26.4956 179.516L18.9005 168.211C16.8401 164.522 15.1481 160.679 13.633 156.739C11.2111 150.44 9.31068 143.772 8.34874 137.081C6.22816 122.331 7.59188 106.84 11.6543 92.5415C11.0593 92.1328 10.3577 91.7324 9.87323 91.1939C8.95584 90.1741 8.31314 88.7222 8.44486 87.3264C8.58932 85.7962 9.33075 84.3765 10.5382 83.4268C11.5947 82.5957 13.0902 82.0457 14.4451 82.2278L14.6485 82.2581C16.474 82.5125 17.6004 83.501 18.7719 84.8299Z" fill="#EA580C"/>
<path id="Vector_35" d="M43.3167 179.993C44.2939 179.886 45.7131 180.656 46.4705 181.247L46.8 181.522C47.0173 181.984 47.2871 182.462 47.405 182.959L43.3167 179.993Z" fill="#022F52"/>
<path id="Vector_36" d="M47.1096 190.048C48.2666 189.516 51.553 190.689 52.0852 190.277C52.2659 190.494 52.4041 190.679 52.55 190.918L53.1985 192.085C53.3271 192.343 53.3679 192.587 53.4243 192.868L53.1926 193.249C51.6765 191.697 49.1169 190.772 47.1096 190.048Z" fill="#A74005"/>
<path id="Vector_37" d="M48.5203 164.792L53.1682 164.36C52.2798 165.411 50.9976 166.772 50.4885 168.064C49.75 167.008 49.084 165.953 48.5203 164.792Z" fill="#0284C7"/>
<path id="Vector_38" d="M52.3618 187.74C53.6362 187.447 54.7666 186.745 56.019 186.455C55.689 188.636 55.4265 190.712 55.7168 192.91L55.6318 193.04L55.5217 193.027C54.9229 192.271 54.4502 191.413 53.9448 190.593C53.3735 189.666 52.7759 188.751 52.3618 187.74Z" fill="#9B3B08"/>
<path id="Vector_39" d="M50.293 187.11C50.9033 188.138 51.4045 189.305 52.0852 190.277C51.553 190.689 48.2666 189.516 47.1096 190.048C45.9417 189.587 44.6116 189.316 43.3748 189.11L43.4673 188.762C43.7825 188.645 44.3904 188.737 44.7527 188.734C46.7737 188.715 48.719 188.468 50.293 187.11Z" fill="#9B3B08"/>
<path id="Vector_40" d="M37.7031 177.664C38.3318 177.583 38.6641 177.804 39.2561 177.899C39.7026 177.971 40.1729 177.955 40.6243 177.949C42.0454 177.93 43.5837 177.424 44.9785 177.569C45.6326 178.571 46.812 180.321 46.8 181.522L46.4705 181.247C45.7131 180.656 44.2939 179.886 43.3166 179.993C43.2251 180.015 43.2908 180.008 43.1282 179.933C41.3464 179.11 39.5774 178.257 37.7031 177.664Z" fill="#9B3B08"/>
<path id="Vector_41" d="M56.3823 178.049C57.0554 178.287 58.0879 178.524 58.6311 178.973C57.4551 181.294 56.4692 183.881 56.019 186.455C54.7666 186.745 53.6362 187.447 52.3618 187.74L52.124 187.437C52.9795 186.271 53.8484 185.11 54.5044 183.816C55.4233 182.004 55.9453 180.022 56.3823 178.049Z" fill="#012444"/>
<path id="Vector_42" d="M181.269 183.573L183.959 182.344C183.982 184.74 184.151 187.122 184.854 189.425C185.108 190.259 185.603 191.094 185.775 191.927L181.259 190.859L181.269 183.573Z" fill="#0369A1"/>
<path id="Vector_43" d="M93.9304 76.0325C94.4099 78.6929 95.0845 81.2153 96.0186 83.7534L73.6628 83.7112L93.9304 76.0325Z" fill="#FDBA74"/>
<path id="Vector_44" d="M156.205 76.4915C157.257 76.5178 158.281 76.5291 159.318 76.7346L159.555 76.7788C162.947 77.428 165.219 80.4832 168.194 82.092C170.902 83.5569 173.849 84.2737 176.8 85.0698L153.907 85.1296C155.183 82.491 155.78 79.3679 156.205 76.4915Z" fill="#FDBA74"/>
<path id="Vector_45" d="M73.6628 83.7112L96.0186 83.7534C97.8215 87.8887 100.182 91.3882 103.381 94.5676C102.121 94.7449 100.74 94.6301 99.4661 94.6235L92.4841 94.5998L68.4583 94.6099L68.4763 85.6802C69.0247 85.3904 69.7124 85.2048 70.2959 84.9749C71.4116 84.5349 72.5171 84.0691 73.6628 83.7112Z" fill="#F9D9B6"/>
<path id="Vector_46" d="M103.821 56.897L103.823 56.9961C103.846 58.1326 103.692 59.2871 103.649 60.4248L103.644 66.0591C103.871 73.1299 106.668 80.1892 111.755 85.1543C115.813 89.1147 121.151 91.6853 126.892 91.5837L129.394 91.3457C134.103 90.5474 137.635 87.9446 140.389 84.1064C141.741 82.2209 142.751 80.0461 143.566 77.8809C145.943 71.5637 146.707 64.4023 146.319 57.6995C146.977 58.4712 147.497 59.5498 147.938 60.4629C148.945 62.5471 149.764 64.7205 150.154 67.0112C151.315 73.8333 150.039 81.1328 145.977 86.8215C141.788 92.6877 135.988 96.1733 128.901 97.3486C122.114 98.4741 115.095 96.6641 109.558 92.6216C103.857 88.4587 100.327 82.2612 99.34 75.3269C98.457 69.1189 100.001 61.9187 103.821 56.897Z" fill="#F97316"/>
<path id="Vector_47" d="M82.791 160.874C83.9399 161.48 84.9873 162.462 86.0361 163.237C88.6135 165.141 91.228 167.144 93.9309 168.861L91.3916 170.576L99.7156 176.826C100.904 176.435 102.289 175.352 103.367 174.687L111.11 169.79L112.666 168.436L112.283 171.968L110.77 181.451C110.673 182.149 110.37 183.125 110.501 183.811L110.74 184.07L110.505 185.429L97.5952 186.357C86.2461 187.391 74.7234 188.922 63.7009 191.874C63.7007 191.404 63.937 190.885 64.0691 190.433C64.3225 189.565 64.5447 188.71 64.6936 187.817C65.1914 184.835 64.7502 182.149 64.5303 179.181L68.3535 181.177L71.54 182.975L82.7627 175.873L82.791 160.874Z" fill="#A74005"/>
<path id="Vector_48" d="M82.791 160.874C83.9399 161.48 84.9873 162.462 86.0361 163.237C88.6135 165.141 91.228 167.144 93.9309 168.861L91.3916 170.576L99.7156 176.826L97.033 178.569L88.5642 172.334L82.7627 175.873L82.791 160.874Z" fill="#F97316"/>
<path id="Vector_49" d="M68.4461 148.234L115.615 148.167L114.672 157.682L113.724 165.058C113.227 166.194 112.91 167.222 112.666 168.436L111.11 169.79L103.367 174.687C102.289 175.352 100.904 176.435 99.7156 176.826L91.3916 170.576L93.9309 168.861C91.228 167.144 88.6135 165.141 86.0361 163.237C84.9873 162.462 83.9399 161.48 82.791 160.874L82.5195 160.624C81.9219 160.905 81.3806 161.378 80.8496 161.771L78.3279 163.602L68.4617 170.682L68.4326 157.616L68.4461 148.234Z" fill="#FDBA74"/>
<path id="Vector_50" d="M110.581 157.543L110.942 157.518C110.944 158.933 110.788 169.361 111.11 169.79L103.367 174.687C102.289 175.352 100.904 176.435 99.7156 176.826L91.3916 170.576L93.9309 168.861L110.581 157.543Z" fill="#EA580C"/>
<path id="Vector_51" d="M176.8 85.0698L179.539 85.3518C180.011 85.395 180.601 85.3821 181.041 85.5618C181.294 86.3977 181.15 87.6208 181.153 88.5059L181.073 96.8496L181.104 105.469L181.167 110.696C181.166 111.539 181.233 112.449 181.134 113.285L181.076 106.157L68.4429 106.82L68.4582 94.6099L92.4841 94.5998L99.4661 94.6235C100.739 94.6301 102.121 94.7449 103.381 94.5676C110.267 100.561 118.78 103.931 127.986 103.287C131.88 103.015 135.705 102.215 139.246 100.525C141.837 99.2891 144.159 97.625 146.357 95.7954C149.63 92.6509 151.99 89.2295 153.907 85.1296L176.8 85.0698Z" fill="#FDBA74"/>
<path id="Vector_52" d="M176.8 85.0698L179.539 85.3518C180.011 85.395 180.601 85.3821 181.041 85.5618V95.9849C177.631 96.0032 146.928 96.2187 146.357 95.7954C149.63 92.6509 151.99 89.2295 153.907 85.1296L176.8 85.0698Z" fill="#F9D9B6"/>
<path id="Vector_53" d="M103.821 56.8969C107.496 51.3725 113.306 47.3122 119.839 46.0129C126.478 44.6926 133.379 46.0317 139.002 49.8161C141.43 51.4506 143.544 53.5307 145.237 55.9167C145.601 56.4294 146.094 57.0532 146.312 57.6435L146.319 57.6994C146.707 64.4023 145.943 71.5637 143.566 77.8808C142.751 80.0461 141.741 82.2209 140.389 84.1064C137.635 87.9445 134.103 90.5473 129.395 91.3457L126.892 91.5837C121.151 91.6853 115.813 89.1147 111.755 85.1542C106.668 80.1892 103.871 73.1298 103.645 66.059L103.649 60.4248C103.692 59.2871 103.846 58.1325 103.823 56.996L103.821 56.8969Z" fill="#FDBA74"/>
<path id="Vector_54" d="M117.08 57.1772L132.446 57.2397L132.44 63.0938L122.165 63.0928C121.966 63.4253 121.984 63.9802 121.936 64.3755L121.523 67.5127C122.824 67.0249 124.081 66.6638 125.481 66.5693C127.685 66.4207 129.985 67.377 131.62 68.8154C133.752 70.6912 134.875 73.2871 135.025 76.1108C135.158 78.6316 134.409 81.1897 132.687 83.0674C130.482 85.4717 127.649 86.2671 124.496 86.426C123.063 86.4392 121.727 86.2632 120.361 85.8098C117.093 84.7241 114.724 82.1709 113.192 79.1687L118.771 76.6665C119.543 77.9788 120.208 79.3333 121.622 80.0696C122.724 80.6433 124.275 80.9421 125.478 80.5081C126.513 80.1345 127.375 79.3079 127.835 78.3123C128.302 77.3044 128.285 75.9231 127.898 74.886C127.486 73.7793 126.67 72.9814 125.582 72.5305C123.48 71.6594 121.185 72.5105 119.21 73.2959L114.815 71.0222C114.691 70.7427 116.781 58.8105 117.08 57.1772Z" fill="#0369A1"/>
<path id="Vector_55" d="M11.6543 92.5415C11.0593 92.1328 10.3577 91.7324 9.87323 91.1938C8.95584 90.1741 8.31314 88.7222 8.44486 87.3264C8.58932 85.7961 9.33075 84.3765 10.5382 83.4267C11.5947 82.5957 13.0902 82.0456 14.4451 82.2278L14.6485 82.258C16.474 82.5124 17.6004 83.501 18.7719 84.8298C20.183 87.3472 20.8205 89.5012 20.7307 92.4079C23.9704 94.8616 27.5882 97.5342 30.1709 100.684C30.9551 98.3916 31.7298 96.1265 32.3006 93.769L33.2222 89.7217C33.3936 88.9724 33.5303 88.1182 33.8299 87.4101C34.1319 86.6958 34.6736 86.1294 35.3623 85.7732C36.2371 85.3208 37.1712 85.2598 38.1055 85.5647C38.9717 85.8472 39.6753 86.4612 40.0723 87.282C40.4012 87.9626 40.4961 88.7124 40.4053 89.4597C40.3028 90.3035 39.9453 91.2214 39.7098 92.0452L37.2749 99.3869C36.3843 101.727 35.4976 103.503 33.6543 105.223C35.8526 107.271 37.8919 109.452 39.76 111.805L42.929 116.115C44.2464 113.238 45.3709 110.297 46.3843 107.3L47.3138 104.306C47.4976 103.638 47.6397 102.838 47.9888 102.234C48.3951 101.531 49.0869 100.867 49.8658 100.599C50.8636 100.254 51.9966 100.345 52.9175 100.861C53.8809 101.4 54.5066 102.388 54.7283 103.451C55.2117 105.767 49.9366 115.855 48.5047 117.911C47.7256 119.03 46.7823 119.92 45.802 120.857C48.5469 125.015 50.7093 129.5 52.617 134.093C54.1487 131.289 55.3794 128.186 56.5613 125.22C57.0491 123.996 57.4412 122.395 58.1521 121.307C58.511 120.759 59.1455 120.285 59.7657 120.074C60.3948 119.861 61.3372 119.991 62.0022 120.006L61.9986 126.921C61.9966 128.134 62.1199 129.508 61.9021 130.698L62.0266 152.172L61.993 161.715L61.8914 174.732L61.699 174.842C60.4475 176.129 59.5296 177.423 58.6311 178.973C58.0879 178.524 57.0555 178.287 56.3824 178.049C56.8875 175.551 56.9671 173.161 56.8265 170.629C56.6057 170.14 56.658 168.854 56.5811 168.263L55.8355 163.75L55.6031 163.042C55.2342 162.927 54.9307 163.093 54.5887 163.269C54.0635 163.539 53.5987 163.961 53.1682 164.36L48.5203 164.791C48.0525 163.702 45.6087 159.052 44.7273 158.609C45.865 161.154 46.4878 162.9 45.4585 165.617L42.9429 171.791C42.3428 170.619 41.7019 169.426 40.9278 168.359L41.9099 167.519C44.0933 165.112 44.1375 161.248 44.0284 158.212C43.8025 157.175 43.2376 156.059 42.7498 155.122C41.3789 152.489 39.5711 150.174 37.836 147.781C37.8479 150.338 37.8611 152.765 37.1429 155.249C36.1053 156.765 34.8299 158.204 34.3589 160.014C33.8665 159.28 33.0623 158.251 32.8614 157.397C34.5132 155.857 35.1751 154.502 35.242 152.229C35.3282 149.307 34.0105 146.852 32.023 144.8L30.7686 143.652C29.8452 145.96 29.5188 148.482 29.7754 150.959C29.8806 151.972 30.1206 152.959 30.2149 153.977C29.3692 152.26 28.9539 150.387 28.1458 148.654C26.396 144.902 23.4945 142.145 20.0381 139.954C19.16 139.398 18.2459 138.778 17.2839 138.379C19.2337 142.943 20.1652 147.594 23.977 151.111C25.4549 152.475 27.1731 153.586 28.6922 154.92C24.0495 153.209 19.9192 153.839 15.2272 154.853C18.3516 157.111 21.8613 159.033 25.6997 159.679C26.8743 159.876 28.1045 159.993 29.2867 159.788C30.1763 159.633 30.9456 159.25 31.7539 158.87L33.8492 162.085C31.6353 162.096 29.3689 162.193 27.1629 162.01C24.5315 161.791 21.8252 161.248 19.2131 160.816L23.87 164.945C27.2881 167.968 30.6057 170.724 35.4615 170.421L36.2549 170.309L36.461 170.27C37.5503 170.052 38.5694 169.572 39.5791 169.124L41.7498 173.267C41.3213 173.243 40.8709 173.046 40.4483 172.944C39.5501 172.726 38.628 172.532 37.7095 172.429L32.2266 172.04C31.157 171.971 29.8484 171.975 28.8467 171.581C27.524 171.061 26.4178 170.163 25.3067 169.301L27.5076 172.848L31.7754 180.8L26.4956 179.516L18.9005 168.211C16.8401 164.522 15.1481 160.679 13.633 156.739C11.2111 150.44 9.31068 143.772 8.34874 137.081C6.22816 122.331 7.59188 106.84 11.6543 92.5415Z" fill="#7DD3FC"/>
<path id="Vector_56" d="M11.6543 92.5415C11.0593 92.1328 10.3577 91.7324 9.87323 91.1938C8.95584 90.1741 8.31314 88.7222 8.44486 87.3264C8.58931 85.7961 9.33075 84.3765 10.5382 83.4267C11.5947 82.5957 13.0902 82.0456 14.4451 82.2278L14.6485 82.258C16.474 82.5124 17.6004 83.501 18.7719 84.8298C20.183 87.3472 20.8205 89.5012 20.7307 92.4079C23.9704 94.8616 27.5882 97.5342 30.1709 100.684C30.9551 98.3916 31.7298 96.1265 32.3006 93.769L33.2222 89.7217C33.3936 88.9724 33.5303 88.1182 33.8299 87.4101C34.1319 86.6958 34.6736 86.1294 35.3623 85.7732C36.2371 85.3208 37.1712 85.2598 38.1055 85.5647C38.9717 85.8472 39.6753 86.4612 40.0723 87.282C40.4012 87.9626 40.4961 88.7124 40.4053 89.4597C40.3028 90.3035 39.9453 91.2214 39.7097 92.0452L37.2749 99.3869C36.3843 101.727 35.4976 103.503 33.6543 105.223C35.8526 107.271 37.8919 109.452 39.76 111.805L42.929 116.115C44.2464 113.238 45.3709 110.297 46.3843 107.3L47.3138 104.306C47.4976 103.638 47.6397 102.838 47.9888 102.234C48.3951 101.531 49.0869 100.867 49.8658 100.599C50.8636 100.254 51.9966 100.345 52.9175 100.861C53.8809 101.4 54.5066 102.388 54.7283 103.451C55.2117 105.767 49.9366 115.855 48.5047 117.911C47.7256 119.03 46.7823 119.92 45.802 120.857C48.5469 125.015 50.7093 129.5 52.617 134.093C54.1487 131.289 55.3794 128.186 56.5613 125.22C57.0491 123.996 57.4412 122.395 58.1521 121.307C58.511 120.759 59.1455 120.285 59.7657 120.074C60.3948 119.861 61.3372 119.991 62.0022 120.006L61.9986 126.921C61.9966 128.134 62.1199 129.508 61.9021 130.698L62.0266 152.172L61.993 161.715L61.8914 174.732L61.699 174.842C60.4475 176.129 59.5296 177.423 58.6311 178.973C58.0879 178.524 57.0555 178.287 56.3824 178.049C56.8875 175.551 56.9671 173.161 56.8265 170.629C56.6057 170.14 56.658 168.854 56.5811 168.263L55.8355 163.75L55.6031 163.042C55.2342 162.927 54.9307 163.093 54.5887 163.269C54.0635 163.539 53.5987 163.961 53.1682 164.36L48.5203 164.791C48.0525 163.702 45.6087 159.052 44.7273 158.609L44.4046 158.086L44.3096 157.715L44.4551 157.501C45.7322 157.442 47.0071 157.17 48.2661 156.959L57.492 154.967L53.3938 140.654C51.805 141.252 50.1653 141.68 48.4805 141.898C46.1424 142.201 43.7701 142.222 41.416 142.217C39.8748 142.214 38.0515 142.251 36.5601 141.835C36.0523 141.693 35.5015 141.412 35.0952 141.075C34.2654 140.386 33.711 139.456 33.6419 138.367C33.5757 137.322 33.8697 136.389 34.5694 135.605C35.1382 134.969 35.9759 134.443 36.8308 134.324C37.5437 134.225 38.3299 134.36 39.043 134.426L43.0232 134.827C45.7473 135.048 48.5152 135.099 51.2451 134.966C50.7974 133.65 50.1524 132.383 49.5767 131.117C48.1411 127.962 46.4644 124.707 44.5623 121.806C40.4414 124.401 35.9803 125.653 31.2932 126.829C29.7329 127.22 28.1653 127.38 26.7347 126.477C25.8777 125.936 25.2293 125.039 25.0362 124.039C24.8199 122.919 25.0066 121.809 25.6624 120.86C26.2625 119.992 27.2224 119.324 28.2434 119.047C29.8982 118.598 31.9698 118.794 33.6914 118.656C36.4595 118.432 39.1768 118.038 41.9097 117.55C41.1468 116.244 40.1726 115.025 39.242 113.835C37.1763 111.193 34.9529 108.78 32.6443 106.351C29.8943 108.23 27.4517 110.525 24.6436 112.359C23.4059 113.167 21.961 114.115 20.4468 114.24C19.1263 114.349 17.7245 114.042 16.7324 113.125C15.8424 112.302 15.2797 111.171 15.257 109.947C15.2327 108.641 15.7699 107.347 16.6786 106.411C18.8557 104.169 25.3655 103.186 28.4297 103.139L19.2562 95.5832C18.8675 95.2764 18.2074 94.5674 17.7927 94.4092C17.3847 94.2537 16.4675 94.3652 15.9832 94.2722C14.4587 93.9792 13.0267 93.2378 11.6543 92.5415Z" fill="#0369A1"/>
<path id="Vector_57" d="M61.699 174.842L61.4788 174.722L60.2959 162.589L61.9929 161.715L61.8914 174.732L61.699 174.842Z" fill="#7DD3FC"/>
<path id="Vector_58" d="M55.8354 163.75C56.6882 163.266 57.8274 163.112 58.7778 162.883L60.0942 175.387C59.1616 173.814 58.136 171.92 56.8264 170.629C56.6057 170.14 56.658 168.854 56.5811 168.263L55.8354 163.75Z" fill="#7DD3FC"/>
<path id="Vector_59" d="M62.0266 152.172C60.9629 152.851 60.0322 153.989 59.0234 154.788C58.6426 152.433 58.0029 150.103 57.3789 147.802C56.6587 145.146 55.9077 142.433 54.8059 139.907C55.4724 139.433 56.1689 138.97 56.7461 138.386C58.8499 136.26 60.3809 133.247 61.9021 130.698L62.0266 152.172Z" fill="#7DD3FC"/>
<path id="Vector_60" d="M68.4429 106.82L181.076 106.157L181.134 113.285L181.089 148.259L181.15 159.3L181.215 177.499L181.213 181.562C181.213 182.196 181.123 182.957 181.269 183.573L181.259 190.859L142.873 186.141C143.209 184.776 143.93 183.022 143.883 181.621C143.818 179.661 141.481 177.858 140.177 176.613C138.279 174.649 136.141 172.658 133.881 171.121L133.795 167.305C128.634 168.614 122.533 168.066 117.493 166.505C116.237 166.115 115.086 165.516 113.851 165.1L113.724 165.058L114.672 157.682L115.615 148.167L68.446 148.234L68.4429 106.82Z" fill="#F9D9B6"/>
<path id="Vector_61" d="M97.2327 116.459C97.127 116.102 97.0559 115.735 97.2051 115.375C97.3069 115.128 97.4822 114.968 97.741 114.905C98.4182 114.74 101.101 114.684 101.661 115.018C102.005 115.531 101.935 115.853 101.943 116.443L97.2327 116.459Z" fill="#05121A"/>
<path id="Vector_62" d="M93.7258 120.69L97.1284 120.706C96.9606 121.356 96.8759 122.935 97.1769 123.537L93.7421 123.635C93.6716 123.502 93.7246 123.029 93.7263 122.86L93.7258 120.69Z" fill="#012444"/>
<path id="Vector_63" d="M140.959 137.306L145.99 139.718C147.441 140.898 148.329 142.161 148.559 144.043L148.622 144.559L147.302 145.138C144.992 145.947 141.334 144.857 139.175 143.844L140.611 139.433L140.959 137.306Z" fill="#FDBA74"/>
<path id="Vector_64" d="M101.943 116.443L101.927 119.712C101.926 119.993 101.87 120.48 102.04 120.697C102.172 121.499 102.218 122.779 102.051 123.58C101.785 123.993 101.919 125.222 101.923 125.749C101.917 126.215 101.988 126.754 101.685 127.136C101.304 127.326 101.042 127.34 100.62 127.338L97.7772 127.314C97.6046 127.191 97.4503 127.034 97.2929 126.892L97.2457 125.736C97.2587 125.089 97.3788 124.143 97.1769 123.537C96.8759 122.935 96.9606 121.356 97.1283 120.706C97.3175 120.452 97.244 119.988 97.2499 119.671C97.2697 118.606 97.3373 117.521 97.2326 116.459L101.943 116.443Z" fill="#0369A1"/>
<path id="Vector_65" d="M97.2458 125.736L101.923 125.749C101.917 126.215 101.989 126.754 101.685 127.136C101.304 127.326 101.042 127.34 100.62 127.338L97.7773 127.314C97.6047 127.191 97.4504 127.034 97.293 126.892L97.2458 125.736Z" fill="#05121A"/>
<path id="Vector_66" d="M108.394 138.108L111.102 144.331C109.475 145.101 107.969 145.746 106.19 146.106C104.779 146.392 102.92 146.49 101.693 145.624C100.67 144.901 99.8103 143.246 99.6045 142.018L99.9924 142.167C100.921 142.498 101.697 142.653 102.629 142.171C103.43 141.756 103.731 141.192 104.011 140.367C105.499 139.707 107.114 139.129 108.394 138.108Z" fill="#F97316"/>
<path id="Vector_67" d="M89.6739 107.741C90.5582 108.11 91.1212 108.479 91.5382 109.372C91.96 110.275 91.7381 112.055 91.7369 113.069L91.7086 120.587L93.7259 120.69L93.7264 122.86C93.7247 123.029 93.6717 123.502 93.7423 123.635L91.6658 123.652L91.6744 129.623C91.6732 130.479 91.7906 131.511 91.6112 132.335C91.522 132.744 91.2969 133.122 90.9986 133.413C90.6319 133.771 90.1834 133.963 89.713 134.144C89.6168 133.997 89.5953 133.915 89.5928 133.738L89.6158 117.354L89.6029 111.484C89.5999 110.243 89.5364 108.976 89.6739 107.741Z" fill="#022F52"/>
<path id="Vector_68" d="M97.7775 127.314L100.62 127.338C100.78 130.642 101.291 133.747 102.526 136.832C103.004 138.023 103.748 139.1 104.011 140.367C103.731 141.192 103.43 141.756 102.629 142.171C101.697 142.653 100.922 142.498 99.9926 142.167L99.6046 142.018C98.3878 140.19 98.0118 138.124 97.7628 135.975C97.4186 133.005 97.4249 130.283 97.7775 127.314Z" fill="#0284C7"/>
<path id="Vector_69" d="M148.236 127.19C149.522 127.141 150.958 127.061 152.237 127.222C152.37 128.759 152.309 130.276 152.263 131.815C152.151 135.562 151.86 141.011 149.279 143.973C149.083 144.197 148.86 144.383 148.622 144.559L148.559 144.043C148.329 142.161 147.441 140.898 145.99 139.718C147.027 137.411 147.579 135.264 147.964 132.773L148.203 129.945L148.236 127.19Z" fill="#0284C7"/>
<path id="Vector_70" d="M133.67 123.288L146.97 123.283C146.96 124.035 146.977 124.777 146.782 125.509C146.719 125.975 146.626 126.378 146.79 126.83C147.181 127.203 147.611 127.202 148.125 127.192L148.236 127.189L148.203 129.945L147.964 132.772C147.579 135.264 147.027 137.411 145.99 139.718L140.958 137.306C140.991 136.881 141.087 136.389 140.985 135.975L131.904 132.812L129.528 132.016C129.259 131.561 129.389 130.287 129.382 129.723L129.383 128.366L129.722 128.395C130.739 128.387 131.887 127.747 132.564 127.014C133.579 125.916 133.691 124.693 133.67 123.288Z" fill="#F9D9B6"/>
<path id="Vector_71" d="M78.9815 117.199L78.9859 116.52C79.0193 115.23 79.3287 113.896 80.3333 113C81.4549 111.999 82.9388 112.19 84.3233 112.233C84.6365 110.898 85.3553 109.345 86.4771 108.497C87.45 107.762 88.4932 107.596 89.6739 107.741C89.5364 108.976 89.5999 110.243 89.6028 111.484L89.6158 117.354L89.5928 133.738C89.5952 133.915 89.6167 133.997 89.7129 134.144C88.5418 134.335 87.4688 133.97 86.5337 133.265C85.3731 132.39 84.7586 131.005 84.5428 129.602C84.5013 129.331 84.3738 129.443 84.1126 129.438C82.7032 129.412 81.1939 129.504 80.1272 128.395C78.7928 127.008 78.9876 125.185 79.0828 123.435C78.1243 123.278 77.2417 123.204 76.4651 122.568C75.7928 122.017 75.3135 121.176 75.2686 120.3C75.2217 119.384 75.5274 118.615 76.1856 117.971C77.0271 117.146 77.8902 117.193 78.9815 117.199Z" fill="#0369A1"/>
<path id="Vector_72" d="M116.308 120.632C116.597 121.571 116.933 122.53 117.406 123.393C118.276 125.38 118.968 127.397 121.17 128.253L122.273 128.611L121.665 131.606C118.646 132.208 115.461 133.687 112.848 135.294L109.719 137.178C109.297 137.436 108.703 137.723 108.394 138.108C107.114 139.129 105.499 139.707 104.011 140.367C103.748 139.1 103.003 138.023 102.526 136.832C101.291 133.747 100.78 130.642 100.62 127.338C101.042 127.34 101.304 127.326 101.685 127.136C101.989 126.754 101.917 126.215 101.923 125.749C101.919 125.222 101.785 123.993 102.051 123.58C102.218 122.779 102.173 121.499 102.04 120.697L116.308 120.632Z" fill="#F9D9B6"/>
<path id="Vector_73" d="M116.308 120.632C116.597 121.571 116.933 122.53 117.406 123.393L102.051 123.58C102.218 122.779 102.173 121.499 102.04 120.697L116.308 120.632Z" fill="url(#paint0_linear_1008_17904)"/>
<path id="Vector_74" d="M116.021 119.118C115.555 117.133 115.9 114.483 116.939 112.711C117.797 111.248 119.289 109.989 120.796 109.243C124.528 107.394 128.22 108.071 132.019 109.251C134.256 109.945 135.819 110.558 138.185 109.92C138.087 111.434 137.972 112.991 137.168 114.323C136.216 115.899 134.793 116.59 133.057 117.024C133.114 117.725 133.032 119.029 133.293 119.645L133.67 123.288C133.691 124.693 133.579 125.915 132.564 127.014C131.887 127.747 130.739 128.387 129.722 128.395L129.383 128.366L129.382 129.723C129.389 130.287 129.259 131.56 129.528 132.016C129.614 132.483 129.519 133.194 129.341 133.624C129.036 134.357 128.419 134.852 127.687 135.126C126.613 135.529 125.38 135.432 124.343 134.945C122.913 134.274 122.166 133.038 121.665 131.606L122.273 128.611L121.17 128.253C118.968 127.397 118.276 125.38 117.405 123.393C116.933 122.529 116.597 121.57 116.308 120.632C116.166 120.134 116.098 119.629 116.021 119.118Z" fill="#012444"/>
<path id="Vector_75" d="M116.021 119.118L116.211 118.92C116.776 119.17 116.858 119.432 117.076 119.992L118.045 122.582L121.214 122.486C121.686 123.135 122.032 123.408 122.822 123.555L123.153 123.718C123.103 125.045 122.762 126.437 122.477 127.732L122.273 128.611L121.17 128.253C118.968 127.397 118.276 125.38 117.406 123.393C116.933 122.53 116.597 121.571 116.308 120.632C116.167 120.134 116.098 119.629 116.021 119.118Z" fill="#05121A"/>
<path id="Vector_76" d="M124.282 121.945L125.244 121.946C126.371 121.432 126.286 119.55 126.618 118.484C126.857 117.717 127.222 117.048 127.642 116.368C129.539 116.918 131.075 117.29 133.057 117.024C133.114 117.725 133.032 119.029 133.293 119.645L133.671 123.288C133.691 124.693 133.579 125.916 132.564 127.014C131.887 127.747 130.739 128.387 129.722 128.395L129.383 128.366L129.382 129.723C129.389 130.287 129.26 131.561 129.528 132.016C129.614 132.483 129.52 133.194 129.341 133.624C129.036 134.357 128.419 134.852 127.688 135.126C126.613 135.53 125.38 135.432 124.343 134.945C122.913 134.274 122.166 133.038 121.665 131.606L122.273 128.611L122.477 127.732C122.762 126.437 123.103 125.045 123.153 123.718L122.822 123.555C122.032 123.408 121.686 123.135 121.214 122.486C120.827 121.703 120.628 121.125 120.721 120.239C120.764 119.832 121.049 119.421 121.379 119.183C121.721 118.937 122.286 118.967 122.681 119.024C123.126 119.089 123.523 119.449 123.765 119.812C124.11 120.33 124.024 121.047 123.879 121.608L123.839 121.758L124.282 121.945Z" fill="#FDBA74"/>
<path id="Vector_77" d="M152.577 119.635L158.198 119.491L158.148 113.108C158.141 112.079 158.016 110.891 158.21 109.881C158.321 109.303 158.611 108.753 159.034 108.343C159.629 107.765 160.408 107.511 161.228 107.548C162.074 107.585 162.908 107.991 163.453 108.643C163.921 109.202 164.003 109.95 164.185 110.636C166.147 110.769 167.802 111.312 169.142 112.838C170.194 114.035 170.767 115.443 170.816 117.034C171.083 117.207 171.148 117.183 171.459 117.199C172.543 117.254 173.287 117.664 173.989 118.494C174.445 119.035 174.739 119.967 174.663 120.673C174.561 121.61 174.028 122.461 173.279 123.021C172.566 123.555 171.719 123.57 170.87 123.629C170.848 124.377 170.883 125.258 170.721 125.987C170.467 127.128 169.652 128.319 168.813 129.118C168.039 129.856 166.91 130.514 165.852 130.708C165.531 130.767 164.247 130.742 164.062 130.868C163.969 130.931 164.047 131.093 164.038 131.205C163.987 131.869 164.007 132.556 163.611 133.118L163.51 133.262C163.031 133.919 162.362 134.354 161.556 134.474C160.714 134.6 159.888 134.244 159.236 133.726C158.653 133.262 158.256 132.548 158.178 131.805L158.212 123.422C156.38 123.39 154.402 123.204 152.584 123.398C152.583 124.066 152.497 124.918 152.646 125.564C152.732 126.155 152.795 126.605 152.371 127.099L152.237 127.222C150.958 127.061 149.522 127.141 148.236 127.189L148.125 127.192C147.611 127.202 147.181 127.203 146.79 126.83C146.626 126.378 146.719 125.975 146.782 125.509C146.977 124.777 146.96 124.035 146.97 123.283L133.67 123.288L133.293 119.645L146.677 119.746L146.7 116.784C146.708 116.287 146.66 115.724 146.775 115.242C146.848 114.939 147.038 114.648 147.311 114.493C147.612 114.321 148.086 114.384 148.422 114.382C149.525 114.375 150.919 114.242 151.966 114.532C152.14 114.691 152.341 114.872 152.442 115.087C152.624 115.474 152.551 116.052 152.549 116.469C152.543 117.479 152.482 118.5 152.566 119.507L152.577 119.635Z" fill="#0369A1"/>
<path id="Vector_78" d="M146.782 125.509C147.251 125.562 147.738 125.649 148.208 125.609L152.646 125.564C152.732 126.155 152.795 126.605 152.371 127.099L152.237 127.222C150.958 127.061 149.522 127.141 148.236 127.189L148.125 127.192C147.611 127.202 147.181 127.203 146.79 126.83C146.626 126.378 146.719 125.975 146.782 125.509Z" fill="#012444"/>
<path id="Vector_79" d="M133.293 119.645L146.677 119.746L150.653 119.746C151.257 119.745 151.942 119.67 152.535 119.755L153.442 119.811C152.989 119.848 152.868 119.991 152.525 120.276L149.744 120.245C149.424 120.973 149.119 121.724 148.747 122.427C148.216 123.433 147.392 124.128 147.278 125.316C147.565 125.527 147.864 125.543 148.208 125.609C147.738 125.649 147.251 125.562 146.782 125.509C146.977 124.777 146.96 124.035 146.97 123.283L133.67 123.288L133.293 119.645Z" fill="#022F52"/>
<path id="Vector_80" d="M112.848 135.294C115.461 133.687 118.646 132.208 121.665 131.606C122.166 133.038 122.913 134.274 124.343 134.945C125.38 135.432 126.613 135.53 127.688 135.126C128.419 134.852 129.036 134.357 129.341 133.624C129.52 133.194 129.614 132.483 129.528 132.016L131.904 132.812L140.985 135.975C141.087 136.389 140.991 136.881 140.959 137.306L140.611 139.433L139.175 143.844L138.673 145.242L135.246 143.788L135.084 143.738L135.128 148.255L135.058 154.892C135.036 155.454 135.1 156.297 134.933 156.825L134.903 159.145L134.866 160.24C134.688 162.413 134.941 164.871 134.49 166.982C134.244 167.176 134.105 167.252 133.795 167.305C128.634 168.614 122.533 168.066 117.493 166.505C116.237 166.115 115.086 165.516 113.851 165.1L113.724 165.058L114.672 157.682L115.615 148.167L115.966 143.371C114.707 144.253 113.15 144.935 111.744 145.551L111.102 144.331L108.394 138.108C108.703 137.723 109.297 137.436 109.719 137.178L112.848 135.294Z" fill="#0284C7"/>
<path id="Vector_81" d="M135.085 143.738L134.758 139.962C134.703 139.245 134.61 138.528 134.758 137.817C134.983 137.552 135.038 137.434 135.376 137.328L138.502 138.538C139.238 138.815 139.944 138.996 140.611 139.433L139.175 143.844L138.673 145.242L135.246 143.788L135.085 143.738Z" fill="#0369A1"/>
<path id="Vector_82" d="M112.848 135.294L114.828 139.235C115.378 140.269 116.428 141.525 116.701 142.639C116.942 143.624 116.878 144.768 116.918 145.782C117.048 149.042 116.988 153.096 119.506 155.527C120.45 156.439 121.856 157.046 123.109 157.417L124.324 157.647C126.569 158.017 129.103 157.624 131.296 157.106C132.138 156.907 133.054 156.595 133.911 156.507C134.21 156.476 134.607 156.441 134.838 156.68L134.933 156.825L134.903 159.145L134.866 160.24C134.688 162.413 134.941 164.871 134.49 166.982C134.244 167.176 134.105 167.252 133.795 167.305C128.634 168.614 122.533 168.066 117.493 166.505C116.237 166.115 115.086 165.516 113.851 165.1L113.724 165.058L114.672 157.682L115.615 148.167L115.966 143.371C114.707 144.253 113.15 144.935 111.744 145.551L111.102 144.331L108.394 138.108C108.703 137.723 109.297 137.436 109.719 137.178L112.848 135.294Z" fill="#0369A1"/>
<path id="Vector_83" d="M152.249 148.313C152.979 147.969 153.698 147.439 154.378 147.001L158.11 144.608C158.641 144.271 159.251 143.778 159.845 143.581C160.107 143.494 160.106 143.563 160.334 143.683L166.49 148.305L174.329 154.236C175.578 155.174 177.031 156.062 178.148 157.146L181.15 159.3L181.215 177.499L181.213 181.562C181.213 182.196 181.123 182.957 181.269 183.573L181.259 190.859L142.873 186.141C143.209 184.776 143.93 183.022 143.883 181.621C143.818 179.661 141.481 177.858 140.177 176.613C138.279 174.649 136.141 172.658 133.881 171.121L133.795 167.305C134.105 167.252 134.244 167.176 134.49 166.982C134.941 164.871 134.688 162.413 134.866 160.24L134.903 159.145L152.249 148.313Z" fill="#A74005"/>
<path id="Vector_84" d="M152.249 148.313C152.979 147.969 153.698 147.439 154.378 147.001L158.11 144.608C158.641 144.271 159.251 143.778 159.845 143.581C160.107 143.494 160.106 143.563 160.334 143.683L166.49 148.305L174.329 154.236C175.578 155.174 177.031 156.062 178.148 157.146L167.922 163.501L151.472 173.179L139.636 164.915L136.343 162.562C135.939 162.276 135.54 161.855 135.093 161.661L134.949 161.612C134.869 161.166 134.881 160.693 134.866 160.24L134.903 159.145L152.249 148.313Z" fill="#EA580C"/>
<path id="Vector_85" d="M160.334 143.683L166.49 148.305L174.329 154.236C175.578 155.174 177.031 156.062 178.148 157.146L167.922 163.501L160.903 158.68L157.582 160.61L155.17 158.757L160.399 155.695L160.334 143.683Z" fill="#F97316"/>
<path id="Vector_86" d="M18.7718 84.8299C18.9795 84.2068 19.8656 83.4722 20.3237 83.0095C19.7249 82.4912 19.1735 81.9419 18.7008 81.3047C17.3182 79.4412 16.8043 76.9485 17.1608 74.6634L17.1939 74.4629C17.449 72.7122 18.114 71.2862 19.338 69.992C23.2486 65.8572 28.2893 67.972 33.165 67.0913C34.8767 66.7823 36.6245 65.9414 37.9663 64.8299C40.6836 62.5789 41.7866 59.5081 43.3586 56.4571L46.7404 50.5562C50.8581 44.1179 55.6906 38.0623 61.3369 32.8994C64.696 29.8279 68.2324 26.8562 71.9878 24.2771C83.6777 16.2487 97.8776 10.7382 111.933 8.81155C117.892 7.99482 124.018 7.8208 130.023 8.10037C148.842 8.97644 168.062 15.8527 182.861 27.596C186.981 30.8653 190.622 34.4822 194.074 38.4346C196.079 40.7293 198.029 43.0921 199.76 45.6018C201.463 48.0725 203.113 50.6314 204.552 53.2659L206.868 57.7742C207.821 59.8094 208.539 62.1675 210.211 63.7542C211.491 64.9678 213.204 65.9458 214.924 66.3628C216.344 66.7071 217.913 66.7346 219.369 66.9085C223.712 67.4263 227.764 68.3443 230.812 71.7337C232.847 73.9969 234.094 76.6909 234.34 79.7354C234.433 80.8875 234.335 82.0633 234.273 83.2158C235.76 82.8577 237.113 82.7776 238.485 83.5952C239.618 84.2703 240.551 85.5413 240.812 86.8379C241.091 88.2232 240.795 89.7151 239.993 90.8792C239.119 92.1492 237.828 92.8281 236.341 93.0794L235.954 93.1411C244.534 112.143 244.868 134.667 237.564 154.107C235.539 159.498 232.962 164.91 229.943 169.822L226.461 175.282C225.626 176.552 224.461 177.966 223.944 179.38L224.012 179.501L218.044 180.871C215.499 184.338 213.102 186.336 208.947 187.648C206.448 188.104 204.01 188.315 201.53 187.596L201.409 187.501C200.514 188.603 199.956 189.98 199.172 191.162C198.819 191.694 198.534 192.181 198.427 192.82L196.358 195.407L194.261 194.723C194.38 194.276 194.5 193.855 194.709 193.441L194.752 192.871C195.203 188.074 193.206 183.682 191.438 179.374C191.047 178.402 190.466 177.364 189.914 176.475L188.149 173.811C187.968 173.549 187.51 173.038 187.457 172.731C187.38 172.281 187.54 171.599 187.58 171.122L187.781 167.835L187.768 161.761L187.826 150.761L187.726 130.709L187.745 121.168L187.718 79.5095C184.219 79.4514 180.619 79.1841 177.185 78.4927C175.442 78.1419 173.741 77.7661 172.216 76.8074L172.102 76.7344C170.764 76.0515 169.605 75.1177 168.433 74.1897C166.659 72.9204 164.85 71.5208 162.747 70.8516C161.891 70.5791 160.567 70.4951 159.807 70.0672C159.412 69.8452 159.278 69.2749 159.207 68.8599C159.081 68.1238 158.991 67.7246 159.438 67.1155C160.185 66.097 161.464 65.22 162.45 64.43L167.913 60.0996C168.588 59.5581 169.532 58.9514 170.032 58.243C170.269 57.9065 170.329 57.6045 170.295 57.19C170.265 56.8067 169.986 56.461 169.678 56.2534C168.852 55.6985 166.926 55.773 165.903 55.6875L158.515 55.0696C157.914 55.021 156.719 55.0821 156.194 54.8611C156.159 54.8462 156.15 54.7993 156.127 54.7683L152.791 50.2849C151.539 48.709 149.869 47.0918 149.012 45.2715L151.697 35.9431C152.081 34.6372 152.655 33.2019 152.819 31.8604C152.863 31.4993 152.814 31.1485 152.633 30.8284C152.449 30.5042 152.094 30.2217 151.733 30.1363C150.867 29.9309 150.114 30.5816 149.445 31.0425L142.375 35.947C141.248 36.7207 139.925 37.8174 138.656 38.304C138.451 38.3824 138.212 38.378 137.997 38.3472C136.745 38.169 135.26 37.1905 134.114 36.6355C133.063 36.1267 131.825 35.69 130.889 35.003C129.596 31.7906 128.675 28.3301 127.546 25.0454C127.204 24.0506 126.929 22.8154 126.398 21.9116C126.203 21.5803 125.908 21.2934 125.55 21.1485C125.105 20.9688 124.685 20.9514 124.235 21.1476C122.975 21.6967 122.266 25.2281 121.884 26.5003L120.416 31.2732C120.048 32.5301 119.766 34.0264 119.131 35.1663L115.943 36.584C114.467 37.2735 113.024 38.072 111.435 38.4688C109.842 37.9031 108.608 36.7205 107.258 35.7288L102.291 32.1116C101.446 31.4905 100.446 30.6057 99.4716 30.2154C99.1528 30.0877 98.7131 30.0989 98.403 30.2527C98.0451 30.43 97.759 30.8079 97.6806 31.1905C97.4279 32.4231 98.0605 34.347 98.3291 35.5684L100.263 44.0132C100.352 44.4344 100.686 45.6314 100.579 46.0205C100.487 46.3582 99.8027 47.0349 99.5546 47.3096C98.707 48.2471 97.8505 49.1724 97.0886 50.1824C95.976 51.6573 95.041 53.6238 93.6601 54.8306C90.0988 55.3179 86.4719 55.2449 82.8886 55.4483C81.9145 55.5037 80.769 55.4407 79.8303 55.657C79.4726 55.7393 79.2246 55.9046 79.0107 56.2029C78.6865 56.6553 78.5305 57.3396 78.6787 57.8821C78.7805 58.2542 79.0959 58.5747 79.373 58.8286C80.4367 59.803 81.7016 60.6319 82.8449 61.5179L93.4785 69.667C93.1296 69.9507 92.6413 70.0952 92.2275 70.2688L89.3061 71.4256L78.573 75.5454C77.5149 75.9453 76.2055 76.6094 75.1064 76.7744C71.8322 78.3091 68.2348 79.3623 64.8569 80.6761C64.1887 80.9361 62.4404 81.3899 62.1052 82.0203C61.8579 83.0308 62.0083 84.2837 62.007 85.3321L62.0041 92.3799L62.0022 120.006C61.3371 119.991 60.3947 119.861 59.7656 120.074C59.1455 120.285 58.5109 120.759 58.1521 121.307C57.4411 122.395 57.049 123.996 56.5612 125.22C55.3794 128.186 54.1486 131.289 52.6169 134.093C50.7092 129.5 48.5468 125.015 45.802 120.857C46.7822 119.92 47.7255 119.03 48.5046 117.911C49.9365 115.855 55.2116 105.767 54.7282 103.451C54.5066 102.388 53.8808 101.4 52.9174 100.861C51.9965 100.345 50.8635 100.254 49.8657 100.599C49.0869 100.867 48.395 101.531 47.9887 102.234C47.6396 102.838 47.4975 103.638 47.3137 104.306L46.3842 107.3C45.3708 110.297 44.2463 113.238 42.9289 116.115L39.76 111.805C37.8918 109.452 35.8525 107.271 33.6543 105.223C35.4975 103.503 36.3842 101.727 37.2749 99.387L39.7097 92.0452C39.9453 91.2215 40.3027 90.3035 40.4052 89.4597C40.4961 88.7124 40.4011 87.9627 40.0722 87.282C39.6753 86.4612 38.9716 85.8472 38.1054 85.5647C37.1711 85.2598 36.237 85.3208 35.3623 85.7732C34.6735 86.1294 34.1318 86.6958 33.8298 87.4102C33.5302 88.1182 33.3935 88.9724 33.2221 89.7217L32.3005 93.7691C31.7297 96.1265 30.955 98.3916 30.1709 100.684C27.5881 97.5342 23.9703 94.8616 20.7307 92.408C20.8204 89.5012 20.183 87.3472 18.7718 84.8299Z" fill="#7DD3FC"/>
<path id="Vector_87" d="M85.1596 38.377C86.1613 38.4265 86.9486 38.6038 87.7799 39.2236C88.7799 39.9695 89.5656 41.1147 89.7311 42.3647C89.9149 43.7517 89.4901 44.8999 88.6471 45.9934L88.5448 46.1238C89.7211 45.8811 90.7174 45.604 91.8263 46.2297C92.9613 46.8704 93.2064 47.8257 93.5021 48.9905L65.4906 48.9399C64.2033 48.9441 60.0314 49.2532 59.1159 48.6721C58.9 48.3647 58.7567 48.0447 58.8707 47.6604C58.9811 47.2874 59.3378 47.012 59.7042 46.9192C60.3068 46.7671 61.1393 46.8589 61.7648 46.8557L66.5568 46.8381C66.6342 46.8379 67.3605 46.8582 67.3866 46.8359C67.4433 46.7881 67.5985 46.2405 67.6381 46.1426C68.0453 45.1348 68.7135 44.3335 69.7021 43.852C70.7826 43.3254 71.8036 43.6418 72.8556 44.0193C72.7965 43.2043 72.6107 42.5195 72.862 41.6987C73.1913 40.623 73.8844 39.7393 74.8881 39.2183C75.7851 38.7529 77.1137 38.5071 78.0922 38.8481L78.247 38.9062L78.4113 38.9658C79.6068 39.4302 80.1762 40.4983 80.684 41.5891C80.9169 41.1055 81.1535 40.5281 81.5038 40.1196C82.5016 38.9561 83.6857 38.5342 85.1596 38.377Z" fill="#FEFEFE"/>
<path id="Vector_88" d="M167.96 31.8968C169.232 31.816 170.414 32.0042 171.467 32.7742C172.544 33.5616 173.107 34.6207 173.279 35.9302L173.3 36.0967C173.79 35.4988 174.275 34.9532 174.956 34.5601C176.042 33.9334 177.313 33.7066 178.528 34.0733C179.789 34.4539 181.119 35.5101 181.697 36.7029C182.33 38.0113 182.213 39.1341 181.779 40.4751C183.336 40.418 191.161 40.0892 191.97 40.8121L192.078 40.9197C192.314 41.1529 192.555 41.4273 192.661 41.7496C192.828 42.2579 192.79 42.9949 192.557 43.4805C192.435 43.7344 192.374 43.8921 192.078 43.9495L181.335 43.962L155.578 43.9473C156.155 42.9634 156.829 42.1414 157.753 41.4595C158.908 40.6075 160.599 39.866 162.056 40.1167L162.231 40.1504C163.063 40.3038 163.882 40.7994 164.68 41.1087C164.251 40.3939 163.696 39.7254 163.504 38.9026C163.133 37.3213 163.26 35.6763 164.162 34.2942C165.068 32.9063 166.381 32.2149 167.96 31.8968Z" fill="#FEFEFE"/>
<path id="Vector_89" d="M168.433 74.1897C168.66 71.5617 168.942 69.0854 171.1 67.2715C172.273 66.2846 173.647 65.7383 175.171 65.6377C175.512 65.6152 176.021 65.6621 176.328 65.5254C175.238 63.8445 175 62.4585 175.401 60.508C175.802 58.56 177.088 56.8694 178.743 55.7937C180.357 54.7444 182.593 54.1072 184.516 54.5298C186.751 55.021 188.863 56.4177 190.074 58.3764L190.752 59.7099C193.154 59.0512 195.233 58.9167 197.457 60.2007C199.323 61.2783 200.758 62.9822 201.441 65.0322C201.529 65.2961 201.783 66.5854 201.91 66.6975C202.243 66.9934 203.045 67.2239 203.47 67.4905C205.565 68.8039 206.984 70.7646 207.599 73.1548L207.927 74.9302C209.908 73.3718 211.971 72.2922 214.57 72.5884C217.231 72.8918 219.307 74.6824 221.006 76.6321L184.814 76.5771L176.381 76.6531C174.977 76.665 173.491 76.5676 172.102 76.7343C170.764 76.0515 169.605 75.1177 168.433 74.1897Z" fill="#FEFEFE"/>
<path id="Vector_90" d="M75.1064 76.7744L27.893 76.7678C27.4209 76.7111 27.3401 76.5273 27.0876 76.1718C27.0527 75.1474 27.6623 74.1508 28.3506 73.4252C29.4091 72.3093 30.998 71.6384 32.5317 71.5954C34.7531 71.5332 36.3706 72.5285 37.9453 73.9887C38.0744 73.8664 38.7832 73.2812 38.8078 73.1721C38.8576 72.9523 38.5588 71.988 38.5153 71.6809C38.4299 71.0754 38.4411 70.4658 38.5161 69.8593C38.8305 67.3171 40.229 64.9743 42.2434 63.4155C44.4497 61.7082 46.8152 61.4096 49.5053 61.7661C49.7011 61.6626 49.8669 60.333 49.9509 60.0083C50.3498 58.4668 51.3432 56.9926 52.4836 55.8981C54.3403 54.1162 56.8779 53.1491 59.4482 53.2302C61.8672 53.3064 64.2006 54.3989 65.8569 56.1469C67.0749 57.4323 68.0957 59.2377 68.3484 61.0031C68.4704 61.8566 68.3833 62.7985 68.3532 63.6601C69.5368 63.5893 70.4743 63.7453 71.5388 64.2844C74.3742 65.7209 76.2856 68.572 77.3506 71.4912C77.8354 72.8203 78.1311 74.2031 78.573 75.5454C77.5149 75.9453 76.2055 76.6093 75.1064 76.7744Z" fill="#FEFEFE"/>
<path id="Vector_91" d="M234.273 83.2158C235.76 82.8577 237.113 82.7776 238.485 83.5952C239.618 84.2703 240.551 85.5412 240.812 86.8379C241.091 88.2231 240.795 89.7151 239.993 90.8791C239.119 92.1492 237.828 92.8281 236.341 93.0793L235.954 93.1411C244.534 112.143 244.868 134.667 237.564 154.107C235.539 159.498 232.962 164.91 229.943 169.822L226.461 175.282C225.626 176.552 224.461 177.966 223.944 179.38L224.012 179.501L218.044 180.871C215.499 184.338 213.103 186.336 208.948 187.648C206.448 188.104 204.01 188.315 201.53 187.596L201.409 187.501C200.514 188.603 199.957 189.979 199.172 191.162C198.819 191.694 198.534 192.181 198.427 192.82L196.358 195.406L194.261 194.723C194.38 194.276 194.5 193.855 194.709 193.441L194.752 192.871C195.203 188.074 193.206 183.682 191.438 179.374C191.047 178.402 190.466 177.364 189.914 176.475L188.149 173.811C187.969 173.549 187.511 173.038 187.458 172.73C187.38 172.281 187.54 171.599 187.58 171.122L187.781 167.835L187.768 161.761L187.826 150.761L187.726 130.709L187.745 121.167C188.507 120.749 189.442 120.336 190.331 120.388C190.725 120.411 191.11 120.507 191.394 120.796C192.129 121.545 192.646 122.965 193.123 123.897L196.294 130.157C196.646 130.899 197.001 132.066 197.524 132.67L204.143 120.408C201.633 118.2 199.949 114.465 198.346 111.552L195.052 105.576C194.676 104.865 194.364 104.391 194.617 103.577C194.882 103.232 195.127 103.071 195.522 102.889C196.696 102.347 199.898 101.077 201.172 101.558C202.145 102.315 202.802 104.476 203.321 105.603C204.184 107.473 205.142 109.324 205.886 111.244C206.397 112.563 206.8 113.912 207.159 115.279L215.883 104.847C213.501 101.828 212.058 98.5347 210.635 94.999L208.761 90.2803C208.628 89.8994 208.481 89.3994 208.703 89.0249C209.273 88.0596 211.86 87.5139 212.89 87.2258C213.762 86.9817 214.573 86.7263 215.414 87.1987C216.025 87.8674 216.229 89.0425 216.481 89.8999C217.263 92.5513 217.951 95.2556 218.297 98.0019C218.462 99.3115 218.457 100.67 218.509 101.99L231.018 89.6719L230.914 89.1724C230.689 88.0889 230.782 86.9766 231.235 85.9641C231.859 84.5681 232.862 83.741 234.273 83.2158Z" fill="#7DD3FC"/>
<path id="Vector_92" d="M221.477 170.599L223.449 168.774C222.797 170.812 222.171 172.903 221.312 174.863C220.389 176.969 219.219 178.904 218.044 180.871C215.499 184.338 213.103 186.336 208.948 187.648C206.448 188.104 204.01 188.315 201.53 187.596L202.85 185.315C203.102 184.875 203.417 184.459 203.569 183.972C203.593 183.777 203.602 183.648 203.706 183.472C203.825 183.269 203.797 183.222 203.798 182.983C203.943 182.837 204.03 182.692 204.102 182.496C204.231 182.145 204.404 181.895 204.572 181.561L204.652 181.396C204.903 180.966 205.102 180.458 205.385 180.054C206.186 178.904 207.735 175.056 208.736 174.699L208.803 174.503C210.487 173.518 212.266 172.663 214.196 172.297C215.874 171.979 217.583 172.021 219.283 172.018L221.477 170.599Z" fill="#EA580C"/>
<path id="Vector_93" d="M221.477 170.599L221.712 170.682C222.036 170.42 222.358 170.132 222.717 169.922C222.775 170.213 222.813 170.143 222.656 170.41C222.564 170.567 222.531 170.728 222.474 170.898L222.413 171.051L222.382 171.265L222.168 171.327L221.863 171.594C220.12 173.136 218.288 174.519 216.319 175.757L210.724 179.09C208.465 180.377 205.116 181.827 203.569 183.972C203.593 183.777 203.602 183.648 203.706 183.472C203.825 183.269 203.797 183.222 203.798 182.983C203.943 182.837 204.03 182.692 204.102 182.496C204.231 182.145 204.404 181.896 204.572 181.561L204.652 181.396C204.903 180.966 205.102 180.458 205.385 180.054C206.186 178.904 207.735 175.056 208.736 174.699L208.803 174.503C210.487 173.518 212.266 172.663 214.196 172.297C215.874 171.979 217.583 172.021 219.283 172.018L221.477 170.599Z" fill="#A74005"/>
<path id="Vector_94" d="M208.803 174.503C210.487 173.518 212.266 172.663 214.196 172.297C215.874 171.979 217.583 172.022 219.283 172.018C218.891 172.445 218.401 172.727 217.943 173.075C216.582 174.109 215.079 175.096 213.318 175.161C211.811 175.217 210.188 175.136 208.736 174.7L208.803 174.503Z" fill="#EA580C"/>
<path id="Vector_95" d="M213.368 161.023C213.806 160.803 214.003 160.327 214.268 159.919C214.84 159.041 215.455 158.161 215.953 157.24C214.629 154.704 213.618 151.743 214.466 148.876C215.053 146.889 216.411 144.94 217.622 143.283C218.322 142.325 219.045 141.321 219.883 140.478C220.185 141.949 220.538 143.459 220.663 144.958C220.869 147.434 220.608 149.787 220.107 152.204C220.545 151.556 220.774 150.812 221.094 150.104C221.439 149.339 221.873 148.609 222.329 147.906C225.643 142.804 230.378 138.706 235.159 135.019C232.925 140.362 230.863 145.544 226.997 149.97C225.614 151.554 223.862 152.82 222.529 154.438C224.856 154.181 227.203 153.871 229.548 153.951C231.498 154.017 233.496 154.406 235.406 154.79C231.572 156.681 227.804 159.5 223.5 160.132C222.332 160.304 221.095 160.325 219.966 159.942C219.371 159.741 218.841 159.474 218.301 159.158L216.43 161.811C216.226 162.109 215.9 162.466 215.825 162.82C215.461 162.762 215.09 162.782 214.722 162.782C214.527 162.911 214.594 162.897 214.404 162.936C213.931 163.032 213.506 163.155 213.05 163.315C213.114 162.769 213.194 162.199 213.361 161.673C213.445 161.41 213.236 161.347 213.368 161.023Z" fill="#EA580C"/>
<path id="Vector_96" d="M203.585 163.731C205.221 166.848 205.508 170.428 205.606 173.88C206.034 173.385 206.344 172.637 206.662 172.053C207.236 170.994 207.813 169.971 208.486 168.971L207.94 167.461C206.2 162.893 205.445 157.745 207.412 153.143C208.227 151.235 209.333 149.474 210.182 147.582C211.54 152.038 213.536 156.257 213.368 161.023C213.236 161.347 213.445 161.41 213.361 161.673C213.194 162.199 213.114 162.769 213.05 163.315C213.506 163.155 213.931 163.032 214.404 162.936C214.594 162.897 214.527 162.911 214.722 162.782C215.09 162.782 215.461 162.762 215.825 162.82L219.036 162.34C221.073 162.135 223.137 162.047 225.159 161.715C226.684 161.465 228.288 161.127 229.771 160.695L231.827 159.999L225.087 165.867C223.988 166.753 222.897 167.712 221.685 168.441C218.852 170.144 215.644 170.457 212.407 170.277L211.226 170.154L209.391 173.131C209.144 173.542 208.769 174.023 208.803 174.503L208.736 174.699C207.735 175.056 206.186 178.904 205.385 180.054C205.102 180.458 204.903 180.966 204.652 181.396L204.572 181.561C204.404 181.896 204.231 182.145 204.102 182.496C204.03 182.692 203.943 182.837 203.798 182.983C203.797 183.222 203.825 183.269 203.706 183.472C203.602 183.648 203.593 183.777 203.569 183.972C203.417 184.459 203.102 184.875 202.85 185.315L201.53 187.596L201.409 187.501C200.514 188.603 199.957 189.979 199.172 191.162C198.819 191.694 198.534 192.181 198.427 192.82L196.358 195.406L194.261 194.723C194.38 194.276 194.5 193.855 194.709 193.441L194.752 192.871C195.203 188.074 193.206 183.682 191.438 179.374C192.24 178.909 193.041 178.571 193.943 178.356C192.644 174.73 193.332 170.808 193.888 167.111L194.518 164.241C194.686 163.558 194.847 162.889 195.11 162.234C195.804 162.983 196.398 163.957 196.861 164.865C198.478 163.605 201.583 163.803 203.585 163.731Z" fill="url(#paint1_linear_1008_17904)"/>
<path id="Vector_97" d="M202.347 177.462L202.48 177.182L202.545 177.43L202.69 177.426C202.985 177.419 203.237 177.377 203.491 177.551L203.613 177.43H204.041C204.146 177.671 204.101 177.803 204.005 178.04L202.546 180.967L202.41 180.919L202.354 180.91C202.469 179.76 202.414 178.614 202.347 177.462Z" fill="#9B3B08"/>
<path id="Vector_98" d="M194.518 164.241C194.686 163.558 194.847 162.889 195.11 162.234C195.804 162.983 196.398 163.957 196.861 164.865C198.614 167.81 200.383 170.585 201.488 173.867C201.702 174.504 201.913 175.191 202.045 175.85C202.152 176.384 202.175 176.945 202.347 177.462C202.414 178.614 202.469 179.76 202.353 180.91C201.612 182.947 200.489 184.456 199.328 186.257C197.123 183.965 195.148 181.312 193.943 178.356C192.644 174.73 193.332 170.808 193.888 167.111L194.518 164.241Z" fill="#F97316"/>
<path id="Vector_99" d="M234.273 83.2158C235.761 82.8577 237.113 82.7776 238.485 83.5952C239.618 84.2703 240.551 85.5412 240.812 86.8379C241.091 88.2231 240.795 89.7151 239.993 90.8791C239.119 92.1492 237.828 92.8281 236.341 93.0793L235.954 93.1411C234.771 92.9394 233.843 92.7014 232.838 92.0112L220.761 104.028C223.149 104.605 225.523 105.02 227.973 105.226C230.138 105.409 232.651 105.31 234.737 105.909C235.239 106.052 235.683 106.348 235.941 106.812C236.19 107.26 236.221 107.768 236.07 108.253C235.653 109.597 233.966 111.927 232.716 112.553C231.65 113.088 226.903 111.566 225.703 111.125C223.59 110.351 221.592 109.366 219.78 108.023C219.058 107.488 218.383 106.755 217.626 106.296L214.087 110.319L210.498 115.02C209.786 115.996 208.995 116.969 208.413 118.028L224.143 120.24C224.775 122.124 224.705 123.847 223.812 125.656C223.457 126.374 223.009 126.953 222.229 127.207C221.083 127.58 219.519 127.14 218.345 126.981L213.207 126.123C211.987 125.876 210.786 125.648 209.674 125.062C208.325 124.35 207.106 123.048 206.013 121.987C204.556 124.417 203.067 126.864 201.789 129.395C200.79 131.375 199.964 133.43 199.164 135.497L209.796 135.16C211.271 135.117 212.937 134.908 214.398 135.065C214.789 135.107 215.088 135.172 215.373 135.457C215.46 135.542 215.622 135.766 215.663 135.869C215.785 136.178 215.712 136.949 215.698 137.291L215.429 141.457C215.389 141.902 215.268 142.391 214.905 142.688C214.73 142.831 214.635 142.892 214.417 142.926C213.864 143.014 213.21 142.936 212.646 142.915L209.062 142.772C206.193 142.658 203.258 142.78 200.411 142.365C199.22 142.192 198.2 141.747 197.129 141.218C195.641 146.061 193.903 150.833 193.128 155.865L199.908 156.592C201.138 156.742 203.681 156.757 204.501 157.715C205.249 158.589 205.086 161.095 204.931 162.17C204.864 162.637 204.764 163.2 204.35 163.479C204.13 163.627 203.84 163.674 203.585 163.731C201.583 163.803 198.478 163.605 196.861 164.865C196.398 163.957 195.804 162.983 195.11 162.234C194.847 162.889 194.686 163.558 194.518 164.241L193.888 167.111C193.332 170.808 192.644 174.73 193.943 178.356C193.041 178.571 192.24 178.909 191.438 179.374C191.047 178.402 190.466 177.364 189.914 176.475L188.149 173.811C187.969 173.549 187.511 173.038 187.458 172.73C187.38 172.281 187.54 171.599 187.58 171.122L187.781 167.835L187.768 161.761L187.826 150.761L187.726 130.709L187.745 121.167C188.507 120.749 189.442 120.336 190.331 120.388C190.725 120.411 191.11 120.507 191.394 120.796C192.129 121.545 192.646 122.965 193.123 123.897L196.294 130.157C196.646 130.899 197.001 132.066 197.524 132.67L204.143 120.408C201.633 118.2 199.949 114.465 198.346 111.552L195.052 105.576C194.676 104.865 194.364 104.391 194.617 103.577C194.882 103.232 195.127 103.071 195.522 102.889C196.696 102.347 199.898 101.077 201.172 101.558C202.145 102.315 202.802 104.476 203.321 105.603C204.184 107.473 205.142 109.324 205.886 111.244C206.397 112.563 206.8 113.912 207.159 115.279L215.883 104.847C213.501 101.828 212.058 98.5347 210.635 94.999L208.761 90.2803C208.628 89.8994 208.481 89.3994 208.703 89.0249C209.273 88.0596 211.86 87.5139 212.89 87.2258C213.762 86.9817 214.573 86.7263 215.414 87.1987C216.025 87.8674 216.229 89.0425 216.481 89.8999C217.263 92.5513 217.951 95.2556 218.297 98.0019C218.462 99.3115 218.457 100.67 218.509 101.99L231.018 89.6719L230.914 89.1724C230.689 88.0889 230.782 86.9766 231.235 85.9641C231.859 84.5681 232.862 83.741 234.273 83.2158Z" fill="#0369A1"/>
<path id="Vector_100" d="M187.768 161.761C188.084 161.973 188.412 162.153 188.627 162.476L187.781 167.835L187.768 161.761Z" fill="#7DD3FC"/>
<path id="Vector_101" d="M193.888 167.111C192.242 169.521 191.572 172.645 189.707 174.906L191.259 163.159L194.518 164.241L193.888 167.111Z" fill="#7DD3FC"/>
<path id="Vector_102" d="M187.726 130.709C188.943 131.897 189.78 133.326 190.757 134.702C191.954 136.386 193.354 137.87 194.949 139.184L190.325 155.108L187.826 150.761L187.726 130.709Z" fill="#7DD3FC"/>
</g>
<defs>
<linearGradient id="paint0_linear_1008_17904" x1="102.913" y1="119.389" x2="116.023" y2="124.934" gradientUnits="userSpaceOnUse">
<stop stop-color="#003D72"/>
<stop offset="1" stop-color="#005490"/>
</linearGradient>
<linearGradient id="paint1_linear_1008_17904" x1="186.505" y1="184.452" x2="226.324" y2="153.556" gradientUnits="userSpaceOnUse">
<stop stop-color="#9E390A"/>
<stop offset="1" stop-color="#F96D10"/>
</linearGradient>
<clipPath id="clip0_1008_17904">
<rect width="250" height="250" fill="white"/>
</clipPath>
</defs>
</svg>
